<?xml version="1.0" encoding="utf-8"?>
<!-- Generator: Adobe Illustrator 24.3.0, SVG Export Plug-In . SVG Version: 6.00 Build 0)  -->
<svg version="1.1" id="Layer_1" xmlns="http://www.w3.org/2000/svg" xmlns:xlink="http://www.w3.org/1999/xlink" x="0px" y="0px"
	 viewBox="0 0 350 350" enable-background="new 0 0 350 350" xml:space="preserve">
<g>
	<path fill="#88E5D9" d="M224.006,250.266c-14.569,24.584-32.432,38.684-49.006,38.684s-34.436-14.1-49.006-38.684
		c-13.223-22.311-21.766-50.051-21.766-70.67c0-28.569,17.293-51.166,43.674-60.299c0.578-0.111,1.127-0.299,1.642-0.547
		c7.796-2.499,16.348-3.844,25.456-3.844s17.66,1.345,25.455,3.844c0.516,0.248,1.064,0.436,1.643,0.547
		c26.381,9.133,43.674,31.729,43.674,60.299C245.772,200.215,237.229,227.955,224.006,250.266z"/>
	<path fill="#6BD1C2" d="M202.098,119.297c-0.578-0.111-1.127-0.299-1.643-0.547c-7.795-2.499-16.347-3.844-25.455-3.844
		c-5.643,0-11.071,0.518-16.239,1.504c3.174,0.606,6.25,1.389,9.216,2.34c0.516,0.248,1.064,0.436,1.643,0.547
		c26.381,9.133,43.674,31.729,43.674,60.299c0,20.619-8.543,48.359-21.766,70.67c-9.884,16.676-21.283,28.527-32.767,34.426
		c5.444,2.797,10.908,4.258,16.239,4.258c16.574,0,34.437-14.1,49.006-38.684c13.223-22.311,21.766-50.051,21.766-70.67
		C245.772,151.026,228.479,128.43,202.098,119.297z"/>
	<path fill="#041C3F" d="M234.337,122.752c-6.908-6.16-14.936-11.079-23.734-14.643c1.167-6.453,4.567-14.531,9.587-22.555
		c3.018-4.822,6.072-8.756,8.826-11.73c1.62,0.678,3.396,1.053,5.259,1.053c7.546,0,13.685-6.139,13.685-13.684
		c0-7.545-6.139-13.684-13.685-13.684c-7.544,0-13.683,6.139-13.683,13.684c0,0.592,0.041,1.174,0.115,1.746
		c-5.719,5.779-10.258,12.652-11.998,15.434c-2.865,4.581-8.725,14.854-11.08,25.602c-7.238-1.721-14.832-2.611-22.629-2.611
		c-7.797,0-15.391,0.891-22.629,2.611c-2.357-10.748-8.215-21.021-11.08-25.602c-1.74-2.781-6.279-9.654-11.998-15.434
		c0.074-0.572,0.115-1.154,0.115-1.746c0-7.545-6.139-13.684-13.684-13.684s-13.684,6.139-13.684,13.684
		c0,7.545,6.139,13.684,13.684,13.684c1.863,0,3.64-0.375,5.26-1.053c2.754,2.975,5.809,6.908,8.826,11.73
		c5.02,8.023,8.421,16.101,9.587,22.555c-8.798,3.563-16.827,8.482-23.735,14.643c-16.105,14.361-24.977,34.549-24.977,56.844
		c0,22.875,9.287,53.324,23.658,77.574c17.32,29.225,38.862,45.32,60.656,45.32c21.794,0,43.335-16.096,60.656-45.32
		c14.371-24.25,23.658-54.699,23.658-77.574C259.314,157.301,250.443,137.113,234.337,122.752z M224.006,250.266
		c-14.569,24.584-32.432,38.684-49.006,38.684s-34.436-14.1-49.006-38.684c-13.223-22.311-21.766-50.051-21.766-70.67
		c0-28.569,17.293-51.166,43.674-60.299c0.578-0.111,1.127-0.299,1.642-0.547c7.796-2.499,16.348-3.844,25.456-3.844
		s17.66,1.345,25.455,3.844c0.516,0.248,1.064,0.436,1.643,0.547c26.381,9.133,43.674,31.729,43.674,60.299
		C245.772,200.215,237.229,227.955,224.006,250.266z"/>
	<path fill="#FF54A4" d="M194.395,203.432c0.674,0.029,1.396,0.047,2.158,0.047c0.001,0,0.001,0,0.002,0
		c4.795,0,13.565-0.729,18.437-5.6c4.993-4.994,5.823-14.236,5.573-20.58c-0.674-0.029-1.398-0.045-2.158-0.045
		c-4.796,0-13.568,0.727-18.44,5.598C194.973,187.846,194.144,197.088,194.395,203.432z"/>
	<path fill="#FF54A4" d="M129.436,177.299c-0.25,6.336,0.578,15.584,5.572,20.58c4.872,4.871,13.645,5.6,18.439,5.6
		c0.762,0,1.484-0.018,2.16-0.047c0.25-6.336-0.578-15.584-5.574-20.58c-4.871-4.871-13.645-5.598-18.439-5.598
		C130.833,177.254,130.109,177.27,129.436,177.299z"/>
	<path fill="#041C3F" d="M233.42,169.924c-0.493-2.808-2.691-5.006-5.5-5.498c-0.166-0.029-4.133-0.715-9.514-0.715
		c-8.416,0-20.109,1.66-28.016,9.566c-12.984,12.982-9.026,36.533-8.852,37.529c0.492,2.809,2.691,5.006,5.498,5.498
		c0.167,0.029,4.135,0.715,9.516,0.715c0.001,0,0.001,0,0.002,0c8.416,0,20.107-1.66,28.014-9.566
		C237.551,194.471,233.594,170.92,233.42,169.924z M214.991,197.879c-4.871,4.871-13.642,5.6-18.437,5.6c-0.001,0-0.001,0-0.002,0
		c-0.762,0-1.484-0.018-2.158-0.047c-0.251-6.344,0.578-15.586,5.571-20.58c4.872-4.871,13.645-5.598,18.44-5.598
		c0.76,0,1.484,0.016,2.158,0.045C220.814,183.643,219.984,192.885,214.991,197.879z"/>
	<path fill="#041C3F" d="M159.609,173.277c-7.906-7.906-19.599-9.566-28.016-9.566c-5.382,0-9.348,0.686-9.515,0.715
		c-2.808,0.492-5.006,2.69-5.499,5.498c-0.174,0.996-4.131,24.547,8.852,37.531c7.907,7.904,19.6,9.564,28.016,9.564
		c5.381,0,9.349-0.686,9.516-0.715c2.807-0.492,5.006-2.689,5.498-5.498C168.636,209.811,172.594,186.26,159.609,173.277z
		 M155.607,203.432c-0.676,0.029-1.398,0.047-2.16,0.047c-4.795,0-13.567-0.729-18.439-5.6c-4.994-4.996-5.822-14.244-5.572-20.58
		c0.674-0.029,1.398-0.045,2.158-0.045c4.795,0,13.568,0.727,18.439,5.598C155.029,187.848,155.857,197.096,155.607,203.432z"/>
	<path fill="#EF4198" d="M194.781,203.444c0.648-4.586,2.139-9.213,5.185-12.26c4.872-4.871,13.645-5.598,18.44-5.598
		c0.619,0,1.206,0.013,1.77,0.032c0.414-2.932,0.486-5.847,0.389-8.32c-0.674-0.029-1.398-0.045-2.158-0.045
		c-4.796,0-13.568,0.727-18.44,5.598c-4.993,4.994-5.822,14.236-5.571,20.58C194.52,203.438,194.653,203.439,194.781,203.444z"/>
	<path fill="#EF4198" d="M131.594,185.587c4.795,0,13.568,0.727,18.439,5.598c3.047,3.047,4.539,7.675,5.186,12.26
		c0.128-0.005,0.263-0.007,0.388-0.013c0.25-6.336-0.578-15.584-5.574-20.58c-4.871-4.871-13.645-5.598-18.439-5.598
		c-0.761,0-1.484,0.016-2.158,0.045c-0.098,2.472-0.026,5.388,0.388,8.32C130.387,185.6,130.974,185.587,131.594,185.587z"/>
	<g>
		<path fill="#041C3F" d="M197.514,259.326h-45.033c-3.74,0-6.771-3.031-6.771-6.771c0-3.738,3.031-6.77,6.771-6.77h45.033
			c3.74,0,6.771,3.031,6.771,6.77C204.285,256.295,201.254,259.326,197.514,259.326z"/>
	</g>
</g>
</svg>
