<?xml version="1.0" standalone="no"?>
<!DOCTYPE svg PUBLIC "-//W3C//DTD SVG 20010904//EN"
 "http://www.w3.org/TR/2001/REC-SVG-20010904/DTD/svg10.dtd">
<svg version="1.0" xmlns="http://www.w3.org/2000/svg"
 width="300.000000pt" height="300.000000pt" viewBox="0 0 300.000000 300.000000"
 preserveAspectRatio="xMidYMid meet">

<g transform="translate(0.000000,300.000000) scale(0.100000,-0.100000)"
fill="#000000" stroke="none">
<path d="M1180 2199 c-35 -14 -40 -26 -40 -107 l0 -72 -70 -66 c-86 -81 -141
-184 -160 -296 -15 -85 -8 -253 15 -367 33 -167 139 -546 158 -568 11 -13 45
-32 76 -44 47 -18 76 -21 184 -21 l127 1 0 -54 c0 -53 0 -53 -46 -80 -44 -26
-47 -26 -79 -11 -115 55 -225 -33 -225 -180 0 -49 5 -69 25 -98 20 -29 23 -41
15 -56 -16 -31 -31 -122 -24 -153 5 -26 8 -27 63 -27 l58 0 6 46 c2 25 10 51
17 57 10 10 11 0 8 -45 -4 -55 -3 -58 18 -58 32 0 40 51 24 154 -15 96 -11
130 13 134 32 6 51 -60 51 -180 l1 -108 288 0 287 0 0 52 c0 62 18 55 27 -11
l6 -41 70 0 70 0 -6 55 c-3 29 -17 77 -31 106 l-27 52 22 44 c25 53 29 142 7
193 -18 41 -63 89 -96 101 -39 15 -131 10 -162 -8 -27 -15 -31 -15 -78 5 -28
12 -57 22 -66 22 -10 0 -18 18 -26 55 -6 31 -10 61 -8 67 2 6 62 30 133 54 71
24 133 48 139 54 6 6 6 58 -2 157 -7 82 -17 213 -22 293 -30 445 -42 522 -100
644 -69 146 -170 216 -322 224 l-88 4 0 44 0 44 -102 -1 c-57 0 -114 -5 -128
-10z m88 -300 c-2 -12 -11 -27 -20 -33 -23 -14 -52 3 -56 33 -3 19 1 21 38 21
37 0 41 -2 38 -21z m-110 -21 c21 -21 13 -57 -27 -124 -22 -36 -43 -79 -46
-94 -6 -26 -11 -29 -53 -32 -43 -3 -47 -5 -50 -31 -4 -34 10 -52 59 -78 33
-16 39 -25 50 -74 16 -73 5 -109 -35 -113 -45 -6 -73 29 -92 116 -20 89 -15
209 12 290 25 75 95 152 138 152 18 0 37 -5 44 -12z m25 -1448 c-15 -27 -30
-45 -31 -39 -4 10 44 89 54 89 3 0 -7 -22 -23 -50z m197 -61 c0 -19 -25 -37
-36 -26 -3 2 -2 16 1 30 8 30 35 26 35 -4z m-206 -97 c21 -41 14 -54 -9 -18
-10 15 -19 48 -21 74 -3 42 -2 43 5 12 4 -19 15 -50 25 -68z"/>
</g>
</svg>
