<?xml version="1.0" encoding="UTF-8"?>
<!DOCTYPE svg PUBLIC "-//W3C//DTD SVG 1.1//EN" "http://www.w3.org/Graphics/SVG/1.1/DTD/svg11.dtd">
<svg xmlns="http://www.w3.org/2000/svg" version="1.1" width="300px" height="300px" style="shape-rendering:geometricPrecision; text-rendering:geometricPrecision; image-rendering:optimizeQuality; fill-rule:evenodd; clip-rule:evenodd" xmlns:xlink="http://www.w3.org/1999/xlink">
<g><path style="opacity:0.008" fill="#3d705f" d="M 171.5,37.5 C 175.646,36.353 179.98,36.1864 184.5,37C 180.179,37.499 175.846,37.6657 171.5,37.5 Z"/></g>
<g><path style="opacity:0.012" fill="#404040" d="M 157.5,40.5 C 158.251,39.4265 159.251,39.2599 160.5,40C 159.552,40.4828 158.552,40.6495 157.5,40.5 Z"/></g>
<g><path style="opacity:0.016" fill="#505b4a" d="M 188.5,51.5 C 188.167,51.5 187.833,51.5 187.5,51.5C 187.833,44.8333 188.167,44.8333 188.5,51.5 Z"/></g>
<g><path style="opacity:0.012" fill="#657d5a" d="M 188.5,51.5 C 189.622,53.2884 189.789,55.2884 189,57.5C 188.505,55.5273 188.338,53.5273 188.5,51.5 Z"/></g>
<g><path style="opacity:0.012" fill="#393939" d="M 120.5,54.5 C 120.897,53.475 121.563,53.3083 122.5,54C 121.906,54.4643 121.239,54.631 120.5,54.5 Z"/></g>
<g><path style="opacity:0.004" fill="#00ff00" d="M 186.5,58.5 C 187.833,59.1667 187.833,59.1667 186.5,58.5 Z"/></g>
<g><path style="opacity:0.016" fill="#464646" d="M 181.5,60.5 C 181.5,60.1667 181.5,59.8333 181.5,59.5C 183.167,59.5 184.833,59.5 186.5,59.5C 185.081,60.4511 183.415,60.7845 181.5,60.5 Z"/></g>
<g><path style="opacity:0.012" fill="#4c4932" d="M 178.5,61.5 C 178.5,61.1667 178.5,60.8333 178.5,60.5C 179.5,60.5 180.5,60.5 181.5,60.5C 180.791,61.404 179.791,61.7373 178.5,61.5 Z"/></g>
<g><path style="opacity:0.008" fill="#827e5d" d="M 176.5,62.5 C 176.5,62.1667 176.5,61.8333 176.5,61.5C 177.167,61.5 177.833,61.5 178.5,61.5C 178.158,62.3382 177.492,62.6716 176.5,62.5 Z"/></g>
<g><path style="opacity:0.02" fill="#336665" d="M 175.5,62.5 C 175.833,62.5 176.167,62.5 176.5,62.5C 176.315,63.1701 175.981,63.1701 175.5,62.5 Z"/></g>
<g><path style="opacity:0.008" fill="#5b6065" d="M 57.5,67.5 C 61.3112,66.3547 65.3112,66.1881 69.5,67C 65.5138,67.4988 61.5138,67.6655 57.5,67.5 Z"/></g>
<g><path style="opacity:0.012" fill="#434a41" d="M 70.5,68.5 C 72.6282,67.3709 74.9615,67.2042 77.5,68C 75.1902,68.4966 72.8568,68.6633 70.5,68.5 Z"/></g>
<g><path style="opacity:0.004" fill="#322a2e" d="M 201.5,70.5 C 203.07,69.4407 204.403,69.9407 205.5,72C 204.906,72.4643 204.239,72.631 203.5,72.5C 203.5,71.8333 203.167,71.5 202.5,71.5C 202.5,70.8333 202.167,70.5 201.5,70.5 Z"/></g>
<g><path style="opacity:1" fill="#4c5c55" d="M 89.5,72.5 C 78.8399,71.7336 68.1733,71.5669 57.5,72C 54.3139,78.7412 51.6473,85.5745 49.5,92.5C 49.4669,87.8988 50.1335,83.3988 51.5,79C 50.4589,74.8843 51.6256,71.3843 55,68.5C 59.6917,68.5013 64.5251,68.668 69.5,69C 76.4077,69.5777 83.0744,70.7444 89.5,72.5 Z"/></g>
<g><path style="opacity:1" fill="#2f9137" d="M 89.5,72.5 C 89.8333,72.5 90.1667,72.5 90.5,72.5C 77.2981,81.4538 63.9647,90.4538 50.5,99.5C 49.5258,97.2573 49.1924,94.924 49.5,92.5C 51.6473,85.5745 54.3139,78.7412 57.5,72C 68.1733,71.5669 78.8399,71.7336 89.5,72.5 Z"/></g>
<g><path style="opacity:0.012" fill="#656565" d="M 230.5,107.5 C 230.5,107.167 230.5,106.833 230.5,106.5C 234.5,106.833 234.5,107.167 230.5,107.5 Z"/></g>
<g><path style="opacity:0.004" fill="#4a3635" d="M 246.5,118.5 C 246.56,117.957 246.893,117.624 247.5,117.5C 248.773,118.257 248.773,118.923 247.5,119.5C 247.5,118.833 247.167,118.5 246.5,118.5 Z"/></g>
<g><path style="opacity:0.004" fill="#32462e" d="M 37.5,116.5 C 37.8333,116.5 38.1667,116.5 38.5,116.5C 38.5,117.833 38.5,119.167 38.5,120.5C 37.5655,119.432 37.2322,118.099 37.5,116.5 Z"/></g>
<g><path style="opacity:0.016" fill="#54596a" d="M 38.5,120.5 C 38.8333,120.5 39.1667,120.5 39.5,120.5C 39.5,121.833 39.5,123.167 39.5,124.5C 38.5655,123.432 38.2322,122.099 38.5,120.5 Z"/></g>
<g><path style="opacity:1" fill="#cfcfcf" d="M 43.5,137.5 C 41.9382,137.733 40.6049,138.4 39.5,139.5C 39.1667,138.167 38.8333,138.167 38.5,139.5C 37.9569,139.44 37.6236,139.107 37.5,138.5C 38.1359,136.22 39.1359,134.22 40.5,132.5C 40.8333,135.167 41.1667,135.167 41.5,132.5C 41.8333,132.5 42.1667,132.5 42.5,132.5C 43.6266,131.878 44.6266,131.045 45.5,130C 52.5,129.333 59.5,129.333 66.5,130C 67.1667,130.333 67.8333,130.667 68.5,131C 66.5,131.333 64.5,131.667 62.5,132C 66.211,132.175 69.8776,132.675 73.5,133.5C 75.839,137.184 77.1723,141.184 77.5,145.5C 73.0848,145.305 68.7514,145.805 64.5,147C 67.5,147.333 70.5,147.667 73.5,148C 75.9306,148.295 77.764,149.462 79,151.5C 79.8283,156.202 79.6616,160.869 78.5,165.5C 77.2054,166.098 75.8721,166.598 74.5,167C 76.5767,167.192 78.5767,167.692 80.5,168.5C 79.0175,179.478 72.6842,184.978 61.5,185C 65.0286,185.622 68.5286,185.455 72,184.5C 72.8333,184.833 73.6667,185.167 74.5,185.5C 73.289,187.422 71.9557,189.255 70.5,191C 63.8333,191.667 57.1667,191.667 50.5,191C 49.7402,189.559 49.0736,188.059 48.5,186.5C 53.3286,183.856 56.4952,179.856 58,174.5C 62.9792,160.642 60.8126,148.142 51.5,137C 48.587,134.909 45.9203,135.076 43.5,137.5 Z"/></g>
<g><path style="opacity:1" fill="#db924a" d="M 244.5,117.5 C 245.167,117.833 245.833,118.167 246.5,118.5C 246.5,118.833 246.5,119.167 246.5,119.5C 250.189,124.553 252.522,130.219 253.5,136.5C 252.989,142.54 250.822,147.873 247,152.5C 245.559,144.857 244.226,137.19 243,129.5C 241.304,125.275 239.471,121.108 237.5,117C 237.833,116.5 238.167,116 238.5,115.5C 240.45,116.372 242.45,117.039 244.5,117.5 Z"/></g>
<g><path style="opacity:1" fill="#fca34c" d="M 43.5,137.5 C 45.2091,137.608 47.2091,137.775 49.5,138C 50.8825,139.271 51.8825,140.771 52.5,142.5C 53.9636,151.86 53.7969,161.193 52,170.5C 49.5134,175.827 45.3468,178.16 39.5,177.5C 31.0723,171.043 28.5723,162.71 32,152.5C 33.8599,148.78 35.6932,145.114 37.5,141.5C 37.8333,140.833 38.1667,140.167 38.5,139.5C 38.8333,139.5 39.1667,139.5 39.5,139.5C 40.6049,138.4 41.9382,137.733 43.5,137.5 Z"/></g>
<g><path style="opacity:0.012" fill="#414141" d="M 256.5,143.5 C 256.335,140.482 256.502,137.482 257,134.5C 257.805,137.696 257.638,140.696 256.5,143.5 Z"/></g>
<g><path style="opacity:0.012" fill="#626262" d="M 254.5,146.5 C 254.833,146.5 255.167,146.5 255.5,146.5C 255.672,147.492 255.338,148.158 254.5,148.5C 254.5,147.833 254.5,147.167 254.5,146.5 Z"/></g>
<g><path style="opacity:0.012" fill="#545554" d="M 251.5,151.5 C 251.833,151.5 252.167,151.5 252.5,151.5C 252.315,152.17 251.981,152.17 251.5,151.5 Z"/></g>
<g><path style="opacity:1" fill="#505552" d="M 187.5,51.5 C 187.702,53.9496 187.369,56.283 186.5,58.5C 184.585,58.2155 182.919,58.5489 181.5,59.5C 180.209,59.2627 179.209,59.596 178.5,60.5C 177.508,60.3284 176.842,60.6618 176.5,61.5C 175.833,61.5 175.5,61.8333 175.5,62.5C 174.167,62.8333 174.167,63.1667 175.5,63.5C 175.218,64.7777 174.551,65.7777 173.5,66.5C 172.596,67.209 172.263,68.209 172.5,69.5C 175.713,69.81 178.713,69.4767 181.5,68.5C 185.134,67.6031 188.634,66.2698 192,64.5C 195.432,66.1296 198.598,68.1296 201.5,70.5C 202.167,70.5 202.5,70.8333 202.5,71.5C 203.167,71.5 203.5,71.8333 203.5,72.5C 204.688,73.3636 205.855,74.3636 207,75.5C 208.937,75.179 210.437,76.179 211.5,78.5C 211.291,79.086 210.957,79.586 210.5,80C 211.743,82.0338 213.243,82.8671 215,82.5C 215.617,83.4491 215.451,84.2825 214.5,85C 218.082,86.7431 220.748,89.9098 222.5,94.5C 222.167,95.1667 221.833,95.8333 221.5,96.5C 223,99.5 224.5,102.5 226,105.5C 226.333,104.833 226.667,104.167 227,103.5C 227.985,104.814 229.152,105.814 230.5,106.5C 225.167,106.833 225.167,107.167 230.5,107.5C 233.34,108.082 235.673,109.582 237.5,112C 236.833,112.333 236.167,112.667 235.5,113C 238.859,114.047 241.859,115.547 244.5,117.5C 242.45,117.039 240.45,116.372 238.5,115.5C 238.167,116 237.833,116.5 237.5,117C 239.471,121.108 241.304,125.275 243,129.5C 244.226,137.19 245.559,144.857 247,152.5C 250.822,147.873 252.989,142.54 253.5,136.5C 252.522,130.219 250.189,124.553 246.5,119.5C 246.833,119.5 247.167,119.5 247.5,119.5C 248.542,121.791 250.042,122.791 252,122.5C 253,124.5 254,126.5 255,128.5C 254.735,133.609 255.235,138.609 256.5,143.5C 256.737,144.791 256.404,145.791 255.5,146.5C 255.167,143.833 254.833,143.833 254.5,146.5C 253.167,147.167 253.167,147.833 254.5,148.5C 254.573,150.027 253.906,151.027 252.5,151.5C 252.167,150.167 251.833,150.167 251.5,151.5C 250.167,151.833 250.167,152.167 251.5,152.5C 250.209,156.052 248.542,159.386 246.5,162.5C 246.167,161.167 245.833,161.167 245.5,162.5C 244.833,162.5 244.5,162.833 244.5,163.5C 243.167,163.833 243.167,164.167 244.5,164.5C 242.491,168.986 241.491,173.819 241.5,179C 242.193,184.815 242.526,190.648 242.5,196.5C 241.833,196.5 241.5,196.833 241.5,197.5C 240.833,197.5 240.5,197.833 240.5,198.5C 239.833,198.5 239.5,198.833 239.5,199.5C 238.833,199.5 238.5,199.833 238.5,200.5C 237.833,200.5 237.5,200.833 237.5,201.5C 236.833,201.5 236.5,201.833 236.5,202.5C 235.167,202.833 235.167,203.167 236.5,203.5C 236.027,204.906 235.027,205.573 233.5,205.5C 233.167,204.167 232.833,204.167 232.5,205.5C 231.833,205.5 231.5,205.833 231.5,206.5C 230.508,206.328 229.842,206.662 229.5,207.5C 228.833,207.5 228.5,207.833 228.5,208.5C 227.833,208.5 227.5,208.833 227.5,209.5C 226.833,209.5 226.5,209.833 226.5,210.5C 225.508,210.328 224.842,210.662 224.5,211.5C 223.833,211.5 223.5,211.833 223.5,212.5C 222.167,212.833 222.167,213.167 223.5,213.5C 223.158,214.338 222.492,214.672 221.5,214.5C 221.167,213.167 220.833,213.167 220.5,214.5C 219.508,214.328 218.842,214.662 218.5,215.5C 217.833,215.5 217.5,215.833 217.5,216.5C 216.508,216.328 215.842,216.662 215.5,217.5C 214.508,217.328 213.842,217.662 213.5,218.5C 212.508,218.328 211.842,218.662 211.5,219.5C 210.209,219.263 209.209,219.596 208.5,220.5C 207.209,220.263 206.209,220.596 205.5,221.5C 203.901,221.232 202.568,221.566 201.5,222.5C 199.102,222.259 197.102,222.926 195.5,224.5C 193.585,224.216 191.919,224.549 190.5,225.5C 188.585,225.216 186.919,225.549 185.5,226.5C 182.941,226.198 180.607,226.532 178.5,227.5C 164.328,227.838 150.328,228.504 136.5,229.5C 123.236,228.597 109.903,227.93 96.5,227.5C 87.8595,226.22 79.1929,224.387 70.5,222C 68.1192,221.777 66.4525,220.61 65.5,218.5C 64.603,219.598 63.7697,219.598 63,218.5C 61.7978,216.323 61.2978,213.989 61.5,211.5C 62.8333,210.5 62.8333,209.5 61.5,208.5C 61.7678,206.901 61.4345,205.568 60.5,204.5C 60.1667,200.5 59.8333,200.5 59.5,204.5C 58.469,202.039 57.8023,199.373 57.5,196.5C 55.901,196.768 54.5676,196.434 53.5,195.5C 55.1992,195.66 56.8659,195.494 58.5,195C 54.9495,194.216 51.4495,193.383 48,192.5C 47.6667,192.833 47.3333,193.167 47,193.5C 45.3742,191.083 43.8742,188.583 42.5,186C 43.1667,185.667 43.8333,185.333 44.5,185C 42.2068,183.305 39.8734,182.638 37.5,183C 36.6667,179.5 34.5,177.333 31,176.5C 29.0073,174.182 27.8406,171.516 27.5,168.5C 28.8333,163.833 28.8333,159.167 27.5,154.5C 28.176,150.813 29.676,147.48 32,144.5C 33.9935,144.462 35.8268,143.462 37.5,141.5C 35.6932,145.114 33.8599,148.78 32,152.5C 28.5723,162.71 31.0723,171.043 39.5,177.5C 42.5121,181.502 46.5121,183.002 51.5,182C 58.2346,172.429 60.0679,161.929 57,150.5C 55.7258,147.609 54.2258,144.942 52.5,142.5C 51.8825,140.771 50.8825,139.271 49.5,138C 47.2091,137.775 45.2091,137.608 43.5,137.5C 45.9203,135.076 48.587,134.909 51.5,137C 60.8126,148.142 62.9792,160.642 58,174.5C 56.4952,179.856 53.3286,183.856 48.5,186.5C 49.0736,188.059 49.7402,189.559 50.5,191C 57.1667,191.667 63.8333,191.667 70.5,191C 71.9557,189.255 73.289,187.422 74.5,185.5C 73.6667,185.167 72.8333,184.833 72,184.5C 68.5286,185.455 65.0286,185.622 61.5,185C 72.6842,184.978 79.0175,179.478 80.5,168.5C 78.5767,167.692 76.5767,167.192 74.5,167C 75.8721,166.598 77.2054,166.098 78.5,165.5C 79.6616,160.869 79.8283,156.202 79,151.5C 77.764,149.462 75.9306,148.295 73.5,148C 70.5,147.667 67.5,147.333 64.5,147C 68.7514,145.805 73.0848,145.305 77.5,145.5C 77.1723,141.184 75.839,137.184 73.5,133.5C 69.8776,132.675 66.211,132.175 62.5,132C 64.5,131.667 66.5,131.333 68.5,131C 67.8333,130.667 67.1667,130.333 66.5,130C 59.5,129.333 52.5,129.333 45.5,130C 44.6266,131.045 43.6266,131.878 42.5,132.5C 42.1667,131.167 41.8333,131.167 41.5,132.5C 41.1667,132.5 40.8333,132.5 40.5,132.5C 40.1667,129.833 39.8333,127.167 39.5,124.5C 40.8333,123.167 40.8333,121.833 39.5,120.5C 39.7678,118.901 39.4345,117.568 38.5,116.5C 38.1667,112.5 37.8333,112.5 37.5,116.5C 35.9236,113.772 35.4236,110.772 36,107.5C 37.0084,107.018 38.175,106.852 39.5,107C 42.1667,105 44.8333,103 47.5,101C 46.8333,100.667 46.1667,100.333 45.5,100C 46.2744,97.595 46.7744,95.095 47,92.5C 47.3333,94.5 47.6667,96.5 48,98.5C 48.1909,96.2922 48.6909,94.2922 49.5,92.5C 49.1924,94.924 49.5258,97.2573 50.5,99.5C 63.9647,90.4538 77.2981,81.4538 90.5,72.5C 113.78,57.8638 138.78,47.0304 165.5,40C 171.813,38.4752 178.146,38.3085 184.5,39.5C 185.297,43.669 186.297,47.669 187.5,51.5 Z M 173.5,66.5 C 175.635,68.369 178.302,69.0356 181.5,68.5C 178.713,69.4767 175.713,69.81 172.5,69.5C 172.263,68.209 172.596,67.209 173.5,66.5 Z M 174.5,72.5 C 178.16,72.1588 181.493,72.8255 184.5,74.5C 180.96,74.2474 177.627,73.5808 174.5,72.5 Z M 174.5,72.5 C 173.637,73.463 172.97,73.463 172.5,72.5C 173.257,71.2267 173.923,71.2267 174.5,72.5 Z"/></g>
<g><path style="opacity:1" fill="#cc8540" d="M 52.5,142.5 C 54.2258,144.942 55.7258,147.609 57,150.5C 60.0679,161.929 58.2346,172.429 51.5,182C 46.5121,183.002 42.5121,181.502 39.5,177.5C 45.3468,178.16 49.5134,175.827 52,170.5C 53.7969,161.193 53.9636,151.86 52.5,142.5 Z"/></g>
<g><path style="opacity:1" fill="#fff9f4" d="M 38.5,147.5 C 42.1612,147.35 43.1612,148.85 41.5,152C 37.7071,152.487 36.7071,150.987 38.5,147.5 Z"/></g>
<g><path style="opacity:1" fill="#2f9236" d="M 232.5,143.5 C 237.428,160.494 239.594,177.827 239,195.5C 231.589,201.122 224.089,206.622 216.5,212C 197.514,219.329 177.848,223.662 157.5,225C 126.477,227.243 95.8104,225.077 65.5,218.5C 63.9735,210.201 62.3069,201.868 60.5,193.5C 64.1817,193.665 67.8484,193.499 71.5,193C 81.0572,179.589 84.0572,164.755 80.5,148.5C 85.3142,147.756 90.1476,147.089 95,146.5C 99.1888,146.813 103.356,147.313 107.5,148C 117.154,151.274 126.821,154.44 136.5,157.5C 139.841,159.5 143.507,160.5 147.5,160.5C 152.401,162.052 157.568,162.719 163,162.5C 168.183,162.383 173.349,162.05 178.5,161.5C 180.455,161.276 182.121,160.609 183.5,159.5C 182.959,162.652 183.959,165.152 186.5,167C 191.262,167.477 195.929,166.977 200.5,165.5C 200.662,163.473 200.495,161.473 200,159.5C 198.989,158.663 197.822,158.33 196.5,158.5C 197.058,157.21 198.058,156.377 199.5,156C 210.847,152.718 221.847,148.551 232.5,143.5 Z"/></g>
<g><path style="opacity:0.799" fill="#63ae69" d="M 227.5,125.5 C 229.773,131.252 231.44,137.252 232.5,143.5C 221.847,148.551 210.847,152.718 199.5,156C 198.058,156.377 197.058,157.21 196.5,158.5C 192.666,156.834 188.666,156.334 184.5,157C 183.748,157.671 183.414,158.504 183.5,159.5C 182.121,160.609 180.455,161.276 178.5,161.5C 173.349,162.05 168.183,162.383 163,162.5C 157.568,162.719 152.401,162.052 147.5,160.5C 156.857,156.824 161.523,149.824 161.5,139.5C 161.297,136.803 160.964,134.136 160.5,131.5C 174.217,131.692 187.883,131.026 201.5,129.5C 201.263,128.209 201.596,127.209 202.5,126.5C 202.063,131.412 202.896,136.078 205,140.5C 208.277,146.109 213.11,147.942 219.5,146C 223.209,143.291 225.543,139.791 226.5,135.5C 227.406,134.644 228.073,132.977 228.5,130.5C 227.691,128.929 227.357,127.262 227.5,125.5 Z"/></g>
<g><path style="opacity:1" fill="#70726e" d="M 226.5,135.5 C 225.543,139.791 223.209,143.291 219.5,146C 213.11,147.942 208.277,146.109 205,140.5C 202.896,136.078 202.063,131.412 202.5,126.5C 205.575,118.296 211.241,115.463 219.5,118C 224.632,122.676 226.965,128.509 226.5,135.5 Z"/></g>
<g><path style="opacity:0.831" fill="#5daa63" d="M 131.5,128.5 C 127.663,139.12 129.33,148.787 136.5,157.5C 126.821,154.44 117.154,151.274 107.5,148C 103.356,147.313 99.1888,146.813 95,146.5C 90.1476,147.089 85.3142,147.756 80.5,148.5C 79.6229,142.098 77.6229,136.098 74.5,130.5C 76.1026,131.677 77.436,131.511 78.5,130C 85.363,128.739 92.1963,127.572 99,126.5C 105.442,126.698 112.109,126.698 119,126.5C 123.164,127.197 127.33,127.863 131.5,128.5 Z"/></g>
<g><path style="opacity:1" fill="#e3c65f" d="M 209.5,121.5 C 214.732,120.531 218.232,122.531 220,127.5C 221.055,132.687 220.222,137.52 217.5,142C 210.647,144.478 206.814,141.978 206,134.5C 204.834,129.51 206,125.177 209.5,121.5 Z"/></g>
<g><path style="opacity:1" fill="#c3c3c3" d="M 224.5,112.5 C 224.5,111.5 224.5,110.5 224.5,109.5C 227.685,109.02 230.519,109.686 233,111.5C 242.018,126.587 245.685,142.92 244,160.5C 238.307,164.987 236.474,163.654 238.5,156.5C 243.262,154.065 243.262,152.565 238.5,152C 236.328,149.507 235.494,146.674 236,143.5C 237.205,142.929 238.372,142.262 239.5,141.5C 234.36,138.795 232.027,134.461 232.5,128.5C 234.103,128.688 235.437,128.188 236.5,127C 228.204,126.084 226.537,122.418 231.5,116C 228.608,115.751 226.275,114.584 224.5,112.5 Z"/></g>
<g><path style="opacity:0.012" fill="#555c52" d="M 173.5,66.5 C 176.28,67.0784 178.947,67.7451 181.5,68.5C 178.302,69.0356 175.635,68.369 173.5,66.5 Z"/></g>
<g><path style="opacity:0.998" fill="#329439" d="M 224.5,112.5 C 225.656,116.793 226.656,121.126 227.5,125.5C 227.357,127.262 227.691,128.929 228.5,130.5C 228.073,132.977 227.406,134.644 226.5,135.5C 226.965,128.509 224.632,122.676 219.5,118C 211.241,115.463 205.575,118.296 202.5,126.5C 201.596,127.209 201.263,128.209 201.5,129.5C 187.883,131.026 174.217,131.692 160.5,131.5C 156.713,121.938 149.713,118.105 139.5,120C 135.952,122.047 133.285,124.88 131.5,128.5C 127.33,127.863 123.164,127.197 119,126.5C 112.109,126.698 105.442,126.698 99,126.5C 92.1963,127.572 85.363,128.739 78.5,130C 77.436,131.511 76.1026,131.677 74.5,130.5C 72.8113,129.069 70.8113,128.236 68.5,128C 60.4647,127.264 52.4647,127.431 44.5,128.5C 42.3649,121.969 41.1983,115.303 41,108.5C 70.132,86.0045 101.632,67.1712 135.5,52C 144.964,48.0675 154.631,44.7342 164.5,42C 170.471,40.869 176.471,40.5356 182.5,41C 183.943,45.7167 184.943,50.55 185.5,55.5C 176.594,56.2332 171.261,61.0666 169.5,70C 170.757,78.2521 175.424,81.2521 183.5,79C 188.413,76.7106 191.579,72.8772 193,67.5C 195.4,68.3978 196.9,70.0645 197.5,72.5C 195.985,75.8312 194.818,79.1645 194,82.5C 196.062,80.0993 197.729,77.4326 199,74.5C 199.718,73.5494 200.551,73.3828 201.5,74C 212.342,84.9922 220.008,97.8255 224.5,112.5 Z M 174.5,72.5 C 178.16,72.1588 181.493,72.8255 184.5,74.5C 180.96,74.2474 177.627,73.5808 174.5,72.5 Z M 174.5,72.5 C 173.923,71.2267 173.257,71.2267 172.5,72.5C 172.97,73.463 173.637,73.463 174.5,72.5 Z"/></g>
<g><path style="opacity:0.998" fill="#6e6f6e" d="M 130.5,101.5 C 141.62,103.151 152.287,106.318 162.5,111C 152.949,112.785 143.449,114.619 134,116.5C 131.427,111.871 130.26,106.871 130.5,101.5 Z"/></g>
<g><path style="opacity:0.997" fill="#6d706d" d="M 213.5,98.5 C 214.5,98.5 215.5,98.5 216.5,98.5C 216.5,101.833 216.5,105.167 216.5,108.5C 209.822,108.881 203.156,109.048 196.5,109C 202.566,105.976 208.232,102.476 213.5,98.5 Z"/></g>
<g><path style="opacity:1" fill="#48644a" d="M 166.5,82.5 C 169.781,85.1475 173.448,87.3142 177.5,89C 180.877,89.3685 184.21,89.3685 187.5,89C 178.894,92.0304 171.894,89.8637 166.5,82.5 Z"/></g>
<g><path style="opacity:1" fill="#48654a" d="M 166.5,82.5 C 159.672,75.5384 158.839,67.8717 164,59.5C 161.403,67.5239 162.236,75.1906 166.5,82.5 Z"/></g>
<g><path style="opacity:0.999" fill="#6e6f6d" d="M 160.5,131.5 C 160.964,134.136 161.297,136.803 161.5,139.5C 161.523,149.824 156.857,156.824 147.5,160.5C 143.507,160.5 139.841,159.5 136.5,157.5C 129.33,148.787 127.663,139.12 131.5,128.5C 133.285,124.88 135.952,122.047 139.5,120C 149.713,118.105 156.713,121.938 160.5,131.5 Z"/></g>
<g><path style="opacity:1" fill="#e4c760" d="M 140.5,124.5 C 147.573,124.292 152.073,127.626 154,134.5C 155.895,142.136 154.061,148.636 148.5,154C 141.247,155.453 136.414,152.619 134,145.5C 131.768,137.003 133.935,130.003 140.5,124.5 Z"/></g>
<g><path style="opacity:1" fill="#ffefe0" d="M 37.5,157.5 C 37.775,163.32 39.4417,168.82 42.5,174C 42.1667,174.5 41.8333,175 41.5,175.5C 39.1322,174.631 37.6322,172.965 37,170.5C 36.2316,166.08 36.3982,161.747 37.5,157.5 Z"/></g>
<g><path style="opacity:0.008" fill="#000000" d="M 245.5,162.5 C 245.833,162.5 246.167,162.5 246.5,162.5C 246.315,163.17 245.981,163.17 245.5,162.5 Z"/></g>
<g><path style="opacity:0.012" fill="#686868" d="M 27.5,154.5 C 27.5,159.167 27.5,163.833 27.5,168.5C 26.1667,163.833 26.1667,159.167 27.5,154.5 Z"/></g>
<g><path style="opacity:0.008" fill="#7e7f7e" d="M 244.5,163.5 C 244.833,163.5 245.167,163.5 245.5,163.5C 245.315,164.17 244.981,164.17 244.5,163.5 Z"/></g>
<g><path style="opacity:0.998" fill="#9c9f9c" d="M 196.5,158.5 C 197.822,158.33 198.989,158.663 200,159.5C 200.495,161.473 200.662,163.473 200.5,165.5C 195.929,166.977 191.262,167.477 186.5,167C 183.959,165.152 182.959,162.652 183.5,159.5C 183.414,158.504 183.748,157.671 184.5,157C 188.666,156.334 192.666,156.834 196.5,158.5 Z"/></g>
<g><path style="opacity:0.012" fill="#515757" d="M 243.5,196.5 C 243.334,192.486 243.501,188.486 244,184.5C 244.812,188.689 244.645,192.689 243.5,196.5 Z"/></g>
<g><path style="opacity:0.012" fill="#7d7d7d" d="M 53.5,195.5 C 51.8008,195.66 50.1341,195.494 48.5,195C 50.3869,194.22 52.0536,194.387 53.5,195.5 Z"/></g>
<g><path style="opacity:0.008" fill="#7e7f7e" d="M 242.5,196.5 C 242.833,196.5 243.167,196.5 243.5,196.5C 243.315,197.17 242.981,197.17 242.5,196.5 Z"/></g>
<g><path style="opacity:0.016" fill="#3e3f3e" d="M 241.5,197.5 C 241.833,197.5 242.167,197.5 242.5,197.5C 242.315,198.17 241.981,198.17 241.5,197.5 Z"/></g>
<g><path style="opacity:0.996" fill="#f3c65d" d="M 221.5,174.5 C 224.233,174.196 225.899,175.363 226.5,178C 224.053,180.557 221.053,182.057 217.5,182.5C 217.66,184.199 217.494,185.866 217,187.5C 214.667,188.833 212.333,190.167 210,191.5C 209.506,193.134 209.34,194.801 209.5,196.5C 206.5,197.167 203.5,197.833 200.5,198.5C 200.5,200.5 200.5,202.5 200.5,204.5C 194.808,205.372 189.141,206.372 183.5,207.5C 183.5,206.5 183.5,205.5 183.5,204.5C 178.13,204.392 172.797,204.725 167.5,205.5C 167.5,204.167 167.5,202.833 167.5,201.5C 162.5,201.5 157.5,201.5 152.5,201.5C 152.5,199.833 152.5,198.167 152.5,196.5C 148.176,196.073 143.842,195.739 139.5,195.5C 139.5,193.5 139.5,191.5 139.5,189.5C 144.179,189.334 148.845,189.501 153.5,190C 154.406,191.699 154.739,193.533 154.5,195.5C 158.514,195.334 162.514,195.501 166.5,196C 167.337,197.011 167.67,198.178 167.5,199.5C 172.507,199.249 177.507,198.916 182.5,198.5C 182.5,199.5 182.5,200.5 182.5,201.5C 188.195,200.66 193.861,199.66 199.5,198.5C 199.261,196.533 199.594,194.699 200.5,193C 203.022,191.659 205.689,190.826 208.5,190.5C 207.979,186.078 209.979,183.745 214.5,183.5C 215.76,181.647 215.76,179.814 214.5,178C 216.858,176.724 219.192,175.558 221.5,174.5 Z"/></g>
<g><path style="opacity:0.016" fill="#3e3f3e" d="M 240.5,198.5 C 240.833,198.5 241.167,198.5 241.5,198.5C 241.315,199.17 240.981,199.17 240.5,198.5 Z"/></g>
<g><path style="opacity:0.016" fill="#3e3f3e" d="M 239.5,199.5 C 239.833,199.5 240.167,199.5 240.5,199.5C 240.315,200.17 239.981,200.17 239.5,199.5 Z"/></g>
<g><path style="opacity:0.016" fill="#3e3f3e" d="M 238.5,200.5 C 238.833,200.5 239.167,200.5 239.5,200.5C 239.315,201.17 238.981,201.17 238.5,200.5 Z"/></g>
<g><path style="opacity:0.016" fill="#3e3f3e" d="M 237.5,201.5 C 237.833,201.5 238.167,201.5 238.5,201.5C 238.315,202.17 237.981,202.17 237.5,201.5 Z"/></g>
<g><path style="opacity:0.012" fill="#545554" d="M 236.5,202.5 C 236.833,202.5 237.167,202.5 237.5,202.5C 237.315,203.17 236.981,203.17 236.5,202.5 Z"/></g>
<g><path style="opacity:0.016" fill="#3e3f3e" d="M 232.5,205.5 C 232.833,205.5 233.167,205.5 233.5,205.5C 233.315,206.17 232.981,206.17 232.5,205.5 Z"/></g>
<g><path style="opacity:0.004" fill="#282f27" d="M 59.5,204.5 C 59.8333,204.5 60.1667,204.5 60.5,204.5C 60.5,205.833 60.5,207.167 60.5,208.5C 59.5655,207.432 59.2322,206.099 59.5,204.5 Z"/></g>
<g><path style="opacity:0.008" fill="#7e7f7e" d="M 231.5,206.5 C 231.833,206.5 232.167,206.5 232.5,206.5C 232.315,207.17 231.981,207.17 231.5,206.5 Z"/></g>
<g><path style="opacity:0.004" fill="#40325a" d="M 229.5,207.5 C 230.167,207.5 230.833,207.5 231.5,207.5C 231.027,208.906 230.027,209.573 228.5,209.5C 228.5,209.167 228.5,208.833 228.5,208.5C 229.167,208.5 229.5,208.167 229.5,207.5 Z"/></g>
<g><path style="opacity:0.016" fill="#5d7577" d="M 60.5,208.5 C 60.8333,208.5 61.1667,208.5 61.5,208.5C 61.5,209.5 61.5,210.5 61.5,211.5C 60.596,210.791 60.2627,209.791 60.5,208.5 Z"/></g>
<g><path style="opacity:0.012" fill="#545554" d="M 227.5,209.5 C 227.833,209.5 228.167,209.5 228.5,209.5C 228.315,210.17 227.981,210.17 227.5,209.5 Z"/></g>
<g><path style="opacity:0.012" fill="#545554" d="M 226.5,210.5 C 226.833,210.5 227.167,210.5 227.5,210.5C 227.315,211.17 226.981,211.17 226.5,210.5 Z"/></g>
<g><path style="opacity:0.004" fill="#74d2ae" d="M 224.5,212.5 C 224.5,212.167 224.5,211.833 224.5,211.5C 225.167,211.5 225.833,211.5 226.5,211.5C 226.158,212.338 225.492,212.672 224.5,212.5 Z"/></g>
<g><path style="opacity:0.012" fill="#545554" d="M 223.5,212.5 C 223.833,212.5 224.167,212.5 224.5,212.5C 224.315,213.17 223.981,213.17 223.5,212.5 Z"/></g>
<g><path style="opacity:0.016" fill="#3e3f3e" d="M 220.5,214.5 C 220.833,214.5 221.167,214.5 221.5,214.5C 221.315,215.17 220.981,215.17 220.5,214.5 Z"/></g>
<g><path style="opacity:0.008" fill="#78a969" d="M 218.5,216.5 C 218.5,216.167 218.5,215.833 218.5,215.5C 219.167,215.5 219.833,215.5 220.5,215.5C 220.158,216.338 219.492,216.672 218.5,216.5 Z"/></g>
<g><path style="opacity:0.012" fill="#545554" d="M 217.5,216.5 C 217.833,216.5 218.167,216.5 218.5,216.5C 218.315,217.17 217.981,217.17 217.5,216.5 Z"/></g>
<g><path style="opacity:0.004" fill="#1f1f1f" d="M 215.5,218.5 C 215.5,218.167 215.5,217.833 215.5,217.5C 216.167,217.5 216.833,217.5 217.5,217.5C 217.158,218.338 216.492,218.672 215.5,218.5 Z"/></g>
<g><path style="opacity:0.004" fill="#1f1f1f" d="M 213.5,219.5 C 213.5,219.167 213.5,218.833 213.5,218.5C 214.167,218.5 214.833,218.5 215.5,218.5C 215.158,219.338 214.492,219.672 213.5,219.5 Z"/></g>
<g><path style="opacity:0.004" fill="#1f1f1f" d="M 211.5,220.5 C 211.5,220.167 211.5,219.833 211.5,219.5C 212.167,219.5 212.833,219.5 213.5,219.5C 213.158,220.338 212.492,220.672 211.5,220.5 Z"/></g>
<g><path style="opacity:0.012" fill="#4c4932" d="M 208.5,221.5 C 208.5,221.167 208.5,220.833 208.5,220.5C 209.5,220.5 210.5,220.5 211.5,220.5C 210.791,221.404 209.791,221.737 208.5,221.5 Z"/></g>
<g><path style="opacity:0.012" fill="#5f5f5f" d="M 205.5,222.5 C 205.5,222.167 205.5,221.833 205.5,221.5C 206.5,221.5 207.5,221.5 208.5,221.5C 207.791,222.404 206.791,222.737 205.5,222.5 Z"/></g>
<g><path style="opacity:0.016" fill="#454331" d="M 201.5,223.5 C 201.5,223.167 201.5,222.833 201.5,222.5C 202.833,222.5 204.167,222.5 205.5,222.5C 204.432,223.434 203.099,223.768 201.5,223.5 Z"/></g>
<g><path style="opacity:0.012" fill="#6bb36e" d="M 201.5,223.5 C 200.749,224.573 199.749,224.74 198.5,224C 199.448,223.517 200.448,223.351 201.5,223.5 Z"/></g>
<g><path style="opacity:0.008" fill="#707070" d="M 195.5,225.5 C 195.5,225.167 195.5,224.833 195.5,224.5C 198.167,224.833 198.167,225.167 195.5,225.5 Z"/></g>
<g><path style="opacity:0.016" fill="#3c5b47" d="M 190.5,226.5 C 190.5,226.167 190.5,225.833 190.5,225.5C 192.167,225.5 193.833,225.5 195.5,225.5C 194.081,226.451 192.415,226.784 190.5,226.5 Z"/></g>
<g><path style="opacity:0.012" fill="#3f543a" d="M 185.5,227.5 C 185.5,227.167 185.5,226.833 185.5,226.5C 187.167,226.5 188.833,226.5 190.5,226.5C 189.081,227.451 187.415,227.784 185.5,227.5 Z"/></g>
<g><path style="opacity:0.012" fill="#524c5b" d="M 96.5,227.5 C 96.5,227.833 96.5,228.167 96.5,228.5C 85.8333,228.167 85.8333,227.833 96.5,227.5 Z"/></g>
<g><path style="opacity:0.008" fill="#4a6951" d="M 178.5,228.5 C 178.5,228.167 178.5,227.833 178.5,227.5C 180.833,227.5 183.167,227.5 185.5,227.5C 183.393,228.468 181.059,228.802 178.5,228.5 Z"/></g>
<g><path style="opacity:0.012" fill="#4c6945" d="M 96.5,228.5 C 99.8499,228.335 103.183,228.502 106.5,229C 102.973,229.808 99.6399,229.641 96.5,228.5 Z"/></g>
<g><path style="opacity:0.016" fill="#3b5f37" d="M 178.5,228.5 C 174.354,229.647 170.02,229.814 165.5,229C 169.821,228.501 174.154,228.334 178.5,228.5 Z"/></g>
<g><path style="opacity:0.012" fill="#586a37" d="M 136.5,230.5 C 136.5,230.167 136.5,229.833 136.5,229.5C 140.5,229.833 140.5,230.167 136.5,230.5 Z"/></g>
<g><path style="opacity:0.012" fill="#536354" d="M 140.5,230.5 C 148.323,229.344 156.323,229.177 164.5,230C 156.507,230.5 148.507,230.666 140.5,230.5 Z"/></g>
<g><path style="opacity:0.004" fill="#000000" d="M 136.5,230.5 C 135.833,231.167 135.833,231.167 136.5,230.5 Z"/></g>
</svg>
