<?xml version="1.0" encoding="UTF-8"?>
<!DOCTYPE svg PUBLIC "-//W3C//DTD SVG 1.1//EN" "http://www.w3.org/Graphics/SVG/1.1/DTD/svg11.dtd">
<svg xmlns="http://www.w3.org/2000/svg" version="1.1" width="300px" height="300px" style="shape-rendering:geometricPrecision; text-rendering:geometricPrecision; image-rendering:optimizeQuality; fill-rule:evenodd; clip-rule:evenodd" xmlns:xlink="http://www.w3.org/1999/xlink">
<g><path style="opacity:0.004" fill="#000000" d="M 198.5,56.5 C 199.833,57.1667 199.833,57.1667 198.5,56.5 Z"/></g>
<g><path style="opacity:0.998" fill="#f56b6b" d="M 223.5,109.5 C 223.5,109.833 223.5,110.167 223.5,110.5C 227.133,121.333 230.133,132.333 232.5,143.5C 229.171,144.831 225.838,146.164 222.5,147.5C 223.514,138.523 223.681,129.523 223,120.5C 220.369,116.371 216.869,115.538 212.5,118C 207.971,121.364 203.971,125.197 200.5,129.5C 199.378,128.844 198.045,128.511 196.5,128.5C 189.847,129.166 183.181,129.666 176.5,130C 175.584,130.278 174.918,130.778 174.5,131.5C 165.682,121.053 154.349,116.553 140.5,118C 136.275,119.391 133.608,122.224 132.5,126.5C 128.731,127.055 124.898,126.722 121,125.5C 113.037,125.399 104.87,125.566 96.5,126C 92.1446,126.11 87.9779,126.943 84,128.5C 82.0021,127.729 80.3354,128.395 79,130.5C 78.7216,129.584 78.2216,128.918 77.5,128.5C 74.1338,118.476 67.1338,114.643 56.5,117C 55.3333,118.167 54.1667,119.333 53,120.5C 52.6012,120.272 52.4346,119.938 52.5,119.5C 51.1744,115.209 50.3411,110.876 50,106.5C 67.2358,85.9748 89.0692,72.8081 115.5,67C 129.02,64.1459 142.687,62.6459 156.5,62.5C 158.435,72.5892 163.435,80.7559 171.5,87C 180.576,89.0469 187.743,86.2135 193,78.5C 195.228,74.5399 197.062,70.3732 198.5,66C 198.85,64.7425 199.517,64.4092 200.5,65C 203.04,67.2047 205.207,69.7047 207,72.5C 213.186,84.5706 218.686,96.9039 223.5,109.5 Z"/></g>
<g><path style="opacity:0.016" fill="#814f4e" d="M 105.5,65.5 C 106.251,64.4265 107.251,64.2599 108.5,65C 107.552,65.4828 106.552,65.6495 105.5,65.5 Z"/></g>
<g><path style="opacity:0.988" fill="#69554e" d="M 195.5,64.5 C 196.375,62.4319 197.541,60.4319 199,58.5C 202.011,62.2456 205.345,64.9123 209,66.5C 214.388,74.2379 217.722,82.5712 219,91.5C 219.667,94.1667 220.333,94.1667 221,91.5C 222.694,93.5696 222.861,95.7362 221.5,98C 222.803,100.744 223.803,103.577 224.5,106.5C 224.737,107.791 224.404,108.791 223.5,109.5C 218.686,96.9039 213.186,84.5706 207,72.5C 205.207,69.7047 203.04,67.2047 200.5,65C 199.517,64.4092 198.85,64.7425 198.5,66C 197.062,70.3732 195.228,74.5399 193,78.5C 187.743,86.2135 180.576,89.0469 171.5,87C 163.435,80.7559 158.435,72.5892 156.5,62.5C 142.687,62.6459 129.02,64.1459 115.5,67C 89.0692,72.8081 67.2358,85.9748 50,106.5C 50.3411,110.876 51.1744,115.209 52.5,119.5C 51.8333,120.833 51.1667,122.167 50.5,123.5C 50.1077,121.821 49.6077,120.154 49,118.5C 48.6667,119.5 48.3333,120.5 48,121.5C 47.1785,118.883 46.6785,116.216 46.5,113.5C 47.8333,112.167 47.8333,110.833 46.5,109.5C 45.9717,108.153 45.805,106.819 46,105.5C 46.6667,104.167 47.3333,104.167 48,105.5C 49.2837,104.428 49.6171,103.095 49,101.5C 51.2748,101.257 53.1082,99.9237 54.5,97.5C 55.1667,97.5 55.5,97.1667 55.5,96.5C 56.1667,96.5 56.5,96.1667 56.5,95.5C 57.1667,95.5 57.5,95.1667 57.5,94.5C 58.1667,94.5 58.5,94.1667 58.5,93.5C 59.1667,93.5 59.5,93.1667 59.5,92.5C 60.1667,92.5 60.5,92.1667 60.5,91.5C 77.9551,76.1655 98.2884,66.6655 121.5,63C 133.077,60.5943 144.743,59.2609 156.5,59C 157.701,59.9025 158.535,61.0692 159,62.5C 159.333,61.8333 159.667,61.1667 160,60.5C 160.837,62.3506 161.671,64.1839 162.5,66C 177.167,66.6667 177.167,67.3333 162.5,68C 171.357,68.237 180.19,68.737 189,69.5C 191.823,69.5907 193.49,68.2574 194,65.5C 195.043,69.2259 195.543,68.8926 195.5,64.5 Z"/></g>
<g><path style="opacity:1" fill="#f36868" d="M 165.5,70.5 C 171.842,70.3338 178.175,70.5005 184.5,71C 187.72,71.7163 190.72,72.883 193.5,74.5C 181.86,91.009 171.193,90.3424 161.5,72.5C 162.949,71.8281 164.282,71.1614 165.5,70.5 Z"/></g>
<g><path style="opacity:0.016" fill="#733f3a" d="M 176.5,67.5 C 179.64,66.3592 182.973,66.1925 186.5,67C 183.183,67.4983 179.85,67.665 176.5,67.5 Z"/></g>
<g><path style="opacity:0.012" fill="#b5473e" d="M 195.5,64.5 C 194.427,63.7494 194.26,62.7494 195,61.5C 195.483,62.448 195.649,63.448 195.5,64.5 Z"/></g>
<g><path style="opacity:0.012" fill="#513f3a" d="M 60.5,91.5 C 59.8333,91.5 59.5,91.8333 59.5,92.5C 58.8333,92.5 58.5,92.8333 58.5,93.5C 57.8333,93.5 57.5,93.8333 57.5,94.5C 56.8333,94.5 56.5,94.8333 56.5,95.5C 55.8333,95.5 55.5,95.8333 55.5,96.5C 54.8333,96.5 54.5,96.8333 54.5,97.5C 53.475,97.1034 53.3083,96.4368 54,95.5C 55.5,94 57,92.5 58.5,91C 59.4368,90.3083 60.1034,90.475 60.5,91.5 Z"/></g>
<g><path style="opacity:0.999" fill="#545252" d="M 144.5,97.5 C 150.628,99.3635 156.628,101.53 162.5,104C 161.273,106.736 160.273,109.569 159.5,112.5C 158.833,112.833 158.167,113.167 157.5,113.5C 152.205,111.956 146.871,110.623 141.5,109.5C 141.167,109 140.833,108.5 140.5,108C 142.27,104.634 143.603,101.134 144.5,97.5 Z"/></g>
<g><path style="opacity:0.998" fill="#565252" d="M 210.5,97.5 C 212.624,100.665 214.291,104.165 215.5,108C 211.187,109.167 206.853,109.834 202.5,110C 201.39,106.951 200.723,103.784 200.5,100.5C 204.048,99.8699 207.381,98.8699 210.5,97.5 Z"/></g>
<g><path style="opacity:0.016" fill="#7c444b" d="M 46.5,109.5 C 46.5,110.833 46.5,112.167 46.5,113.5C 45.1667,112.167 45.1667,110.833 46.5,109.5 Z"/></g>
<g><path style="opacity:0.999" fill="#817f7f" d="M 239.5,113.5 C 242.33,114.51 244.83,116.177 247,118.5C 247.333,118.167 247.667,117.833 248,117.5C 250.714,118.996 253.547,119.996 256.5,120.5C 253.941,120.198 251.607,120.532 249.5,121.5C 248.167,121.833 248.167,122.167 249.5,122.5C 251.806,122.993 254.139,123.326 256.5,123.5C 256.716,125.681 255.883,127.347 254,128.5C 252.417,127.029 250.583,126.029 248.5,125.5C 247.252,122.516 245.585,119.682 243.5,117C 240.649,115.711 237.649,115.211 234.5,115.5C 233.175,114.047 232.342,114.381 232,116.5C 230.529,121.371 232.195,124.704 237,126.5C 236.631,129.79 236.631,133.123 237,136.5C 238.522,138.022 240.022,139.522 241.5,141C 237.481,147.135 236.815,153.635 239.5,160.5C 239.44,161.043 239.107,161.376 238.5,161.5C 236.588,145.362 232.755,129.695 227,114.5C 226.502,112.456 225.335,111.122 223.5,110.5C 223.5,110.167 223.5,109.833 223.5,109.5C 224.404,108.791 224.737,107.791 224.5,106.5C 225.222,106.082 225.722,105.416 226,104.5C 226.5,105.667 227.333,106.5 228.5,107C 227.5,107.333 226.5,107.667 225.5,108C 228.952,108.892 231.952,110.558 234.5,113C 236.134,113.494 237.801,113.66 239.5,113.5 Z"/></g>
<g><path style="opacity:0.012" fill="#6c6951" d="M 239.5,113.5 C 240.251,112.427 241.251,112.26 242.5,113C 241.552,113.483 240.552,113.649 239.5,113.5 Z"/></g>
<g><path style="opacity:0.008" fill="#7e7f7e" d="M 243.5,113.5 C 244.833,114.167 244.833,114.167 243.5,113.5 Z"/></g>
<g><path style="opacity:1" fill="#474341" d="M 77.5,128.5 C 77.9991,135.49 78.3325,142.49 78.5,149.5C 78.8012,157.951 77.9679,166.285 76,174.5C 74.4115,177.383 71.9115,178.883 68.5,179C 67.6634,180.011 67.33,181.178 67.5,182.5C 67.6716,183.492 67.3382,184.158 66.5,184.5C 66.1667,184.5 65.8333,184.5 65.5,184.5C 65.1667,181.833 64.8333,181.833 64.5,184.5C 62.9611,183.233 61.2944,182.233 59.5,181.5C 61.5273,181.662 63.5273,181.495 65.5,181C 62.0712,180.467 58.7379,179.633 55.5,178.5C 54.1363,176.809 52.803,175.142 51.5,173.5C 51.5,172.833 51.5,172.167 51.5,171.5C 56.5682,177.196 62.9015,179.029 70.5,177C 71.9308,176.535 73.0975,175.701 74,174.5C 76.6181,159.531 76.9514,144.531 75,129.5C 73.6253,121.956 69.1253,118.289 61.5,118.5C 58.1228,118.69 55.4561,120.19 53.5,123C 59.7311,124.963 63.5644,129.13 65,135.5C 65.6667,142.5 65.6667,149.5 65,156.5C 64.7235,163.089 61.5568,167.422 55.5,169.5C 53.901,169.232 52.5676,169.566 51.5,170.5C 50.596,171.209 50.2627,172.209 50.5,173.5C 49.7811,171.909 48.7811,170.409 47.5,169C 48.1667,168.667 48.8333,168.333 49.5,168C 47.3551,166.046 45.1885,164.879 43,164.5C 41.0073,162.182 39.8406,159.516 39.5,156.5C 40.404,155.791 40.7373,154.791 40.5,153.5C 42.9724,158.235 46.3058,162.402 50.5,166C 55.4276,167.643 58.9276,166.143 61,161.5C 62.4698,157.622 63.3031,153.622 63.5,149.5C 65.9283,141.041 63.9283,133.875 57.5,128C 49.6037,124.85 44.6037,127.517 42.5,136C 44.3116,137.812 46.1449,139.645 48,141.5C 48.4966,143.81 48.6633,146.143 48.5,148.5C 46.1799,150.226 43.5133,150.893 40.5,150.5C 39.8333,150.5 39.1667,150.5 38.5,150.5C 35.7783,148.121 32.7783,146.954 29.5,147C 30.6537,146.086 30.487,145.253 29,144.5C 27.6329,145.524 26.7995,145.024 26.5,143C 26.9444,141.238 27.4444,141.405 28,143.5C 29.7341,140.078 32.5674,138.411 36.5,138.5C 37.2625,137.732 38.2625,137.232 39.5,137C 38.5,136.667 37.5,136.333 36.5,136C 38.5029,134.645 40.3362,133.812 42,133.5C 42,132.167 42,130.833 42,129.5C 42.6667,128.167 43.3333,128.167 44,129.5C 46.0367,127.294 48.2034,125.294 50.5,123.5C 51.1667,122.167 51.8333,120.833 52.5,119.5C 52.4346,119.938 52.6012,120.272 53,120.5C 54.1667,119.333 55.3333,118.167 56.5,117C 67.1338,114.643 74.1338,118.476 77.5,128.5 Z"/></g>
<g><path style="opacity:1" fill="#5a5858" d="M 222.5,147.5 C 221.086,149.867 219.752,152.367 218.5,155C 215.225,155.982 212.559,155.149 210.5,152.5C 206.786,148.95 203.619,144.95 201,140.5C 199.282,136.877 199.116,133.211 200.5,129.5C 203.971,125.197 207.971,121.364 212.5,118C 216.869,115.538 220.369,116.371 223,120.5C 223.681,129.523 223.514,138.523 222.5,147.5 Z"/></g>
<g><path style="opacity:1" fill="#bdbdbd" d="M 234.5,115.5 C 236.098,117.698 237.431,120.031 238.5,122.5C 239.551,126.827 240.718,131.16 242,135.5C 242.667,141.5 242.667,147.5 242,153.5C 241.621,156.03 240.787,158.363 239.5,160.5C 236.815,153.635 237.481,147.135 241.5,141C 240.022,139.522 238.522,138.022 237,136.5C 236.631,133.123 236.631,129.79 237,126.5C 232.195,124.704 230.529,121.371 232,116.5C 232.342,114.381 233.175,114.047 234.5,115.5 Z"/></g>
<g><path style="opacity:0.008" fill="#707070" d="M 256.5,121.5 C 256.5,121.167 256.5,120.833 256.5,120.5C 259.167,120.833 259.167,121.167 256.5,121.5 Z"/></g>
<g><path style="opacity:1" fill="#565555" d="M 174.5,131.5 C 176.777,140.49 175.277,148.823 170,156.5C 167.898,158.095 166.398,160.095 165.5,162.5C 162.167,165.167 158.833,165.167 155.5,162.5C 145.685,155.85 138.185,147.184 133,136.5C 132.502,133.183 132.335,129.85 132.5,126.5C 133.608,122.224 136.275,119.391 140.5,118C 154.349,116.553 165.682,121.053 174.5,131.5 Z"/></g>
<g><path style="opacity:1" fill="#bfbfbf" d="M 142.5,119.5 C 149.935,119.588 156.935,121.422 163.5,125C 158.027,123.405 152.36,122.238 146.5,121.5C 143.486,121.258 140.986,122.258 139,124.5C 138.333,123.833 138.333,123.167 139,122.5C 140.518,121.837 141.685,120.837 142.5,119.5 Z"/></g>
<g><path style="opacity:0.004" fill="#000000" d="M 260.5,123.5 C 261.833,124.167 261.833,124.167 260.5,123.5 Z"/></g>
<g><path style="opacity:0.012" fill="#000000" d="M 257.5,127.5 C 257.833,127.5 258.167,127.5 258.5,127.5C 258.315,128.17 257.981,128.17 257.5,127.5 Z"/></g>
<g><path style="opacity:0.012" fill="#545554" d="M 256.5,128.5 C 256.833,128.5 257.167,128.5 257.5,128.5C 257.315,129.17 256.981,129.17 256.5,128.5 Z"/></g>
<g><path style="opacity:1" fill="#d7b449" d="M 234.5,115.5 C 237.649,115.211 240.649,115.711 243.5,117C 245.585,119.682 247.252,122.516 248.5,125.5C 248.666,130.179 248.499,134.845 248,139.5C 247.751,142.177 246.751,144.51 245,146.5C 244.904,137.814 242.738,129.814 238.5,122.5C 237.431,120.031 236.098,117.698 234.5,115.5 Z"/></g>
<g><path style="opacity:0.016" fill="#3e3f3e" d="M 255.5,129.5 C 255.833,129.5 256.167,129.5 256.5,129.5C 256.315,130.17 255.981,130.17 255.5,129.5 Z"/></g>
<g><path style="opacity:1" fill="#fbd154" d="M 63.5,149.5 C 61.5305,151.647 59.6971,153.98 58,156.5C 54.4772,160.701 51.4772,160.368 49,155.5C 48.5034,153.19 48.3367,150.857 48.5,148.5C 48.6633,146.143 48.4966,143.81 48,141.5C 46.1449,139.645 44.3116,137.812 42.5,136C 44.6037,127.517 49.6037,124.85 57.5,128C 63.9283,133.875 65.9283,141.041 63.5,149.5 Z"/></g>
<g><path style="opacity:0.012" fill="#545554" d="M 254.5,130.5 C 254.833,130.5 255.167,130.5 255.5,130.5C 255.315,131.17 254.981,131.17 254.5,130.5 Z"/></g>
<g><path style="opacity:0.012" fill="#545554" d="M 253.5,131.5 C 253.833,131.5 254.167,131.5 254.5,131.5C 254.315,132.17 253.981,132.17 253.5,131.5 Z"/></g>
<g><path style="opacity:0.012" fill="#545554" d="M 252.5,132.5 C 252.833,132.5 253.167,132.5 253.5,132.5C 253.315,133.17 252.981,133.17 252.5,132.5 Z"/></g>
<g><path style="opacity:0.997" fill="#c0bebe" d="M 194.5,159.5 C 196.46,164.783 196.793,170.116 195.5,175.5C 193.076,175.808 190.743,175.474 188.5,174.5C 186.513,168.887 184.68,163.22 183,157.5C 181.884,154.244 180.051,151.578 177.5,149.5C 177.216,141.621 180.883,138.788 188.5,141C 191.367,146.997 193.367,153.164 194.5,159.5 Z"/></g>
<g><path style="opacity:0.012" fill="#545554" d="M 250.5,140.5 C 251.525,140.897 251.692,141.563 251,142.5C 250.536,141.906 250.369,141.239 250.5,140.5 Z"/></g>
<g><path style="opacity:0.798" fill="#f78d8d" d="M 132.5,126.5 C 132.335,129.85 132.502,133.183 133,136.5C 138.185,147.184 145.685,155.85 155.5,162.5C 140.399,159.452 125.733,154.952 111.5,149C 100.437,145.628 89.4365,145.794 78.5,149.5C 78.3325,142.49 77.9991,135.49 77.5,128.5C 78.2216,128.918 78.7216,129.584 79,130.5C 80.3354,128.395 82.0021,127.729 84,128.5C 87.9779,126.943 92.1446,126.11 96.5,126C 104.87,125.566 113.037,125.399 121,125.5C 124.898,126.722 128.731,127.055 132.5,126.5 Z"/></g>
<g><path style="opacity:1" fill="#c3c3c3" d="M 36.5,138.5 C 40.6654,137.377 44.1654,138.711 47,142.5C 47.4828,143.448 47.6495,144.448 47.5,145.5C 42.4195,145.75 37.4195,145.25 32.5,144C 31.5494,143.282 31.3828,142.449 32,141.5C 33.6516,140.601 35.1516,139.601 36.5,138.5 Z"/></g>
<g><path style="opacity:1" fill="#59b3e0" d="M 220.5,125.5 C 222.097,133.364 220.764,140.864 216.5,148C 214.833,148.667 213.167,148.667 211.5,148C 208.217,144.603 205.551,140.77 203.5,136.5C 210.769,135.048 216.436,131.382 220.5,125.5 Z"/></g>
<g><path style="opacity:0.797" fill="#f68e8e" d="M 200.5,129.5 C 199.116,133.211 199.282,136.877 201,140.5C 203.619,144.95 206.786,148.95 210.5,152.5C 205.96,154.291 201.293,155.791 196.5,157C 195.244,157.417 194.577,158.25 194.5,159.5C 193.367,153.164 191.367,146.997 188.5,141C 180.883,138.788 177.216,141.621 177.5,149.5C 178.833,153.5 180.167,157.5 181.5,161.5C 176.178,161.98 170.845,162.313 165.5,162.5C 166.398,160.095 167.898,158.095 170,156.5C 175.277,148.823 176.777,140.49 174.5,131.5C 174.918,130.778 175.584,130.278 176.5,130C 183.181,129.666 189.847,129.166 196.5,128.5C 198.045,128.511 199.378,128.844 200.5,129.5 Z"/></g>
<g><path style="opacity:1" fill="#f56868" d="M 232.5,143.5 C 237.94,161.66 240.107,180.327 239,199.5C 220.146,212.453 199.313,220.287 176.5,223C 158.136,225.137 139.803,224.971 121.5,222.5C 104.138,219.663 88.1385,213.163 73.5,203C 71.8723,195.976 69.8723,189.143 67.5,182.5C 67.33,181.178 67.6634,180.011 68.5,179C 71.9115,178.883 74.4115,177.383 76,174.5C 77.9679,166.285 78.8012,157.951 78.5,149.5C 89.4365,145.794 100.437,145.628 111.5,149C 125.733,154.952 140.399,159.452 155.5,162.5C 158.833,165.167 162.167,165.167 165.5,162.5C 170.845,162.313 176.178,161.98 181.5,161.5C 183.776,166.905 185.609,172.572 187,178.5C 189.064,179.591 191.231,179.758 193.5,179C 194.973,178.29 195.64,177.124 195.5,175.5C 196.793,170.116 196.46,164.783 194.5,159.5C 194.577,158.25 195.244,157.417 196.5,157C 201.293,155.791 205.96,154.291 210.5,152.5C 212.559,155.149 215.225,155.982 218.5,155C 219.752,152.367 221.086,149.867 222.5,147.5C 225.838,146.164 229.171,144.831 232.5,143.5 Z"/></g>
<g><path style="opacity:1" fill="#868686" d="M 61.5,118.5 C 69.1253,118.289 73.6253,121.956 75,129.5C 76.9514,144.531 76.6181,159.531 74,174.5C 73.0975,175.701 71.9308,176.535 70.5,177C 62.9015,179.029 56.5682,177.196 51.5,171.5C 51.5,171.167 51.5,170.833 51.5,170.5C 52.5676,169.566 53.901,169.232 55.5,169.5C 58.5994,173.24 62.5994,174.407 67.5,173C 69.3981,170.612 71.0648,168.112 72.5,165.5C 70.9707,162.275 69.304,159.109 67.5,156C 69.3891,153.292 71.3891,150.792 73.5,148.5C 71.9305,144.364 69.5972,140.698 66.5,137.5C 74.1568,133.079 74.4901,127.912 67.5,122C 65.2726,121.059 63.2726,119.892 61.5,118.5 Z"/></g>
<g><path style="opacity:1" fill="#56a4d2" d="M 139.5,132.5 C 142.716,133.938 146.049,135.105 149.5,136C 156.524,136.169 163.524,136.669 170.5,137.5C 169.652,144.229 166.986,150.062 162.5,155C 159.697,155.755 157.03,155.422 154.5,154C 147.879,147.91 142.879,140.744 139.5,132.5 Z"/></g>
<g><path style="opacity:0.016" fill="#353535" d="M 245.5,151.5 C 246.833,152.5 246.833,153.5 245.5,154.5C 245.5,153.5 245.5,152.5 245.5,151.5 Z"/></g>
<g><path style="opacity:1" fill="#c09f3b" d="M 48.5,148.5 C 48.3367,150.857 48.5034,153.19 49,155.5C 51.4772,160.368 54.4772,160.701 58,156.5C 59.6971,153.98 61.5305,151.647 63.5,149.5C 63.3031,153.622 62.4698,157.622 61,161.5C 58.9276,166.143 55.4276,167.643 50.5,166C 46.3058,162.402 42.9724,158.235 40.5,153.5C 39.4929,153.452 39.1596,154.452 39.5,156.5C 38.8688,154.552 37.8688,152.719 36.5,151C 37.0944,150.536 37.7611,150.369 38.5,150.5C 39.1667,151.833 39.8333,151.833 40.5,150.5C 43.5133,150.893 46.1799,150.226 48.5,148.5 Z"/></g>
<g><path style="opacity:0.016" fill="#3e3e3e" d="M 244.5,154.5 C 244.833,154.5 245.167,154.5 245.5,154.5C 245.737,155.791 245.404,156.791 244.5,157.5C 244.5,156.5 244.5,155.5 244.5,154.5 Z"/></g>
<g><path style="opacity:1" fill="#bebebe" d="M 61.5,118.5 C 63.2726,119.892 65.2726,121.059 67.5,122C 74.4901,127.912 74.1568,133.079 66.5,137.5C 69.5972,140.698 71.9305,144.364 73.5,148.5C 71.3891,150.792 69.3891,153.292 67.5,156C 69.304,159.109 70.9707,162.275 72.5,165.5C 71.0648,168.112 69.3981,170.612 67.5,173C 62.5994,174.407 58.5994,173.24 55.5,169.5C 61.5568,167.422 64.7235,163.089 65,156.5C 65.6667,149.5 65.6667,142.5 65,135.5C 63.5644,129.13 59.7311,124.963 53.5,123C 55.4561,120.19 58.1228,118.69 61.5,118.5 Z"/></g>
<g><path style="opacity:1" fill="#737171" d="M 177.5,149.5 C 180.051,151.578 181.884,154.244 183,157.5C 184.68,163.22 186.513,168.887 188.5,174.5C 190.743,175.474 193.076,175.808 195.5,175.5C 195.64,177.124 194.973,178.29 193.5,179C 191.231,179.758 189.064,179.591 187,178.5C 185.609,172.572 183.776,166.905 181.5,161.5C 180.167,157.5 178.833,153.5 177.5,149.5 Z"/></g>
<g><path style="opacity:0.012" fill="#626262" d="M 50.5,173.5 C 50.8333,173.5 51.1667,173.5 51.5,173.5C 51.1667,176.167 50.8333,176.167 50.5,173.5 Z"/></g>
<g><path style="opacity:0.012" fill="#545554" d="M 55.5,178.5 C 55.5,178.833 55.5,179.167 55.5,179.5C 54.8299,179.019 54.8299,178.685 55.5,178.5 Z"/></g>
<g><path style="opacity:1" fill="#61534e" d="M 223.5,110.5 C 225.335,111.122 226.502,112.456 227,114.5C 232.755,129.695 236.588,145.362 238.5,161.5C 239.107,161.376 239.44,161.043 239.5,160.5C 240.787,158.363 241.621,156.03 242,153.5C 242.667,147.5 242.667,141.5 242,135.5C 240.718,131.16 239.551,126.827 238.5,122.5C 242.738,129.814 244.904,137.814 245,146.5C 246.751,144.51 247.751,142.177 248,139.5C 248.499,134.845 248.666,130.179 248.5,125.5C 250.583,126.029 252.417,127.029 254,128.5C 255.883,127.347 256.716,125.681 256.5,123.5C 254.139,123.326 251.806,122.993 249.5,122.5C 249.5,122.167 249.5,121.833 249.5,121.5C 251.833,121.5 254.167,121.5 256.5,121.5C 257.795,122.488 259.128,123.488 260.5,124.5C 260.573,126.027 259.906,127.027 258.5,127.5C 258.167,126.167 257.833,126.167 257.5,127.5C 256.833,127.5 256.5,127.833 256.5,128.5C 255.833,128.5 255.5,128.833 255.5,129.5C 254.833,129.5 254.5,129.833 254.5,130.5C 253.833,130.5 253.5,130.833 253.5,131.5C 252.833,131.5 252.5,131.833 252.5,132.5C 251.167,132.833 251.167,133.167 252.5,133.5C 252.662,135.527 252.495,137.527 252,139.5C 250.992,134.459 250.492,134.792 250.5,140.5C 250.501,144.625 248.835,148.292 245.5,151.5C 244.596,152.209 244.263,153.209 244.5,154.5C 243.167,155.5 243.167,156.5 244.5,157.5C 242.817,161.636 242.15,165.969 242.5,170.5C 243.477,173.287 243.81,176.287 243.5,179.5C 242.167,182.167 242.167,184.833 243.5,187.5C 243.334,191.846 243.501,196.179 244,200.5C 244.654,199.304 245.154,199.304 245.5,200.5C 245.145,201.522 244.478,202.189 243.5,202.5C 243.167,201.167 242.833,201.167 242.5,202.5C 241.508,202.328 240.842,202.662 240.5,203.5C 239.833,203.5 239.5,203.833 239.5,204.5C 238.508,204.328 237.842,204.662 237.5,205.5C 236.833,205.5 236.5,205.833 236.5,206.5C 235.508,206.328 234.842,206.662 234.5,207.5C 233.508,207.328 232.842,207.662 232.5,208.5C 231.833,208.5 231.5,208.833 231.5,209.5C 230.508,209.328 229.842,209.662 229.5,210.5C 228.508,210.328 227.842,210.662 227.5,211.5C 226.508,211.328 225.842,211.662 225.5,212.5C 222.088,213.075 219.088,214.408 216.5,216.5C 215.209,216.263 214.209,216.596 213.5,217.5C 212.508,217.328 211.842,217.662 211.5,218.5C 210.209,218.263 209.209,218.596 208.5,219.5C 207.209,219.263 206.209,219.596 205.5,220.5C 203.901,220.232 202.568,220.566 201.5,221.5C 200.209,221.263 199.209,221.596 198.5,222.5C 196.901,222.232 195.568,222.566 194.5,223.5C 192.901,223.232 191.568,223.566 190.5,224.5C 188.833,224.5 187.167,224.5 185.5,224.5C 166.184,226.777 146.85,226.944 127.5,225C 124.471,224.461 121.471,223.794 118.5,223C 119.448,222.517 120.448,222.351 121.5,222.5C 139.803,224.971 158.136,225.137 176.5,223C 199.313,220.287 220.146,212.453 239,199.5C 240.107,180.327 237.94,161.66 232.5,143.5C 230.133,132.333 227.133,121.333 223.5,110.5 Z M 242.5,170.5 C 242.664,173.187 242.497,175.854 242,178.5C 240.919,173.53 240.586,168.53 241,163.5C 241.186,166.036 241.686,168.369 242.5,170.5 Z"/></g>
<g><path style="opacity:0.012" fill="#545554" d="M 55.5,179.5 C 56.8333,180.167 56.8333,180.167 55.5,179.5 Z"/></g>
<g><path style="opacity:0.012" fill="#545554" d="M 59.5,181.5 C 58.7611,181.631 58.0944,181.464 57.5,181C 58.4368,180.308 59.1034,180.475 59.5,181.5 Z"/></g>
<g><path style="opacity:0.012" fill="#a5784b" d="M 64.5,184.5 C 64.8333,184.5 65.1667,184.5 65.5,184.5C 65.5,185.5 65.5,186.5 65.5,187.5C 64.596,186.791 64.2627,185.791 64.5,184.5 Z"/></g>
<g><path style="opacity:0.012" fill="#82655e" d="M 243.5,179.5 C 244.473,181.948 244.806,184.615 244.5,187.5C 244.167,187.5 243.833,187.5 243.5,187.5C 243.5,184.833 243.5,182.167 243.5,179.5 Z"/></g>
<g><path style="opacity:0.016" fill="#6f7f5f" d="M 65.5,187.5 C 65.8333,187.5 66.1667,187.5 66.5,187.5C 66.5,188.5 66.5,189.5 66.5,190.5C 65.596,189.791 65.2627,188.791 65.5,187.5 Z"/></g>
<g><path style="opacity:0.996" fill="#5a5451" d="M 196.5,208.5 C 208.084,204.038 218.418,197.538 227.5,189C 227.272,188.601 226.938,188.435 226.5,188.5C 226.5,187.167 226.5,185.833 226.5,184.5C 226.5,183.5 226.5,182.5 226.5,181.5C 226.5,179.833 226.5,178.167 226.5,176.5C 226.631,175.761 226.464,175.094 226,174.5C 221.176,177.151 216.676,180.151 212.5,183.5C 213.341,185.379 213.675,187.379 213.5,189.5C 213.5,190.5 213.5,191.5 213.5,192.5C 213.5,193.167 213.167,193.5 212.5,193.5C 212.443,192.391 212.11,191.391 211.5,190.5C 211.784,188.585 211.451,186.919 210.5,185.5C 210.631,184.624 210.298,183.957 209.5,183.5C 204.704,185.265 199.871,186.932 195,188.5C 193.97,188.836 193.47,189.503 193.5,190.5C 194.038,192.117 194.371,193.784 194.5,195.5C 194.833,196.833 195.167,198.167 195.5,199.5C 195.833,201.5 196.167,203.5 196.5,205.5C 196.5,206.167 196.167,206.5 195.5,206.5C 195.125,204.302 194.458,202.302 193.5,200.5C 193.768,198.901 193.434,197.568 192.5,196.5C 192.634,194.708 192.301,193.042 191.5,191.5C 191.03,190.307 190.03,189.64 188.5,189.5C 182.819,190.025 177.152,190.692 171.5,191.5C 171.624,192.107 171.957,192.44 172.5,192.5C 172.205,194.735 172.539,196.735 173.5,198.5C 173.5,199.5 173.5,200.5 173.5,201.5C 174.536,203.428 175.036,205.428 175,207.5C 173.681,205.713 172.848,203.713 172.5,201.5C 171.89,200.609 171.557,199.609 171.5,198.5C 171.125,196.302 170.458,194.302 169.5,192.5C 167.257,191.188 164.59,190.522 161.5,190.5C 158.41,190.522 155.743,191.188 153.5,192.5C 153.833,194.5 154.167,196.5 154.5,198.5C 154.557,199.609 154.89,200.609 155.5,201.5C 156.412,202.738 156.579,204.072 156,205.5C 155.153,203.807 154.32,202.14 153.5,200.5C 153.443,199.391 153.11,198.391 152.5,197.5C 152.396,195.297 151.73,193.297 150.5,191.5C 147.009,189.692 143.342,188.025 139.5,186.5C 149.965,187.62 160.465,188.287 171,188.5C 192.567,189.533 211.567,183.199 228,169.5C 227.767,176.452 227.767,183.452 228,190.5C 219.03,199.233 208.53,205.233 196.5,208.5 Z"/></g>
<g><path style="opacity:1" fill="#f2a14b" d="M 210.5,185.5 C 204.893,187.369 199.226,189.036 193.5,190.5C 193.47,189.503 193.97,188.836 195,188.5C 199.871,186.932 204.704,185.265 209.5,183.5C 210.298,183.957 210.631,184.624 210.5,185.5 Z"/></g>
<g><path style="opacity:1" fill="#ddd9d6" d="M 226.5,176.5 C 226.5,178.167 226.5,179.833 226.5,181.5C 222.334,184.417 218.001,187.084 213.5,189.5C 213.675,187.379 213.341,185.379 212.5,183.5C 217.613,182.052 222.28,179.718 226.5,176.5 Z"/></g>
<g><path style="opacity:1" fill="#f2a352" d="M 226.5,176.5 C 222.28,179.718 217.613,182.052 212.5,183.5C 216.676,180.151 221.176,177.151 226,174.5C 226.464,175.094 226.631,175.761 226.5,176.5 Z"/></g>
<g><path style="opacity:1" fill="#f9a752" d="M 139.5,186.5 C 143.342,188.025 147.009,189.692 150.5,191.5C 145.48,191.959 140.813,190.959 136.5,188.5C 135.438,187.425 135.438,186.425 136.5,185.5C 137.417,186.127 138.417,186.461 139.5,186.5 Z"/></g>
<g><path style="opacity:1" fill="#fca550" d="M 226.5,181.5 C 226.5,182.5 226.5,183.5 226.5,184.5C 222.64,187.93 218.307,190.597 213.5,192.5C 213.5,191.5 213.5,190.5 213.5,189.5C 218.001,187.084 222.334,184.417 226.5,181.5 Z"/></g>
<g><path style="opacity:1" fill="#fda64c" d="M 169.5,192.5 C 164.167,192.5 158.833,192.5 153.5,192.5C 155.743,191.188 158.41,190.522 161.5,190.5C 164.59,190.522 167.257,191.188 169.5,192.5 Z"/></g>
<g><path style="opacity:1" fill="#f0a251" d="M 191.5,191.5 C 185.143,191.476 178.81,191.81 172.5,192.5C 171.957,192.44 171.624,192.107 171.5,191.5C 177.152,190.692 182.819,190.025 188.5,189.5C 190.03,189.64 191.03,190.307 191.5,191.5 Z"/></g>
<g><path style="opacity:0.016" fill="#7b3f3e" d="M 66.5,190.5 C 66.8333,190.5 67.1667,190.5 67.5,190.5C 67.5,191.5 67.5,192.5 67.5,193.5C 66.596,192.791 66.2627,191.791 66.5,190.5 Z"/></g>
<g><path style="opacity:1" fill="#dcd9d5" d="M 191.5,191.5 C 192.301,193.042 192.634,194.708 192.5,196.5C 186.253,197.891 179.919,198.558 173.5,198.5C 172.539,196.735 172.205,194.735 172.5,192.5C 178.81,191.81 185.143,191.476 191.5,191.5 Z"/></g>
<g><path style="opacity:1" fill="#dbd9d7" d="M 210.5,185.5 C 211.451,186.919 211.784,188.585 211.5,190.5C 206.021,192.77 200.355,194.437 194.5,195.5C 194.371,193.784 194.038,192.117 193.5,190.5C 199.226,189.036 204.893,187.369 210.5,185.5 Z"/></g>
<g><path style="opacity:0.012" fill="#ab4841" d="M 244.5,187.5 C 245.638,190.304 245.805,193.304 245,196.5C 244.502,193.518 244.335,190.518 244.5,187.5 Z"/></g>
<g><path style="opacity:1" fill="#d3ceca" d="M 136.5,188.5 C 140.813,190.959 145.48,191.959 150.5,191.5C 151.73,193.297 152.396,195.297 152.5,197.5C 148.846,197.058 145.179,196.724 141.5,196.5C 141.167,196.5 140.833,196.5 140.5,196.5C 138.659,194.151 137.326,191.485 136.5,188.5 Z"/></g>
<g><path style="opacity:1" fill="#dcd8d4" d="M 153.5,192.5 C 158.833,192.5 164.167,192.5 169.5,192.5C 170.458,194.302 171.125,196.302 171.5,198.5C 165.833,198.5 160.167,198.5 154.5,198.5C 154.167,196.5 153.833,194.5 153.5,192.5 Z"/></g>
<g><path style="opacity:1" fill="#fba551" d="M 211.5,190.5 C 212.11,191.391 212.443,192.391 212.5,193.5C 207.109,196.297 201.442,198.297 195.5,199.5C 195.167,198.167 194.833,196.833 194.5,195.5C 200.355,194.437 206.021,192.77 211.5,190.5 Z"/></g>
<g><path style="opacity:1" fill="#fba653" d="M 141.5,196.5 C 145.179,196.724 148.846,197.058 152.5,197.5C 153.11,198.391 153.443,199.391 153.5,200.5C 150.167,200.5 146.833,200.5 143.5,200.5C 142.833,199.167 142.167,197.833 141.5,196.5 Z"/></g>
<g><path style="opacity:1" fill="#faa654" d="M 154.5,198.5 C 160.167,198.5 165.833,198.5 171.5,198.5C 171.557,199.609 171.89,200.609 172.5,201.5C 166.833,201.5 161.167,201.5 155.5,201.5C 154.89,200.609 154.557,199.609 154.5,198.5 Z"/></g>
<g><path style="opacity:1" fill="#fba653" d="M 192.5,196.5 C 193.434,197.568 193.768,198.901 193.5,200.5C 186.852,201.139 180.186,201.473 173.5,201.5C 173.5,200.5 173.5,199.5 173.5,198.5C 179.919,198.558 186.253,197.891 192.5,196.5 Z"/></g>
<g><path style="opacity:1" fill="#dcd9d6" d="M 226.5,184.5 C 226.5,185.833 226.5,187.167 226.5,188.5C 217.735,196.219 207.735,201.886 196.5,205.5C 196.167,203.5 195.833,201.5 195.5,199.5C 201.442,198.297 207.109,196.297 212.5,193.5C 213.167,193.5 213.5,193.167 213.5,192.5C 218.307,190.597 222.64,187.93 226.5,184.5 Z"/></g>
<g><path style="opacity:1" fill="#dcdad8" d="M 143.5,200.5 C 146.833,200.5 150.167,200.5 153.5,200.5C 154.32,202.14 155.153,203.807 156,205.5C 156.579,204.072 156.412,202.738 155.5,201.5C 161.167,201.5 166.833,201.5 172.5,201.5C 172.848,203.713 173.681,205.713 175,207.5C 175.036,205.428 174.536,203.428 173.5,201.5C 180.186,201.473 186.852,201.139 193.5,200.5C 194.458,202.302 195.125,204.302 195.5,206.5C 178.709,209.337 162.042,208.67 145.5,204.5C 144.833,203.167 144.167,201.833 143.5,200.5 Z"/></g>
<g><path style="opacity:0.008" fill="#7e7f00" d="M 242.5,202.5 C 242.833,202.5 243.167,202.5 243.5,202.5C 243.315,203.17 242.981,203.17 242.5,202.5 Z"/></g>
<g><path style="opacity:0.004" fill="#a41a0a" d="M 240.5,204.5 C 240.5,204.167 240.5,203.833 240.5,203.5C 241.167,203.5 241.833,203.5 242.5,203.5C 242.158,204.338 241.492,204.672 240.5,204.5 Z"/></g>
<g><path style="opacity:0.012" fill="#545554" d="M 239.5,204.5 C 239.833,204.5 240.167,204.5 240.5,204.5C 240.315,205.17 239.981,205.17 239.5,204.5 Z"/></g>
<g><path style="opacity:0.008" fill="#657f7e" d="M 237.5,206.5 C 237.5,206.167 237.5,205.833 237.5,205.5C 238.167,205.5 238.833,205.5 239.5,205.5C 239.158,206.338 238.492,206.672 237.5,206.5 Z"/></g>
<g><path style="opacity:0.012" fill="#a95554" d="M 236.5,206.5 C 236.833,206.5 237.167,206.5 237.5,206.5C 237.315,207.17 236.981,207.17 236.5,206.5 Z"/></g>
<g><path style="opacity:0.004" fill="#ca4027" d="M 234.5,208.5 C 234.5,208.167 234.5,207.833 234.5,207.5C 235.167,207.5 235.833,207.5 236.5,207.5C 236.158,208.338 235.492,208.672 234.5,208.5 Z"/></g>
<g><path style="opacity:0.016" fill="#463842" d="M 77.5,207.5 C 77.5,208.167 77.8333,208.5 78.5,208.5C 77.5029,209.713 76.5029,209.546 75.5,208C 76.0944,207.536 76.7611,207.369 77.5,207.5 Z"/></g>
<g><path style="opacity:1" fill="#eb9e4f" d="M 226.5,188.5 C 226.938,188.435 227.272,188.601 227.5,189C 218.418,197.538 208.084,204.038 196.5,208.5C 181.804,211.3 167.138,211.134 152.5,208C 149.719,207.478 147.385,206.311 145.5,204.5C 162.042,208.67 178.709,209.337 195.5,206.5C 196.167,206.5 196.5,206.167 196.5,205.5C 207.735,201.886 217.735,196.219 226.5,188.5 Z"/></g>
<g><path style="opacity:0.008" fill="#5e5271" d="M 232.5,209.5 C 232.5,209.167 232.5,208.833 232.5,208.5C 233.167,208.5 233.833,208.5 234.5,208.5C 234.158,209.338 233.492,209.672 232.5,209.5 Z"/></g>
<g><path style="opacity:0.012" fill="#a95554" d="M 231.5,209.5 C 231.833,209.5 232.167,209.5 232.5,209.5C 232.315,210.17 231.981,210.17 231.5,209.5 Z"/></g>
<g><path style="opacity:0.986" fill="#524c4d" d="M 140.5,196.5 C 140.833,196.5 141.167,196.5 141.5,196.5C 142.167,197.833 142.833,199.167 143.5,200.5C 144.167,201.833 144.833,203.167 145.5,204.5C 147.385,206.311 149.719,207.478 152.5,208C 167.138,211.134 181.804,211.3 196.5,208.5C 179.429,214.175 162.429,213.675 145.5,207C 143.421,203.676 141.754,200.176 140.5,196.5 Z"/></g>
<g><path style="opacity:0.004" fill="#e43526" d="M 229.5,211.5 C 229.5,211.167 229.5,210.833 229.5,210.5C 230.167,210.5 230.833,210.5 231.5,210.5C 231.158,211.338 230.492,211.672 229.5,211.5 Z"/></g>
<g><path style="opacity:0.004" fill="#e5c53d" d="M 227.5,212.5 C 227.5,212.167 227.5,211.833 227.5,211.5C 228.167,211.5 228.833,211.5 229.5,211.5C 229.158,212.338 228.492,212.672 227.5,212.5 Z"/></g>
<g><path style="opacity:0.004" fill="#e43526" d="M 225.5,212.5 C 226.167,212.5 226.833,212.5 227.5,212.5C 226.833,213.833 226.167,213.833 225.5,212.5 Z"/></g>
<g><path style="opacity:0.008" fill="#907270" d="M 216.5,217.5 C 216.5,217.167 216.5,216.833 216.5,216.5C 219.167,216.833 219.167,217.167 216.5,217.5 Z"/></g>
<g><path style="opacity:0.012" fill="#923830" d="M 213.5,218.5 C 213.5,218.167 213.5,217.833 213.5,217.5C 214.5,217.5 215.5,217.5 216.5,217.5C 215.791,218.404 214.791,218.737 213.5,218.5 Z"/></g>
<g><path style="opacity:0.008" fill="#e17070" d="M 211.5,219.5 C 211.5,219.167 211.5,218.833 211.5,218.5C 212.167,218.5 212.833,218.5 213.5,218.5C 213.158,219.338 212.492,219.672 211.5,219.5 Z"/></g>
<g><path style="opacity:0.008" fill="#d66358" d="M 208.5,220.5 C 208.5,220.167 208.5,219.833 208.5,219.5C 209.5,219.5 210.5,219.5 211.5,219.5C 210.791,220.404 209.791,220.737 208.5,220.5 Z"/></g>
<g><path style="opacity:1" fill="#886658" d="M 67.5,182.5 C 69.8723,189.143 71.8723,195.976 73.5,203C 88.1385,213.163 104.138,219.663 121.5,222.5C 120.448,222.351 119.448,222.517 118.5,223C 121.471,223.794 124.471,224.461 127.5,225C 146.85,226.944 166.184,226.777 185.5,224.5C 185.5,224.833 185.5,225.167 185.5,225.5C 180.29,225.608 175.29,226.275 170.5,227.5C 166.298,227.183 162.298,227.517 158.5,228.5C 149.778,228.148 140.778,227.815 131.5,227.5C 112.383,225.349 94.7167,219.016 78.5,208.5C 77.8333,208.5 77.5,208.167 77.5,207.5C 75.0383,205.598 72.5383,203.931 70,202.5C 68.698,199.625 67.8647,196.625 67.5,193.5C 68.8333,192.5 68.8333,191.5 67.5,190.5C 67.7373,189.209 67.404,188.209 66.5,187.5C 66.5,186.5 66.5,185.5 66.5,184.5C 67.3382,184.158 67.6716,183.492 67.5,182.5 Z"/></g>
<g><path style="opacity:0.012" fill="#c04c44" d="M 205.5,221.5 C 205.5,221.167 205.5,220.833 205.5,220.5C 206.5,220.5 207.5,220.5 208.5,220.5C 207.791,221.404 206.791,221.737 205.5,221.5 Z"/></g>
<g><path style="opacity:0.016" fill="#86362f" d="M 201.5,222.5 C 201.5,222.167 201.5,221.833 201.5,221.5C 202.833,221.5 204.167,221.5 205.5,221.5C 204.432,222.434 203.099,222.768 201.5,222.5 Z"/></g>
<g><path style="opacity:0.016" fill="#775553" d="M 198.5,223.5 C 198.5,223.167 198.5,222.833 198.5,222.5C 199.5,222.5 200.5,222.5 201.5,222.5C 200.791,223.404 199.791,223.737 198.5,223.5 Z"/></g>
<g><path style="opacity:0.016" fill="#9b473f" d="M 194.5,224.5 C 194.5,224.167 194.5,223.833 194.5,223.5C 195.833,223.5 197.167,223.5 198.5,223.5C 197.432,224.434 196.099,224.768 194.5,224.5 Z"/></g>
<g><path style="opacity:0.016" fill="#b76051" d="M 190.5,225.5 C 190.5,225.167 190.5,224.833 190.5,224.5C 191.833,224.5 193.167,224.5 194.5,224.5C 193.432,225.434 192.099,225.768 190.5,225.5 Z"/></g>
<g><path style="opacity:0.016" fill="#a45945" d="M 185.5,226.5 C 185.5,226.167 185.5,225.833 185.5,225.5C 187.167,225.5 188.833,225.5 190.5,225.5C 189.081,226.451 187.415,226.784 185.5,226.5 Z"/></g>
<g><path style="opacity:0.012" fill="#9d554e" d="M 185.5,226.5 C 183.712,227.622 181.712,227.789 179.5,227C 181.473,226.505 183.473,226.338 185.5,226.5 Z"/></g>
<g><path style="opacity:0.008" fill="#955b5d" d="M 131.5,227.5 C 131.5,227.833 131.5,228.167 131.5,228.5C 122.167,228.167 122.167,227.833 131.5,227.5 Z"/></g>
<g><path style="opacity:0.016" fill="#89714e" d="M 170.5,228.5 C 170.5,228.167 170.5,227.833 170.5,227.5C 181.167,227.833 181.167,228.167 170.5,228.5 Z"/></g>
<g><path style="opacity:0.016" fill="#905545" d="M 131.5,228.5 C 135.846,228.334 140.179,228.501 144.5,229C 139.98,229.814 135.646,229.647 131.5,228.5 Z"/></g>
<g><path style="opacity:0.012" fill="#b37e45" d="M 158.5,229.5 C 158.5,229.167 158.5,228.833 158.5,228.5C 162.5,228.5 166.5,228.5 170.5,228.5C 166.702,229.483 162.702,229.817 158.5,229.5 Z"/></g>
<g><path style="opacity:0.004" fill="#000000" d="M 158.5,229.5 C 154.354,230.647 150.02,230.814 145.5,230C 149.821,229.501 154.154,229.334 158.5,229.5 Z"/></g>
</svg>
