<?xml version="1.0" encoding="UTF-8"?>
<!DOCTYPE svg PUBLIC "-//W3C//DTD SVG 1.1//EN" "http://www.w3.org/Graphics/SVG/1.1/DTD/svg11.dtd">
<svg xmlns="http://www.w3.org/2000/svg" version="1.1" width="300px" height="300px" style="shape-rendering:geometricPrecision; text-rendering:geometricPrecision; image-rendering:optimizeQuality; fill-rule:evenodd; clip-rule:evenodd" xmlns:xlink="http://www.w3.org/1999/xlink">
<g><path style="opacity:0.004" fill="#000000" d="M 139.5,45.5 C 140.833,46.1667 140.833,46.1667 139.5,45.5 Z"/></g>
<g><path style="opacity:0.004" fill="#000000" d="M 133.5,47.5 C 134.601,46.4017 135.934,46.235 137.5,47C 136.207,47.49 134.873,47.6567 133.5,47.5 Z"/></g>
<g><path style="opacity:0.004" fill="#000000" d="M 142.5,47.5 C 143.601,46.4017 144.934,46.235 146.5,47C 145.207,47.49 143.873,47.6567 142.5,47.5 Z"/></g>
<g><path style="opacity:0.004" fill="#000000" d="M 133.5,47.5 C 133.5,47.8333 133.5,48.1667 133.5,48.5C 130.833,48.1667 130.833,47.8333 133.5,47.5 Z"/></g>
<g><path style="opacity:0.004" fill="#000000" d="M 129.5,48.5 C 130.833,49.1667 130.833,49.1667 129.5,48.5 Z"/></g>
<g><path style="opacity:0.004" fill="#000000" d="M 127.5,49.5 C 128.833,50.1667 128.833,50.1667 127.5,49.5 Z"/></g>
<g><path style="opacity:0.004" fill="#000000" d="M 150.5,49.5 C 151.833,50.1667 151.833,50.1667 150.5,49.5 Z"/></g>
<g><path style="opacity:0.004" fill="#000000" d="M 152.5,50.5 C 153.833,51.1667 153.833,51.1667 152.5,50.5 Z"/></g>
<g><path style="opacity:0.004" fill="#000000" d="M 161.5,62.5 C 161.167,62.5 160.833,62.5 160.5,62.5C 160.833,59.8333 161.167,59.8333 161.5,62.5 Z"/></g>
<g><path style="opacity:0.004" fill="#000000" d="M 161.5,62.5 C 162.573,63.2506 162.74,64.2506 162,65.5C 161.517,64.552 161.351,63.552 161.5,62.5 Z"/></g>
<g><path style="opacity:0.004" fill="#000000" d="M 162.5,66.5 C 163.598,67.6009 163.765,68.9343 163,70.5C 162.51,69.2068 162.343,67.8734 162.5,66.5 Z"/></g>
<g><path style="opacity:0.004" fill="#000000" d="M 182.5,74.5 C 184.628,73.3709 186.961,73.2042 189.5,74C 187.19,74.4966 184.857,74.6633 182.5,74.5 Z"/></g>
<g><path style="opacity:0.004" fill="#000000" d="M 190.5,75.5 C 191.946,74.3871 193.613,74.2204 195.5,75C 193.866,75.4935 192.199,75.6602 190.5,75.5 Z"/></g>
<g><path style="opacity:0.004" fill="#000000" d="M 104.5,79.5 C 105.598,80.6009 105.765,81.9343 105,83.5C 104.51,82.2068 104.343,80.8734 104.5,79.5 Z"/></g>
<g><path style="opacity:0.004" fill="#000000" d="M 103.5,85.5 C 104.634,87.9664 104.801,90.633 104,93.5C 103.503,90.854 103.336,88.1873 103.5,85.5 Z"/></g>
<g><path style="opacity:0.004" fill="#000000" d="M 219.5,99.5 C 219.167,99.5 218.833,99.5 218.5,99.5C 218.833,95.5 219.167,95.5 219.5,99.5 Z"/></g>
<g><path style="opacity:0.004" fill="#000000" d="M 219.5,99.5 C 220.573,100.251 220.74,101.251 220,102.5C 219.517,101.552 219.351,100.552 219.5,99.5 Z"/></g>
<g><path style="opacity:0.004" fill="#000000" d="M 220.5,103.5 C 221.613,104.946 221.78,106.613 221,108.5C 220.506,106.866 220.34,105.199 220.5,103.5 Z"/></g>
<g><path style="opacity:0.004" fill="#000000" d="M 221.5,109.5 C 222.629,111.628 222.796,113.961 222,116.5C 221.503,114.19 221.337,111.857 221.5,109.5 Z"/></g>
<g><path style="opacity:0.004" fill="#000000" d="M 218.5,118.5 C 219.833,119.167 219.833,119.167 218.5,118.5 Z"/></g>
<g><path style="opacity:0.004" fill="#000000" d="M 91.5,119.5 C 92.525,119.897 92.6917,120.563 92,121.5C 91.5357,120.906 91.369,120.239 91.5,119.5 Z"/></g>
<g><path style="opacity:0.004" fill="#000000" d="M 205.5,120.5 C 209.311,119.355 213.311,119.188 217.5,120C 213.514,120.499 209.514,120.666 205.5,120.5 Z"/></g>
<g><path style="opacity:0.004" fill="#000000" d="M 200.5,121.5 C 201.601,120.402 202.934,120.235 204.5,121C 203.207,121.49 201.873,121.657 200.5,121.5 Z"/></g>
<g><path style="opacity:0.004" fill="#000000" d="M 197.5,122.5 C 197.5,122.167 197.5,121.833 197.5,121.5C 200.167,121.833 200.167,122.167 197.5,122.5 Z"/></g>
<g><path style="opacity:0.004" fill="#000000" d="M 90.5,122.5 C 91.5735,123.251 91.7401,124.251 91,125.5C 90.5172,124.552 90.3505,123.552 90.5,122.5 Z"/></g>
<g><path style="opacity:0.008" fill="#000000" d="M 196.5,122.5 C 196.833,122.5 197.167,122.5 197.5,122.5C 197.315,123.17 196.981,123.17 196.5,122.5 Z"/></g>
<g><path style="opacity:0.004" fill="#000000" d="M 89.5,126.5 C 90.6129,127.946 90.7796,129.613 90,131.5C 89.5065,129.866 89.3398,128.199 89.5,126.5 Z"/></g>
<g><path style="opacity:0.004" fill="#000000" d="M 191.5,131.5 C 192.653,137.319 192.819,143.319 192,149.5C 191.501,143.509 191.334,137.509 191.5,131.5 Z"/></g>
<g><path style="opacity:0.004" fill="#000000" d="M 88.5,133.5 C 89.6484,137.981 89.8151,142.648 89,147.5C 88.5008,142.845 88.3342,138.179 88.5,133.5 Z"/></g>
<g><path style="opacity:0.004" fill="#000000" d="M 89.5,149.5 C 90.6291,151.628 90.7958,153.961 90,156.5C 89.5034,154.19 89.3367,151.857 89.5,149.5 Z"/></g>
<g><path style="opacity:0.004" fill="#000000" d="M 193.5,156.5 C 193.167,156.5 192.833,156.5 192.5,156.5C 192.833,148.5 193.167,148.5 193.5,156.5 Z"/></g>
<g><path style="opacity:0.004" fill="#000000" d="M 193.5,156.5 C 194.613,157.946 194.78,159.613 194,161.5C 193.506,159.866 193.34,158.199 193.5,156.5 Z"/></g>
<g><path style="opacity:0.004" fill="#000000" d="M 91.5,162.5 C 90.3871,161.054 90.2204,159.387 91,157.5C 91.4935,159.134 91.6602,160.801 91.5,162.5 Z"/></g>
<g><path style="opacity:0.004" fill="#000000" d="M 91.5,162.5 C 91.8333,162.5 92.1667,162.5 92.5,162.5C 92.5,164.167 92.5,165.833 92.5,167.5C 91.5489,166.081 91.2155,164.415 91.5,162.5 Z"/></g>
<g><path style="opacity:0.004" fill="#000000" d="M 195.5,166.5 C 195.167,166.5 194.833,166.5 194.5,166.5C 194.833,161.167 195.167,161.167 195.5,166.5 Z"/></g>
<g><path style="opacity:0.004" fill="#000000" d="M 195.5,166.5 C 196.434,167.568 196.768,168.901 196.5,170.5C 195.566,169.432 195.232,168.099 195.5,166.5 Z"/></g>
<g><path style="opacity:0.004" fill="#000000" d="M 92.5,167.5 C 93.5983,168.601 93.765,169.934 93,171.5C 92.51,170.207 92.3433,168.873 92.5,167.5 Z"/></g>
<g><path style="opacity:0.914" fill="#311314" d="M 150.5,50.5 C 152.791,53.0447 155.291,54.7114 158,55.5C 157.609,58.0941 158.443,60.4275 160.5,62.5C 161.114,66.1352 161.448,69.8019 161.5,73.5C 172.146,73.6707 172.146,74.1707 161.5,75C 170.833,75.3333 180.167,75.6667 189.5,76C 199.39,76.8612 207.556,81.0278 214,88.5C 214.667,87.1667 215.333,87.1667 216,88.5C 215.475,92.4366 216.308,96.1032 218.5,99.5C 219.111,103.998 219.777,108.498 220.5,113C 220.693,115.008 220.026,116.508 218.5,117.5C 218.124,110.368 216.957,103.368 215,96.5C 213.723,94.2528 212.223,92.2528 210.5,90.5C 205.981,86.0693 200.647,82.9027 194.5,81C 183.539,79.5144 172.539,79.181 161.5,80C 156.204,101.478 142.537,111.478 120.5,110C 116.689,108.93 113.356,107.097 110.5,104.5C 110.013,103.527 109.513,102.527 109,101.5C 101.149,108.864 96.149,117.864 94,128.5C 93.181,139.539 93.5144,150.539 95,161.5C 98.236,175.788 102.069,189.788 106.5,203.5C 107.648,208.095 108.481,212.762 109,217.5C 113.293,221.789 118.459,224.289 124.5,225C 145.355,226.949 165.355,224.116 184.5,216.5C 190.788,215.854 196.121,213.354 200.5,209C 193.85,186.418 189.517,163.418 187.5,140C 187.741,119.072 197.741,111.572 217.5,117.5C 213.018,118.326 208.351,118.826 203.5,119C 201.148,119.24 199.148,120.073 197.5,121.5C 196.833,121.5 196.5,121.833 196.5,122.5C 193.833,122.833 193.833,123.167 196.5,123.5C 194.82,125.527 193.653,127.861 193,130.5C 192.333,126.5 191.667,126.5 191,130.5C 190.333,137.167 190.333,143.833 191,150.5C 191.191,152.708 191.691,154.708 192.5,156.5C 192.322,160.122 192.989,163.456 194.5,166.5C 195.407,173.789 197.073,180.789 199.5,187.5C 199.565,190.428 200.232,193.095 201.5,195.5C 202.553,201.475 203.053,207.475 203,213.5C 202.005,214.066 201.172,214.733 200.5,215.5C 199.209,215.263 198.209,215.596 197.5,216.5C 196.209,216.263 195.209,216.596 194.5,217.5C 193.209,217.263 192.209,217.596 191.5,218.5C 190.209,218.263 189.209,218.596 188.5,219.5C 187.209,219.263 186.209,219.596 185.5,220.5C 184.209,220.263 183.209,220.596 182.5,221.5C 177.173,222.599 171.84,223.766 166.5,225C 168.167,225.333 169.833,225.667 171.5,226C 170.552,226.483 169.552,226.649 168.5,226.5C 168.84,232.415 169.506,238.248 170.5,244C 169.833,244.333 169.167,244.667 168.5,245C 170.025,246.009 171.692,246.509 173.5,246.5C 174.209,247.404 175.209,247.737 176.5,247.5C 178.794,249.653 181.46,251.32 184.5,252.5C 190.481,257.812 195.481,262.812 199.5,267.5C 205.024,265.789 210.69,265.122 216.5,265.5C 221.202,267.02 225.536,269.353 229.5,272.5C 229.5,273.167 229.833,273.5 230.5,273.5C 230.5,274.167 230.833,274.5 231.5,274.5C 233.893,276.736 235.727,279.403 237,282.5C 237.667,283.833 238.333,283.833 239,282.5C 238.878,286.32 239.712,289.987 241.5,293.5C 241.5,295.5 241.5,297.5 241.5,299.5C 240.5,299.5 239.5,299.5 238.5,299.5C 238.435,290.538 235.435,282.705 229.5,276C 228.255,275.209 226.922,274.709 225.5,274.5C 223.266,271.702 220.266,269.869 216.5,269C 212.413,268.238 208.413,268.404 204.5,269.5C 204.167,269.5 203.833,269.5 203.5,269.5C 200.5,270.167 197.5,270.833 194.5,271.5C 195.303,270.577 195.47,269.577 195,268.5C 190.594,263.589 185.76,259.255 180.5,255.5C 176.806,252.986 172.806,250.986 168.5,249.5C 167.983,258.516 163.316,262.016 154.5,260C 150.019,257.939 148.352,254.439 149.5,249.5C 142.642,251.858 136.809,255.858 132,261.5C 124.493,273.514 118.326,286.181 113.5,299.5C 113.167,299.5 112.833,299.5 112.5,299.5C 112.392,297.217 111.559,295.217 110,293.5C 109.248,290.106 109.415,286.773 110.5,283.5C 99.1659,275.836 94.6659,278.836 97,292.5C 98.1362,294.743 98.9695,297.076 99.5,299.5C 98.5,299.5 97.5,299.5 96.5,299.5C 96.5,298.833 96.1667,298.5 95.5,298.5C 95.7373,297.209 95.404,296.209 94.5,295.5C 92.3684,280.406 98.3684,270.406 112.5,265.5C 117.179,265.666 121.845,265.499 126.5,265C 122.167,264.667 117.833,264.333 113.5,264C 117.5,263.667 121.5,263.333 125.5,263C 129.499,260.337 133.165,256.671 136.5,252C 139.502,249.497 142.835,247.497 146.5,246C 145.833,245.667 145.167,245.333 144.5,245C 145.469,240.263 145.803,235.43 145.5,230.5C 139.491,230.666 133.491,230.499 127.5,230C 133.825,229.5 140.158,229.334 146.5,229.5C 146.334,234.179 146.501,238.845 147,243.5C 147.667,238.167 147.667,232.833 147,227.5C 137.49,228.869 127.99,228.535 118.5,226.5C 114.355,224.877 110.855,222.211 108,218.5C 107.276,214.573 106.109,210.906 104.5,207.5C 104.768,205.901 104.434,204.568 103.5,203.5C 103.101,199.884 102.101,196.55 100.5,193.5C 100.59,190.848 99.9238,188.515 98.5,186.5C 98.7678,184.901 98.4345,183.568 97.5,182.5C 96.12,175.646 94.4533,168.98 92.5,162.5C 91.8343,155.173 91.1676,147.839 90.5,140.5C 90.4788,130.252 92.8122,120.585 97.5,111.5C 96.8635,108.861 97.6968,106.528 100,104.5C 100.914,105.654 101.747,105.487 102.5,104C 101.549,103.282 101.383,102.449 102,101.5C 103.281,101.619 104.448,101.119 105.5,100C 104.424,98.2739 104.257,96.4406 105,94.5C 105.333,95.5 105.667,96.5 106,97.5C 104.899,88.1088 106.399,79.1088 110.5,70.5C 110.167,69.8333 109.833,69.1667 109.5,68.5C 111.138,65.6959 112.971,63.0292 115,60.5C 115.333,60.8333 115.667,61.1667 116,61.5C 121.171,56.1469 127.004,51.8136 133.5,48.5C 139.241,47.5067 144.908,48.1733 150.5,50.5 Z M 217.5,290.5 C 217.5,291.167 217.5,291.833 217.5,292.5C 217.167,292.5 216.833,292.5 216.5,292.5C 214.989,290.162 215.323,289.496 217.5,290.5 Z"/></g>
<g><path style="opacity:1" fill="#c38dc1" d="M 110.5,104.5 C 103.22,112.738 99.5535,122.405 99.5,133.5C 96.649,139.663 96.9824,145.663 100.5,151.5C 102.68,163.554 105.18,175.554 108,187.5C 108.997,193.05 108.497,198.383 106.5,203.5C 102.069,189.788 98.236,175.788 95,161.5C 93.5144,150.539 93.181,139.539 94,128.5C 96.149,117.864 101.149,108.864 109,101.5C 109.513,102.527 110.013,103.527 110.5,104.5 Z"/></g>
<g><path style="opacity:1" fill="#3e132f" d="M 103.5,130.5 C 101.722,133.627 100.388,136.96 99.5,140.5C 100.642,148.818 105.308,152.318 113.5,151C 115.949,150.045 117.949,148.545 119.5,146.5C 120.183,146.863 120.85,147.196 121.5,147.5C 115.67,155.073 108.67,156.406 100.5,151.5C 96.9824,145.663 96.649,139.663 99.5,133.5C 100.833,132.5 102.167,131.5 103.5,130.5 Z"/></g>
<g><path style="opacity:1" fill="#441716" d="M 121.5,147.5 C 120.85,147.196 120.183,146.863 119.5,146.5C 117.949,148.545 115.949,150.045 113.5,151C 105.308,152.318 100.642,148.818 99.5,140.5C 100.388,136.96 101.722,133.627 103.5,130.5C 117.769,127.613 123.769,133.279 121.5,147.5 Z"/></g>
<g><path style="opacity:1" fill="#d51c22" d="M 109.5,137.5 C 113.161,137.35 114.161,138.85 112.5,142C 111.551,142.617 110.718,142.451 110,141.5C 109.51,140.207 109.343,138.873 109.5,137.5 Z"/></g>
<g><path style="opacity:1" fill="#631a5f" d="M 210.5,90.5 C 212.223,92.2528 213.723,94.2528 215,96.5C 216.957,103.368 218.124,110.368 218.5,117.5C 218.167,117.5 217.833,117.5 217.5,117.5C 197.741,111.572 187.741,119.072 187.5,140C 189.517,163.418 193.85,186.418 200.5,209C 196.121,213.354 190.788,215.854 184.5,216.5C 183.791,215.596 182.791,215.263 181.5,215.5C 181.863,210.485 183.197,210.318 185.5,215C 186.448,215.483 187.448,215.649 188.5,215.5C 188.664,212.813 188.497,210.146 188,207.5C 180.667,183.501 176.167,159.001 174.5,134C 172.602,107.495 184.602,92.9948 210.5,90.5 Z"/></g>
<g><path style="opacity:1" fill="#8f268c" d="M 210.5,90.5 C 184.602,92.9948 172.602,107.495 174.5,134C 176.167,159.001 180.667,183.501 188,207.5C 188.497,210.146 188.664,212.813 188.5,215.5C 187.448,215.649 186.448,215.483 185.5,215C 183.197,210.318 181.863,210.485 181.5,215.5C 182.791,215.263 183.791,215.596 184.5,216.5C 165.355,224.116 145.355,226.949 124.5,225C 118.459,224.289 113.293,221.789 109,217.5C 108.481,212.762 107.648,208.095 106.5,203.5C 108.497,198.383 108.997,193.05 108,187.5C 105.18,175.554 102.68,163.554 100.5,151.5C 108.67,156.406 115.67,155.073 121.5,147.5C 123.769,133.279 117.769,127.613 103.5,130.5C 102.167,131.5 100.833,132.5 99.5,133.5C 99.5535,122.405 103.22,112.738 110.5,104.5C 113.356,107.097 116.689,108.93 120.5,110C 142.537,111.478 156.204,101.478 161.5,80C 172.539,79.181 183.539,79.5144 194.5,81C 200.647,82.9027 205.981,86.0693 210.5,90.5 Z"/></g>
<g><path style="opacity:0.998" fill="#3e122c" d="M 147.5,129.5 C 146.609,131.609 145.442,133.609 144,135.5C 142.41,147.577 147.577,152.411 159.5,150C 161.303,149.363 162.636,148.197 163.5,146.5C 164.183,146.863 164.85,147.196 165.5,147.5C 160.551,153.968 154.218,155.801 146.5,153C 138.207,144.63 138.54,136.797 147.5,129.5 Z"/></g>
<g><path style="opacity:1" fill="#441717" d="M 165.5,147.5 C 164.85,147.196 164.183,146.863 163.5,146.5C 162.636,148.197 161.303,149.363 159.5,150C 147.577,152.411 142.41,147.577 144,135.5C 145.442,133.609 146.609,131.609 147.5,129.5C 161.882,127.215 167.882,133.215 165.5,147.5 Z"/></g>
<g><path style="opacity:1" fill="#ce1c21" d="M 153.5,136.5 C 154.5,136.5 155.5,136.5 156.5,136.5C 156.5,138.5 156.5,140.5 156.5,142.5C 152.843,141.853 151.843,139.853 153.5,136.5 Z"/></g>
<g><path style="opacity:1" fill="#49162b" d="M 145.5,51.5 C 144.761,51.369 144.094,51.5357 143.5,52C 153.074,58.775 156.241,67.9417 153,79.5C 151.317,92.8442 144.15,101.678 131.5,106C 129.833,106.667 128.167,106.667 126.5,106C 142.554,102.27 151.054,92.1038 152,75.5C 153.456,65.0778 149.622,57.4112 140.5,52.5C 141.756,52.0962 142.923,51.4295 144,50.5C 144.765,50.5699 145.265,50.9033 145.5,51.5 Z"/></g>
<g><path style="opacity:1" fill="#8e278c" d="M 140.5,52.5 C 149.622,57.4112 153.456,65.0778 152,75.5C 151.054,92.1038 142.554,102.27 126.5,106C 128.167,106.667 129.833,106.667 131.5,106C 144.15,101.678 151.317,92.8442 153,79.5C 156.241,67.9417 153.074,58.775 143.5,52C 144.094,51.5357 144.761,51.369 145.5,51.5C 158.427,58.3764 162.927,69.0431 159,83.5C 151.138,104.18 136.638,111.68 115.5,106C 107.635,98.2811 105.468,89.1144 109,78.5C 113.346,64.8203 122.346,55.8203 136,51.5C 137.44,52.1476 138.94,52.4809 140.5,52.5 Z"/></g>
<g><path style="opacity:1" fill="#45141a" d="M 118.5,71.5 C 118.5,70.8333 118.833,70.5 119.5,70.5C 124.572,69.3864 128.239,71.0531 130.5,75.5C 129.902,77.8022 129.569,79.8022 129.5,81.5C 127.608,82.851 125.442,83.5177 123,83.5C 120.992,83.6932 119.492,83.0265 118.5,81.5C 121.93,81.8935 125.096,81.2268 128,79.5C 128.743,77.5594 128.576,75.7261 127.5,74C 124.794,72.0924 121.794,71.259 118.5,71.5 Z"/></g>
<g><path style="opacity:1" fill="#6e2a5c" d="M 130.5,75.5 C 134.473,76.0755 135.473,78.2421 133.5,82C 131.934,82.765 130.601,82.5983 129.5,81.5C 129.569,79.8022 129.902,77.8022 130.5,75.5 Z"/></g>
<g><path style="opacity:1" fill="#d53633" d="M 118.5,71.5 C 121.794,71.259 124.794,72.0924 127.5,74C 128.576,75.7261 128.743,77.5594 128,79.5C 125.096,81.2268 121.93,81.8935 118.5,81.5C 117.833,81.5 117.167,81.5 116.5,81.5C 114.609,79.1643 114.109,76.4976 115,73.5C 115.816,72.1772 116.983,71.5106 118.5,71.5 Z"/></g>
<g><path style="opacity:1" fill="#c48dc3" d="M 119.5,70.5 C 118.833,70.5 118.5,70.8333 118.5,71.5C 116.983,71.5106 115.816,72.1772 115,73.5C 114.109,76.4976 114.609,79.1643 116.5,81.5C 116.893,84.9297 116.227,88.0964 114.5,91C 113.668,91.6877 113.002,91.521 112.5,90.5C 109.209,79.5857 111.876,70.419 120.5,63C 121.635,62.2506 122.635,62.4173 123.5,63.5C 122.408,66.0237 121.074,68.357 119.5,70.5 Z"/></g>
<g><path style="opacity:1" fill="#c58dc4" d="M 126.5,57.5 C 128.167,57.5 129.833,57.5 131.5,57.5C 130.546,61.3109 128.213,62.3109 124.5,60.5C 125.193,59.4822 125.859,58.4822 126.5,57.5 Z"/></g>
<g><path style="opacity:0.004" fill="#000000" d="M 196.5,170.5 C 197.598,171.601 197.765,172.934 197,174.5C 196.51,173.207 196.343,171.873 196.5,170.5 Z"/></g>
<g><path style="opacity:0.004" fill="#000000" d="M 93.5,172.5 C 94.5735,173.251 94.7401,174.251 94,175.5C 93.5172,174.552 93.3505,173.552 93.5,172.5 Z"/></g>
<g><path style="opacity:0.004" fill="#000000" d="M 197.5,175.5 C 198.573,176.251 198.74,177.251 198,178.5C 197.517,177.552 197.351,176.552 197.5,175.5 Z"/></g>
<g><path style="opacity:0.004" fill="#000000" d="M 198.5,179.5 C 199.573,180.251 199.74,181.251 199,182.5C 198.517,181.552 198.351,180.552 198.5,179.5 Z"/></g>
<g><path style="opacity:1" fill="#421618" d="M 117.5,193.5 C 117.435,193.062 117.601,192.728 118,192.5C 120.041,194.974 122.708,195.974 126,195.5C 136.832,195.1 147.332,193.1 157.5,189.5C 158.521,188.998 158.688,188.332 158,187.5C 157.25,188.126 156.416,188.626 155.5,189C 144.233,191.04 132.899,192.04 121.5,192C 120.299,191.097 119.465,189.931 119,188.5C 118.148,189.571 117.315,190.571 116.5,191.5C 116.346,187.975 117.679,185.141 120.5,183C 130.725,178.709 141.391,177.042 152.5,178C 158.435,179.245 161.268,182.745 161,188.5C 157.017,192.383 152.184,194.55 146.5,195C 138.235,196.742 129.901,197.409 121.5,197C 119.676,196.34 118.343,195.173 117.5,193.5 Z"/></g>
<g><path style="opacity:0.004" fill="#341206" d="M 97.5,182.5 C 97.5,183.833 97.5,185.167 97.5,186.5C 96.1667,185.167 96.1667,183.833 97.5,182.5 Z"/></g>
<g><path style="opacity:0.004" fill="#000000" d="M 200.5,187.5 C 200.167,187.5 199.833,187.5 199.5,187.5C 199.833,182.167 200.167,182.167 200.5,187.5 Z"/></g>
<g><path style="opacity:0.004" fill="#000000" d="M 97.5,186.5 C 97.8333,186.5 98.1667,186.5 98.5,186.5C 98.1667,190.5 97.8333,190.5 97.5,186.5 Z"/></g>
<g><path style="opacity:0.004" fill="#000000" d="M 200.5,187.5 C 201.573,188.251 201.74,189.251 201,190.5C 200.517,189.552 200.351,188.552 200.5,187.5 Z"/></g>
<g><path style="opacity:0.004" fill="#000000" d="M 99.5,193.5 C 98.4265,192.749 98.2599,191.749 99,190.5C 99.4828,191.448 99.6495,192.448 99.5,193.5 Z"/></g>
<g><path style="opacity:0.999" fill="#3a1035" d="M 117.5,193.5 C 116.662,193.158 116.328,192.492 116.5,191.5C 117.315,190.571 118.148,189.571 119,188.5C 119.465,189.931 120.299,191.097 121.5,192C 132.899,192.04 144.233,191.04 155.5,189C 156.416,188.626 157.25,188.126 158,187.5C 158.688,188.332 158.521,188.998 157.5,189.5C 147.332,193.1 136.832,195.1 126,195.5C 122.708,195.974 120.041,194.974 118,192.5C 117.601,192.728 117.435,193.062 117.5,193.5 Z"/></g>
<g><path style="opacity:0.004" fill="#000000" d="M 202.5,195.5 C 202.167,195.5 201.833,195.5 201.5,195.5C 201.833,190.167 202.167,190.167 202.5,195.5 Z"/></g>
<g><path style="opacity:0.004" fill="#000000" d="M 99.5,193.5 C 99.8333,193.5 100.167,193.5 100.5,193.5C 100.167,197.5 99.8333,197.5 99.5,193.5 Z"/></g>
<g><path style="opacity:0.004" fill="#000000" d="M 202.5,195.5 C 203.598,196.601 203.765,197.934 203,199.5C 202.51,198.207 202.343,196.873 202.5,195.5 Z"/></g>
<g><path style="opacity:0.004" fill="#000000" d="M 100.5,197.5 C 101.573,198.251 101.74,199.251 101,200.5C 100.517,199.552 100.351,198.552 100.5,197.5 Z"/></g>
<g><path style="opacity:0.004" fill="#000000" d="M 203.5,200.5 C 204.613,201.946 204.78,203.613 204,205.5C 203.506,203.866 203.34,202.199 203.5,200.5 Z"/></g>
<g><path style="opacity:0.004" fill="#341206" d="M 103.5,203.5 C 103.5,204.833 103.5,206.167 103.5,207.5C 102.167,206.167 102.167,204.833 103.5,203.5 Z"/></g>
<g><path style="opacity:0.004" fill="#000000" d="M 204.5,206.5 C 205.629,208.628 205.796,210.961 205,213.5C 204.503,211.19 204.337,208.857 204.5,206.5 Z"/></g>
<g><path style="opacity:0.004" fill="#000000" d="M 103.5,207.5 C 103.833,207.5 104.167,207.5 104.5,207.5C 104.167,211.5 103.833,211.5 103.5,207.5 Z"/></g>
<g><path style="opacity:0.004" fill="#000000" d="M 104.5,211.5 C 105.573,212.251 105.74,213.251 105,214.5C 104.517,213.552 104.351,212.552 104.5,211.5 Z"/></g>
<g><path style="opacity:0.004" fill="#000000" d="M 200.5,216.5 C 200.5,216.167 200.5,215.833 200.5,215.5C 203.167,215.833 203.167,216.167 200.5,216.5 Z"/></g>
<g><path style="opacity:0.004" fill="#3f1408" d="M 105.5,215.5 C 106.573,216.251 106.74,217.251 106,218.5C 105.517,217.552 105.351,216.552 105.5,215.5 Z"/></g>
<g><path style="opacity:0.004" fill="#000000" d="M 197.5,217.5 C 197.5,217.167 197.5,216.833 197.5,216.5C 198.5,216.5 199.5,216.5 200.5,216.5C 199.791,217.404 198.791,217.737 197.5,217.5 Z"/></g>
<g><path style="opacity:0.004" fill="#000000" d="M 194.5,218.5 C 194.5,218.167 194.5,217.833 194.5,217.5C 195.5,217.5 196.5,217.5 197.5,217.5C 196.791,218.404 195.791,218.737 194.5,218.5 Z"/></g>
<g><path style="opacity:0.004" fill="#000000" d="M 191.5,219.5 C 191.5,219.167 191.5,218.833 191.5,218.5C 192.5,218.5 193.5,218.5 194.5,218.5C 193.791,219.404 192.791,219.737 191.5,219.5 Z"/></g>
<g><path style="opacity:0.004" fill="#000000" d="M 188.5,220.5 C 188.5,220.167 188.5,219.833 188.5,219.5C 189.5,219.5 190.5,219.5 191.5,219.5C 190.791,220.404 189.791,220.737 188.5,220.5 Z"/></g>
<g><path style="opacity:0.004" fill="#000000" d="M 185.5,221.5 C 185.5,221.167 185.5,220.833 185.5,220.5C 186.5,220.5 187.5,220.5 188.5,220.5C 187.791,221.404 186.791,221.737 185.5,221.5 Z"/></g>
<g><path style="opacity:0.004" fill="#000000" d="M 182.5,222.5 C 182.5,222.167 182.5,221.833 182.5,221.5C 183.5,221.5 184.5,221.5 185.5,221.5C 184.791,222.404 183.791,222.737 182.5,222.5 Z"/></g>
<g><path style="opacity:0.004" fill="#000000" d="M 182.5,222.5 C 181.749,223.573 180.749,223.74 179.5,223C 180.448,222.517 181.448,222.351 182.5,222.5 Z"/></g>
<g><path style="opacity:0.004" fill="#000000" d="M 118.5,226.5 C 118.5,226.833 118.5,227.167 118.5,227.5C 114.5,227.167 114.5,226.833 118.5,226.5 Z"/></g>
<g><path style="opacity:0.004" fill="#000000" d="M 118.5,227.5 C 119.552,227.351 120.552,227.517 121.5,228C 120.251,228.74 119.251,228.573 118.5,227.5 Z"/></g>
<g><path style="opacity:0.004" fill="#000000" d="M 122.5,229.5 C 123.601,228.402 124.934,228.235 126.5,229C 125.207,229.49 123.873,229.657 122.5,229.5 Z"/></g>
<g><path style="opacity:1" fill="#656365" d="M 153.5,226.5 C 157.167,227.833 160.833,227.833 164.5,226.5C 164.813,229.247 164.48,231.914 163.5,234.5C 160.308,235.866 156.974,236.699 153.5,237C 156.894,237.752 160.227,237.585 163.5,236.5C 165.024,240.27 164.691,243.77 162.5,247C 163.448,247.483 164.448,247.649 165.5,247.5C 167.437,254.388 164.937,257.721 158,257.5C 155.648,257.695 153.648,257.028 152,255.5C 150.555,246.274 150.055,236.94 150.5,227.5C 151.791,227.737 152.791,227.404 153.5,226.5 Z"/></g>
<g><path style="opacity:0.006" fill="#000000" d="M 173.5,245.5 C 172.761,245.631 172.094,245.464 171.5,245C 172.437,244.308 173.103,244.475 173.5,245.5 Z"/></g>
<g><path style="opacity:0.004" fill="#000000" d="M 173.5,246.5 C 173.5,246.167 173.5,245.833 173.5,245.5C 176.167,245.833 176.167,246.167 173.5,246.5 Z"/></g>
<g><path style="opacity:0.004" fill="#000000" d="M 176.5,246.5 C 177.833,247.167 177.833,247.167 176.5,246.5 Z"/></g>
<g><path style="opacity:0.004" fill="#000000" d="M 184.5,251.5 C 185.833,252.167 185.833,252.167 184.5,251.5 Z"/></g>
<g><path style="opacity:1" fill="#c08cbd" d="M 180.5,255.5 C 177.899,259.771 174.566,263.437 170.5,266.5C 165.722,264.388 160.722,263.055 155.5,262.5C 148.765,261.173 141.932,261.173 135,262.5C 131.783,268.606 128.783,274.94 126,281.5C 123.876,287.326 122.709,293.326 122.5,299.5C 119.5,299.5 116.5,299.5 113.5,299.5C 118.326,286.181 124.493,273.514 132,261.5C 136.809,255.858 142.642,251.858 149.5,249.5C 148.352,254.439 150.019,257.939 154.5,260C 163.316,262.016 167.983,258.516 168.5,249.5C 172.806,250.986 176.806,252.986 180.5,255.5 Z"/></g>
<g><path style="opacity:1" fill="#641b61" d="M 180.5,255.5 C 185.76,259.255 190.594,263.589 195,268.5C 195.47,269.577 195.303,270.577 194.5,271.5C 193.167,271.5 192.5,272.167 192.5,273.5C 191.883,273.611 191.383,273.944 191,274.5C 188.965,281.098 191.132,285.432 197.5,287.5C 199.445,286.872 201.112,285.872 202.5,284.5C 204.144,284.286 205.644,284.62 207,285.5C 209.78,290.062 212.28,294.728 214.5,299.5C 208.167,299.5 201.833,299.5 195.5,299.5C 191.74,284.957 183.407,273.957 170.5,266.5C 174.566,263.437 177.899,259.771 180.5,255.5 Z"/></g>
<g><path style="opacity:1" fill="#8e278b" d="M 155.5,262.5 C 175.35,267.348 188.016,279.682 193.5,299.5C 169.833,299.5 146.167,299.5 122.5,299.5C 122.709,293.326 123.876,287.326 126,281.5C 128.783,274.94 131.783,268.606 135,262.5C 141.932,261.173 148.765,261.173 155.5,262.5 Z"/></g>
<g><path style="opacity:0.005" fill="#000000" d="M 204.5,264.5 C 207.976,263.357 211.642,263.19 215.5,264C 211.848,264.499 208.182,264.665 204.5,264.5 Z"/></g>
<g><path style="opacity:0.004" fill="#000000" d="M 112.5,265.5 C 111.448,265.649 110.448,265.483 109.5,265C 110.749,264.26 111.749,264.427 112.5,265.5 Z"/></g>
<g><path style="opacity:0.005" fill="#000000" d="M 200.5,265.5 C 201.251,264.427 202.251,264.26 203.5,265C 202.552,265.483 201.552,265.649 200.5,265.5 Z"/></g>
<g><path style="opacity:0.004" fill="#000000" d="M 216.5,265.5 C 217.251,264.427 218.251,264.26 219.5,265C 218.552,265.483 217.552,265.649 216.5,265.5 Z"/></g>
<g><path style="opacity:1" fill="#565658" d="M 225.5,274.5 C 223.078,275.085 221.411,276.585 220.5,279C 216.129,279.828 211.795,279.661 207.5,278.5C 205.126,275.972 204.126,272.972 204.5,269.5C 208.413,268.404 212.413,268.238 216.5,269C 220.266,269.869 223.266,271.702 225.5,274.5 Z"/></g>
<g><path style="opacity:1" fill="#575658" d="M 203.5,269.5 C 203.416,273.331 204.083,276.998 205.5,280.5C 201.525,281.664 197.525,282.497 193.5,283C 191.161,280.113 190.828,276.946 192.5,273.5C 192.5,272.167 193.167,271.5 194.5,271.5C 197.5,270.833 200.5,270.167 203.5,269.5 Z"/></g>
<g><path style="opacity:0.004" fill="#000000" d="M 229.5,272.5 C 229.897,271.475 230.563,271.308 231.5,272C 232.774,272.977 232.774,273.811 231.5,274.5C 230.833,274.5 230.5,274.167 230.5,273.5C 229.833,273.5 229.5,273.167 229.5,272.5 Z"/></g>
<g><path style="opacity:1" fill="#5f5f61" d="M 110.5,268.5 C 112.857,268.337 115.19,268.503 117.5,269C 118.874,272.41 119.541,272.243 119.5,268.5C 121.288,268.215 122.955,268.548 124.5,269.5C 123.333,271.833 122.167,274.167 121,276.5C 120.667,275.167 120.333,273.833 120,272.5C 119.503,275.146 119.336,277.813 119.5,280.5C 116.751,280.274 114.084,280.607 111.5,281.5C 108.098,279.433 104.431,278.1 100.5,277.5C 103.066,273.566 106.399,270.566 110.5,268.5 Z"/></g>
<g><path style="opacity:1" fill="#474042" d="M 203.5,269.5 C 203.833,269.5 204.167,269.5 204.5,269.5C 204.126,272.972 205.126,275.972 207.5,278.5C 211.795,279.661 216.129,279.828 220.5,279C 221.411,276.585 223.078,275.085 225.5,274.5C 226.922,274.709 228.255,275.209 229.5,276C 235.435,282.705 238.435,290.538 238.5,299.5C 234.167,299.5 229.833,299.5 225.5,299.5C 225.611,298.883 225.944,298.383 226.5,298C 229.167,297.667 231.833,297.333 234.5,297C 231.183,296.502 227.85,296.335 224.5,296.5C 222.454,288.288 217.288,283.288 209,281.5C 206.467,281.95 204.3,282.95 202.5,284.5C 201.112,285.872 199.445,286.872 197.5,287.5C 191.132,285.432 188.965,281.098 191,274.5C 191.383,273.944 191.883,273.611 192.5,273.5C 190.828,276.946 191.161,280.113 193.5,283C 197.525,282.497 201.525,281.664 205.5,280.5C 204.083,276.998 203.416,273.331 203.5,269.5 Z"/></g>
<g><path style="opacity:0.004" fill="#000000" d="M 93.5,295.5 C 92.353,291.354 92.1864,287.02 93,282.5C 93.499,286.821 93.6657,291.154 93.5,295.5 Z"/></g>
<g><path style="opacity:0.811" fill="#311312" d="M 225.5,299.5 C 224.167,299.5 222.833,299.5 221.5,299.5C 221.167,294.167 220.833,294.167 220.5,299.5C 220.167,299.5 219.833,299.5 219.5,299.5C 219.167,296.833 218.833,296.833 218.5,299.5C 217.167,299.5 215.833,299.5 214.5,299.5C 212.28,294.728 209.78,290.062 207,285.5C 205.644,284.62 204.144,284.286 202.5,284.5C 204.3,282.95 206.467,281.95 209,281.5C 217.288,283.288 222.454,288.288 224.5,296.5C 227.85,296.335 231.183,296.502 234.5,297C 231.833,297.333 229.167,297.667 226.5,298C 225.944,298.383 225.611,298.883 225.5,299.5 Z M 217.5,290.5 C 217.5,291.167 217.5,291.833 217.5,292.5C 217.167,292.5 216.833,292.5 216.5,292.5C 214.989,290.162 215.323,289.496 217.5,290.5 Z"/></g>
<g><path style="opacity:0.004" fill="#000000" d="M 241.5,293.5 C 241.343,292.127 241.51,290.793 242,289.5C 242.765,291.066 242.598,292.399 241.5,293.5 Z"/></g>
<g><path style="opacity:1" fill="#441624" d="M 155.5,262.5 C 160.722,263.055 165.722,264.388 170.5,266.5C 183.407,273.957 191.74,284.957 195.5,299.5C 194.833,299.5 194.167,299.5 193.5,299.5C 188.016,279.682 175.35,267.348 155.5,262.5 Z"/></g>
<g><path style="opacity:1" fill="#5b5a5c" d="M 112.5,299.5 C 108.167,299.5 103.833,299.5 99.5,299.5C 98.9695,297.076 98.1362,294.743 97,292.5C 94.6659,278.836 99.1659,275.836 110.5,283.5C 109.415,286.773 109.248,290.106 110,293.5C 111.559,295.217 112.392,297.217 112.5,299.5 Z"/></g>
<g><path style="opacity:0.004" fill="#000000" d="M 243.5,299.5 C 243.167,299.5 242.833,299.5 242.5,299.5C 242.833,292.833 243.167,292.833 243.5,299.5 Z"/></g>
<g><path style="opacity:0.004" fill="#000000" d="M 93.5,295.5 C 93.8333,295.5 94.1667,295.5 94.5,295.5C 94.1667,298.167 93.8333,298.167 93.5,295.5 Z"/></g>
<g><path style="opacity:0.004" fill="#000000" d="M 95.5,298.5 C 95.5,298.833 95.5,299.167 95.5,299.5C 94.8299,299.019 94.8299,298.685 95.5,298.5 Z"/></g>
</svg>
