<?xml version="1.0" encoding="UTF-8"?>
<!DOCTYPE svg PUBLIC "-//W3C//DTD SVG 1.1//EN" "http://www.w3.org/Graphics/SVG/1.1/DTD/svg11.dtd">
<svg xmlns="http://www.w3.org/2000/svg" version="1.1" width="300px" height="300px" style="shape-rendering:geometricPrecision; text-rendering:geometricPrecision; image-rendering:optimizeQuality; fill-rule:evenodd; clip-rule:evenodd" xmlns:xlink="http://www.w3.org/1999/xlink">
<g><path style="opacity:0.004" fill="#000000" d="M 137.5,84.5 C 139.288,83.3775 141.288,83.2109 143.5,84C 141.527,84.4955 139.527,84.6621 137.5,84.5 Z"/></g>
<g><path style="opacity:0.004" fill="#000000" d="M 157.5,84.5 C 155.801,84.6602 154.134,84.4935 152.5,84C 154.387,83.2204 156.054,83.3871 157.5,84.5 Z"/></g>
<g><path style="opacity:0.004" fill="#000000" d="M 133.5,85.5 C 134.251,84.4265 135.251,84.2599 136.5,85C 135.552,85.4828 134.552,85.6495 133.5,85.5 Z"/></g>
<g><path style="opacity:0.004" fill="#000000" d="M 157.5,85.5 C 157.5,85.1667 157.5,84.8333 157.5,84.5C 161.5,84.8333 161.5,85.1667 157.5,85.5 Z"/></g>
<g><path style="opacity:0.004" fill="#000000" d="M 163.5,86.5 C 162.761,86.631 162.094,86.4643 161.5,86C 162.437,85.3083 163.103,85.475 163.5,86.5 Z"/></g>
<g><path style="opacity:0.004" fill="#000000" d="M 163.5,87.5 C 163.5,87.1667 163.5,86.8333 163.5,86.5C 166.167,86.8333 166.167,87.1667 163.5,87.5 Z"/></g>
<g><path style="opacity:0.004" fill="#000000" d="M 166.5,87.5 C 167.833,88.1667 167.833,88.1667 166.5,87.5 Z"/></g>
<g><path style="opacity:0.004" fill="#000000" d="M 121.5,89.5 C 122.833,90.1667 122.833,90.1667 121.5,89.5 Z"/></g>
<g><path style="opacity:1" fill="#1d759b" d="M 158.5,90.5 C 170.498,93.6573 178.998,100.991 184,112.5C 185.948,117.342 187.281,122.342 188,127.5C 188.187,157.22 189.187,186.887 191,216.5C 185.011,219.912 178.844,222.912 172.5,225.5C 173.141,215.111 172.474,205.111 170.5,195.5C 172.355,194.31 174.188,192.977 176,191.5C 176.939,186.864 176.439,182.531 174.5,178.5C 174.841,174.84 174.175,171.507 172.5,168.5C 172.567,166.599 172.233,164.766 171.5,163C 172.5,160.667 173.5,158.333 174.5,156C 174.167,155.5 173.833,155 173.5,154.5C 164.671,159.448 155.671,159.615 146.5,155C 153.448,154.344 160.114,152.677 166.5,150C 169.247,147.891 170.247,145.391 169.5,142.5C 169.5,140.5 169.5,138.5 169.5,136.5C 169.833,136.5 170.167,136.5 170.5,136.5C 171.302,137.952 171.802,139.618 172,141.5C 177.706,127.281 176.04,113.948 167,101.5C 163.951,97.9574 161.118,94.2907 158.5,90.5 Z"/></g>
<g><path style="opacity:0.004" fill="#000000" d="M 112.5,97.5 C 111.833,97.5 111.5,97.8333 111.5,98.5C 109.025,98.2533 109.025,97.5866 111.5,96.5C 112.107,96.6236 112.44,96.9569 112.5,97.5 Z"/></g>
<g><path style="opacity:0.004" fill="#000000" d="M 184.5,105.5 C 185.833,106.167 185.833,106.167 184.5,105.5 Z"/></g>
<g><path style="opacity:0.004" fill="#000000" d="M 188.5,115.5 C 188.369,114.761 188.536,114.094 189,113.5C 189.692,114.437 189.525,115.103 188.5,115.5 Z"/></g>
<g><path style="opacity:0.004" fill="#000000" d="M 191.5,123.5 C 191.167,123.5 190.833,123.5 190.5,123.5C 190.833,118.167 191.167,118.167 191.5,123.5 Z"/></g>
<g><path style="opacity:0.004" fill="#000000" d="M 191.5,123.5 C 192.622,125.288 192.789,127.288 192,129.5C 191.505,127.527 191.338,125.527 191.5,123.5 Z"/></g>
<g><path style="opacity:0.004" fill="#000000" d="M 192.5,130.5 C 193.662,147.328 193.828,164.328 193,181.5C 192.5,164.503 192.333,147.503 192.5,130.5 Z"/></g>
<g><path style="opacity:0.004" fill="#000000" d="M 80.5,137.5 C 81.5735,138.251 81.7401,139.251 81,140.5C 80.5172,139.552 80.3505,138.552 80.5,137.5 Z"/></g>
<g><path style="opacity:0.004" fill="#000000" d="M 79.5,141.5 C 80.525,141.897 80.6917,142.563 80,143.5C 79.5357,142.906 79.369,142.239 79.5,141.5 Z"/></g>
<g><path style="opacity:0.004" fill="#000000" d="M 80.5,145.5 C 81.5735,146.251 81.7401,147.251 81,148.5C 80.5172,147.552 80.3505,146.552 80.5,145.5 Z"/></g>
<g><path style="opacity:0.004" fill="#000000" d="M 85.5,152.5 C 85.5,152.833 85.5,153.167 85.5,153.5C 84.8299,153.019 84.8299,152.685 85.5,152.5 Z"/></g>
<g><path style="opacity:0.004" fill="#000000" d="M 85.5,153.5 C 86.8333,154.167 86.8333,154.167 85.5,153.5 Z"/></g>
<g><path style="opacity:0.004" fill="#000000" d="M 79.5,159.5 C 80.5983,160.601 80.765,161.934 80,163.5C 79.51,162.207 79.3433,160.873 79.5,159.5 Z"/></g>
<g><path style="opacity:0.004" fill="#000000" d="M 80.5,164.5 C 81.5735,165.251 81.7401,166.251 81,167.5C 80.5172,166.552 80.3505,165.552 80.5,164.5 Z"/></g>
<g><path style="opacity:1" fill="#f0e22f" d="M 171.5,168.5 C 167.386,171.551 162.72,173.551 157.5,174.5C 157.649,173.448 157.483,172.448 157,171.5C 156.781,172.938 156.281,174.271 155.5,175.5C 150.909,177.147 146.243,178.481 141.5,179.5C 141.5,178.167 141.5,176.833 141.5,175.5C 140.89,174.609 140.557,173.609 140.5,172.5C 150.432,169.967 160.098,166.634 169.5,162.5C 170.768,164.304 171.435,166.304 171.5,168.5 Z"/></g>
<g><path style="opacity:0.91" fill="#362123" d="M 169.5,142.5 C 170.247,145.391 169.247,147.891 166.5,150C 160.114,152.677 153.448,154.344 146.5,155C 155.671,159.615 164.671,159.448 173.5,154.5C 173.833,155 174.167,155.5 174.5,156C 173.5,158.333 172.5,160.667 171.5,163C 172.233,164.766 172.567,166.599 172.5,168.5C 172.167,168.5 171.833,168.5 171.5,168.5C 171.435,166.304 170.768,164.304 169.5,162.5C 160.098,166.634 150.432,169.967 140.5,172.5C 138.833,172.5 137.167,172.5 135.5,172.5C 133.095,173.768 130.428,174.435 127.5,174.5C 120.978,174.177 114.645,174.51 108.5,175.5C 109.15,177.435 109.483,179.435 109.5,181.5C 109.5,181.833 109.5,182.167 109.5,182.5C 108.515,179.943 107.515,177.276 106.5,174.5C 106.167,174.833 105.833,175.167 105.5,175.5C 107.61,182.211 108.276,188.878 107.5,195.5C 106.552,188.093 105.218,180.759 103.5,173.5C 100.833,173.5 98.1667,173.5 95.5,173.5C 98.8365,189.182 102.337,204.848 106,220.5C 106.417,221.756 107.25,222.423 108.5,222.5C 112.141,225.805 115.808,229.138 119.5,232.5C 120.105,234.481 121.105,234.815 122.5,233.5C 122.936,235.746 123.603,237.913 124.5,240C 127.482,240.498 130.482,240.665 133.5,240.5C 130.311,241.166 126.977,241.833 123.5,242.5C 125.396,243.466 127.396,243.799 129.5,243.5C 127.393,244.468 125.059,244.802 122.5,244.5C 122.737,243.209 122.404,242.209 121.5,241.5C 121.167,240.167 120.833,240.167 120.5,241.5C 119.209,240.458 119.209,239.292 120.5,238C 118.667,236.167 116.833,234.333 115,232.5C 113.636,233.258 112.469,232.758 111.5,231C 112.167,230.667 112.833,230.333 113.5,230C 110.37,227.872 107.537,225.372 105,222.5C 103.966,218.667 102.8,215.001 101.5,211.5C 101.768,209.901 101.434,208.568 100.5,207.5C 100.768,205.901 100.434,204.568 99.5,203.5C 98.1016,195.24 96.1016,187.24 93.5,179.5C 93.7845,177.585 93.4511,175.919 92.5,174.5C 90.1572,173.656 87.8239,172.656 85.5,171.5C 82.2439,167.502 81.4106,163.169 83,158.5C 84.2426,160.833 85.9093,161.5 88,160.5C 88.7429,158.559 88.5762,156.726 87.5,155C 88.1667,154.667 88.8333,154.333 89.5,154C 88.5842,153.722 87.9175,153.222 87.5,152.5C 87.0472,151.542 86.3805,150.708 85.5,150C 85.7284,149.601 86.0618,149.435 86.5,149.5C 88.3716,150.511 90.3716,151.345 92.5,152C 112.167,152.667 131.833,152.667 151.5,152C 156.056,151.891 160.389,150.891 164.5,149C 165.406,147.301 165.739,145.467 165.5,143.5C 165.833,143.5 166.167,143.5 166.5,143.5C 167.193,146.967 168.193,146.634 169.5,142.5 Z"/></g>
<g><path style="opacity:1" fill="#64b2d4" d="M 113.5,155.5 C 117.219,155.002 120.553,155.836 123.5,158C 120.591,160.839 120.925,163.006 124.5,164.5C 128.131,163.239 128.464,161.239 125.5,158.5C 126.665,157.416 127.998,156.583 129.5,156C 133.833,155.333 138.167,155.333 142.5,156C 151.973,160.375 161.64,161.375 171.5,159C 168.695,162.1 165.362,163.267 161.5,162.5C 159.49,165.017 156.823,166.517 153.5,167C 142.173,166.801 130.839,166.801 119.5,167C 111.85,169.37 104.017,170.87 96,171.5C 92.4633,171.828 89.2966,170.995 86.5,169C 84.6635,167.149 83.8302,164.983 84,162.5C 87.6814,165.36 91.8481,166.193 96.5,165C 102.52,162.327 108.187,159.16 113.5,155.5 Z"/></g>
<g><path style="opacity:0.994" fill="#73bde0" d="M 92.5,154.5 C 98.1181,155.242 103.785,155.742 109.5,156C 104.782,159.86 99.4487,162.36 93.5,163.5C 93.0371,160.518 92.7038,157.518 92.5,154.5 Z"/></g>
<g><path style="opacity:0.953" fill="#2b90be" d="M 135.5,172.5 C 126.465,173.961 117.465,173.794 108.5,172C 119.614,168.181 130.947,167.514 142.5,170C 140.073,170.902 137.74,171.736 135.5,172.5 Z"/></g>
<g><path style="opacity:0.004" fill="#000000" d="M 85.5,171.5 C 85.5,171.833 85.5,172.167 85.5,172.5C 84.8299,172.019 84.8299,171.685 85.5,171.5 Z"/></g>
<g><path style="opacity:0.004" fill="#000000" d="M 85.5,172.5 C 86.8333,173.167 86.8333,173.167 85.5,172.5 Z"/></g>
<g><path style="opacity:1" fill="#f1a83e" d="M 135.5,172.5 C 137.167,172.5 138.833,172.5 140.5,172.5C 140.557,173.609 140.89,174.609 141.5,175.5C 140.549,176.919 140.216,178.585 140.5,180.5C 134.15,181.447 127.816,181.447 121.5,180.5C 120.833,179.167 120.167,177.833 119.5,176.5C 122.306,175.832 124.972,175.166 127.5,174.5C 130.428,174.435 133.095,173.768 135.5,172.5 Z"/></g>
<g><path style="opacity:0.004" fill="#000000" d="M 92.5,174.5 C 92.5,176.167 92.5,177.833 92.5,179.5C 91.5655,178.432 91.2322,177.099 91.5,175.5C 87.8284,174.955 88.1617,174.622 92.5,174.5 Z"/></g>
<g><path style="opacity:1" fill="#85cae9" d="M 107.5,195.5 C 107.5,196.167 107.5,196.833 107.5,197.5C 108.288,205.809 108.621,214.142 108.5,222.5C 107.25,222.423 106.417,221.756 106,220.5C 102.337,204.848 98.8365,189.182 95.5,173.5C 98.1667,173.5 100.833,173.5 103.5,173.5C 105.218,180.759 106.552,188.093 107.5,195.5 Z"/></g>
<g><path style="opacity:1" fill="#f3e730" d="M 108.5,175.5 C 111.833,175.5 115.167,175.5 118.5,175.5C 118.586,177.677 119.253,179.677 120.5,181.5C 118.604,182.466 116.604,182.799 114.5,182.5C 112.708,182.634 111.042,182.301 109.5,181.5C 109.483,179.435 109.15,177.435 108.5,175.5 Z"/></g>
<g><path style="opacity:0.004" fill="#000000" d="M 92.5,179.5 C 92.8333,179.5 93.1667,179.5 93.5,179.5C 93.1667,184.833 92.8333,184.833 92.5,179.5 Z"/></g>
<g><path style="opacity:0.004" fill="#000000" d="M 193.5,183.5 C 194.638,186.304 194.805,189.304 194,192.5C 193.502,189.518 193.335,186.518 193.5,183.5 Z"/></g>
<g><path style="opacity:0.004" fill="#000000" d="M 93.5,184.5 C 94.5735,185.251 94.7401,186.251 94,187.5C 93.5172,186.552 93.3505,185.552 93.5,184.5 Z"/></g>
<g><path style="opacity:1" fill="#643f1e" d="M 171.5,168.5 C 171.833,168.5 172.167,168.5 172.5,168.5C 174.175,171.507 174.841,174.84 174.5,178.5C 174.5,179.833 174.5,181.167 174.5,182.5C 170.241,183.815 165.907,184.982 161.5,186C 161.173,188.685 161.173,191.518 161.5,194.5C 161.5,195.167 161.167,195.5 160.5,195.5C 160.167,192.833 159.833,190.167 159.5,187.5C 154.153,188.073 148.82,188.74 143.5,189.5C 143.397,192.219 143.731,194.885 144.5,197.5C 144.747,198.713 145.414,199.38 146.5,199.5C 144.852,200.927 142.852,201.76 140.5,202C 135.511,202.499 130.511,202.666 125.5,202.5C 125.5,202.167 125.5,201.833 125.5,201.5C 131.665,201.966 137.665,201.299 143.5,199.5C 142.833,196.833 142.167,194.167 141.5,191.5C 135.9,191.124 130.234,191.124 124.5,191.5C 124.5,194.833 124.5,198.167 124.5,201.5C 124.167,201.5 123.833,201.5 123.5,201.5C 123.664,198.813 123.497,196.146 123,193.5C 121.902,192.033 120.402,191.199 118.5,191C 119.938,190.781 121.271,190.281 122.5,189.5C 121.846,187.885 121.346,186.218 121,184.5C 118.723,183.883 116.556,183.216 114.5,182.5C 116.604,182.799 118.604,182.466 120.5,181.5C 119.253,179.677 118.586,177.677 118.5,175.5C 115.167,175.5 111.833,175.5 108.5,175.5C 114.645,174.51 120.978,174.177 127.5,174.5C 124.972,175.166 122.306,175.832 119.5,176.5C 120.167,177.833 120.833,179.167 121.5,180.5C 127.816,181.447 134.15,181.447 140.5,180.5C 140.216,178.585 140.549,176.919 141.5,175.5C 141.5,176.833 141.5,178.167 141.5,179.5C 146.243,178.481 150.909,177.147 155.5,175.5C 156.281,174.271 156.781,172.938 157,171.5C 157.483,172.448 157.649,173.448 157.5,174.5C 162.72,173.551 167.386,171.551 171.5,168.5 Z"/></g>
<g><path style="opacity:1" fill="#f1a83e" d="M 170.5,171.5 C 171.75,171.577 172.583,172.244 173,173.5C 173.497,176.146 173.664,178.813 173.5,181.5C 168.761,182.185 164.094,183.185 159.5,184.5C 158.997,179.5 158.664,179.833 158.5,185.5C 153.704,185.866 149.037,186.866 144.5,188.5C 143.914,188.291 143.414,187.957 143,187.5C 142.503,185.19 142.337,182.857 142.5,180.5C 146.93,179.976 151.264,178.976 155.5,177.5C 156.647,177.818 157.481,178.484 158,179.5C 158.249,178.376 158.749,177.376 159.5,176.5C 163.376,175.058 167.043,173.391 170.5,171.5 Z"/></g>
<g><path style="opacity:0.004" fill="#000000" d="M 94.5,188.5 C 95.5735,189.251 95.7401,190.251 95,191.5C 94.5172,190.552 94.3505,189.552 94.5,188.5 Z"/></g>
<g><path style="opacity:0.004" fill="#000000" d="M 95.5,192.5 C 96.5735,193.251 96.7401,194.251 96,195.5C 95.5172,194.552 95.3505,193.552 95.5,192.5 Z"/></g>
<g><path style="opacity:0.004" fill="#000000" d="M 194.5,194.5 C 195.634,196.966 195.801,199.633 195,202.5C 194.503,199.854 194.336,197.187 194.5,194.5 Z"/></g>
<g><path style="opacity:0.004" fill="#000000" d="M 96.5,196.5 C 97.5735,197.251 97.7401,198.251 97,199.5C 96.5172,198.552 96.3505,197.552 96.5,196.5 Z"/></g>
<g><path style="opacity:0.004" fill="#000000" d="M 98.5,203.5 C 97.4265,202.749 97.2599,201.749 98,200.5C 98.4828,201.448 98.6495,202.448 98.5,203.5 Z"/></g>
<g><path style="opacity:0.871" fill="#352f35" d="M 109.5,182.5 C 110.895,187.742 112.061,193.076 113,198.5C 116.293,200.208 119.793,201.208 123.5,201.5C 123.833,201.5 124.167,201.5 124.5,201.5C 124.833,201.5 125.167,201.5 125.5,201.5C 125.5,201.833 125.5,202.167 125.5,202.5C 124.448,202.351 123.448,202.517 122.5,203C 137.049,205.097 151.049,203.097 164.5,197C 165.696,196.346 165.696,195.846 164.5,195.5C 159.697,197.617 154.697,198.95 149.5,199.5C 152.939,197.796 156.605,196.462 160.5,195.5C 161.167,195.5 161.5,195.167 161.5,194.5C 165.598,192.952 169.598,191.119 173.5,189C 174.423,186.959 174.756,184.792 174.5,182.5C 174.5,181.167 174.5,179.833 174.5,178.5C 176.439,182.531 176.939,186.864 176,191.5C 174.188,192.977 172.355,194.31 170.5,195.5C 150.875,206.566 130.542,208.233 109.5,200.5C 108.824,199.398 108.158,198.398 107.5,197.5C 107.5,196.833 107.5,196.167 107.5,195.5C 108.276,188.878 107.61,182.211 105.5,175.5C 105.833,175.167 106.167,174.833 106.5,174.5C 107.515,177.276 108.515,179.943 109.5,182.5 Z"/></g>
<g><path style="opacity:0.996" fill="#1d4d66" d="M 125.5,202.5 C 130.511,202.666 135.511,202.499 140.5,202C 142.852,201.76 144.852,200.927 146.5,199.5C 147.5,199.5 148.5,199.5 149.5,199.5C 154.697,198.95 159.697,197.617 164.5,195.5C 165.696,195.846 165.696,196.346 164.5,197C 151.049,203.097 137.049,205.097 122.5,203C 123.448,202.517 124.448,202.351 125.5,202.5 Z"/></g>
<g><path style="opacity:1" fill="#eea63d" d="M 109.5,181.5 C 111.042,182.301 112.708,182.634 114.5,182.5C 116.556,183.216 118.723,183.883 121,184.5C 121.346,186.218 121.846,187.885 122.5,189.5C 121.271,190.281 119.938,190.781 118.5,191C 120.402,191.199 121.902,192.033 123,193.5C 123.497,196.146 123.664,198.813 123.5,201.5C 119.793,201.208 116.293,200.208 113,198.5C 112.061,193.076 110.895,187.742 109.5,182.5C 109.5,182.167 109.5,181.833 109.5,181.5 Z"/></g>
<g><path style="opacity:1" fill="#f5ab3e" d="M 125.5,201.5 C 125.167,201.5 124.833,201.5 124.5,201.5C 124.5,198.167 124.5,194.833 124.5,191.5C 130.234,191.124 135.9,191.124 141.5,191.5C 142.167,194.167 142.833,196.833 143.5,199.5C 137.665,201.299 131.665,201.966 125.5,201.5 Z"/></g>
<g><path style="opacity:1" fill="#f5e830" d="M 160.5,195.5 C 156.605,196.462 152.939,197.796 149.5,199.5C 148.5,199.5 147.5,199.5 146.5,199.5C 145.414,199.38 144.747,198.713 144.5,197.5C 143.731,194.885 143.397,192.219 143.5,189.5C 148.82,188.74 154.153,188.073 159.5,187.5C 159.833,190.167 160.167,192.833 160.5,195.5 Z"/></g>
<g><path style="opacity:1" fill="#eea63d" d="M 174.5,182.5 C 174.756,184.792 174.423,186.959 173.5,189C 169.598,191.119 165.598,192.952 161.5,194.5C 161.173,191.518 161.173,188.685 161.5,186C 165.907,184.982 170.241,183.815 174.5,182.5 Z"/></g>
<g><path style="opacity:1" fill="#f1e42f" d="M 138.5,181.5 C 139.5,181.5 140.5,181.5 141.5,181.5C 141.5,184.167 141.5,186.833 141.5,189.5C 135.5,189.833 129.5,190.167 123.5,190.5C 123.682,188.409 123.348,186.409 122.5,184.5C 127.997,183.64 133.33,182.64 138.5,181.5 Z"/></g>
<g><path style="opacity:0.004" fill="#180d30" d="M 98.5,203.5 C 98.8333,203.5 99.1667,203.5 99.5,203.5C 99.5,204.833 99.5,206.167 99.5,207.5C 98.5655,206.432 98.2322,205.099 98.5,203.5 Z"/></g>
<g><path style="opacity:1" fill="#26a7dd" d="M 170.5,195.5 C 172.474,205.111 173.141,215.111 172.5,225.5C 170.54,227.156 168.54,228.823 166.5,230.5C 165.251,227.913 164.251,225.246 163.5,222.5C 162.993,218.14 162.327,213.807 161.5,209.5C 148.816,209.168 136.149,209.501 123.5,210.5C 122.667,212.167 121.833,213.833 121,215.5C 120.827,221.348 120.327,227.015 119.5,232.5C 115.808,229.138 112.141,225.805 108.5,222.5C 108.621,214.142 108.288,205.809 107.5,197.5C 108.158,198.398 108.824,199.398 109.5,200.5C 130.542,208.233 150.875,206.566 170.5,195.5 Z"/></g>
<g><path style="opacity:0.004" fill="#000000" d="M 195.5,205.5 C 196.643,208.976 196.81,212.642 196,216.5C 195.501,212.848 195.335,209.182 195.5,205.5 Z"/></g>
<g><path style="opacity:0.004" fill="#180d30" d="M 99.5,207.5 C 99.8333,207.5 100.167,207.5 100.5,207.5C 100.5,208.833 100.5,210.167 100.5,211.5C 99.5655,210.432 99.2322,209.099 99.5,207.5 Z"/></g>
<g><path style="opacity:0.004" fill="#303030" d="M 100.5,211.5 C 100.833,211.5 101.167,211.5 101.5,211.5C 101.167,216.833 100.833,216.833 100.5,211.5 Z"/></g>
<g><path style="opacity:1" fill="#26a7de" d="M 155.5,218.5 C 154.441,226.151 155.108,233.817 157.5,241.5C 156.833,241.5 156.167,241.5 155.5,241.5C 148.196,240.698 140.862,240.365 133.5,240.5C 130.482,240.665 127.482,240.498 124.5,240C 123.603,237.913 122.936,235.746 122.5,233.5C 120.796,226.075 121.463,218.908 124.5,212C 135.5,211.333 146.5,211.333 157.5,212C 155.984,213.897 155.317,216.064 155.5,218.5 Z"/></g>
<g><path style="opacity:0.004" fill="#000000" d="M 102.5,220.5 C 101.402,219.399 101.235,218.066 102,216.5C 102.49,217.793 102.657,219.127 102.5,220.5 Z"/></g>
<g><path style="opacity:1" fill="#1f6f93" d="M 163.5,222.5 C 164.251,225.246 165.251,227.913 166.5,230.5C 162.625,233.234 159.959,236.9 158.5,241.5C 158.167,241.5 157.833,241.5 157.5,241.5C 155.108,233.817 154.441,226.151 155.5,218.5C 156.783,216.751 158.283,214.418 160,211.5C 160.761,215.999 161.927,219.666 163.5,222.5 Z"/></g>
<g><path style="opacity:0.004" fill="#000000" d="M 195.5,217.5 C 196.525,217.897 196.692,218.563 196,219.5C 195.536,218.906 195.369,218.239 195.5,217.5 Z"/></g>
<g><path style="opacity:0.004" fill="#000000" d="M 193.5,220.5 C 194.833,221.167 194.833,221.167 193.5,220.5 Z"/></g>
<g><path style="opacity:0.004" fill="#1f0f4f" d="M 102.5,220.5 C 103.525,220.897 103.692,221.563 103,222.5C 102.536,221.906 102.369,221.239 102.5,220.5 Z"/></g>
<g><path style="opacity:0.004" fill="#000000" d="M 191.5,221.5 C 192.833,222.167 192.833,222.167 191.5,221.5 Z"/></g>
<g><path style="opacity:1" fill="#34495d" d="M 163.5,222.5 C 161.927,219.666 160.761,215.999 160,211.5C 158.283,214.418 156.783,216.751 155.5,218.5C 155.317,216.064 155.984,213.897 157.5,212C 146.5,211.333 135.5,211.333 124.5,212C 121.463,218.908 120.796,226.075 122.5,233.5C 121.105,234.815 120.105,234.481 119.5,232.5C 120.327,227.015 120.827,221.348 121,215.5C 121.833,213.833 122.667,212.167 123.5,210.5C 136.149,209.501 148.816,209.168 161.5,209.5C 162.327,213.807 162.993,218.14 163.5,222.5 Z"/></g>
<g><path style="opacity:0.004" fill="#000000" d="M 189.5,222.5 C 190.833,223.167 190.833,223.167 189.5,222.5 Z"/></g>
<g><path style="opacity:0.004" fill="#000000" d="M 187.5,223.5 C 188.833,224.167 188.833,224.167 187.5,223.5 Z"/></g>
<g><path style="opacity:0.004" fill="#000000" d="M 184.5,225.5 C 184.5,225.167 184.5,224.833 184.5,224.5C 187.167,224.833 187.167,225.167 184.5,225.5 Z"/></g>
<g><path style="opacity:0.004" fill="#000000" d="M 182.5,226.5 C 182.5,226.167 182.5,225.833 182.5,225.5C 183.167,225.5 183.833,225.5 184.5,225.5C 184.158,226.338 183.492,226.672 182.5,226.5 Z"/></g>
<g><path style="opacity:0.004" fill="#000000" d="M 180.5,226.5 C 181.167,226.5 181.833,226.5 182.5,226.5C 181.833,227.833 181.167,227.833 180.5,226.5 Z"/></g>
<g><path style="opacity:0.004" fill="#000000" d="M 172.5,231.5 C 172.5,231.167 172.5,230.833 172.5,230.5C 175.167,230.833 175.167,231.167 172.5,231.5 Z"/></g>
<g><path style="opacity:0.004" fill="#000000" d="M 170.5,232.5 C 170.5,232.167 170.5,231.833 170.5,231.5C 171.167,231.5 171.833,231.5 172.5,231.5C 172.158,232.338 171.492,232.672 170.5,232.5 Z"/></g>
<g><path style="opacity:0.004" fill="#000000" d="M 169.5,232.5 C 169.833,232.5 170.167,232.5 170.5,232.5C 170.315,233.17 169.981,233.17 169.5,232.5 Z"/></g>
<g><path style="opacity:0.004" fill="#000000" d="M 120.5,241.5 C 120.833,241.5 121.167,241.5 121.5,241.5C 121.167,244.167 120.833,244.167 120.5,241.5 Z"/></g>
<g><path style="opacity:0.004" fill="#000000" d="M 133.5,245.5 C 134.946,244.387 136.613,244.22 138.5,245C 136.866,245.494 135.199,245.66 133.5,245.5 Z"/></g>
<g><path style="opacity:0.006" fill="#000000" d="M 173.5,245.5 C 172.761,245.631 172.094,245.464 171.5,245C 172.437,244.308 173.103,244.475 173.5,245.5 Z"/></g>
<g><path style="opacity:0.004" fill="#000000" d="M 123.5,246.5 C 125.288,245.378 127.288,245.211 129.5,246C 127.527,246.495 125.527,246.662 123.5,246.5 Z"/></g>
<g><path style="opacity:0.004" fill="#000000" d="M 173.5,246.5 C 173.5,246.167 173.5,245.833 173.5,245.5C 176.167,245.833 176.167,246.167 173.5,246.5 Z"/></g>
<g><path style="opacity:0.004" fill="#000000" d="M 176.5,246.5 C 177.833,247.167 177.833,247.167 176.5,246.5 Z"/></g>
<g><path style="opacity:0.822" fill="#341617" d="M 157.5,85.5 C 159.214,86.7384 161.214,87.405 163.5,87.5C 169.929,90.4872 175.429,94.8205 180,100.5C 180.333,100.167 180.667,99.8333 181,99.5C 182.442,101.391 183.609,103.391 184.5,105.5C 183.167,105.833 183.167,106.167 184.5,106.5C 185.463,109.744 186.796,112.744 188.5,115.5C 188.565,118.428 189.232,121.095 190.5,123.5C 190.778,153.213 192.111,182.88 194.5,212.5C 194.167,214.833 193.833,217.167 193.5,219.5C 190.276,220.941 187.276,222.608 184.5,224.5C 183.508,224.328 182.842,224.662 182.5,225.5C 181.508,225.328 180.842,225.662 180.5,226.5C 177.279,226.896 174.612,228.229 172.5,230.5C 171.508,230.328 170.842,230.662 170.5,231.5C 169.833,231.5 169.5,231.833 169.5,232.5C 166.833,232.833 166.833,233.167 169.5,233.5C 169.211,237.106 169.544,240.606 170.5,244C 169.833,244.333 169.167,244.667 168.5,245C 170.025,246.009 171.692,246.509 173.5,246.5C 174.209,247.404 175.209,247.737 176.5,247.5C 178.794,249.653 181.46,251.32 184.5,252.5C 190.481,257.812 195.481,262.812 199.5,267.5C 205.024,265.789 210.69,265.122 216.5,265.5C 221.213,267.025 225.546,269.358 229.5,272.5C 229.5,273.167 229.833,273.5 230.5,273.5C 230.5,274.167 230.833,274.5 231.5,274.5C 233.893,276.736 235.727,279.403 237,282.5C 237.667,283.833 238.333,283.833 239,282.5C 238.878,286.32 239.712,289.987 241.5,293.5C 241.5,295.5 241.5,297.5 241.5,299.5C 240.5,299.5 239.5,299.5 238.5,299.5C 238.252,284.103 230.919,273.936 216.5,269C 203.237,266.71 200.904,270.877 209.5,281.5C 217.524,283.524 222.524,288.524 224.5,296.5C 227.85,296.335 231.183,296.502 234.5,297C 231.833,297.333 229.167,297.667 226.5,298C 225.944,298.383 225.611,298.883 225.5,299.5C 224.167,299.5 222.833,299.5 221.5,299.5C 221.167,294.167 220.833,294.167 220.5,299.5C 220.167,299.5 219.833,299.5 219.5,299.5C 219.167,296.833 218.833,296.833 218.5,299.5C 217.167,299.5 215.833,299.5 214.5,299.5C 212.238,294.48 209.572,289.647 206.5,285C 205.167,284.333 203.833,284.333 202.5,285C 198.858,288.385 195.358,288.218 192,284.5C 189.205,278.442 190.371,273.442 195.5,269.5C 191.108,264.106 186.108,259.439 180.5,255.5C 176.806,252.986 172.806,250.986 168.5,249.5C 167.983,258.516 163.316,262.016 154.5,260C 150.019,257.939 148.352,254.439 149.5,249.5C 143.435,251.231 138.435,254.564 134.5,259.5C 132.937,260.945 131.604,262.611 130.5,264.5C 123.524,275.454 117.857,287.121 113.5,299.5C 113.167,299.5 112.833,299.5 112.5,299.5C 109.569,294.455 108.902,289.121 110.5,283.5C 105.667,278.421 101.167,278.421 97,283.5C 96.3333,286.5 96.3333,289.5 97,292.5C 98.1362,294.743 98.9695,297.076 99.5,299.5C 98.5,299.5 97.5,299.5 96.5,299.5C 96.5,298.833 96.1667,298.5 95.5,298.5C 95.7373,297.209 95.404,296.209 94.5,295.5C 92.3684,280.406 98.3684,270.406 112.5,265.5C 117.179,265.666 121.845,265.499 126.5,265C 122.167,264.667 117.833,264.333 113.5,264C 117.5,263.667 121.5,263.333 125.5,263C 129.499,260.337 133.165,256.671 136.5,252C 140.172,249.162 144.172,246.829 148.5,245C 142.231,243.743 135.898,243.243 129.5,243.5C 127.396,243.799 125.396,243.466 123.5,242.5C 126.977,241.833 130.311,241.166 133.5,240.5C 140.862,240.365 148.196,240.698 155.5,241.5C 156.398,242.158 157.398,242.824 158.5,243.5C 155.833,244.167 153.167,244.833 150.5,245.5C 150.709,246.086 151.043,246.586 151.5,247C 155.9,247.978 160.067,247.478 164,245.5C 164.821,242.446 164.655,239.446 163.5,236.5C 162.055,238.394 160.388,240.06 158.5,241.5C 159.959,236.9 162.625,233.234 166.5,230.5C 168.54,228.823 170.54,227.156 172.5,225.5C 178.844,222.912 185.011,219.912 191,216.5C 189.187,186.887 188.187,157.22 188,127.5C 187.281,122.342 185.948,117.342 184,112.5C 178.998,100.991 170.498,93.6573 158.5,90.5C 143.074,86.8564 129.074,89.8564 116.5,99.5C 105.548,106.398 98.2143,116.064 94.5,128.5C 97.0665,129.606 99.3998,129.273 101.5,127.5C 104.5,127.5 107.5,127.5 110.5,127.5C 115.363,127.181 120.03,127.514 124.5,128.5C 115.364,128.066 106.364,128.9 97.5,131C 109.153,130.849 120.82,130.682 132.5,130.5C 128.167,131.167 123.833,131.833 119.5,132.5C 109.47,132.388 99.4703,132.888 89.5,134C 84.1887,138.35 83.1887,143.517 86.5,149.5C 86.0618,149.435 85.7284,149.601 85.5,150C 86.3805,150.708 87.0472,151.542 87.5,152.5C 86.8333,152.5 86.1667,152.5 85.5,152.5C 79.4978,143.67 81.1645,136.503 90.5,131C 88.3143,130.396 88.1476,129.23 90,127.5C 90.6667,128.833 91.3333,128.833 92,127.5C 93.0114,123.632 94.5114,119.966 96.5,116.5C 95.4432,114.234 95.9432,112.234 98,110.5C 98.3333,111.167 98.6667,111.833 99,112.5C 99.4652,111.069 100.299,109.903 101.5,109C 100.549,108.282 100.383,107.449 101,106.5C 101.667,105.167 102.333,105.167 103,106.5C 105.729,103.601 108.562,100.934 111.5,98.5C 112.167,98.5 112.5,98.1667 112.5,97.5C 125.801,87.4237 140.801,83.4237 157.5,85.5 Z M 217.5,290.5 C 217.5,291.167 217.5,291.833 217.5,292.5C 217.167,292.5 216.833,292.5 216.5,292.5C 214.989,290.162 215.323,289.496 217.5,290.5 Z"/></g>
<g><path style="opacity:1" fill="#666668" d="M 163.5,247.5 C 164.748,248.334 165.415,249.667 165.5,251.5C 165.372,256.175 162.872,258.175 158,257.5C 151.739,257.415 149.906,254.415 152.5,248.5C 156.397,249.789 160.064,249.456 163.5,247.5 Z"/></g>
<g><path style="opacity:0.998" fill="#646365" d="M 155.5,241.5 C 156.167,241.5 156.833,241.5 157.5,241.5C 157.833,241.5 158.167,241.5 158.5,241.5C 160.388,240.06 162.055,238.394 163.5,236.5C 164.655,239.446 164.821,242.446 164,245.5C 160.067,247.478 155.9,247.978 151.5,247C 151.043,246.586 150.709,246.086 150.5,245.5C 153.167,244.833 155.833,244.167 158.5,243.5C 157.398,242.824 156.398,242.158 155.5,241.5 Z"/></g>
<g><path style="opacity:1" fill="#26a6dc" d="M 119.5,132.5 C 130.936,132.035 142.269,132.868 153.5,135C 158.806,136.139 162.806,138.973 165.5,143.5C 165.739,145.467 165.406,147.301 164.5,149C 160.389,150.891 156.056,151.891 151.5,152C 131.833,152.667 112.167,152.667 92.5,152C 90.3716,151.345 88.3716,150.511 86.5,149.5C 83.1887,143.517 84.1887,138.35 89.5,134C 99.4703,132.888 109.47,132.388 119.5,132.5 Z"/></g>
<g><path style="opacity:1" fill="#3c2e36" d="M 106.5,140.5 C 102.665,141.461 98.6653,142.295 94.5,143C 95.448,143.483 96.448,143.649 97.5,143.5C 115.993,144.497 134.659,144.83 153.5,144.5C 133.337,145.663 113.004,145.829 92.5,145C 90.5188,144.395 90.1854,143.395 91.5,142C 96.4195,140.75 101.42,140.25 106.5,140.5 Z"/></g>
<g><path style="opacity:1" fill="#de0302" d="M 106.5,140.5 C 120.504,140.333 134.504,140.5 148.5,141C 150.256,141.202 151.922,141.702 153.5,142.5C 134.845,143.5 116.179,143.833 97.5,143.5C 96.448,143.649 95.448,143.483 94.5,143C 98.6653,142.295 102.665,141.461 106.5,140.5 Z"/></g>
<g><path style="opacity:1" fill="#451b1b" d="M 106.5,140.5 C 121.661,139.339 136.994,139.172 152.5,140C 157.17,141.102 157.504,142.602 153.5,144.5C 134.659,144.83 115.993,144.497 97.5,143.5C 116.179,143.833 134.845,143.5 153.5,142.5C 151.922,141.702 150.256,141.202 148.5,141C 134.504,140.5 120.504,140.333 106.5,140.5 Z"/></g>
<g><path style="opacity:1" fill="#65b8db" d="M 124.5,128.5 C 135.505,128.333 146.505,128.5 157.5,129C 162.754,129.779 166.754,132.279 169.5,136.5C 169.5,138.5 169.5,140.5 169.5,142.5C 168.193,146.634 167.193,146.967 166.5,143.5C 165.415,139.246 162.748,136.413 158.5,135C 150.045,132.277 141.378,130.777 132.5,130.5C 120.82,130.682 109.153,130.849 97.5,131C 106.364,128.9 115.364,128.066 124.5,128.5 Z"/></g>
<g><path style="opacity:1" fill="#3a4453" d="M 132.5,130.5 C 141.378,130.777 150.045,132.277 158.5,135C 162.748,136.413 165.415,139.246 166.5,143.5C 166.167,143.5 165.833,143.5 165.5,143.5C 162.806,138.973 158.806,136.139 153.5,135C 142.269,132.868 130.936,132.035 119.5,132.5C 123.833,131.833 128.167,131.167 132.5,130.5 Z"/></g>
<g><path style="opacity:1" fill="#3c353d" d="M 110.5,127.5 C 124.661,126.339 138.994,126.173 153.5,127C 159.286,127.234 164.453,129.067 169,132.5C 169.791,133.745 170.291,135.078 170.5,136.5C 170.167,136.5 169.833,136.5 169.5,136.5C 166.754,132.279 162.754,129.779 157.5,129C 146.505,128.5 135.505,128.333 124.5,128.5C 120.03,127.514 115.363,127.181 110.5,127.5 Z"/></g>
<g><path style="opacity:1" fill="#8fcee9" d="M 116.5,99.5 C 116.592,103.059 115.759,106.392 114,109.5C 109.223,115.104 105.057,121.104 101.5,127.5C 99.3998,129.273 97.0665,129.606 94.5,128.5C 98.2143,116.064 105.548,106.398 116.5,99.5 Z"/></g>
<g><path style="opacity:1" fill="#26a7de" d="M 158.5,90.5 C 161.118,94.2907 163.951,97.9574 167,101.5C 176.04,113.948 177.706,127.281 172,141.5C 171.802,139.618 171.302,137.952 170.5,136.5C 170.291,135.078 169.791,133.745 169,132.5C 164.453,129.067 159.286,127.234 153.5,127C 138.994,126.173 124.661,126.339 110.5,127.5C 107.5,127.5 104.5,127.5 101.5,127.5C 105.057,121.104 109.223,115.104 114,109.5C 115.759,106.392 116.592,103.059 116.5,99.5C 129.074,89.8564 143.074,86.8564 158.5,90.5 Z"/></g>
<g><path style="opacity:0.004" fill="#000000" d="M 184.5,251.5 C 185.833,252.167 185.833,252.167 184.5,251.5 Z"/></g>
<g><path style="opacity:1" fill="#8fcbe6" d="M 180.5,255.5 C 177.899,259.771 174.566,263.437 170.5,266.5C 165.722,264.352 160.722,263.019 155.5,262.5C 149.19,260.624 142.69,260.291 136,261.5C 134.97,261.164 134.47,260.497 134.5,259.5C 138.435,254.564 143.435,251.231 149.5,249.5C 148.352,254.439 150.019,257.939 154.5,260C 163.316,262.016 167.983,258.516 168.5,249.5C 172.806,250.986 176.806,252.986 180.5,255.5 Z"/></g>
<g><path style="opacity:1" fill="#4c81a0" d="M 134.5,259.5 C 134.47,260.497 134.97,261.164 136,261.5C 142.69,260.291 149.19,260.624 155.5,262.5C 156.5,263.167 157.5,263.833 158.5,264.5C 154.534,263.838 150.534,263.505 146.5,263.5C 146.762,264.978 146.429,266.311 145.5,267.5C 143.889,266.68 143.222,265.346 143.5,263.5C 140.552,263.777 137.719,263.444 135,262.5C 134.95,264.744 134.117,266.411 132.5,267.5C 132.068,266.29 131.401,265.29 130.5,264.5C 131.604,262.611 132.937,260.945 134.5,259.5 Z"/></g>
<g><path style="opacity:0.005" fill="#000000" d="M 204.5,264.5 C 207.976,263.357 211.642,263.19 215.5,264C 211.848,264.499 208.182,264.665 204.5,264.5 Z"/></g>
<g><path style="opacity:0.005" fill="#000000" d="M 112.5,265.5 C 111.448,265.649 110.448,265.483 109.5,265C 110.749,264.26 111.749,264.427 112.5,265.5 Z"/></g>
<g><path style="opacity:1" fill="#28a6dd" d="M 158.5,264.5 C 177.14,269.14 188.807,280.807 193.5,299.5C 169.833,299.5 146.167,299.5 122.5,299.5C 123.232,287.973 126.565,277.306 132.5,267.5C 134.117,266.411 134.95,264.744 135,262.5C 137.719,263.444 140.552,263.777 143.5,263.5C 143.222,265.346 143.889,266.68 145.5,267.5C 146.429,266.311 146.762,264.978 146.5,263.5C 150.534,263.505 154.534,263.838 158.5,264.5 Z"/></g>
<g><path style="opacity:0.005" fill="#000000" d="M 200.5,265.5 C 201.251,264.427 202.251,264.26 203.5,265C 202.552,265.483 201.552,265.649 200.5,265.5 Z"/></g>
<g><path style="opacity:0.004" fill="#000000" d="M 216.5,265.5 C 217.251,264.427 218.251,264.26 219.5,265C 218.552,265.483 217.552,265.649 216.5,265.5 Z"/></g>
<g><path style="opacity:0.006" fill="#000000" d="M 220.5,266.5 C 220.897,265.475 221.563,265.308 222.5,266C 221.906,266.464 221.239,266.631 220.5,266.5 Z"/></g>
<g><path style="opacity:1" fill="#535355" d="M 200.5,269.5 C 201.5,269.5 202.5,269.5 203.5,269.5C 203.12,274.073 204.453,278.073 207.5,281.5C 204.167,282.833 200.833,284.167 197.5,285.5C 191.267,282.971 189.934,278.804 193.5,273C 195.925,271.787 198.259,270.621 200.5,269.5 Z"/></g>
<g><path style="opacity:0.004" fill="#000000" d="M 229.5,272.5 C 229.897,271.475 230.563,271.308 231.5,272C 232.774,272.977 232.774,273.811 231.5,274.5C 230.833,274.5 230.5,274.167 230.5,273.5C 229.833,273.5 229.5,273.167 229.5,272.5 Z"/></g>
<g><path style="opacity:1" fill="#5e5e60" d="M 110.5,268.5 C 115.295,269.097 119.962,269.431 124.5,269.5C 123.333,271.833 122.167,274.167 121,276.5C 120.667,275.167 120.333,273.833 120,272.5C 119.503,275.146 119.336,277.813 119.5,280.5C 116.751,280.274 114.084,280.607 111.5,281.5C 108.098,279.433 104.431,278.1 100.5,277.5C 101.128,275.742 102.128,274.242 103.5,273C 105.898,271.476 108.231,269.976 110.5,268.5 Z"/></g>
<g><path style="opacity:1" fill="#4b4a4c" d="M 238.5,299.5 C 234.167,299.5 229.833,299.5 225.5,299.5C 225.611,298.883 225.944,298.383 226.5,298C 229.167,297.667 231.833,297.333 234.5,297C 231.183,296.502 227.85,296.335 224.5,296.5C 222.524,288.524 217.524,283.524 209.5,281.5C 200.904,270.877 203.237,266.71 216.5,269C 230.919,273.936 238.252,284.103 238.5,299.5 Z"/></g>
<g><path style="opacity:0.004" fill="#000000" d="M 93.5,295.5 C 92.353,291.354 92.1864,287.02 93,282.5C 93.499,286.821 93.6657,291.154 93.5,295.5 Z"/></g>
<g><path style="opacity:1" fill="#8fcee9" d="M 130.5,264.5 C 131.401,265.29 132.068,266.29 132.5,267.5C 126.565,277.306 123.232,287.973 122.5,299.5C 119.5,299.5 116.5,299.5 113.5,299.5C 117.857,287.121 123.524,275.454 130.5,264.5 Z"/></g>
<g><path style="opacity:1" fill="#1c7398" d="M 180.5,255.5 C 186.108,259.439 191.108,264.106 195.5,269.5C 190.371,273.442 189.205,278.442 192,284.5C 195.358,288.218 198.858,288.385 202.5,285C 203.833,284.333 205.167,284.333 206.5,285C 209.572,289.647 212.238,294.48 214.5,299.5C 208.167,299.5 201.833,299.5 195.5,299.5C 191.729,284.921 183.396,273.921 170.5,266.5C 174.566,263.437 177.899,259.771 180.5,255.5 Z"/></g>
<g><path style="opacity:0.004" fill="#000000" d="M 241.5,293.5 C 241.343,292.127 241.51,290.793 242,289.5C 242.765,291.066 242.598,292.399 241.5,293.5 Z"/></g>
<g><path style="opacity:1" fill="#362328" d="M 155.5,262.5 C 160.722,263.019 165.722,264.352 170.5,266.5C 183.396,273.921 191.729,284.921 195.5,299.5C 194.833,299.5 194.167,299.5 193.5,299.5C 188.807,280.807 177.14,269.14 158.5,264.5C 157.5,263.833 156.5,263.167 155.5,262.5 Z"/></g>
<g><path style="opacity:1" fill="#5c5b5c" d="M 112.5,299.5 C 108.167,299.5 103.833,299.5 99.5,299.5C 98.9695,297.076 98.1362,294.743 97,292.5C 96.3333,289.5 96.3333,286.5 97,283.5C 101.167,278.421 105.667,278.421 110.5,283.5C 108.902,289.121 109.569,294.455 112.5,299.5 Z"/></g>
<g><path style="opacity:0.004" fill="#000000" d="M 243.5,299.5 C 243.167,299.5 242.833,299.5 242.5,299.5C 242.833,292.833 243.167,292.833 243.5,299.5 Z"/></g>
<g><path style="opacity:0.004" fill="#000000" d="M 93.5,295.5 C 93.8333,295.5 94.1667,295.5 94.5,295.5C 94.1667,298.167 93.8333,298.167 93.5,295.5 Z"/></g>
<g><path style="opacity:0.004" fill="#000000" d="M 95.5,298.5 C 95.5,298.833 95.5,299.167 95.5,299.5C 94.8299,299.019 94.8299,298.685 95.5,298.5 Z"/></g>
</svg>
