<?xml version="1.0" encoding="UTF-8"?>
<!DOCTYPE svg PUBLIC "-//W3C//DTD SVG 1.1//EN" "http://www.w3.org/Graphics/SVG/1.1/DTD/svg11.dtd">
<svg xmlns="http://www.w3.org/2000/svg" version="1.1" width="300px" height="300px" style="shape-rendering:geometricPrecision; text-rendering:geometricPrecision; image-rendering:optimizeQuality; fill-rule:evenodd; clip-rule:evenodd" xmlns:xlink="http://www.w3.org/1999/xlink">
<g><path style="opacity:0.004" fill="#000000" d="M 157.5,85.5 C 152.156,85.666 146.823,85.4994 141.5,85C 147.016,84.1826 152.35,84.3493 157.5,85.5 Z"/></g>
<g><path style="opacity:0.004" fill="#000000" d="M 136.5,86.5 C 137.601,85.4017 138.934,85.235 140.5,86C 139.207,86.49 137.873,86.6567 136.5,86.5 Z"/></g>
<g><path style="opacity:0.004" fill="#000000" d="M 157.5,85.5 C 158.552,85.3505 159.552,85.5172 160.5,86C 159.251,86.7401 158.251,86.5735 157.5,85.5 Z"/></g>
<g><path style="opacity:0.004" fill="#000000" d="M 136.5,86.5 C 136.5,86.8333 136.5,87.1667 136.5,87.5C 132.5,87.1667 132.5,86.8333 136.5,86.5 Z"/></g>
<g><path style="opacity:0.004" fill="#000000" d="M 161.5,87.5 C 161.897,86.475 162.563,86.3083 163.5,87C 162.906,87.4643 162.239,87.631 161.5,87.5 Z"/></g>
<g><path style="opacity:0.004" fill="#000000" d="M 130.5,88.5 C 130.897,87.475 131.563,87.3083 132.5,88C 131.906,88.4643 131.239,88.631 130.5,88.5 Z"/></g>
<g><path style="opacity:0.004" fill="#000000" d="M 164.5,88.5 C 164.897,87.475 165.563,87.3083 166.5,88C 165.906,88.4643 165.239,88.631 164.5,88.5 Z"/></g>
<g><path style="opacity:0.004" fill="#000000" d="M 127.5,89.5 C 127.897,88.475 128.563,88.3083 129.5,89C 128.906,89.4643 128.239,89.631 127.5,89.5 Z"/></g>
<g><path style="opacity:0.004" fill="#000000" d="M 127.5,89.5 C 127.5,89.8333 127.5,90.1667 127.5,90.5C 124.833,90.1667 124.833,89.8333 127.5,89.5 Z"/></g>
<g><path style="opacity:0.004" fill="#000000" d="M 168.5,89.5 C 169.833,90.1667 169.833,90.1667 168.5,89.5 Z"/></g>
<g><path style="opacity:0.004" fill="#000000" d="M 123.5,90.5 C 124.833,91.1667 124.833,91.1667 123.5,90.5 Z"/></g>
<g><path style="opacity:0.004" fill="#000000" d="M 170.5,90.5 C 171.833,91.1667 171.833,91.1667 170.5,90.5 Z"/></g>
<g><path style="opacity:0.004" fill="#000000" d="M 121.5,91.5 C 122.833,92.1667 122.833,92.1667 121.5,91.5 Z"/></g>
<g><path style="opacity:0.004" fill="#000000" d="M 119.5,92.5 C 120.833,93.1667 120.833,93.1667 119.5,92.5 Z"/></g>
<g><path style="opacity:0.004" fill="#000000" d="M 108.5,102.5 C 107.833,102.5 107.5,102.833 107.5,103.5C 105.025,103.253 105.025,102.587 107.5,101.5C 108.107,101.624 108.44,101.957 108.5,102.5 Z"/></g>
<g><path style="opacity:0.004" fill="#000000" d="M 94.5,118.5 C 93.8333,118.5 93.5,118.833 93.5,119.5C 92.2875,118.503 92.4542,117.503 94,116.5C 94.4643,117.094 94.631,117.761 94.5,118.5 Z"/></g>
<g><path style="opacity:0.004" fill="#000000" d="M 202.5,133.5 C 202.167,133.5 201.833,133.5 201.5,133.5C 201.833,129.5 202.167,129.5 202.5,133.5 Z"/></g>
<g><path style="opacity:0.004" fill="#000000" d="M 202.5,133.5 C 203.404,134.209 203.737,135.209 203.5,136.5C 202.596,135.791 202.263,134.791 202.5,133.5 Z"/></g>
<g><path style="opacity:0.004" fill="#000000" d="M 203.5,136.5 C 204.598,137.601 204.765,138.934 204,140.5C 203.51,139.207 203.343,137.873 203.5,136.5 Z"/></g>
<g><path style="opacity:0.004" fill="#000000" d="M 204.5,141.5 C 205.598,142.601 205.765,143.934 205,145.5C 204.51,144.207 204.343,142.873 204.5,141.5 Z"/></g>
<g><path style="opacity:0.004" fill="#000000" d="M 81.5,143.5 C 82.6129,144.946 82.7796,146.613 82,148.5C 81.5065,146.866 81.3398,145.199 81.5,143.5 Z"/></g>
<g><path style="opacity:0.004" fill="#000000" d="M 205.5,146.5 C 206.638,149.304 206.805,152.304 206,155.5C 205.502,152.518 205.335,149.518 205.5,146.5 Z"/></g>
<g><path style="opacity:0.004" fill="#000000" d="M 81.5,159.5 C 81.1667,159.5 80.8333,159.5 80.5,159.5C 80.8333,146.167 81.1667,146.167 81.5,159.5 Z"/></g>
<g><path style="opacity:0.004" fill="#000000" d="M 80.5,159.5 C 80.6602,161.199 80.4935,162.866 80,164.5C 79.2204,162.613 79.3871,160.946 80.5,159.5 Z"/></g>
<g><path style="opacity:0.004" fill="#000000" d="M 205.5,159.5 C 206.634,161.966 206.801,164.633 206,167.5C 205.503,164.854 205.336,162.187 205.5,159.5 Z"/></g>
<g><path style="opacity:0.004" fill="#000000" d="M 80.5,165.5 C 81.5735,166.251 81.7401,167.251 81,168.5C 80.5172,167.552 80.3505,166.552 80.5,165.5 Z"/></g>
<g><path style="opacity:0.004" fill="#000000" d="M 204.5,171.5 C 204.351,170.448 204.517,169.448 205,168.5C 205.74,169.749 205.573,170.749 204.5,171.5 Z"/></g>
<g><path style="opacity:0.004" fill="#000000" d="M 81.5,169.5 C 82.5983,170.601 82.765,171.934 82,173.5C 81.51,172.207 81.3433,170.873 81.5,169.5 Z"/></g>
<g><path style="opacity:0.004" fill="#000000" d="M 203.5,171.5 C 203.833,171.5 204.167,171.5 204.5,171.5C 204.737,172.791 204.404,173.791 203.5,174.5C 203.5,173.5 203.5,172.5 203.5,171.5 Z"/></g>
<g><path style="opacity:0.004" fill="#000000" d="M 82.5,174.5 C 83.5983,175.601 83.765,176.934 83,178.5C 82.51,177.207 82.3433,175.873 82.5,174.5 Z"/></g>
<g><path style="opacity:0.004" fill="#000000" d="M 202.5,174.5 C 202.833,174.5 203.167,174.5 203.5,174.5C 203.167,177.167 202.833,177.167 202.5,174.5 Z"/></g>
<g><path style="opacity:0.004" fill="#000000" d="M 201.5,177.5 C 202.833,178.167 202.833,178.167 201.5,177.5 Z"/></g>
<g><path style="opacity:0.004" fill="#000000" d="M 200.5,179.5 C 201.833,180.167 201.833,180.167 200.5,179.5 Z"/></g>
<g><path style="opacity:0.004" fill="#000000" d="M 199.5,180.5 C 199.833,180.5 200.167,180.5 200.5,180.5C 200.672,181.492 200.338,182.158 199.5,182.5C 199.5,181.833 199.5,181.167 199.5,180.5 Z"/></g>
<g><path style="opacity:0.004" fill="#000000" d="M 198.5,182.5 C 198.833,182.5 199.167,182.5 199.5,182.5C 199.315,183.17 198.981,183.17 198.5,182.5 Z"/></g>
<g><path style="opacity:0.004" fill="#000000" d="M 197.5,183.5 C 197.833,183.5 198.167,183.5 198.5,183.5C 198.672,184.492 198.338,185.158 197.5,185.5C 197.5,184.833 197.5,184.167 197.5,183.5 Z"/></g>
<g><path style="opacity:0.004" fill="#000000" d="M 196.5,185.5 C 196.833,185.5 197.167,185.5 197.5,185.5C 197.315,186.17 196.981,186.17 196.5,185.5 Z"/></g>
<g><path style="opacity:0.008" fill="#000000" d="M 195.5,186.5 C 195.833,186.5 196.167,186.5 196.5,186.5C 196.315,187.17 195.981,187.17 195.5,186.5 Z"/></g>
<g><path style="opacity:0.004" fill="#000000" d="M 192.5,190.5 C 192.833,190.5 193.167,190.5 193.5,190.5C 193.315,191.17 192.981,191.17 192.5,190.5 Z"/></g>
<g><path style="opacity:0.004" fill="#000000" d="M 191.5,191.5 C 191.833,191.5 192.167,191.5 192.5,191.5C 192.315,192.17 191.981,192.17 191.5,191.5 Z"/></g>
<g><path style="opacity:0.004" fill="#000000" d="M 190.5,192.5 C 190.833,192.5 191.167,192.5 191.5,192.5C 191.315,193.17 190.981,193.17 190.5,192.5 Z"/></g>
<g><path style="opacity:0.004" fill="#000000" d="M 189.5,193.5 C 189.833,193.5 190.167,193.5 190.5,193.5C 190.315,194.17 189.981,194.17 189.5,193.5 Z"/></g>
<g><path style="opacity:0.004" fill="#000000" d="M 188.5,194.5 C 188.833,194.5 189.167,194.5 189.5,194.5C 189.315,195.17 188.981,195.17 188.5,194.5 Z"/></g>
<g><path style="opacity:0.004" fill="#000000" d="M 186.5,196.5 C 186.5,196.167 186.5,195.833 186.5,195.5C 187.167,195.5 187.833,195.5 188.5,195.5C 188.158,196.338 187.492,196.672 186.5,196.5 Z"/></g>
<g><path style="opacity:0.004" fill="#000000" d="M 185.5,196.5 C 185.833,196.5 186.167,196.5 186.5,196.5C 186.315,197.17 185.981,197.17 185.5,196.5 Z"/></g>
<g><path style="opacity:0.004" fill="#000000" d="M 184.5,197.5 C 184.833,197.5 185.167,197.5 185.5,197.5C 185.315,198.17 184.981,198.17 184.5,197.5 Z"/></g>
<g><path style="opacity:0.004" fill="#000000" d="M 183.5,198.5 C 183.833,198.5 184.167,198.5 184.5,198.5C 184.315,199.17 183.981,199.17 183.5,198.5 Z"/></g>
<g><path style="opacity:0.004" fill="#000000" d="M 181.5,200.5 C 181.5,200.167 181.5,199.833 181.5,199.5C 182.167,199.5 182.833,199.5 183.5,199.5C 183.158,200.338 182.492,200.672 181.5,200.5 Z"/></g>
<g><path style="opacity:0.004" fill="#000000" d="M 180.5,200.5 C 180.833,200.5 181.167,200.5 181.5,200.5C 181.315,201.17 180.981,201.17 180.5,200.5 Z"/></g>
<g><path style="opacity:0.004" fill="#000000" d="M 178.5,202.5 C 178.5,202.167 178.5,201.833 178.5,201.5C 179.167,201.5 179.833,201.5 180.5,201.5C 180.158,202.338 179.492,202.672 178.5,202.5 Z"/></g>
<g><path style="opacity:0.004" fill="#000000" d="M 178.5,202.5 C 177.833,203.167 177.833,203.167 178.5,202.5 Z"/></g>
<g><path style="opacity:0.004" fill="#000000" d="M 101.5,203.5 C 101.5,203.833 101.5,204.167 101.5,204.5C 100.83,204.019 100.83,203.685 101.5,203.5 Z"/></g>
<g><path style="opacity:0.004" fill="#000000" d="M 101.5,204.5 C 102.833,205.167 102.833,205.167 101.5,204.5 Z"/></g>
<g><path style="opacity:0.89" fill="#2e120f" d="M 168.5,90.5 C 175.024,94.5116 180.858,99.5116 186,105.5C 186.667,104.167 187.333,104.167 188,105.5C 187.383,107.095 187.716,108.428 189,109.5C 189.333,109.167 189.667,108.833 190,108.5C 192.667,110.74 193.667,113.406 193,116.5C 194.518,116.057 195.685,116.724 196.5,118.5C 196.167,119.167 195.833,119.833 195.5,120.5C 197.522,124.936 199.522,129.269 201.5,133.5C 204.541,146.034 205.208,158.7 203.5,171.5C 203.167,171.5 202.833,171.5 202.5,171.5C 202.5,172.5 202.5,173.5 202.5,174.5C 200.992,176.181 199.992,178.181 199.5,180.5C 198.662,180.842 198.328,181.508 198.5,182.5C 197.833,182.5 197.5,182.833 197.5,183.5C 196.662,183.842 196.328,184.508 196.5,185.5C 195.833,185.5 195.5,185.833 195.5,186.5C 194.167,186.833 194.167,187.167 195.5,187.5C 195.573,189.027 194.906,190.027 193.5,190.5C 193.167,189.167 192.833,189.167 192.5,190.5C 191.833,190.5 191.5,190.833 191.5,191.5C 190.833,191.5 190.5,191.833 190.5,192.5C 189.833,192.5 189.5,192.833 189.5,193.5C 188.833,193.5 188.5,193.833 188.5,194.5C 187.508,194.328 186.842,194.662 186.5,195.5C 185.833,195.5 185.5,195.833 185.5,196.5C 184.833,196.5 184.5,196.833 184.5,197.5C 183.833,197.5 183.5,197.833 183.5,198.5C 182.508,198.328 181.842,198.662 181.5,199.5C 180.833,199.5 180.5,199.833 180.5,200.5C 179.508,200.328 178.842,200.662 178.5,201.5C 174.912,202.798 171.579,204.464 168.5,206.5C 167.508,206.328 166.842,206.662 166.5,207.5C 162.5,207.833 162.5,208.167 166.5,208.5C 165.791,209.404 164.791,209.737 163.5,209.5C 163.421,210.93 163.754,212.264 164.5,213.5C 167.107,214.318 169.774,214.818 172.5,215C 168.975,215.179 165.641,215.679 162.5,216.5C 160.917,214.492 159.917,212.159 159.5,209.5C 158.244,209.461 157.244,209.961 156.5,211C 151.285,211.29 146.285,211.457 141.5,211.5C 140.833,214.167 140.167,216.833 139.5,219.5C 138.391,218.71 137.058,218.21 135.5,218C 137.107,216.951 137.773,215.451 137.5,213.5C 132.821,213.666 128.155,213.499 123.5,213C 128.833,212.667 134.167,212.333 139.5,212C 132.154,211.583 124.821,211.083 117.5,210.5C 114.785,208.928 111.785,207.928 108.5,207.5C 106.337,205.917 104.004,204.584 101.5,203.5C 99.2294,201.734 97.0627,199.734 95,197.5C 93.8687,198.604 93.0354,198.271 92.5,196.5C 93.8549,195.325 93.6883,194.325 92,193.5C 91.6667,193.833 91.3333,194.167 91,194.5C 88.6968,192.472 87.8635,190.139 88.5,187.5C 84.8979,178.491 82.5645,169.158 81.5,159.5C 82.4429,145.331 86.4429,131.997 93.5,119.5C 94.1667,119.5 94.5,119.167 94.5,118.5C 95.2674,117.828 95.9341,116.995 96.5,116C 95.5494,115.282 95.3828,114.449 96,113.5C 97.7566,113.867 99.2566,113.034 100.5,111C 99.5494,110.282 99.3828,109.449 100,108.5C 102.709,107.711 105.209,106.045 107.5,103.5C 108.167,103.5 108.5,103.167 108.5,102.5C 114.363,97.7362 120.697,93.7362 127.5,90.5C 130.785,90.0719 133.785,89.0719 136.5,87.5C 147.475,85.4976 158.141,86.4976 168.5,90.5 Z"/></g>
<g><path style="opacity:0.998" fill="#854914" d="M 163.5,173.5 C 164.338,173.842 164.672,174.508 164.5,175.5C 163.408,183.674 163.408,192.008 164.5,200.5C 151.832,200.899 139.165,201.399 126.5,202C 132.825,202.5 139.158,202.666 145.5,202.5C 145.5,202.833 145.5,203.167 145.5,203.5C 133.482,203.832 121.482,203.499 109.5,202.5C 108.691,200.929 108.357,199.262 108.5,197.5C 108.833,197.5 109.167,197.5 109.5,197.5C 114.792,198.829 120.458,199.496 126.5,199.5C 138.179,199.296 149.846,198.796 161.5,198C 162.357,190.237 162.357,182.403 161.5,174.5C 162.492,174.672 163.158,174.338 163.5,173.5 Z"/></g>
<g><path style="opacity:1" fill="#ea8b1d" d="M 159.5,174.5 C 160.167,174.5 160.833,174.5 161.5,174.5C 162.357,182.403 162.357,190.237 161.5,198C 149.846,198.796 138.179,199.296 126.5,199.5C 120.458,199.496 114.792,198.829 109.5,197.5C 114.833,197.5 120.167,197.5 125.5,197.5C 135.348,197.827 145.014,197.494 154.5,196.5C 155.833,196.5 157.167,196.5 158.5,196.5C 159.492,189.352 159.825,182.019 159.5,174.5 Z"/></g>
<g><path style="opacity:1" fill="#411912" d="M 109.5,179.5 C 110.167,179.5 110.5,179.833 110.5,180.5C 108.357,185.266 107.023,190.266 106.5,195.5C 108.5,195.5 110.5,195.5 112.5,195.5C 116.833,196.167 121.167,196.833 125.5,197.5C 120.167,197.5 114.833,197.5 109.5,197.5C 109.167,197.5 108.833,197.5 108.5,197.5C 107.167,197.5 105.833,197.5 104.5,197.5C 104.557,191.003 106.224,185.003 109.5,179.5 Z"/></g>
<g><path style="opacity:1" fill="#6b3918" d="M 140.5,173.5 C 144.647,174.325 148.981,174.825 153.5,175C 140.532,176.16 127.532,176.827 114.5,177C 121.013,177.172 127.347,177.672 133.5,178.5C 131.564,183.698 130.231,189.032 129.5,194.5C 132.5,194.5 135.5,194.5 138.5,194.5C 135.695,195.319 132.695,195.819 129.5,196C 137.827,196.5 146.16,196.666 154.5,196.5C 145.014,197.494 135.348,197.827 125.5,197.5C 121.167,196.833 116.833,196.167 112.5,195.5C 113.833,195.5 115.167,195.5 116.5,195.5C 116.402,189.795 118.068,184.795 121.5,180.5C 119.765,185.376 118.431,190.376 117.5,195.5C 120.833,195.5 124.167,195.5 127.5,195.5C 127.957,189.795 129.624,184.461 132.5,179.5C 129.02,178.194 125.687,178.194 122.5,179.5C 118.256,177.891 114.256,178.224 110.5,180.5C 110.5,179.833 110.167,179.5 109.5,179.5C 111.936,176.496 111.102,175.829 107,177.5C 106.517,176.552 106.351,175.552 106.5,174.5C 117.822,173.864 129.156,173.531 140.5,173.5 Z"/></g>
<g><path style="opacity:0.992" fill="#4a1f11" d="M 164.5,175.5 C 165.423,182.109 165.756,188.776 165.5,195.5C 165.5,197.5 165.5,199.5 165.5,201.5C 158.852,202.139 152.186,202.473 145.5,202.5C 139.158,202.666 132.825,202.5 126.5,202C 139.165,201.399 151.832,200.899 164.5,200.5C 163.408,192.008 163.408,183.674 164.5,175.5 Z"/></g>
<g><path style="opacity:1" fill="#724117" d="M 159.5,174.5 C 159.825,182.019 159.492,189.352 158.5,196.5C 157.833,195.833 157.167,195.167 156.5,194.5C 157.725,193.848 158.392,192.681 158.5,191C 158.129,188.144 157.629,185.311 157,182.5C 155.464,186.346 154.631,190.346 154.5,194.5C 153.833,194.167 153.167,193.833 152.5,193.5C 153.362,188.387 154.695,183.387 156.5,178.5C 156.043,177.702 155.376,177.369 154.5,177.5C 156.045,176.36 157.712,175.36 159.5,174.5 Z"/></g>
<g><path style="opacity:1" fill="#4a1d13" d="M 140.5,173.5 C 148.167,173.5 155.833,173.5 163.5,173.5C 163.158,174.338 162.492,174.672 161.5,174.5C 160.833,174.5 160.167,174.5 159.5,174.5C 157.712,175.36 156.045,176.36 154.5,177.5C 151.5,177.5 148.5,177.5 145.5,177.5C 143.753,183.074 142.419,188.741 141.5,194.5C 145.371,194.815 149.038,194.482 152.5,193.5C 153.167,193.833 153.833,194.167 154.5,194.5C 155.167,194.5 155.833,194.5 156.5,194.5C 157.167,195.167 157.833,195.833 158.5,196.5C 157.167,196.5 155.833,196.5 154.5,196.5C 146.16,196.666 137.827,196.5 129.5,196C 132.695,195.819 135.695,195.319 138.5,194.5C 140.135,189.255 141.802,183.922 143.5,178.5C 140.167,178.5 136.833,178.5 133.5,178.5C 127.347,177.672 121.013,177.172 114.5,177C 127.532,176.827 140.532,176.16 153.5,175C 148.981,174.825 144.647,174.325 140.5,173.5 Z"/></g>
<g><path style="opacity:1" fill="#eda95d" d="M 87.5,169.5 C 84.9019,167.868 83.7353,165.534 84,162.5C 84.8159,163.823 85.9826,164.489 87.5,164.5C 90.3035,165.638 93.3035,165.805 96.5,165C 102.293,162.27 107.96,159.27 113.5,156C 117.207,155.004 120.541,155.67 123.5,158C 120.591,160.839 120.925,163.006 124.5,164.5C 128.131,163.239 128.464,161.239 125.5,158.5C 126.665,157.416 127.998,156.583 129.5,156C 133.833,155.333 138.167,155.333 142.5,156C 151.957,160.48 161.623,161.48 171.5,159C 168.499,163.167 164.499,165.834 159.5,167C 145.499,167.06 131.499,167.06 117.5,167C 108.498,170.667 99.1645,172.001 89.5,171C 88.9558,170.283 88.2891,169.783 87.5,169.5 Z"/></g>
<g><path style="opacity:0.949" fill="#4d2317" d="M 87.5,177.5 C 84.8523,174.902 84.8523,172.236 87.5,169.5C 88.2891,169.783 88.9558,170.283 89.5,171C 99.1645,172.001 108.498,170.667 117.5,167C 131.499,167.06 145.499,167.06 159.5,167C 164.499,165.834 168.499,163.167 171.5,159C 161.623,161.48 151.957,160.48 142.5,156C 138.167,155.333 133.833,155.333 129.5,156C 127.998,156.583 126.665,157.416 125.5,158.5C 128.464,161.239 128.131,163.239 124.5,164.5C 120.925,163.006 120.591,160.839 123.5,158C 120.541,155.67 117.207,155.004 113.5,156C 107.96,159.27 102.293,162.27 96.5,165C 93.3035,165.805 90.3035,165.638 87.5,164.5C 88.1667,164.5 88.8333,164.5 89.5,164.5C 92.2706,164.579 94.9373,164.079 97.5,163C 103.52,158.49 110.186,155.324 117.5,153.5C 120.191,153.679 122.525,154.679 124.5,156.5C 127.717,153.983 131.383,152.649 135.5,152.5C 141.569,153.684 147.569,155.184 153.5,157C 160.461,158.195 167.128,157.362 173.5,154.5C 172.949,163.558 167.949,168.725 158.5,170C 147.633,170.464 136.799,169.964 126,168.5C 116.084,170.549 106.084,172.216 96,173.5C 92.958,173.635 90.1247,172.969 87.5,171.5C 86.4808,173.46 86.4808,175.46 87.5,177.5 Z"/></g>
<g><path style="opacity:1" fill="#db9b56" d="M 90.5,131.5 C 91.6533,137.653 91.82,143.986 91,150.5C 90.431,154.795 89.2644,158.795 87.5,162.5C 85.0777,161.308 84.0777,159.308 84.5,156.5C 85.3345,147.783 87.3345,139.45 90.5,131.5 Z"/></g>
<g><path style="opacity:1" fill="#552713" d="M 187.5,113.5 C 188.492,113.328 189.158,113.662 189.5,114.5C 188.504,114.414 187.671,114.748 187,115.5C 183.073,125.222 182.407,135.222 185,145.5C 187.253,154.682 192.42,161.682 200.5,166.5C 201.493,161.88 201.827,157.214 201.5,152.5C 202.49,158.645 202.823,164.978 202.5,171.5C 201.833,171.5 201.167,171.5 200.5,171.5C 196.629,167.446 192.795,163.113 189,158.5C 182.812,146.949 180.812,134.616 183,121.5C 183.754,118.316 185.254,115.649 187.5,113.5 Z"/></g>
<g><path style="opacity:1" fill="#744122" d="M 93.5,126.5 C 94.0663,139.069 92.733,151.402 89.5,163.5C 88.5084,163.672 87.8417,163.338 87.5,162.5C 89.2644,158.795 90.431,154.795 91,150.5C 91.82,143.986 91.6533,137.653 90.5,131.5C 91.2632,129.632 92.2632,127.965 93.5,126.5 Z"/></g>
<g><path style="opacity:1" fill="#e9891d" d="M 189.5,114.5 C 196.378,126.257 200.378,138.923 201.5,152.5C 201.827,157.214 201.493,161.88 200.5,166.5C 192.42,161.682 187.253,154.682 185,145.5C 182.407,135.222 183.073,125.222 187,115.5C 187.671,114.748 188.504,114.414 189.5,114.5 Z"/></g>
<g><path style="opacity:1" fill="#aa6415" d="M 153.5,90.5 C 168.596,92.707 179.929,100.374 187.5,113.5C 185.254,115.649 183.754,118.316 183,121.5C 180.812,134.616 182.812,146.949 189,158.5C 192.795,163.113 196.629,167.446 200.5,171.5C 190.406,190.407 174.739,201.907 153.5,206C 144.445,208.413 135.445,209.246 126.5,208.5C 134.368,208.117 142.034,206.617 149.5,204C 148.207,203.51 146.873,203.343 145.5,203.5C 145.5,203.167 145.5,202.833 145.5,202.5C 152.186,202.473 158.852,202.139 165.5,201.5C 165.5,199.5 165.5,197.5 165.5,195.5C 172.685,190.84 177.185,184.174 179,175.5C 182.39,148.113 176.723,122.78 162,99.5C 159.604,96.0015 156.771,93.0015 153.5,90.5 Z"/></g>
<g><path style="opacity:1" fill="#f28f1e" d="M 153.5,90.5 C 156.771,93.0015 159.604,96.0015 162,99.5C 176.723,122.78 182.39,148.113 179,175.5C 177.185,184.174 172.685,190.84 165.5,195.5C 165.756,188.776 165.423,182.109 164.5,175.5C 164.672,174.508 164.338,173.842 163.5,173.5C 155.833,173.5 148.167,173.5 140.5,173.5C 129.156,173.531 117.822,173.864 106.5,174.5C 106.351,175.552 106.517,176.552 107,177.5C 111.102,175.829 111.936,176.496 109.5,179.5C 106.224,185.003 104.557,191.003 104.5,197.5C 105.833,197.5 107.167,197.5 108.5,197.5C 108.357,199.262 108.691,200.929 109.5,202.5C 121.482,203.499 133.482,203.832 145.5,203.5C 146.873,203.343 148.207,203.51 149.5,204C 142.034,206.617 134.368,208.117 126.5,208.5C 106.42,206.972 93.42,196.639 87.5,177.5C 86.4808,175.46 86.4808,173.46 87.5,171.5C 90.1247,172.969 92.958,173.635 96,173.5C 106.084,172.216 116.084,170.549 126,168.5C 136.799,169.964 147.633,170.464 158.5,170C 167.949,168.725 172.949,163.558 173.5,154.5C 167.128,157.362 160.461,158.195 153.5,157C 147.569,155.184 141.569,153.684 135.5,152.5C 131.383,152.649 127.717,153.983 124.5,156.5C 122.525,154.679 120.191,153.679 117.5,153.5C 110.186,155.324 103.52,158.49 97.5,163C 94.9373,164.079 92.2706,164.579 89.5,164.5C 89.5,164.167 89.5,163.833 89.5,163.5C 92.733,151.402 94.0663,139.069 93.5,126.5C 106.286,102.364 126.286,90.3642 153.5,90.5 Z"/></g>
<g><path style="opacity:1" fill="#ea8a1d" d="M 156.5,194.5 C 155.833,194.5 155.167,194.5 154.5,194.5C 154.631,190.346 155.464,186.346 157,182.5C 157.629,185.311 158.129,188.144 158.5,191C 158.392,192.681 157.725,193.848 156.5,194.5 Z"/></g>
<g><path style="opacity:1" fill="#f3e630" d="M 121.5,180.5 C 122.167,180.5 122.5,180.167 122.5,179.5C 125.687,178.194 129.02,178.194 132.5,179.5C 129.624,184.461 127.957,189.795 127.5,195.5C 124.167,195.5 120.833,195.5 117.5,195.5C 118.431,190.376 119.765,185.376 121.5,180.5 Z"/></g>
<g><path style="opacity:1" fill="#f2e430" d="M 154.5,177.5 C 155.376,177.369 156.043,177.702 156.5,178.5C 154.695,183.387 153.362,188.387 152.5,193.5C 149.038,194.482 145.371,194.815 141.5,194.5C 142.419,188.741 143.753,183.074 145.5,177.5C 148.5,177.5 151.5,177.5 154.5,177.5 Z"/></g>
<g><path style="opacity:1" fill="#f3aa3e" d="M 122.5,179.5 C 122.5,180.167 122.167,180.5 121.5,180.5C 118.068,184.795 116.402,189.795 116.5,195.5C 115.167,195.5 113.833,195.5 112.5,195.5C 110.5,195.5 108.5,195.5 106.5,195.5C 107.023,190.266 108.357,185.266 110.5,180.5C 114.256,178.224 118.256,177.891 122.5,179.5 Z"/></g>
<g><path style="opacity:1" fill="#ec5827" d="M 133.5,178.5 C 136.833,178.5 140.167,178.5 143.5,178.5C 141.802,183.922 140.135,189.255 138.5,194.5C 135.5,194.5 132.5,194.5 129.5,194.5C 130.231,189.032 131.564,183.698 133.5,178.5 Z"/></g>
<g><path style="opacity:0.939" fill="#4f2215" d="M 108.5,133.5 C 123.837,133.333 139.17,133.5 154.5,134C 155.435,136.381 155.768,138.881 155.5,141.5C 140.17,142.197 124.836,142.364 109.5,142C 108.556,139.281 108.223,136.448 108.5,133.5 Z"/></g>
<g><path style="opacity:1" fill="#fac78b" d="M 107.5,111.5 C 112.123,110.408 113.956,112.075 113,116.5C 110.131,122.752 105.964,127.919 100.5,132C 99.5,132.667 98.5,132.667 97.5,132C 96.3977,129.599 96.231,127.099 97,124.5C 99.9547,119.713 103.455,115.38 107.5,111.5 Z"/></g>
<g><path style="opacity:1" fill="#fac68a" d="M 118.5,101.5 C 123.501,100.671 125.668,102.671 125,107.5C 120.751,113.052 117.251,112.718 114.5,106.5C 115.127,104.213 116.46,102.546 118.5,101.5 Z"/></g>
<g><path style="opacity:0.004" fill="#000000" d="M 168.5,207.5 C 168.5,207.167 168.5,206.833 168.5,206.5C 172.5,206.833 172.5,207.167 168.5,207.5 Z"/></g>
<g><path style="opacity:0.004" fill="#000000" d="M 108.5,207.5 C 108.5,207.833 108.5,208.167 108.5,208.5C 105.833,208.167 105.833,207.833 108.5,207.5 Z"/></g>
<g><path style="opacity:0.004" fill="#000000" d="M 166.5,208.5 C 166.5,208.167 166.5,207.833 166.5,207.5C 167.167,207.5 167.833,207.5 168.5,207.5C 168.158,208.338 167.492,208.672 166.5,208.5 Z"/></g>
<g><path style="opacity:0.004" fill="#000000" d="M 108.5,208.5 C 109.239,208.369 109.906,208.536 110.5,209C 109.563,209.692 108.897,209.525 108.5,208.5 Z"/></g>
<g><path style="opacity:0.004" fill="#000000" d="M 113.5,210.5 C 112.761,210.631 112.094,210.464 111.5,210C 112.437,209.308 113.103,209.475 113.5,210.5 Z"/></g>
<g><path style="opacity:0.004" fill="#000000" d="M 113.5,210.5 C 114.833,210.5 116.167,210.5 117.5,210.5C 117.5,210.833 117.5,211.167 117.5,211.5C 115.901,211.768 114.568,211.434 113.5,210.5 Z"/></g>
<g><path style="opacity:0.004" fill="#000000" d="M 117.5,211.5 C 119.199,211.34 120.866,211.506 122.5,212C 120.613,212.78 118.946,212.613 117.5,211.5 Z"/></g>
<g><path style="opacity:0.005" fill="#000000" d="M 173.5,216.5 C 176.304,215.362 179.304,215.195 182.5,216C 179.518,216.498 176.518,216.665 173.5,216.5 Z"/></g>
<g><path style="opacity:0.004" fill="#000000" d="M 191.5,219.5 C 191.897,218.475 192.563,218.308 193.5,219C 192.906,219.464 192.239,219.631 191.5,219.5 Z"/></g>
<g><path style="opacity:0.005" fill="#000000" d="M 130.5,220.5 C 129.448,220.649 128.448,220.483 127.5,220C 128.749,219.26 129.749,219.427 130.5,220.5 Z"/></g>
<g><path style="opacity:0.004" fill="#000000" d="M 194.5,219.5 C 195.833,220.167 195.833,220.167 194.5,219.5 Z"/></g>
<g><path style="opacity:0.005" fill="#000000" d="M 123.5,221.5 C 124.251,220.427 125.251,220.26 126.5,221C 125.552,221.483 124.552,221.649 123.5,221.5 Z"/></g>
<g><path style="opacity:1" fill="#854e10" d="M 199.5,231.5 C 198.564,234.959 196.564,237.793 193.5,240C 169.561,253.243 144.561,255.91 118.5,248C 115.751,246.877 113.251,245.377 111,243.5C 109.748,240.986 109.248,238.32 109.5,235.5C 109.859,233.629 110.859,232.129 112.5,231C 120.32,226.671 128.653,223.838 137.5,222.5C 138.994,222.709 140.161,223.376 141,224.5C 139.784,236.823 145.284,241.657 157.5,239C 160,237.833 161.833,236 163,233.5C 163.648,228.688 163.148,224.022 161.5,219.5C 172.484,218.746 183.151,220.246 193.5,224C 196.857,225.512 198.857,228.012 199.5,231.5 Z"/></g>
<g><path style="opacity:1" fill="#656466" d="M 159.5,209.5 C 159.666,213.514 159.499,217.514 159,221.5C 157.745,222.211 156.579,223.044 155.5,224C 157.313,223.954 158.979,224.12 160.5,224.5C 163.542,232.63 160.709,236.964 152,237.5C 149.019,237.343 146.352,236.343 144,234.5C 142.263,226.934 141.429,219.267 141.5,211.5C 146.285,211.457 151.285,211.29 156.5,211C 157.244,209.961 158.244,209.461 159.5,209.5 Z"/></g>
<g><path style="opacity:0.005" fill="#000000" d="M 202.5,228.5 C 202.5,228.167 202.5,227.833 202.5,227.5C 209.167,227.833 209.167,228.167 202.5,228.5 Z"/></g>
<g><path style="opacity:0.004" fill="#000000" d="M 110.5,229.5 C 109.833,229.5 109.5,229.833 109.5,230.5C 108.957,230.44 108.624,230.107 108.5,229.5C 109.257,228.227 109.923,228.227 110.5,229.5 Z"/></g>
<g><path style="opacity:0.004" fill="#000000" d="M 259.5,232.5 C 263.981,231.352 268.648,231.185 273.5,232C 268.845,232.499 264.179,232.666 259.5,232.5 Z"/></g>
<g><path style="opacity:0.005" fill="#000000" d="M 254.5,233.5 C 255.601,232.402 256.934,232.235 258.5,233C 257.207,233.49 255.873,233.657 254.5,233.5 Z"/></g>
<g><path style="opacity:0.005" fill="#000000" d="M 274.5,233.5 C 275.601,232.402 276.934,232.235 278.5,233C 277.207,233.49 275.873,233.657 274.5,233.5 Z"/></g>
<g><path style="opacity:0.004" fill="#000000" d="M 279.5,234.5 C 280.251,233.427 281.251,233.26 282.5,234C 281.552,234.483 280.552,234.649 279.5,234.5 Z"/></g>
<g><path style="opacity:0.006" fill="#000000" d="M 283.5,235.5 C 283.897,234.475 284.563,234.308 285.5,235C 284.906,235.464 284.239,235.631 283.5,235.5 Z"/></g>
<g><path style="opacity:0.005" fill="#000000" d="M 73.5,237.5 C 67.8236,237.666 62.1569,237.499 56.5,237C 62.3487,236.182 68.0154,236.348 73.5,237.5 Z"/></g>
<g><path style="opacity:0.006" fill="#000000" d="M 101.5,237.5 C 100.761,237.631 100.094,237.464 99.5,237C 100.437,236.308 101.103,236.475 101.5,237.5 Z"/></g>
<g><path style="opacity:0.973" fill="#4a2014" d="M 201.5,228.5 C 201.833,228.5 202.167,228.5 202.5,228.5C 211.68,229.674 219.513,233.674 226,240.5C 226.333,240.167 226.667,239.833 227,239.5C 227.492,240.549 227.326,241.549 226.5,242.5C 226.942,243.739 227.609,244.739 228.5,245.5C 228.263,246.791 228.596,247.791 229.5,248.5C 229.833,249.833 230.167,249.833 230.5,248.5C 231.167,248.5 231.5,248.167 231.5,247.5C 235.524,244.469 239.524,241.469 243.5,238.5C 244.492,238.672 245.158,238.338 245.5,237.5C 248.67,236.735 251.67,235.735 254.5,234.5C 261.137,233.724 267.804,233.391 274.5,233.5C 275.919,234.451 277.585,234.784 279.5,234.5C 285.672,236.582 291.672,239.248 297.5,242.5C 297.842,243.338 298.508,243.672 299.5,243.5C 299.5,245.167 299.5,246.833 299.5,248.5C 295.528,246.178 291.528,243.845 287.5,241.5C 284.785,244.057 282.618,247.057 281,250.5C 279.463,258.77 279.13,267.103 280,275.5C 281.523,283.591 283.356,291.591 285.5,299.5C 285.167,299.5 284.833,299.5 284.5,299.5C 277.64,282.959 276.14,265.959 280,248.5C 281.061,245.438 282.894,242.938 285.5,241C 263.7,233.326 244.866,237.826 229,254.5C 225.12,259.927 222.62,265.927 221.5,272.5C 220.374,281.493 220.374,290.493 221.5,299.5C 221.167,299.5 220.833,299.5 220.5,299.5C 219.468,289.522 219.301,279.522 220,269.5C 220.91,264.349 222.91,259.682 226,255.5C 226.667,252.833 226.667,250.167 226,247.5C 223.229,257.1 217.396,264.1 208.5,268.5C 181.786,278.765 154.12,282.598 125.5,280C 109.193,279.794 95.3595,273.96 84,262.5C 83.2375,266.587 83.4042,270.587 84.5,274.5C 86.1804,282.722 86.847,291.055 86.5,299.5C 85.5,299.5 84.5,299.5 83.5,299.5C 82.9648,287.464 81.9648,275.464 80.5,263.5C 80.6764,260.118 81.1764,256.785 82,253.5C 82.3768,252.058 83.2101,251.058 84.5,250.5C 83.5325,253.445 83.3658,256.445 84,259.5C 89.8536,267.52 97.6869,272.687 107.5,275C 136.39,280.439 165.057,279.439 193.5,272C 198.973,270.684 203.973,268.518 208.5,265.5C 219.168,261.486 224.335,253.819 224,242.5C 222.437,239.272 219.937,237.105 216.5,236C 211.609,234.212 206.609,233.045 201.5,232.5C 201.205,239.226 201.538,245.892 202.5,252.5C 199.436,255.57 196.103,258.237 192.5,260.5C 169.756,270.769 146.089,273.269 121.5,268C 116.971,266.486 112.805,264.319 109,261.5C 107.393,254.091 106.227,246.757 105.5,239.5C 106.566,238.308 107.399,238.641 108,240.5C 108.198,238.618 108.698,236.952 109.5,235.5C 109.248,238.32 109.748,240.986 111,243.5C 113.251,245.377 115.751,246.877 118.5,248C 144.561,255.91 169.561,253.243 193.5,240C 196.564,237.793 198.564,234.959 199.5,231.5C 200.906,231.027 201.573,230.027 201.5,228.5 Z"/></g>
<g><path style="opacity:0.004" fill="#000000" d="M 254.5,233.5 C 254.5,233.833 254.5,234.167 254.5,234.5C 250.5,234.167 250.5,233.833 254.5,233.5 Z"/></g>
<g><path style="opacity:1" fill="#f18f1e" d="M 208.5,265.5 C 203.178,263.837 197.845,262.171 192.5,260.5C 196.103,258.237 199.436,255.57 202.5,252.5C 201.538,245.892 201.205,239.226 201.5,232.5C 206.609,233.045 211.609,234.212 216.5,236C 219.937,237.105 222.437,239.272 224,242.5C 224.335,253.819 219.168,261.486 208.5,265.5 Z"/></g>
<g><path style="opacity:0.004" fill="#000000" d="M 245.5,237.5 C 244.833,236.167 244.833,236.167 245.5,237.5 Z"/></g>
<g><path style="opacity:0.005" fill="#000000" d="M 52.5,238.5 C 53.2506,237.427 54.2506,237.26 55.5,238C 54.552,238.483 53.552,238.649 52.5,238.5 Z"/></g>
<g><path style="opacity:0.005" fill="#000000" d="M 73.5,238.5 C 73.5,238.167 73.5,237.833 73.5,237.5C 77.5,237.833 77.5,238.167 73.5,238.5 Z"/></g>
<g><path style="opacity:0.004" fill="#000000" d="M 243.5,238.5 C 242.833,237.167 242.833,237.167 243.5,238.5 Z"/></g>
<g><path style="opacity:0.766" fill="#3c1713" d="M 159.5,209.5 C 159.917,212.159 160.917,214.492 162.5,216.5C 166.167,216.5 169.833,216.5 173.5,216.5C 179.39,217.364 185.39,218.364 191.5,219.5C 192.209,220.404 193.209,220.737 194.5,220.5C 197.499,223.213 200.166,225.546 202.5,227.5C 201.833,227.5 201.5,227.833 201.5,228.5C 201.573,230.027 200.906,231.027 199.5,231.5C 198.857,228.012 196.857,225.512 193.5,224C 183.151,220.246 172.484,218.746 161.5,219.5C 163.148,224.022 163.648,228.688 163,233.5C 161.833,236 160,237.833 157.5,239C 145.284,241.657 139.784,236.823 141,224.5C 140.161,223.376 138.994,222.709 137.5,222.5C 128.653,223.838 120.32,226.671 112.5,231C 110.859,232.129 109.859,233.629 109.5,235.5C 108.698,236.952 108.198,238.618 108,240.5C 107.399,238.641 106.566,238.308 105.5,239.5C 97.4965,241.334 90.4965,245.001 84.5,250.5C 84.5106,248.983 85.1772,247.816 86.5,247C 77.1824,242.071 67.5158,240.571 57.5,242.5C 48.8314,243.252 41.3314,246.585 35,252.5C 34.2086,253.745 33.7086,255.078 33.5,256.5C 32.3478,255.375 31.3478,255.375 30.5,256.5C 20.0896,269.158 17.0896,283.491 21.5,299.5C 20.5,299.5 19.5,299.5 18.5,299.5C 18.5,298.833 18.1667,298.5 17.5,298.5C 15.1716,286.514 16.505,275.014 21.5,264C 21.0426,263.586 20.7093,263.086 20.5,262.5C 22.3102,262.577 23.6435,261.41 24.5,259C 35.9101,243.36 52.2434,236.527 73.5,238.5C 75.3024,239.458 77.3024,240.125 79.5,240.5C 82.0744,241.881 84.5744,243.548 87,245.5C 91.6862,242.41 96.5196,239.744 101.5,237.5C 104.598,237.587 104.932,237.087 102.5,236C 105.595,235.065 107.929,233.231 109.5,230.5C 110.167,230.5 110.5,230.167 110.5,229.5C 116.706,225.395 123.373,222.395 130.5,220.5C 133.518,220.296 136.518,219.963 139.5,219.5C 140.167,216.833 140.833,214.167 141.5,211.5C 141.429,219.267 142.263,226.934 144,234.5C 146.352,236.343 149.019,237.343 152,237.5C 160.709,236.964 163.542,232.63 160.5,224.5C 158.979,224.12 157.313,223.954 155.5,224C 156.579,223.044 157.745,222.211 159,221.5C 159.499,217.514 159.666,213.514 159.5,209.5 Z"/></g>
<g><path style="opacity:1" fill="#ab6514" d="M 284.5,299.5 C 263.5,299.5 242.5,299.5 221.5,299.5C 220.374,290.493 220.374,281.493 221.5,272.5C 222.62,265.927 225.12,259.927 229,254.5C 244.866,237.826 263.7,233.326 285.5,241C 282.894,242.938 281.061,245.438 280,248.5C 276.14,265.959 277.64,282.959 284.5,299.5 Z"/></g>
<g><path style="opacity:0.004" fill="#000000" d="M 79.5,240.5 C 79.8966,239.475 80.5632,239.308 81.5,240C 80.9056,240.464 80.2389,240.631 79.5,240.5 Z"/></g>
<g><path style="opacity:1" fill="#a56115" d="M 189.5,259.5 C 189.23,254.55 188.23,249.883 186.5,245.5C 191.182,243.391 195.349,240.391 199,236.5C 199.559,241.863 199.892,247.196 200,252.5C 196.729,255.216 193.229,257.549 189.5,259.5 Z"/></g>
<g><path style="opacity:1" fill="#f5af60" d="M 105.5,239.5 C 106.227,246.757 107.393,254.091 109,261.5C 112.805,264.319 116.971,266.486 121.5,268C 146.089,273.269 169.756,270.769 192.5,260.5C 197.845,262.171 203.178,263.837 208.5,265.5C 203.973,268.518 198.973,270.684 193.5,272C 165.057,279.439 136.39,280.439 107.5,275C 97.6869,272.687 89.8536,267.52 84,259.5C 83.3658,256.445 83.5325,253.445 84.5,250.5C 90.4965,245.001 97.4965,241.334 105.5,239.5 Z"/></g>
<g><path style="opacity:0.004" fill="#000000" d="M 297.5,242.5 C 297.842,241.662 298.508,241.328 299.5,241.5C 299.5,241.833 299.5,242.167 299.5,242.5C 298.833,242.5 298.167,242.5 297.5,242.5 Z"/></g>
<g><path style="opacity:1" fill="#aa6415" d="M 57.5,242.5 C 67.5158,240.571 77.1824,242.071 86.5,247C 85.1772,247.816 84.5106,248.983 84.5,250.5C 83.2101,251.058 82.3768,252.058 82,253.5C 81.1764,256.785 80.6764,260.118 80.5,263.5C 81.9648,275.464 82.9648,287.464 83.5,299.5C 67.1667,299.5 50.8333,299.5 34.5,299.5C 31.6748,290.057 30.3415,280.39 30.5,270.5C 37.8066,261.326 47.14,254.826 58.5,251C 61.8764,249.062 63.8764,246.229 64.5,242.5C 62.1667,242.5 59.8333,242.5 57.5,242.5 Z"/></g>
<g><path style="opacity:1" fill="#aa6514" d="M 299.5,248.5 C 299.5,265.5 299.5,282.5 299.5,299.5C 294.833,299.5 290.167,299.5 285.5,299.5C 283.356,291.591 281.523,283.591 280,275.5C 279.13,267.103 279.463,258.77 281,250.5C 282.618,247.057 284.785,244.057 287.5,241.5C 291.528,243.845 295.528,246.178 299.5,248.5 Z"/></g>
<g><path style="opacity:0.004" fill="#000000" d="M 228.5,245.5 C 228.369,244.761 228.536,244.094 229,243.5C 229.692,244.437 229.525,245.103 228.5,245.5 Z"/></g>
<g><path style="opacity:0.004" fill="#000000" d="M 36.5,244.5 C 37.8333,245.167 37.8333,245.167 36.5,244.5 Z"/></g>
<g><path style="opacity:1" fill="#f3ae5f" d="M 57.5,242.5 C 59.8333,242.5 62.1667,242.5 64.5,242.5C 63.8764,246.229 61.8764,249.062 58.5,251C 47.14,254.826 37.8066,261.326 30.5,270.5C 30.4849,265.572 31.4849,260.906 33.5,256.5C 33.7086,255.078 34.2086,253.745 35,252.5C 41.3314,246.585 48.8314,243.252 57.5,242.5 Z"/></g>
<g><path style="opacity:1" fill="#ed8c1d" d="M 186.5,245.5 C 188.23,249.883 189.23,254.55 189.5,259.5C 166.818,269.181 143.485,271.015 119.5,265C 115.006,264.288 112.006,261.955 110.5,258C 109.337,253.201 108.837,248.368 109,243.5C 116.103,249.297 124.27,252.797 133.5,254C 151.805,255.06 169.472,252.227 186.5,245.5 Z"/></g>
<g><path style="opacity:0.008" fill="#1e0600" d="M 231.5,247.5 C 230.833,247.5 230.5,247.833 230.5,248.5C 230.167,248.5 229.833,248.5 229.5,248.5C 229.711,246.576 230.377,246.243 231.5,247.5 Z"/></g>
<g><path style="opacity:1" fill="#ab6515" d="M 220.5,299.5 C 217.167,299.5 213.833,299.5 210.5,299.5C 210.607,288.966 209.94,278.633 208.5,268.5C 217.396,264.1 223.229,257.1 226,247.5C 226.667,250.167 226.667,252.833 226,255.5C 222.91,259.682 220.91,264.349 220,269.5C 219.301,279.522 219.468,289.522 220.5,299.5 Z"/></g>
<g><path style="opacity:1" fill="#f1ad5e" d="M 30.5,256.5 C 31.0431,256.56 31.3764,256.893 31.5,257.5C 29.9032,263.385 28.9032,269.385 28.5,275.5C 25.9923,283.171 24.9923,291.171 25.5,299.5C 24.1667,299.5 22.8333,299.5 21.5,299.5C 17.0896,283.491 20.0896,269.158 30.5,256.5 Z"/></g>
<g><path style="opacity:1" fill="#f4911e" d="M 208.5,268.5 C 209.94,278.633 210.607,288.966 210.5,299.5C 172.5,299.5 134.5,299.5 96.5,299.5C 96.666,294.156 96.4994,288.823 96,283.5C 93.5177,278.859 89.6844,275.859 84.5,274.5C 83.4042,270.587 83.2375,266.587 84,262.5C 95.3595,273.96 109.193,279.794 125.5,280C 154.12,282.598 181.786,278.765 208.5,268.5 Z"/></g>
<g><path style="opacity:1" fill="#f9c68a" d="M 84.5,274.5 C 89.6844,275.859 93.5177,278.859 96,283.5C 96.4994,288.823 96.666,294.156 96.5,299.5C 93.1667,299.5 89.8333,299.5 86.5,299.5C 86.847,291.055 86.1804,282.722 84.5,274.5 Z"/></g>
<g><path style="opacity:1" fill="#ab6617" d="M 28.5,275.5 C 29.1893,283.612 30.5226,291.612 32.5,299.5C 30.1667,299.5 27.8333,299.5 25.5,299.5C 24.9923,291.171 25.9923,283.171 28.5,275.5 Z"/></g>
<g><path style="opacity:1" fill="#6c3a18" d="M 30.5,256.5 C 31.3478,255.375 32.3478,255.375 33.5,256.5C 31.4849,260.906 30.4849,265.572 30.5,270.5C 30.3415,280.39 31.6748,290.057 34.5,299.5C 33.8333,299.5 33.1667,299.5 32.5,299.5C 30.5226,291.612 29.1893,283.612 28.5,275.5C 28.9032,269.385 29.9032,263.385 31.5,257.5C 31.3764,256.893 31.0431,256.56 30.5,256.5 Z"/></g>
<g><path style="opacity:0.004" fill="#000000" d="M 17.5,298.5 C 17.5,298.833 17.5,299.167 17.5,299.5C 16.8299,299.019 16.8299,298.685 17.5,298.5 Z"/></g>
</svg>
