<?xml version="1.0" encoding="UTF-8"?>
<!DOCTYPE svg PUBLIC "-//W3C//DTD SVG 1.1//EN" "http://www.w3.org/Graphics/SVG/1.1/DTD/svg11.dtd">
<svg xmlns="http://www.w3.org/2000/svg" version="1.1" width="300px" height="300px" style="shape-rendering:geometricPrecision; text-rendering:geometricPrecision; image-rendering:optimizeQuality; fill-rule:evenodd; clip-rule:evenodd" xmlns:xlink="http://www.w3.org/1999/xlink">
<g><path style="opacity:0.004" fill="#901b0b" d="M 119.5,76.5 C 122.64,75.3592 125.973,75.1925 129.5,76C 126.183,76.4983 122.85,76.665 119.5,76.5 Z"/></g>
<g><path style="opacity:0.004" fill="#dc1105" d="M 134.5,76.5 C 136.628,75.3709 138.961,75.2042 141.5,76C 139.19,76.4966 136.857,76.6633 134.5,76.5 Z"/></g>
<g><path style="opacity:0.004" fill="#000000" d="M 112.5,82.5 C 112.167,82.5 111.833,82.5 111.5,82.5C 111.833,79.8333 112.167,79.8333 112.5,82.5 Z"/></g>
<g><path style="opacity:0.004" fill="#341206" d="M 111.5,82.5 C 111.657,83.8734 111.49,85.2068 111,86.5C 110.235,84.9343 110.402,83.6009 111.5,82.5 Z"/></g>
<g><path style="opacity:0.004" fill="#000000" d="M 155.5,85.5 C 153.473,85.6621 151.473,85.4955 149.5,85C 151.712,84.2109 153.712,84.3775 155.5,85.5 Z"/></g>
<g><path style="opacity:0.004" fill="#000000" d="M 155.5,85.5 C 157.099,85.2322 158.432,85.5655 159.5,86.5C 157.901,86.7678 156.568,86.4345 155.5,85.5 Z"/></g>
<g><path style="opacity:0.004" fill="#000000" d="M 159.5,87.5 C 159.5,87.1667 159.5,86.8333 159.5,86.5C 162.167,86.8333 162.167,87.1667 159.5,87.5 Z"/></g>
<g><path style="opacity:0.957" fill="#32100f" d="M 159.5,87.5 C 166.389,90.2162 172.222,94.5496 177,100.5C 177.333,100.167 177.667,99.8333 178,99.5C 180.738,102.303 182.238,105.303 182.5,108.5C 182.707,111.241 183.707,113.574 185.5,115.5C 185.41,118.152 186.076,120.485 187.5,122.5C 189.086,131.77 190.253,141.103 191,150.5C 191.86,171.712 193.36,192.879 195.5,214C 195.369,216.777 194.702,219.277 193.5,221.5C 192.508,221.328 191.842,221.662 191.5,222.5C 190.209,222.263 189.209,222.596 188.5,223.5C 187.209,223.263 186.209,223.596 185.5,224.5C 184.209,224.263 183.209,224.596 182.5,225.5C 181.209,225.263 180.209,225.596 179.5,226.5C 177.214,226.595 175.214,227.262 173.5,228.5C 172.209,228.263 171.209,228.596 170.5,229.5C 169.209,229.263 168.209,229.596 167.5,230.5C 167.328,231.492 167.662,232.158 168.5,232.5C 168.205,234.735 168.539,236.735 169.5,238.5C 170.263,239.268 171.263,239.768 172.5,240C 171.263,240.232 170.263,240.732 169.5,241.5C 168.778,241.082 168.278,240.416 168,239.5C 167.51,240.793 167.343,242.127 167.5,243.5C 166.549,242.081 166.216,240.415 166.5,238.5C 164.774,238.815 163.107,238.981 161.5,239C 165.115,236.681 166.115,233.515 164.5,229.5C 159.019,231.549 153.352,232.549 147.5,232.5C 147.5,236.5 147.5,240.5 147.5,244.5C 147.565,244.938 147.399,245.272 147,245.5C 146.722,244.584 146.222,243.918 145.5,243.5C 143.656,241.721 142.99,239.388 143.5,236.5C 141.801,236.66 140.134,236.494 138.5,236C 140.833,235.667 143.167,235.333 145.5,235C 140.971,234.321 136.471,234.487 132,235.5C 126.839,234.723 121.673,234.056 116.5,233.5C 110.2,231.53 105.867,227.53 103.5,221.5C 103.768,219.901 103.434,218.568 102.5,217.5C 102.768,215.901 102.434,214.568 101.5,213.5C 100.102,205.899 98.102,198.566 95.5,191.5C 95.7678,189.901 95.4345,188.568 94.5,187.5C 94.4349,184.572 93.7682,181.905 92.5,179.5C 89.5184,165.648 88.3517,151.648 89,137.5C 89.7218,131.612 91.2218,125.945 93.5,120.5C 93.1667,119.833 92.8333,119.167 92.5,118.5C 93.2472,118.264 94.0805,117.93 95,117.5C 95.4922,116.451 95.3256,115.451 94.5,114.5C 95.5312,113.3 96.3645,111.966 97,110.5C 99.6625,110.07 101.829,108.403 103.5,105.5C 104.167,105.5 104.5,105.167 104.5,104.5C 105.167,104.5 105.5,104.167 105.5,103.5C 106.167,103.5 106.5,103.167 106.5,102.5C 108.148,101.19 109.814,99.8569 111.5,98.5C 112.495,93.2079 112.828,87.8746 112.5,82.5C 114.082,80.0303 116.415,78.5303 119.5,78C 126.826,77.5003 134.159,77.3337 141.5,77.5C 141.337,79.8568 141.503,82.1902 142,84.5C 142.333,82.8333 142.667,81.1667 143,79.5C 143.918,82.0631 143.418,84.2298 141.5,86C 147.515,86.4242 153.515,86.9242 159.5,87.5 Z"/></g>
<g><path style="opacity:1" fill="#e21b23" d="M 138.5,102.5 C 130.899,104.05 123.232,104.55 115.5,104C 118.118,102.256 117.785,101.089 114.5,100.5C 114.211,94.4093 114.545,88.4093 115.5,82.5C 116.096,83.9354 116.096,85.602 115.5,87.5C 119.476,86.6693 123.476,86.5027 127.5,87C 122.561,91.3805 120.227,96.8805 120.5,103.5C 123.199,103.534 125.699,102.867 128,101.5C 128.749,97.7487 129.749,94.082 131,90.5C 133.378,88.291 135.545,85.9576 137.5,83.5C 137.392,82.5581 137.059,81.7247 136.5,81C 131.094,80.5108 125.76,81.0108 120.5,82.5C 119.287,82.2528 118.62,81.5862 118.5,80.5C 125.346,78.7754 132.346,78.1088 139.5,78.5C 138.677,86.4712 138.344,94.4712 138.5,102.5 Z"/></g>
<g><path style="opacity:1" fill="#8e1418" d="M 118.5,80.5 C 118.62,81.5862 119.287,82.2528 120.5,82.5C 125.76,81.0108 131.094,80.5108 136.5,81C 137.059,81.7247 137.392,82.5581 137.5,83.5C 135.545,85.9576 133.378,88.291 131,90.5C 129.749,94.082 128.749,97.7487 128,101.5C 125.699,102.867 123.199,103.534 120.5,103.5C 120.227,96.8805 122.561,91.3805 127.5,87C 123.476,86.5027 119.476,86.6693 115.5,87.5C 116.096,85.602 116.096,83.9354 115.5,82.5C 116.29,81.5987 117.29,80.9321 118.5,80.5 Z"/></g>
<g><path style="opacity:0.004" fill="#000000" d="M 162.5,88.5 C 162.897,87.475 163.563,87.3083 164.5,88C 163.906,88.4643 163.239,88.631 162.5,88.5 Z"/></g>
<g><path style="opacity:1" fill="#a31418" d="M 185.5,220.5 C 183.13,198.591 181.963,176.591 182,154.5C 180.996,135.464 174.163,118.964 161.5,105C 155.249,100.416 148.249,97.9163 140.5,97.5C 140.5,94.8333 140.5,92.1667 140.5,89.5C 159.57,88.4404 173.07,96.4404 181,113.5C 184.367,123.265 186.7,133.265 188,143.5C 188.347,167.088 189.847,190.588 192.5,214C 191.484,217.52 189.151,219.687 185.5,220.5 Z"/></g>
<g><path style="opacity:0.006" fill="#000000" d="M 110.5,95.5 C 111.525,95.8966 111.692,96.5632 111,97.5C 110.536,96.9056 110.369,96.2389 110.5,95.5 Z"/></g>
<g><path style="opacity:1" fill="#e91c24" d="M 140.5,97.5 C 148.249,97.9163 155.249,100.416 161.5,105C 174.163,118.964 180.996,135.464 182,154.5C 181.963,176.591 183.13,198.591 185.5,220.5C 162.729,230.853 139.062,234.019 114.5,230C 111.421,228.752 108.754,226.919 106.5,224.5C 100.548,202.359 95.3815,180.025 91,157.5C 88.5977,140.107 92.5977,124.441 103,110.5C 106.078,106.915 109.578,103.915 113.5,101.5C 113.205,103.735 113.539,105.735 114.5,107.5C 115.167,107.5 115.833,107.5 116.5,107.5C 117.687,108.534 118.52,109.867 119,111.5C 123.836,114.821 126.336,113.488 126.5,107.5C 130.964,107.402 135.297,106.569 139.5,105C 140.435,102.619 140.768,100.119 140.5,97.5 Z"/></g>
<g><path style="opacity:0.004" fill="#000000" d="M 106.5,102.5 C 105.833,102.5 105.5,102.833 105.5,103.5C 104.833,103.5 104.5,103.833 104.5,104.5C 103.833,104.5 103.5,104.833 103.5,105.5C 102.493,103.732 103.159,102.399 105.5,101.5C 106.107,101.624 106.44,101.957 106.5,102.5 Z"/></g>
<g><path style="opacity:1" fill="#8b1518" d="M 114.5,100.5 C 117.785,101.089 118.118,102.256 115.5,104C 123.232,104.55 130.899,104.05 138.5,102.5C 137.158,103.793 135.491,104.626 133.5,105C 126.754,104.869 120.421,105.702 114.5,107.5C 113.539,105.735 113.205,103.735 113.5,101.5C 114.167,101.5 114.5,101.167 114.5,100.5 Z"/></g>
<g><path style="opacity:0.004" fill="#000000" d="M 183.5,108.5 C 182.833,107.167 182.833,107.167 183.5,108.5 Z"/></g>
<g><path style="opacity:0.004" fill="#000000" d="M 183.5,108.5 C 184.525,108.897 184.692,109.563 184,110.5C 183.536,109.906 183.369,109.239 183.5,108.5 Z"/></g>
<g><path style="opacity:0.998" fill="#eb8689" d="M 116.5,107.5 C 119.833,107.5 123.167,107.5 126.5,107.5C 126.336,113.488 123.836,114.821 119,111.5C 118.52,109.867 117.687,108.534 116.5,107.5 Z"/></g>
<g><path style="opacity:0.004" fill="#000000" d="M 185.5,115.5 C 185.369,114.761 185.536,114.094 186,113.5C 186.692,114.437 186.525,115.103 185.5,115.5 Z"/></g>
<g><path style="opacity:0.004" fill="#000000" d="M 186.5,116.5 C 187.525,116.897 187.692,117.563 187,118.5C 186.536,117.906 186.369,117.239 186.5,116.5 Z"/></g>
<g><path style="opacity:0.004" fill="#000000" d="M 188.5,122.5 C 188.167,122.5 187.833,122.5 187.5,122.5C 187.833,118.5 188.167,118.5 188.5,122.5 Z"/></g>
<g><path style="opacity:0.004" fill="#000000" d="M 188.5,122.5 C 189.434,123.568 189.768,124.901 189.5,126.5C 188.566,125.432 188.232,124.099 188.5,122.5 Z"/></g>
<g><path style="opacity:0.004" fill="#000000" d="M 89.5,126.5 C 89.3505,125.448 89.5172,124.448 90,123.5C 90.7401,124.749 90.5735,125.749 89.5,126.5 Z"/></g>
<g><path style="opacity:0.004" fill="#000000" d="M 89.5,126.5 C 89.6567,127.873 89.49,129.207 89,130.5C 88.235,128.934 88.4017,127.601 89.5,126.5 Z"/></g>
<g><path style="opacity:0.004" fill="#000000" d="M 189.5,126.5 C 190.613,127.946 190.78,129.613 190,131.5C 189.506,129.866 189.34,128.199 189.5,126.5 Z"/></g>
<g><path style="opacity:0.999" fill="#3c1211" d="M 165.5,129.5 C 162.641,131.963 159.641,134.463 156.5,137C 151.994,139.405 147.327,139.905 142.5,138.5C 143.254,135.909 144.921,134.076 147.5,133C 153.291,130.679 159.291,129.512 165.5,129.5 Z"/></g>
<g><path style="opacity:0.004" fill="#000000" d="M 87.5,131.5 C 88.5983,132.601 88.765,133.934 88,135.5C 87.51,134.207 87.3433,132.873 87.5,131.5 Z"/></g>
<g><path style="opacity:1" fill="#771014" d="M 165.5,129.5 C 166.298,132.171 166.965,135.004 167.5,138C 162.33,143.75 155.997,147.083 148.5,148C 145.881,145.216 143.881,142.049 142.5,138.5C 147.327,139.905 151.994,139.405 156.5,137C 159.641,134.463 162.641,131.963 165.5,129.5 Z"/></g>
<g><path style="opacity:0.004" fill="#000000" d="M 190.5,132.5 C 191.622,134.288 191.789,136.288 191,138.5C 190.505,136.527 190.338,134.527 190.5,132.5 Z"/></g>
<g><path style="opacity:0.004" fill="#000000" d="M 86.5,137.5 C 87.6525,143.319 87.8192,149.319 87,155.5C 86.5005,149.509 86.3338,143.509 86.5,137.5 Z"/></g>
<g><path style="opacity:0.999" fill="#401413" d="M 107.5,136.5 C 110.305,137.319 113.305,137.819 116.5,138C 117.022,138.561 117.355,139.228 117.5,140C 116.434,143.461 115.101,146.794 113.5,150C 111.455,150.49 109.455,150.323 107.5,149.5C 104.156,148.833 101.489,147.166 99.5,144.5C 103.28,146.542 107.28,148.209 111.5,149.5C 113.047,148.232 114.047,146.565 114.5,144.5C 111.239,143.289 107.905,142.289 104.5,141.5C 102.335,140.293 100.335,138.96 98.5,137.5C 101.287,136.523 104.287,136.19 107.5,136.5 Z"/></g>
<g><path style="opacity:0.004" fill="#000000" d="M 191.5,139.5 C 192.634,141.966 192.801,144.633 192,147.5C 191.503,144.854 191.336,142.187 191.5,139.5 Z"/></g>
<g><path style="opacity:1" fill="#f48b8f" d="M 107.5,136.5 C 104.287,136.19 101.287,136.523 98.5,137.5C 97.8529,138.274 97.5195,139.274 97.5,140.5C 97.3402,142.355 98.0069,143.688 99.5,144.5C 101.489,147.166 104.156,148.833 107.5,149.5C 109.208,154.372 109.708,159.372 109,164.5C 106.032,166.991 102.865,167.157 99.5,165C 95.9199,157.434 94.2533,149.434 94.5,141C 93.6829,128.646 98.0163,118.646 107.5,111C 116.065,109.285 118.565,112.452 115,120.5C 110.675,124.974 108.175,130.307 107.5,136.5 Z"/></g>
<g><path style="opacity:1" fill="#7e1014" d="M 98.5,137.5 C 100.335,138.96 102.335,140.293 104.5,141.5C 107.905,142.289 111.239,143.289 114.5,144.5C 114.047,146.565 113.047,148.232 111.5,149.5C 107.28,148.209 103.28,146.542 99.5,144.5C 98.0069,143.688 97.3402,142.355 97.5,140.5C 97.5195,139.274 97.8529,138.274 98.5,137.5 Z"/></g>
<g><path style="opacity:0.004" fill="#000000" d="M 192.5,150.5 C 193.65,155.316 193.816,160.316 193,165.5C 192.501,160.511 192.334,155.511 192.5,150.5 Z"/></g>
<g><path style="opacity:0.004" fill="#000000" d="M 87.5,157.5 C 88.6225,159.288 88.7891,161.288 88,163.5C 87.5045,161.527 87.3379,159.527 87.5,157.5 Z"/></g>
<g><path style="opacity:0.004" fill="#000000" d="M 89.5,170.5 C 88.3871,169.054 88.2204,167.387 89,165.5C 89.4935,167.134 89.6602,168.801 89.5,170.5 Z"/></g>
<g><path style="opacity:0.004" fill="#000000" d="M 89.5,170.5 C 90.5983,171.601 90.765,172.934 90,174.5C 89.51,173.207 89.3433,171.873 89.5,170.5 Z"/></g>
<g><path style="opacity:0.004" fill="#000000" d="M 193.5,171.5 C 194.643,174.976 194.81,178.642 194,182.5C 193.501,178.848 193.335,175.182 193.5,171.5 Z"/></g>
<g><path style="opacity:0.004" fill="#000000" d="M 91.5,179.5 C 90.4017,178.399 90.235,177.066 91,175.5C 91.49,176.793 91.6567,178.127 91.5,179.5 Z"/></g>
<g><path style="opacity:0.004" fill="#341206" d="M 91.5,179.5 C 91.8333,179.5 92.1667,179.5 92.5,179.5C 92.1667,184.833 91.8333,184.833 91.5,179.5 Z"/></g>
<g><path style="opacity:0.004" fill="#000000" d="M 93.5,187.5 C 92.4265,186.749 92.2599,185.749 93,184.5C 93.4828,185.448 93.6495,186.448 93.5,187.5 Z"/></g>
<g><path style="opacity:0.004" fill="#000000" d="M 194.5,185.5 C 195.634,187.966 195.801,190.633 195,193.5C 194.503,190.854 194.336,188.187 194.5,185.5 Z"/></g>
<g><path style="opacity:0.004" fill="#341206" d="M 93.5,187.5 C 93.8333,187.5 94.1667,187.5 94.5,187.5C 94.5,188.833 94.5,190.167 94.5,191.5C 93.5655,190.432 93.2322,189.099 93.5,187.5 Z"/></g>
<g><path style="opacity:1" fill="#770f13" d="M 127.5,188.5 C 126.215,185.411 125.549,182.078 125.5,178.5C 127.5,178.5 129.5,178.5 131.5,178.5C 130.791,179.404 129.791,179.737 128.5,179.5C 129.585,187.734 130.252,188.067 130.5,180.5C 134.391,180.391 138.058,179.391 141.5,177.5C 142.894,181.755 143.394,186.088 143,190.5C 142.346,189.304 141.846,189.304 141.5,190.5C 144.407,193.179 145.074,196.345 143.5,200C 139.94,201.237 136.273,201.737 132.5,201.5C 132.66,199.801 132.494,198.134 132,196.5C 131.808,198.577 131.308,200.577 130.5,202.5C 129.635,197.095 128.635,192.428 127.5,188.5 Z"/></g>
<g><path style="opacity:0.004" fill="#3f1408" d="M 94.5,191.5 C 94.8333,191.5 95.1667,191.5 95.5,191.5C 95.1667,195.5 94.8333,195.5 94.5,191.5 Z"/></g>
<g><path style="opacity:0.004" fill="#000000" d="M 95.5,195.5 C 96.5735,196.251 96.7401,197.251 96,198.5C 95.5172,197.552 95.3505,196.552 95.5,195.5 Z"/></g>
<g><path style="opacity:0.004" fill="#000000" d="M 195.5,195.5 C 196.638,198.304 196.805,201.304 196,204.5C 195.502,201.518 195.335,198.518 195.5,195.5 Z"/></g>
<g><path style="opacity:0.004" fill="#000000" d="M 96.5,199.5 C 97.5735,200.251 97.7401,201.251 97,202.5C 96.5172,201.552 96.3505,200.552 96.5,199.5 Z"/></g>
<g><path style="opacity:1" fill="#511011" d="M 127.5,188.5 C 128.635,192.428 129.635,197.095 130.5,202.5C 131.308,200.577 131.808,198.577 132,196.5C 132.494,198.134 132.66,199.801 132.5,201.5C 136.273,201.737 139.94,201.237 143.5,200C 145.074,196.345 144.407,193.179 141.5,190.5C 141.846,189.304 142.346,189.304 143,190.5C 143.394,186.088 142.894,181.755 141.5,177.5C 138.058,179.391 134.391,180.391 130.5,180.5C 130.252,188.067 129.585,187.734 128.5,179.5C 129.791,179.737 130.791,179.404 131.5,178.5C 134.67,177.916 137.837,177.25 141,176.5C 141.833,176.833 142.667,177.167 143.5,177.5C 145.323,185.42 146.657,193.42 147.5,201.5C 146.221,203.146 144.555,204.313 142.5,205C 138.167,205.667 133.833,205.667 129.5,205C 128.223,199.615 127.556,194.115 127.5,188.5 Z"/></g>
<g><path style="opacity:0.004" fill="#000000" d="M 196.5,207.5 C 197.645,211.311 197.812,215.311 197,219.5C 196.501,215.514 196.334,211.514 196.5,207.5 Z"/></g>
<g><path style="opacity:0.004" fill="#341206" d="M 101.5,213.5 C 101.5,214.833 101.5,216.167 101.5,217.5C 100.167,216.167 100.167,214.833 101.5,213.5 Z"/></g>
<g><path style="opacity:0.004" fill="#341206" d="M 101.5,217.5 C 101.833,217.5 102.167,217.5 102.5,217.5C 102.5,218.833 102.5,220.167 102.5,221.5C 101.566,220.432 101.232,219.099 101.5,217.5 Z"/></g>
<g><path style="opacity:0.004" fill="#000000" d="M 193.5,221.5 C 194.833,222.167 194.833,222.167 193.5,221.5 Z"/></g>
<g><path style="opacity:0.004" fill="#000000" d="M 191.5,223.5 C 191.5,223.167 191.5,222.833 191.5,222.5C 192.167,222.5 192.833,222.5 193.5,222.5C 193.158,223.338 192.492,223.672 191.5,223.5 Z"/></g>
<g><path style="opacity:0.004" fill="#52170a" d="M 102.5,221.5 C 102.833,221.5 103.167,221.5 103.5,221.5C 103.167,226.833 102.833,226.833 102.5,221.5 Z"/></g>
<g><path style="opacity:0.004" fill="#000000" d="M 188.5,224.5 C 188.5,224.167 188.5,223.833 188.5,223.5C 189.5,223.5 190.5,223.5 191.5,223.5C 190.791,224.404 189.791,224.737 188.5,224.5 Z"/></g>
<g><path style="opacity:0.004" fill="#000000" d="M 185.5,225.5 C 185.5,225.167 185.5,224.833 185.5,224.5C 186.5,224.5 187.5,224.5 188.5,224.5C 187.791,225.404 186.791,225.737 185.5,225.5 Z"/></g>
<g><path style="opacity:0.004" fill="#000000" d="M 182.5,226.5 C 182.5,226.167 182.5,225.833 182.5,225.5C 183.5,225.5 184.5,225.5 185.5,225.5C 184.791,226.404 183.791,226.737 182.5,226.5 Z"/></g>
<g><path style="opacity:1" fill="#6b1616" d="M 123.5,225.5 C 127.31,226.754 127.31,227.754 123.5,228.5C 123.5,227.5 123.5,226.5 123.5,225.5 Z"/></g>
<g><path style="opacity:0.004" fill="#000000" d="M 179.5,227.5 C 179.5,227.167 179.5,226.833 179.5,226.5C 180.5,226.5 181.5,226.5 182.5,226.5C 181.791,227.404 180.791,227.737 179.5,227.5 Z"/></g>
<g><path style="opacity:0.004" fill="#000000" d="M 179.5,227.5 C 179.103,228.525 178.437,228.692 177.5,228C 178.094,227.536 178.761,227.369 179.5,227.5 Z"/></g>
<g><path style="opacity:0.004" fill="#000000" d="M 173.5,229.5 C 173.5,229.167 173.5,228.833 173.5,228.5C 177.5,228.833 177.5,229.167 173.5,229.5 Z"/></g>
<g><path style="opacity:0.004" fill="#000000" d="M 170.5,230.5 C 170.5,230.167 170.5,229.833 170.5,229.5C 171.5,229.5 172.5,229.5 173.5,229.5C 172.791,230.404 171.791,230.737 170.5,230.5 Z"/></g>
<g><path style="opacity:0.005" fill="#1c4314" d="M 167.5,230.5 C 168.5,230.5 169.5,230.5 170.5,230.5C 170.167,231.167 169.833,231.833 169.5,232.5C 169.167,232.5 168.833,232.5 168.5,232.5C 167.662,232.158 167.328,231.492 167.5,230.5 Z"/></g>
<g><path style="opacity:0.004" fill="#000000" d="M 169.5,232.5 C 170.833,234.5 170.833,236.5 169.5,238.5C 169.5,236.5 169.5,234.5 169.5,232.5 Z"/></g>
<g><path style="opacity:0.004" fill="#000000" d="M 116.5,233.5 C 116.5,233.833 116.5,234.167 116.5,234.5C 112.5,234.167 112.5,233.833 116.5,233.5 Z"/></g>
<g><path style="opacity:0.004" fill="#000000" d="M 116.5,234.5 C 117.552,234.351 118.552,234.517 119.5,235C 118.251,235.74 117.251,235.573 116.5,234.5 Z"/></g>
<g><path style="opacity:0.004" fill="#000000" d="M 120.5,236.5 C 121.946,235.387 123.613,235.22 125.5,236C 123.866,236.494 122.199,236.66 120.5,236.5 Z"/></g>
<g><path style="opacity:0.004" fill="#000000" d="M 129.5,237.5 C 130.946,236.387 132.613,236.22 134.5,237C 132.866,237.494 131.199,237.66 129.5,237.5 Z"/></g>
<g><path style="opacity:0.004" fill="#000000" d="M 190.5,240.5 C 192.288,239.378 194.288,239.211 196.5,240C 194.527,240.495 192.527,240.662 190.5,240.5 Z"/></g>
<g><path style="opacity:1" fill="#676768" d="M 167.5,243.5 C 166.942,249.463 163.609,252.129 157.5,251.5C 151.928,252.251 148.595,249.917 147.5,244.5C 147.5,240.5 147.5,236.5 147.5,232.5C 153.352,232.549 159.019,231.549 164.5,229.5C 166.115,233.515 165.115,236.681 161.5,239C 163.107,238.981 164.774,238.815 166.5,238.5C 166.216,240.415 166.549,242.081 167.5,243.5 Z"/></g>
<g><path style="opacity:0.004" fill="#000000" d="M 173.5,241.5 C 173.897,240.475 174.563,240.308 175.5,241C 174.906,241.464 174.239,241.631 173.5,241.5 Z"/></g>
<g><path style="opacity:0.004" fill="#000000" d="M 202.5,242.5 C 203.833,243.167 203.833,243.167 202.5,242.5 Z"/></g>
<g><path style="opacity:0.005" fill="#000000" d="M 122.5,244.5 C 125.64,243.359 128.973,243.192 132.5,244C 129.183,244.498 125.85,244.665 122.5,244.5 Z"/></g>
<g><path style="opacity:0.004" fill="#000000" d="M 204.5,243.5 C 205.833,244.167 205.833,244.167 204.5,243.5 Z"/></g>
<g><path style="opacity:0.004" fill="#000000" d="M 121.5,245.5 C 120.833,244.167 120.833,244.167 121.5,245.5 Z"/></g>
<g><path style="opacity:0.809" fill="#3d1413" d="M 169.5,241.5 C 170.833,241.5 172.167,241.5 173.5,241.5C 176.075,242.787 178.741,244.121 181.5,245.5C 188.177,241.123 195.177,240.456 202.5,243.5C 203.436,244.974 204.77,245.974 206.5,246.5C 207.008,248.233 207.841,248.566 209,247.5C 208.076,249.809 208.909,251.476 211.5,252.5C 211.595,254.786 212.262,256.786 213.5,258.5C 213.5,261.5 213.5,264.5 213.5,267.5C 212.566,268.568 212.232,269.901 212.5,271.5C 211.167,272.167 211.167,272.833 212.5,273.5C 211.914,275.84 210.914,278.007 209.5,280C 210.733,282.314 212.067,284.481 213.5,286.5C 213.263,287.791 213.596,288.791 214.5,289.5C 214.5,292.833 214.5,296.167 214.5,299.5C 213.833,299.5 213.167,299.5 212.5,299.5C 211.676,296.236 211.342,292.902 211.5,289.5C 208.381,291.051 205.048,292.051 201.5,292.5C 201.5,294.833 201.5,297.167 201.5,299.5C 200.5,299.5 199.5,299.5 198.5,299.5C 198.167,295.5 197.833,295.5 197.5,299.5C 196.5,299.5 195.5,299.5 194.5,299.5C 194.5,293.833 194.5,288.167 194.5,282.5C 178.929,281.391 172.429,273.058 175,257.5C 176.302,253.726 178.469,250.559 181.5,248C 179.564,247.187 177.564,246.687 175.5,246.5C 174.711,251.413 172.377,255.413 168.5,258.5C 165.594,259.751 162.594,260.251 159.5,260C 161.9,259.256 164.233,258.423 166.5,257.5C 171.499,254.813 173.832,250.813 173.5,245.5C 171.995,248.131 171.329,247.797 171.5,244.5C 170.5,244.5 169.5,244.5 168.5,244.5C 168.838,247.157 168.171,249.49 166.5,251.5C 166.833,252.167 167.167,252.833 167.5,253.5C 165.463,253.498 163.463,253.832 161.5,254.5C 154.644,255.785 149.644,253.452 146.5,247.5C 138.281,251.011 132.115,256.678 128,264.5C 127.039,271.336 127.705,278.003 130,284.5C 130.499,289.489 130.666,294.489 130.5,299.5C 128.5,299.5 126.5,299.5 124.5,299.5C 124.5,296.5 124.5,293.5 124.5,290.5C 121.687,290.452 119.021,289.785 116.5,288.5C 115.511,292.107 115.177,295.774 115.5,299.5C 113.833,299.5 112.167,299.5 110.5,299.5C 110.5,299.167 110.5,298.833 110.5,298.5C 111.317,291.427 112.651,284.593 114.5,278C 112.106,276.048 110.606,273.548 110,270.5C 108.913,272.932 108.413,272.598 108.5,269.5C 109.525,266.026 110.192,262.36 110.5,258.5C 111.404,257.791 111.737,256.791 111.5,255.5C 114.5,251.833 117.833,248.5 121.5,245.5C 127.188,244.832 132.521,245.832 137.5,248.5C 140.231,246.808 142.898,245.142 145.5,243.5C 146.222,243.918 146.722,244.584 147,245.5C 147.399,245.272 147.565,244.938 147.5,244.5C 148.595,249.917 151.928,252.251 157.5,251.5C 163.609,252.129 166.942,249.463 167.5,243.5C 167.343,242.127 167.51,240.793 168,239.5C 168.278,240.416 168.778,241.082 169.5,241.5 Z"/></g>
<g><path style="opacity:0.004" fill="#000000" d="M 206.5,245.5 C 207.833,246.167 207.833,246.167 206.5,245.5 Z"/></g>
<g><path style="opacity:1" fill="#a31318" d="M 197.5,246.5 C 201.811,256.348 201.311,266.015 196,275.5C 194.285,278.397 191.785,279.731 188.5,279.5C 178.55,276.01 174.717,269.01 177,258.5C 179.891,247.966 186.724,243.966 197.5,246.5 Z"/></g>
<g><path style="opacity:1" fill="#800f14" d="M 197.5,246.5 C 204.404,247.569 208.57,251.569 210,258.5C 211.27,274.736 204.104,281.736 188.5,279.5C 191.785,279.731 194.285,278.397 196,275.5C 201.311,266.015 201.811,256.348 197.5,246.5 Z"/></g>
<g><path style="opacity:1" fill="#9a1418" d="M 166.5,257.5 C 165.7,255.259 164.034,254.259 161.5,254.5C 163.463,253.832 165.463,253.498 167.5,253.5C 167.167,252.833 166.833,252.167 166.5,251.5C 168.171,249.49 168.838,247.157 168.5,244.5C 169.5,244.5 170.5,244.5 171.5,244.5C 171.329,247.797 171.995,248.131 173.5,245.5C 173.832,250.813 171.499,254.813 166.5,257.5 Z"/></g>
<g><path style="opacity:1" fill="#a21519" d="M 119.5,277.5 C 117.748,273.152 116.414,268.652 115.5,264C 116.803,259.559 118.803,255.393 121.5,251.5C 121.376,250.893 121.043,250.56 120.5,250.5C 122.29,249.003 124.456,248.336 127,248.5C 136.68,248.462 137.68,251.128 130,256.5C 128.414,258.67 127.08,261.004 126,263.5C 125.501,268.489 125.334,273.489 125.5,278.5C 123.265,278.795 121.265,278.461 119.5,277.5 Z"/></g>
<g><path style="opacity:0.004" fill="#000000" d="M 211.5,251.5 C 212.833,252.167 212.833,252.167 211.5,251.5 Z"/></g>
<g><path style="opacity:1" fill="#e81d24" d="M 161.5,254.5 C 164.034,254.259 165.7,255.259 166.5,257.5C 164.233,258.423 161.9,259.256 159.5,260C 162.594,260.251 165.594,259.751 168.5,258.5C 171.562,260.623 173.062,263.623 173,267.5C 173.5,278.161 173.667,288.828 173.5,299.5C 171.833,299.5 170.167,299.5 168.5,299.5C 168.5,293.167 168.5,286.833 168.5,280.5C 160.191,281.288 151.858,281.621 143.5,281.5C 144.363,287.455 144.697,293.455 144.5,299.5C 142.5,299.5 140.5,299.5 138.5,299.5C 140.186,290.372 139.686,281.372 137,272.5C 135.556,270.845 133.722,270.178 131.5,270.5C 131.578,277.39 132.245,284.224 133.5,291C 133.316,293.865 132.982,296.698 132.5,299.5C 131.833,299.5 131.167,299.5 130.5,299.5C 130.666,294.489 130.499,289.489 130,284.5C 127.705,278.003 127.039,271.336 128,264.5C 132.115,256.678 138.281,251.011 146.5,247.5C 149.644,253.452 154.644,255.785 161.5,254.5 Z"/></g>
<g><path style="opacity:0.004" fill="#000000" d="M 111.5,255.5 C 110.833,254.167 110.833,254.167 111.5,255.5 Z"/></g>
<g><path style="opacity:0.005" fill="#000000" d="M 213.5,258.5 C 213.351,257.448 213.517,256.448 214,255.5C 214.74,256.749 214.573,257.749 213.5,258.5 Z"/></g>
<g><path style="opacity:0.004" fill="#000000" d="M 110.5,258.5 C 110.167,258.5 109.833,258.5 109.5,258.5C 109.833,255.833 110.167,255.833 110.5,258.5 Z"/></g>
<g><path style="opacity:0.004" fill="#000000" d="M 109.5,258.5 C 109.649,259.552 109.483,260.552 109,261.5C 108.26,260.251 108.427,259.251 109.5,258.5 Z"/></g>
<g><path style="opacity:0.004" fill="#000000" d="M 214.5,259.5 C 215.629,261.628 215.796,263.961 215,266.5C 214.503,264.19 214.337,261.857 214.5,259.5 Z"/></g>
<g><path style="opacity:1" fill="#f5868a" d="M 134.5,259.5 C 137.513,260.356 138.18,262.189 136.5,265C 135.552,265.483 134.552,265.649 133.5,265.5C 133.517,263.435 133.85,261.435 134.5,259.5 Z"/></g>
<g><path style="opacity:0.004" fill="#000000" d="M 108.5,269.5 C 107.378,267.712 107.211,265.712 108,263.5C 108.495,265.473 108.662,267.473 108.5,269.5 Z"/></g>
<g><path style="opacity:0.004" fill="#000000" d="M 213.5,267.5 C 214.833,268.833 214.833,270.167 213.5,271.5C 213.5,270.167 213.5,268.833 213.5,267.5 Z"/></g>
<g><path style="opacity:1" fill="#f58b8f" d="M 138.5,299.5 C 136.5,299.5 134.5,299.5 132.5,299.5C 132.982,296.698 133.316,293.865 133.5,291C 132.245,284.224 131.578,277.39 131.5,270.5C 133.722,270.178 135.556,270.845 137,272.5C 139.686,281.372 140.186,290.372 138.5,299.5 Z"/></g>
<g><path style="opacity:0.004" fill="#000000" d="M 212.5,271.5 C 212.833,271.5 213.167,271.5 213.5,271.5C 213.672,272.492 213.338,273.158 212.5,273.5C 212.5,272.833 212.5,272.167 212.5,271.5 Z"/></g>
<g><path style="opacity:1" fill="#a31418" d="M 194.5,299.5 C 187.5,299.5 180.5,299.5 173.5,299.5C 173.667,288.828 173.5,278.161 173,267.5C 173.062,263.623 171.562,260.623 168.5,258.5C 172.377,255.413 174.711,251.413 175.5,246.5C 177.564,246.687 179.564,247.187 181.5,248C 178.469,250.559 176.302,253.726 175,257.5C 172.429,273.058 178.929,281.391 194.5,282.5C 194.5,288.167 194.5,293.833 194.5,299.5 Z"/></g>
<g><path style="opacity:1" fill="#df585d" d="M 120.5,250.5 C 121.043,250.56 121.376,250.893 121.5,251.5C 118.803,255.393 116.803,259.559 115.5,264C 116.414,268.652 117.748,273.152 119.5,277.5C 114.645,275.143 112.312,271.143 112.5,265.5C 112.828,259.173 115.495,254.173 120.5,250.5 Z"/></g>
<g><path style="opacity:1" fill="#5e5c5e" d="M 117.5,280.5 C 120.786,281.207 124.119,281.54 127.5,281.5C 127.683,283.936 127.016,286.103 125.5,288C 122.493,288.301 119.493,288.135 116.5,287.5C 116.448,285.097 116.781,282.764 117.5,280.5 Z"/></g>
<g><path style="opacity:1" fill="#691616" d="M 168.5,299.5 C 168.167,299.5 167.833,299.5 167.5,299.5C 167.135,294.01 166.135,288.676 164.5,283.5C 159.489,283.334 154.489,283.501 149.5,284C 146.562,288.679 145.229,293.846 145.5,299.5C 145.167,299.5 144.833,299.5 144.5,299.5C 144.697,293.455 144.363,287.455 143.5,281.5C 151.858,281.621 160.191,281.288 168.5,280.5C 168.5,286.833 168.5,293.167 168.5,299.5 Z"/></g>
<g><path style="opacity:1" fill="#4f4f50" d="M 204.5,279.5 C 205.496,279.414 206.329,279.748 207,280.5C 210.308,283.988 210.141,287.155 206.5,290C 204.098,290.814 201.765,290.647 199.5,289.5C 198.5,287.5 197.5,285.5 196.5,283.5C 199.564,282.717 202.231,281.384 204.5,279.5 Z"/></g>
<g><path style="opacity:0.004" fill="#000000" d="M 213.5,286.5 C 213.369,285.761 213.536,285.094 214,284.5C 214.692,285.437 214.525,286.103 213.5,286.5 Z"/></g>
<g><path style="opacity:1" fill="#ea1b23" d="M 167.5,299.5 C 160.167,299.5 152.833,299.5 145.5,299.5C 145.229,293.846 146.562,288.679 149.5,284C 154.489,283.501 159.489,283.334 164.5,283.5C 166.135,288.676 167.135,294.01 167.5,299.5 Z"/></g>
<g><path style="opacity:0.006" fill="#000000" d="M 214.5,289.5 C 214.369,288.761 214.536,288.094 215,287.5C 215.692,288.437 215.525,289.103 214.5,289.5 Z"/></g>
<g><path style="opacity:0.004" fill="#000000" d="M 110.5,298.5 C 109.362,295.696 109.195,292.696 110,289.5C 110.498,292.482 110.665,295.482 110.5,298.5 Z"/></g>
<g><path style="opacity:0.005" fill="#000000" d="M 216.5,299.5 C 216.167,299.5 215.833,299.5 215.5,299.5C 215.833,287.5 216.167,287.5 216.5,299.5 Z"/></g>
<g><path style="opacity:1" fill="#67686a" d="M 124.5,299.5 C 121.5,299.5 118.5,299.5 115.5,299.5C 115.177,295.774 115.511,292.107 116.5,288.5C 119.021,289.785 121.687,290.452 124.5,290.5C 124.5,293.5 124.5,296.5 124.5,299.5 Z"/></g>
<g><path style="opacity:1" fill="#4f4e50" d="M 212.5,299.5 C 208.833,299.5 205.167,299.5 201.5,299.5C 201.5,297.167 201.5,294.833 201.5,292.5C 205.048,292.051 208.381,291.051 211.5,289.5C 211.342,292.902 211.676,296.236 212.5,299.5 Z"/></g>
</svg>
