<?xml version="1.0" encoding="UTF-8"?>
<!DOCTYPE svg PUBLIC "-//W3C//DTD SVG 1.1//EN" "http://www.w3.org/Graphics/SVG/1.1/DTD/svg11.dtd">
<svg xmlns="http://www.w3.org/2000/svg" version="1.1" width="150px" height="150px" style="shape-rendering:geometricPrecision; text-rendering:geometricPrecision; image-rendering:optimizeQuality; fill-rule:evenodd; clip-rule:evenodd" xmlns:xlink="http://www.w3.org/1999/xlink">
<g><path style="opacity:0.008" fill="#000000" d="M 67.5,-0.5 C 68.1667,-0.5 68.8333,-0.5 69.5,-0.5C 68.8333,0.833333 68.1667,0.833333 67.5,-0.5 Z"/></g>
<g><path style="opacity:0.012" fill="#3b0800" d="M 65.5,1.5 C 66.525,1.89657 66.6917,2.56323 66,3.5C 65.5357,2.90558 65.369,2.23891 65.5,1.5 Z"/></g>
<g><path style="opacity:0.012" fill="#3b0800" d="M 75.5,4.5 C 75.8966,3.47498 76.5632,3.30831 77.5,4C 76.9056,4.46434 76.2389,4.63101 75.5,4.5 Z"/></g>
<g><path style="opacity:0.004" fill="#240800" d="M 78.5,5.5 C 78.8966,4.47498 79.5632,4.30831 80.5,5C 79.9056,5.46434 79.2389,5.63101 78.5,5.5 Z"/></g>
<g><path style="opacity:0.004" fill="#000000" d="M 56.5,5.5 C 57.8333,6.16667 57.8333,6.16667 56.5,5.5 Z"/></g>
<g><path style="opacity:0.012" fill="#3b0800" d="M 72.5,6.5 C 72.5,6.83333 72.5,7.16667 72.5,7.5C 69.8333,7.16667 69.8333,6.83333 72.5,6.5 Z"/></g>
<g><path style="opacity:0.012" fill="#620000" d="M 59.5,8.5 C 59.8966,7.47498 60.5632,7.30831 61.5,8C 60.9056,8.46434 60.2389,8.63101 59.5,8.5 Z"/></g>
<g><path style="opacity:0.012" fill="#3b0800" d="M 72.5,7.5 C 73.2389,7.36899 73.9056,7.53566 74.5,8C 73.5632,8.69169 72.8966,8.52502 72.5,7.5 Z"/></g>
<g><path style="opacity:0.012" fill="#4f061d" d="M 84.5,8.5 C 85.6009,7.40168 86.9343,7.23502 88.5,8C 87.2068,8.49001 85.8734,8.65668 84.5,8.5 Z"/></g>
<g><path style="opacity:0.004" fill="#000000" d="M 49.5,10.5 C 49.8966,9.47498 50.5632,9.30831 51.5,10C 50.9056,10.4643 50.2389,10.631 49.5,10.5 Z"/></g>
<g><path style="opacity:0.004" fill="#000000" d="M 55.5,9.5 C 54.8333,10.1667 54.8333,10.1667 55.5,9.5 Z"/></g>
<g><path style="opacity:0.004" fill="#000000" d="M 47.5,12.5 C 48.8333,13.1667 48.8333,13.1667 47.5,12.5 Z"/></g>
<g><path style="opacity:0.005" fill="#2a0900" d="M 53.5,12.5 C 54.9187,11.5489 56.5853,11.2155 58.5,11.5C 59.209,12.404 60.209,12.7373 61.5,12.5C 61.8417,13.3382 62.5084,13.6716 63.5,13.5C 63.8417,14.3382 64.5084,14.6716 65.5,14.5C 66.209,15.404 67.209,15.7373 68.5,15.5C 67.0813,16.4511 65.4147,16.7845 63.5,16.5C 63.1583,15.6618 62.4916,15.3284 61.5,15.5C 60.791,14.596 59.791,14.2627 58.5,14.5C 58.1583,13.6618 57.4916,13.3284 56.5,13.5C 55.791,12.596 54.791,12.2627 53.5,12.5 Z"/></g>
<g><path style="opacity:0.008" fill="#240800" d="M 71.5,13.5 C 71.8966,12.475 72.5632,12.3083 73.5,13C 72.9056,13.4643 72.2389,13.631 71.5,13.5 Z"/></g>
<g><path style="opacity:0.716" fill="#2c0e0d" d="M 75.5,4.5 C 78.2558,6.20376 81.2558,7.53709 84.5,8.5C 86.2922,9.30912 88.2922,9.80912 90.5,10C 89.8333,10.3333 89.1667,10.6667 88.5,11C 90.4068,12.122 92.4068,12.9553 94.5,13.5C 98.4347,15.4673 102.435,17.4673 106.5,19.5C 106.5,20.8333 105.833,21.5 104.5,21.5C 100.584,18.7105 96.251,16.7105 91.5,15.5C 88.8333,12.8333 86.1667,12.8333 83.5,15.5C 81.8828,16.038 80.2161,16.3713 78.5,16.5C 81.4362,14.6921 84.4362,12.8588 87.5,11C 85.8034,10.6155 84.1368,10.7822 82.5,11.5C 82.0269,10.0937 81.0269,9.42702 79.5,9.5C 77.5739,7.70732 75.2406,6.70732 72.5,6.5C 71.1516,5.39936 69.6516,4.39936 68,3.5C 67.3123,2.66828 67.479,2.00161 68.5,1.5C 70.7388,2.7878 73.0721,3.7878 75.5,4.5 Z"/></g>
<g><path style="opacity:0.012" fill="#3b0800" d="M 94.5,13.5 C 94.8966,12.475 95.5632,12.3083 96.5,13C 95.9056,13.4643 95.2389,13.631 94.5,13.5 Z"/></g>
<g><path style="opacity:0.533" fill="#2b0f0f" d="M 59.5,8.5 C 63.2025,10.6787 67.2025,12.3454 71.5,13.5C 72.9187,14.4511 74.5853,14.7845 76.5,14.5C 74.8185,16.0075 72.8185,17.0075 70.5,17.5C 70.5,16.1667 69.8333,15.5 68.5,15.5C 67.791,14.596 66.791,14.2627 65.5,14.5C 65.1583,13.6618 64.4916,13.3284 63.5,13.5C 63.1583,12.6618 62.4916,12.3284 61.5,12.5C 60.791,11.596 59.791,11.2627 58.5,11.5C 57.7095,10.5987 56.7095,9.93205 55.5,9.5C 56.2919,7.25521 57.6253,6.92187 59.5,8.5 Z"/></g>
<g><path style="opacity:0.004" fill="#240800" d="M 97.5,14.5 C 97.8966,13.475 98.5632,13.3083 99.5,14C 98.9056,14.4643 98.2389,14.631 97.5,14.5 Z"/></g>
<g><path style="opacity:0.012" fill="#360900" d="M 40.5,15.5 C 41.6009,14.4017 42.9343,14.235 44.5,15C 43.2068,15.49 41.8734,15.6567 40.5,15.5 Z"/></g>
<g><path style="opacity:0.608" fill="#301112" d="M 53.5,12.5 C 54.209,13.404 55.209,13.7373 56.5,13.5C 56.8417,14.3382 57.5084,14.6716 58.5,14.5C 59.209,15.404 60.209,15.7373 61.5,15.5C 61.8417,16.3382 62.5084,16.6716 63.5,16.5C 65.358,18.1296 67.358,18.4629 69.5,17.5C 68.5169,18.8503 67.1836,19.8503 65.5,20.5C 65.8555,21.5223 66.5222,22.189 67.5,22.5C 67.5,23.1667 67.1667,23.5 66.5,23.5C 63.8333,23.8333 63.8333,24.1667 66.5,24.5C 66.5,26.1667 66.5,27.8333 66.5,29.5C 65.5,29.5 64.5,29.5 63.5,29.5C 61.3452,27.466 59.0118,27.1326 56.5,28.5C 55.5,28.5 54.5,28.5 53.5,28.5C 57.1035,26.3596 60.7701,24.193 64.5,22C 63.9056,21.5357 63.2389,21.369 62.5,21.5C 62.5,21.1667 62.5,20.8333 62.5,20.5C 65.1667,20.1667 65.1667,19.8333 62.5,19.5C 62.1583,18.6618 61.4916,18.3284 60.5,18.5C 57.3755,16.7755 54.0421,15.2755 50.5,14C 49.2888,13.1072 49.2888,12.2739 50.5,11.5C 51.4168,12.1272 52.4168,12.4606 53.5,12.5 Z"/></g>
<g><path style="opacity:0.984" fill="#ae5279" d="M 79.5,9.5 C 79.9731,10.9063 80.9731,11.573 82.5,11.5C 84.1368,10.7822 85.8034,10.6155 87.5,11C 84.4362,12.8588 81.4362,14.6921 78.5,16.5C 76.847,16.6596 75.5137,17.3263 74.5,18.5C 74.5,18.8333 74.5,19.1667 74.5,19.5C 73.5,19.5 72.5,19.5 71.5,19.5C 69.7697,20.0256 68.4363,21.0256 67.5,22.5C 66.5222,22.189 65.8555,21.5223 65.5,20.5C 67.1836,19.8503 68.5169,18.8503 69.5,17.5C 69.8333,17.5 70.1667,17.5 70.5,17.5C 72.8185,17.0075 74.8185,16.0075 76.5,14.5C 77.0577,13.2101 78.0577,12.3768 79.5,12C 76.8875,10.9288 76.8875,10.0955 79.5,9.5 Z"/></g>
<g><path style="opacity:0.004" fill="#240800" d="M 83.5,15.5 C 84.2389,15.369 84.9056,15.5357 85.5,16C 84.5632,16.6917 83.8966,16.525 83.5,15.5 Z"/></g>
<g><path style="opacity:0.012" fill="#3b0800" d="M 91.5,15.5 C 91.5,15.8333 91.5,16.1667 91.5,16.5C 88.8333,16.1667 88.8333,15.8333 91.5,15.5 Z"/></g>
<g><path style="opacity:0.012" fill="#3b0800" d="M 91.5,16.5 C 92.2389,16.369 92.9056,16.5357 93.5,17C 92.5632,17.6917 91.8966,17.525 91.5,16.5 Z"/></g>
<g><path style="opacity:0.004" fill="#000000" d="M 27.5,18.5 C 28.8333,19.1667 28.8333,19.1667 27.5,18.5 Z"/></g>
<g><path style="opacity:0.675" fill="#2b0f0d" d="M 55.5,20.5 C 56.209,21.404 57.209,21.7373 58.5,21.5C 58.8417,22.3382 59.5084,22.6716 60.5,22.5C 58.4907,24.0652 56.1573,25.0652 53.5,25.5C 52.791,24.596 51.791,24.2627 50.5,24.5C 49.791,23.596 48.791,23.2627 47.5,23.5C 46.791,22.596 45.791,22.2627 44.5,22.5C 43.791,21.596 42.791,21.2627 41.5,21.5C 40.719,19.6777 39.5523,19.0111 38,19.5C 37.4372,18.2752 37.7705,17.2752 39,16.5C 44.4527,17.0186 49.9527,18.3519 55.5,20.5 Z"/></g>
<g><path style="opacity:0.737" fill="#2a0f0c" d="M 78.5,16.5 C 80.5093,18.0652 82.8427,19.0652 85.5,19.5C 87.649,20.7362 89.9823,21.7362 92.5,22.5C 93.8333,23.1667 95.1667,23.8333 96.5,24.5C 95.8333,25.1667 95.1667,25.8333 94.5,26.5C 93.0697,25.4625 91.403,24.7959 89.5,24.5C 89.1583,23.6618 88.4916,23.3284 87.5,23.5C 86.791,22.596 85.791,22.2627 84.5,22.5C 84.1583,21.6618 83.4916,21.3284 82.5,21.5C 81.2196,20.0687 79.5529,19.4021 77.5,19.5C 76.791,18.596 75.791,18.2627 74.5,18.5C 75.5137,17.3263 76.847,16.6596 78.5,16.5 Z"/></g>
<g><path style="opacity:0.012" fill="#620000" d="M 85.5,19.5 C 85.8966,18.475 86.5632,18.3083 87.5,19C 86.9056,19.4643 86.2389,19.631 85.5,19.5 Z"/></g>
<g><path style="opacity:0.004" fill="#000000" d="M 107.5,19.5 C 106.833,18.1667 106.833,18.1667 107.5,19.5 Z"/></g>
<g><path style="opacity:0.016" fill="#552521" d="M 60.5,18.5 C 60.8417,19.3382 61.5084,19.6716 62.5,19.5C 62.5,19.8333 62.5,20.1667 62.5,20.5C 61.5084,20.3284 60.8417,20.6618 60.5,21.5C 59.8333,21.5 59.1667,21.5 58.5,21.5C 57.791,20.596 56.791,20.2627 55.5,20.5C 56.7804,19.0687 58.4471,18.4021 60.5,18.5 Z"/></g>
<g><path style="opacity:0.016" fill="#4e0709" d="M 74.5,20.5 C 74.5,20.1667 74.5,19.8333 74.5,19.5C 75.5,19.5 76.5,19.5 77.5,19.5C 78.1667,20.1667 78.8333,20.8333 79.5,21.5C 78.5,21.5 77.5,21.5 76.5,21.5C 76.1583,20.6618 75.4916,20.3284 74.5,20.5 Z"/></g>
<g><path style="opacity:0.006" fill="#000000" d="M 107.5,19.5 C 108.525,19.8966 108.692,20.5632 108,21.5C 107.536,20.9056 107.369,20.2389 107.5,19.5 Z"/></g>
<g><path style="opacity:0.012" fill="#2f0a00" d="M 31.5,21.5 C 32.2506,20.4265 33.2506,20.2599 34.5,21C 33.552,21.4828 32.552,21.6495 31.5,21.5 Z"/></g>
<g><path style="opacity:0.004" fill="#000000" d="M 24.5,21.5 C 25.8333,22.1667 25.8333,22.1667 24.5,21.5 Z"/></g>
<g><path style="opacity:0.008" fill="#1e0300" d="M 35.5,22.5 C 35.8966,21.475 36.5632,21.3083 37.5,22C 36.9056,22.4643 36.2389,22.631 35.5,22.5 Z"/></g>
<g><path style="opacity:0.007" fill="#150200" d="M 41.5,21.5 C 41.5,22.1667 41.5,22.8333 41.5,23.5C 37.7139,23.362 37.7139,22.6953 41.5,21.5 Z"/></g>
<g><path style="opacity:0.012" fill="#3b0800" d="M 92.5,22.5 C 92.8966,21.475 93.5632,21.3083 94.5,22C 93.9056,22.4643 93.2389,22.631 92.5,22.5 Z"/></g>
<g><path style="opacity:0.012" fill="#3b0800" d="M 104.5,21.5 C 104.5,21.8333 104.5,22.1667 104.5,22.5C 101.833,22.1667 101.833,21.8333 104.5,21.5 Z"/></g>
<g><path style="opacity:0.006" fill="#2a0900" d="M 44.5,22.5 C 45.209,23.404 46.209,23.7373 47.5,23.5C 48.209,24.404 49.209,24.7373 50.5,24.5C 50.5,24.8333 50.5,25.1667 50.5,25.5C 49.391,25.5569 48.391,25.8902 47.5,26.5C 45.5,25.5 43.5,24.5 41.5,23.5C 42.391,22.8902 43.391,22.5569 44.5,22.5 Z"/></g>
<g><path style="opacity:0.02" fill="#340300" d="M 79.5,22.5 C 79.5,22.1667 79.5,21.8333 79.5,21.5C 80.5,21.5 81.5,21.5 82.5,21.5C 82.8417,22.3382 83.5084,22.6716 84.5,22.5C 84.5,22.8333 84.5,23.1667 84.5,23.5C 83.5,23.5 82.5,23.5 81.5,23.5C 81.1583,22.6618 80.4916,22.3284 79.5,22.5 Z"/></g>
<g><path style="opacity:0.006" fill="#000000" d="M 104.5,22.5 C 105.239,22.369 105.906,22.5357 106.5,23C 105.563,23.6917 104.897,23.525 104.5,22.5 Z"/></g>
<g><path style="opacity:0.004" fill="#260500" d="M 84.5,24.5 C 84.5,24.1667 84.5,23.8333 84.5,23.5C 85.5,23.5 86.5,23.5 87.5,23.5C 87.8417,24.3382 88.5084,24.6716 89.5,24.5C 88.791,25.404 87.791,25.7373 86.5,25.5C 86.1583,24.6618 85.4916,24.3284 84.5,24.5 Z"/></g>
<g><path style="opacity:0.652" fill="#2c0f0e" d="M 31.5,21.5 C 36.5005,23.943 41.8338,25.6096 47.5,26.5C 47.5,27.1667 47.8333,27.5 48.5,27.5C 47.8902,28.391 47.5569,29.391 47.5,30.5C 46.2209,29.032 44.5542,28.3653 42.5,28.5C 37.7138,26.4011 32.7138,24.5678 27.5,23C 26.2888,22.1072 26.2888,21.2739 27.5,20.5C 28.7362,21.2458 30.0695,21.5792 31.5,21.5 Z"/></g>
<g><path style="opacity:0.004" fill="#000000" d="M 96.5,24.5 C 97.8333,25.1667 97.8333,25.1667 96.5,24.5 Z"/></g>
<g><path style="opacity:0.012" fill="#2f0a00" d="M 91.5,27.5 C 92.209,26.596 93.209,26.2627 94.5,26.5C 93.791,27.404 92.791,27.7373 91.5,27.5 Z"/></g>
<g><path style="opacity:0.984" fill="#9a4b6c" d="M 60.5,21.5 C 61.1667,21.5 61.8333,21.5 62.5,21.5C 63.2389,21.369 63.9056,21.5357 64.5,22C 60.7701,24.193 57.1035,26.3596 53.5,28.5C 51.847,28.6596 50.5137,29.3263 49.5,30.5C 49.1583,31.3382 48.4916,31.6716 47.5,31.5C 47.5,31.1667 47.5,30.8333 47.5,30.5C 47.5569,29.391 47.8902,28.391 48.5,27.5C 49.5,27.1667 50.1667,26.5 50.5,25.5C 51.5,25.5 52.5,25.5 53.5,25.5C 56.1573,25.0652 58.4907,24.0652 60.5,22.5C 60.5,22.1667 60.5,21.8333 60.5,21.5 Z"/></g>
<g><path style="opacity:0.676" fill="#300f11" d="M 71.5,19.5 C 72.209,20.404 73.209,20.7373 74.5,20.5C 74.8417,21.3382 75.5084,21.6716 76.5,21.5C 77.209,22.404 78.209,22.7373 79.5,22.5C 79.8417,23.3382 80.5084,23.6716 81.5,23.5C 82.209,24.404 83.209,24.7373 84.5,24.5C 84.8417,25.3382 85.5084,25.6716 86.5,25.5C 90.6078,27.3299 90.2745,28.3299 85.5,28.5C 84.2196,27.0687 82.5529,26.4021 80.5,26.5C 80.1583,25.6618 79.4916,25.3284 78.5,25.5C 77.5,24.1667 76.5,24.1667 75.5,25.5C 72.0423,27.2641 72.709,28.2641 77.5,28.5C 78.2905,29.4013 79.2905,30.0679 80.5,30.5C 80.5674,31.9587 80.2341,33.2921 79.5,34.5C 78.5,34.5 77.5,34.5 76.5,34.5C 75.8333,33.1667 75.1667,33.1667 74.5,34.5C 73.8333,34.5 73.5,34.8333 73.5,35.5C 72.9569,35.56 72.6236,35.8933 72.5,36.5C 73.8136,38.4516 74.4803,40.285 74.5,42C 78.581,42.6343 82.2477,44.1343 85.5,46.5C 85.5,47.1667 85.8333,47.5 86.5,47.5C 86.5,48.1667 86.8333,48.5 87.5,48.5C 87.5,49.1667 87.8333,49.5 88.5,49.5C 88.8333,50.8333 89.1667,50.8333 89.5,49.5C 90.8846,50.5736 92.0513,51.9069 93,53.5C 93.7401,54.7494 93.5735,55.7494 92.5,56.5C 92.5,56.1667 92.5,55.8333 92.5,55.5C 92.1667,54.1667 91.8333,54.1667 91.5,55.5C 88.7164,53.5455 86.3831,51.0455 84.5,48C 81.0506,45.9411 77.3839,44.4411 73.5,43.5C 71.8511,42.0186 70.5177,40.3519 69.5,38.5C 70.1128,32.7291 69.4461,27.3958 67.5,22.5C 68.4363,21.0256 69.7697,20.0256 71.5,19.5 Z M 75.5,25.5 C 75.5,26.8333 76.1667,27.5 77.5,27.5C 77.5,27.8333 77.5,28.1667 77.5,28.5C 72.709,28.2641 72.0423,27.2641 75.5,25.5 Z"/></g>
<g><path style="opacity:0.012" fill="#2f0a00" d="M 75.5,25.5 C 76.5,25.5 77.5,25.5 78.5,25.5C 78.5,25.8333 78.5,26.1667 78.5,26.5C 77.8333,26.5 77.5,26.8333 77.5,27.5C 76.1667,27.5 75.5,26.8333 75.5,25.5 Z"/></g>
<g><path style="opacity:0.012" fill="#550400" d="M 78.5,26.5 C 79.1667,26.5 79.8333,26.5 80.5,26.5C 80.0269,27.9063 79.0269,28.573 77.5,28.5C 77.5,28.1667 77.5,27.8333 77.5,27.5C 78.1667,27.5 78.5,27.1667 78.5,26.5 Z"/></g>
<g><path style="opacity:0.004" fill="#000000" d="M 91.5,27.5 C 90.8333,28.1667 90.8333,28.1667 91.5,27.5 Z"/></g>
<g><path style="opacity:0.006" fill="#1e0600" d="M 42.5,28.5 C 42.5,28.8333 42.5,29.1667 42.5,29.5C 38.5,29.1667 38.5,28.8333 42.5,28.5 Z"/></g>
<g><path style="opacity:0.012" fill="#3b0800" d="M 85.5,28.5 C 85.5,28.8333 85.5,29.1667 85.5,29.5C 82.8333,29.1667 82.8333,28.8333 85.5,28.5 Z"/></g>
<g><path style="opacity:0.006" fill="#0e0e0e" d="M 42.5,29.5 C 43.552,29.3505 44.552,29.5172 45.5,30C 44.2506,30.7401 43.2506,30.5735 42.5,29.5 Z"/></g>
<g><path style="opacity:0.004" fill="#000000" d="M 81.5,30.5 C 80.8333,29.1667 80.8333,29.1667 81.5,30.5 Z"/></g>
<g><path style="opacity:0.012" fill="#410700" d="M 85.5,29.5 C 86.552,29.3505 87.552,29.5172 88.5,30C 87.2506,30.7401 86.2506,30.5735 85.5,29.5 Z"/></g>
<g><path style="opacity:0.004" fill="#000000" d="M 47.5,31.5 C 47.5,31.8333 47.5,32.1667 47.5,32.5C 46.8299,32.0187 46.8299,31.6853 47.5,31.5 Z"/></g>
<g><path style="opacity:0.004" fill="#1e0300" d="M 52.5,31.5 C 52.5,31.8333 52.5,32.1667 52.5,32.5C 49.8333,32.1667 49.8333,31.8333 52.5,31.5 Z"/></g>
<g><path style="opacity:0.004" fill="#380c00" d="M 81.5,30.5 C 82.5735,31.2506 82.7401,32.2506 82,33.5C 81.5172,32.552 81.3505,31.552 81.5,30.5 Z"/></g>
<g><path style="opacity:0.004" fill="#000000" d="M 47.5,32.5 C 48.2389,32.369 48.9056,32.5357 49.5,33C 48.5632,33.6917 47.8966,33.525 47.5,32.5 Z"/></g>
<g><path style="opacity:0.016" fill="#2d0500" d="M 52.5,32.5 C 53.2389,32.369 53.9056,32.5357 54.5,33C 53.5632,33.6917 52.8966,33.525 52.5,32.5 Z"/></g>
<g><path style="opacity:0.999" fill="#cf3981" d="M 67.5,22.5 C 69.4461,27.3958 70.1128,32.7291 69.5,38.5C 69.5,39.8333 69.5,41.1667 69.5,42.5C 68.5,42.5 67.5,42.5 66.5,42.5C 66.5,38.5 66.5,34.5 66.5,30.5C 66.5,30.1667 66.5,29.8333 66.5,29.5C 66.5,27.8333 66.5,26.1667 66.5,24.5C 66.5,24.1667 66.5,23.8333 66.5,23.5C 67.1667,23.5 67.5,23.1667 67.5,22.5 Z"/></g>
<g><path style="opacity:0.498" fill="#340e10" d="M 53.5,28.5 C 54.5,29.8333 55.5,29.8333 56.5,28.5C 58.861,28.6741 61.1944,29.0074 63.5,29.5C 64.209,30.404 65.209,30.7373 66.5,30.5C 66.5,34.5 66.5,38.5 66.5,42.5C 65.5,42.5 64.5,42.5 63.5,42.5C 63.9175,41.7784 64.5842,41.2784 65.5,41C 64.1667,39.3333 62.8333,37.6667 61.5,36C 62.5,35.6667 63.5,35.3333 64.5,35C 60.5701,33.5226 56.5701,32.3559 52.5,31.5C 51.791,30.596 50.791,30.2627 49.5,30.5C 50.5137,29.3263 51.847,28.6596 53.5,28.5 Z"/></g>
<g><path style="opacity:0.016" fill="#2d0500" d="M 74.5,35.5 C 74.5,35.1667 74.5,34.8333 74.5,34.5C 75.1667,34.5 75.8333,34.5 76.5,34.5C 76.1583,35.3382 75.4916,35.6716 74.5,35.5 Z"/></g>
<g><path style="opacity:0.004" fill="#000000" d="M 79.5,34.5 C 80.8333,35.1667 80.8333,35.1667 79.5,34.5 Z"/></g>
<g><path style="opacity:0.008" fill="#000000" d="M 73.5,35.5 C 73.8333,35.5 74.1667,35.5 74.5,35.5C 74.3147,36.1701 73.9813,36.1701 73.5,35.5 Z"/></g>
<g><path style="opacity:0.004" fill="#000000" d="M 79.5,35.5 C 79.1034,36.525 78.4368,36.6917 77.5,36C 78.0944,35.5357 78.7611,35.369 79.5,35.5 Z"/></g>
<g><path style="opacity:0.005" fill="#220900" d="M 85.5,46.5 C 87.7248,45.6679 89.0581,46.6679 89.5,49.5C 89.1667,49.5 88.8333,49.5 88.5,49.5C 87.8333,49.5 87.5,49.1667 87.5,48.5C 86.8333,48.5 86.5,48.1667 86.5,47.5C 85.8333,47.5 85.5,47.1667 85.5,46.5 Z"/></g>
<g><path style="opacity:1" fill="#f34a9b" d="M 85.5,63.5 C 83.9397,65.1561 82.9397,67.1561 82.5,69.5C 82.5225,63.5225 79.5225,60.5225 73.5,60.5C 68.4892,60.8901 63.4892,61.3901 58.5,62C 56.2774,62.5662 54.2774,63.3995 52.5,64.5C 50.9826,64.5106 49.8159,65.1772 49,66.5C 48.5034,68.8098 48.3367,71.1432 48.5,73.5C 48.6939,78.2921 50.3606,82.2921 53.5,85.5C 52.1667,85.8333 52.1667,86.1667 53.5,86.5C 53.5394,87.5832 53.8728,88.5832 54.5,89.5C 51.8527,93.5644 51.8527,97.5644 54.5,101.5C 54.1667,102.833 53.8333,104.167 53.5,105.5C 43.6606,88.7616 43.1606,71.7616 52,54.5C 55.1067,50.7041 58.94,48.0374 63.5,46.5C 64.7421,47.0434 66.0755,47.3767 67.5,47.5C 70.1708,46.6433 72.8374,46.1433 75.5,46C 80.5147,50.8617 83.8481,56.695 85.5,63.5 Z"/></g>
<g><path style="opacity:1" fill="#ac2f6a" d="M 69.5,38.5 C 70.5177,40.3519 71.8511,42.0186 73.5,43.5C 77.3839,44.4411 81.0506,45.9411 84.5,48C 86.3831,51.0455 88.7164,53.5455 91.5,55.5C 91.8333,55.5 92.1667,55.5 92.5,55.5C 92.5,55.8333 92.5,56.1667 92.5,56.5C 91.8761,56.9169 91.5427,57.5836 91.5,58.5C 94.2447,71.3688 95.0781,84.3688 94,97.5C 92.1396,103.51 88.6396,108.177 83.5,111.5C 89.3454,95.7225 90.0121,79.7225 85.5,63.5C 83.8481,56.695 80.5147,50.8617 75.5,46C 72.8374,46.1433 70.1708,46.6433 67.5,47.5C 66.0755,47.3767 64.7421,47.0434 63.5,46.5C 63.5,45.1667 63.5,43.8333 63.5,42.5C 64.5,42.5 65.5,42.5 66.5,42.5C 67.5,42.5 68.5,42.5 69.5,42.5C 69.5,41.1667 69.5,39.8333 69.5,38.5 Z"/></g>
<g><path style="opacity:0.006" fill="#3f1106" d="M 95.5,62.5 C 95.1667,62.5 94.8333,62.5 94.5,62.5C 94.8333,57.1667 95.1667,57.1667 95.5,62.5 Z"/></g>
<g><path style="opacity:0.08" fill="#2a1013" d="M 63.5,42.5 C 63.5,43.8333 63.5,45.1667 63.5,46.5C 58.94,48.0374 55.1067,50.7041 52,54.5C 43.1606,71.7616 43.6606,88.7616 53.5,105.5C 55.7867,109.122 58.4534,112.455 61.5,115.5C 58.6057,114.118 56.1057,112.118 54,109.5C 53.6667,109.833 53.3333,110.167 53,110.5C 50.8431,108.183 49.3431,105.516 48.5,102.5C 49.8333,101.833 49.8333,101.167 48.5,100.5C 48.7373,99.209 48.404,98.209 47.5,97.5C 47.7373,96.209 47.404,95.209 46.5,94.5C 46.7678,92.901 46.4345,91.5676 45.5,90.5C 45.7947,88.2646 45.4614,86.2646 44.5,84.5C 44.5002,75.6803 45.0002,67.0136 46,58.5C 46.6667,57.1667 47.3333,55.8333 48,54.5C 49.2812,54.6192 50.4479,54.1192 51.5,53C 50.5004,50.9093 51.1671,49.2426 53.5,48C 54.4491,47.3828 55.2825,47.5494 56,48.5C 57.5793,46.9588 59.4127,45.7922 61.5,45C 59.2908,44.043 59.4575,42.8764 62,41.5C 62.3826,42.056 62.8826,42.3893 63.5,42.5 Z"/></g>
<g><path style="opacity:1" fill="#7dd0f3" d="M 82.5,69.5 C 81.8333,69.5 81.5,69.8333 81.5,70.5C 71.9603,72.7339 62.2937,73.5672 52.5,73C 48.5957,70.0732 48.5957,67.2399 52.5,64.5C 54.2774,63.3995 56.2774,62.5662 58.5,62C 63.4892,61.3901 68.4892,60.8901 73.5,60.5C 79.5225,60.5225 82.5225,63.5225 82.5,69.5 Z"/></g>
<g><path style="opacity:0.016" fill="#370600" d="M 95.5,62.5 C 96.6129,63.9464 96.7796,65.6131 96,67.5C 95.5065,65.8659 95.3398,64.1992 95.5,62.5 Z"/></g>
<g><path style="opacity:0.999" fill="#f8439b" d="M 85.5,63.5 C 90.0121,79.7225 89.3454,95.7225 83.5,111.5C 76.7145,115.631 69.3812,116.965 61.5,115.5C 58.4534,112.455 55.7867,109.122 53.5,105.5C 53.8333,104.167 54.1667,102.833 54.5,101.5C 63.8661,101.721 73.1994,101.387 82.5,100.5C 82.6655,96.4862 82.4988,92.4862 82,88.5C 81.5014,92.1516 81.3347,95.8183 81.5,99.5C 72.8079,100.171 64.1412,100.171 55.5,99.5C 63.3229,98.8333 70.9896,98.1666 78.5,97.5C 79.4682,95.3926 79.8016,93.0593 79.5,90.5C 79.5,89.1667 79.5,87.8333 79.5,86.5C 70.8333,86.5 62.1667,86.5 53.5,86.5C 52.1667,86.1667 52.1667,85.8333 53.5,85.5C 54.6935,85.0296 55.3601,84.0296 55.5,82.5C 55.1604,80.4878 54.8271,78.4878 54.5,76.5C 61.8739,76.0696 69.2072,75.2362 76.5,74C 78.5844,73.3028 80.2511,72.1361 81.5,70.5C 81.5,69.8333 81.8333,69.5 82.5,69.5C 82.9397,67.1561 83.9397,65.1561 85.5,63.5 Z"/></g>
<g><path style="opacity:0.957" fill="#5b2939" d="M 52.5,64.5 C 48.5957,67.2399 48.5957,70.0732 52.5,73C 62.2937,73.5672 71.9603,72.7339 81.5,70.5C 80.2511,72.1361 78.5844,73.3028 76.5,74C 69.2072,75.2362 61.8739,76.0696 54.5,76.5C 52.2163,76.0248 50.2163,75.0248 48.5,73.5C 48.3367,71.1432 48.5034,68.8098 49,66.5C 49.8159,65.1772 50.9826,64.5106 52.5,64.5 Z"/></g>
<g><path style="opacity:0.016" fill="#480601" d="M 96.5,68.5 C 97.6507,73.6503 97.8174,78.9836 97,84.5C 96.5006,79.1771 96.334,73.8437 96.5,68.5 Z"/></g>
<g><path style="opacity:1" fill="#fe9dcc" d="M 48.5,73.5 C 50.2163,75.0248 52.2163,76.0248 54.5,76.5C 54.8271,78.4878 55.1604,80.4878 55.5,82.5C 55.3601,84.0296 54.6935,85.0296 53.5,85.5C 50.3606,82.2921 48.6939,78.2921 48.5,73.5 Z"/></g>
<g><path style="opacity:0.004" fill="#000000" d="M 97.5,94.5 C 97.3359,91.8127 97.5026,89.146 98,86.5C 98.8007,89.367 98.6341,92.0336 97.5,94.5 Z"/></g>
<g><path style="opacity:0.007" fill="#2f0e24" d="M 44.5,84.5 C 44.5,86.5 44.5,88.5 44.5,90.5C 43.1667,88.5 43.1667,86.5 44.5,84.5 Z"/></g>
<g><path style="opacity:0.006" fill="#220913" d="M 44.5,90.5 C 44.8333,90.5 45.1667,90.5 45.5,90.5C 45.5,91.8333 45.5,93.1667 45.5,94.5C 44.5655,93.4324 44.2322,92.099 44.5,90.5 Z"/></g>
<g><path style="opacity:0.012" fill="#4d0822" d="M 45.5,94.5 C 45.8333,94.5 46.1667,94.5 46.5,94.5C 46.5,95.5 46.5,96.5 46.5,97.5C 45.596,96.791 45.2627,95.791 45.5,94.5 Z"/></g>
<g><path style="opacity:0.006" fill="#350d03" d="M 96.5,94.5 C 96.8333,94.5 97.1667,94.5 97.5,94.5C 97.7845,96.4147 97.4511,98.0813 96.5,99.5C 96.5,97.8333 96.5,96.1667 96.5,94.5 Z"/></g>
<g><path style="opacity:0.008" fill="#230e22" d="M 46.5,97.5 C 46.8333,97.5 47.1667,97.5 47.5,97.5C 47.5,98.5 47.5,99.5 47.5,100.5C 46.596,99.791 46.2627,98.791 46.5,97.5 Z"/></g>
<g><path style="opacity:0.012" fill="#410700" d="M 95.5,99.5 C 95.8333,99.5 96.1667,99.5 96.5,99.5C 96.7373,100.791 96.404,101.791 95.5,102.5C 95.5,101.5 95.5,100.5 95.5,99.5 Z"/></g>
<g><path style="opacity:0.871" fill="#681f34" d="M 53.5,86.5 C 62.1667,86.5 70.8333,86.5 79.5,86.5C 79.5,87.8333 79.5,89.1667 79.5,90.5C 78.8423,89.6016 78.1757,88.6016 77.5,87.5C 76.8933,87.6236 76.56,87.9569 76.5,88.5C 75.1667,88.5 73.8333,88.5 72.5,88.5C 70.5,88.5 68.5,88.5 66.5,88.5C 62.8333,88.5 59.1667,88.5 55.5,88.5C 54.8333,91.5 54.1667,94.5 53.5,97.5C 55.1667,97.5 56.8333,97.5 58.5,97.5C 60.1667,97.5 61.8333,97.5 63.5,97.5C 68.5,97.5 73.5,97.5 78.5,97.5C 70.9896,98.1666 63.3229,98.8333 55.5,99.5C 64.1412,100.171 72.8079,100.171 81.5,99.5C 81.3347,95.8183 81.5014,92.1516 82,88.5C 82.4988,92.4862 82.6655,96.4862 82.5,100.5C 73.1994,101.387 63.8661,101.721 54.5,101.5C 51.8527,97.5644 51.8527,93.5644 54.5,89.5C 53.8728,88.5832 53.5394,87.5832 53.5,86.5 Z"/></g>
<g><path style="opacity:1" fill="#8e561a" d="M 76.5,88.5 C 76.56,87.9569 76.8933,87.6236 77.5,87.5C 78.1757,88.6016 78.8423,89.6016 79.5,90.5C 79.8016,93.0593 79.4682,95.3926 78.5,97.5C 73.5,97.5 68.5,97.5 63.5,97.5C 63.2322,95.901 63.5655,94.5676 64.5,93.5C 64.5,94.5 64.5,95.5 64.5,96.5C 66.1667,96.5 67.8333,96.5 69.5,96.5C 69.2627,95.209 69.596,94.209 70.5,93.5C 70.5,94.5 70.5,95.5 70.5,96.5C 75.0781,96.8929 77.4114,94.7262 77.5,90C 77.4301,89.2352 77.0967,88.7352 76.5,88.5 Z"/></g>
<g><path style="opacity:1" fill="#df9f39" d="M 66.5,88.5 C 66.6716,89.4916 66.3382,90.1583 65.5,90.5C 64.0813,89.5489 62.4147,89.2155 60.5,89.5C 60.0372,92.221 59.3705,94.8877 58.5,97.5C 56.8333,97.5 55.1667,97.5 53.5,97.5C 54.1667,94.5 54.8333,91.5 55.5,88.5C 59.1667,88.5 62.8333,88.5 66.5,88.5 Z"/></g>
<g><path style="opacity:1" fill="#d65224" d="M 66.5,88.5 C 68.5,88.5 70.5,88.5 72.5,88.5C 72.2041,90.403 71.5375,92.0697 70.5,93.5C 69.596,94.209 69.2627,95.209 69.5,96.5C 67.8333,96.5 66.1667,96.5 64.5,96.5C 64.5,95.5 64.5,94.5 64.5,93.5C 64.5569,92.391 64.8902,91.391 65.5,90.5C 66.3382,90.1583 66.6716,89.4916 66.5,88.5 Z"/></g>
<g><path style="opacity:1" fill="#f3e830" d="M 72.5,88.5 C 73.8333,88.5 75.1667,88.5 76.5,88.5C 77.0967,88.7352 77.4301,89.2352 77.5,90C 77.4114,94.7262 75.0781,96.8929 70.5,96.5C 70.5,95.5 70.5,94.5 70.5,93.5C 71.5375,92.0697 72.2041,90.403 72.5,88.5 Z"/></g>
<g><path style="opacity:1" fill="#f1e630" d="M 65.5,90.5 C 64.8902,91.391 64.5569,92.391 64.5,93.5C 63.5655,94.5676 63.2322,95.901 63.5,97.5C 61.8333,97.5 60.1667,97.5 58.5,97.5C 59.3705,94.8877 60.0372,92.221 60.5,89.5C 62.4147,89.2155 64.0813,89.5489 65.5,90.5 Z"/></g>
<g><path style="opacity:0.004" fill="#240800" d="M 47.5,100.5 C 47.8333,100.5 48.1667,100.5 48.5,100.5C 48.5,101.167 48.5,101.833 48.5,102.5C 47.6618,102.158 47.3284,101.492 47.5,100.5 Z"/></g>
<g><path style="opacity:0.012" fill="#540000" d="M 91.5,107.5 C 91.8333,107.5 92.1667,107.5 92.5,107.5C 92.3147,108.17 91.9813,108.17 91.5,107.5 Z"/></g>
<g><path style="opacity:0.004" fill="#270b00" d="M 90.5,108.5 C 90.8333,108.5 91.1667,108.5 91.5,108.5C 91.1667,110.833 89.8333,112.167 87.5,112.5C 87.5,112.167 87.5,111.833 87.5,111.5C 88.1667,111.5 88.5,111.167 88.5,110.5C 89.1667,110.5 89.5,110.167 89.5,109.5C 90.1667,109.5 90.5,109.167 90.5,108.5 Z"/></g>
<g><path style="opacity:0.012" fill="#540000" d="M 86.5,112.5 C 86.8333,112.5 87.1667,112.5 87.5,112.5C 87.3147,113.17 86.9813,113.17 86.5,112.5 Z"/></g>
<g><path style="opacity:0.012" fill="#540000" d="M 85.5,113.5 C 85.8333,113.5 86.1667,113.5 86.5,113.5C 86.3147,114.17 85.9813,114.17 85.5,113.5 Z"/></g>
<g><path style="opacity:1" fill="#656264" d="M 83.5,122.5 C 83.7373,123.791 83.404,124.791 82.5,125.5C 80.1432,125.663 77.8098,125.497 75.5,125C 74.7819,122.539 74.1153,120.039 73.5,117.5C 76.1608,116.501 78.8275,115.501 81.5,114.5C 82.5488,117.08 83.2155,119.746 83.5,122.5 Z"/></g>
<g><path style="opacity:0.006" fill="#1e0600" d="M 103.5,123.5 C 103.56,122.957 103.893,122.624 104.5,122.5C 105.773,123.257 105.773,123.923 104.5,124.5C 104.5,123.833 104.167,123.5 103.5,123.5 Z"/></g>
<g><path style="opacity:0.62" fill="#391418" d="M 92.5,56.5 C 92.8751,58.6976 93.5418,60.6976 94.5,62.5C 95.2404,73.1599 95.907,83.8266 96.5,94.5C 95.5489,95.9187 95.2155,97.5853 95.5,99.5C 94.1667,100.5 94.1667,101.5 95.5,102.5C 95.2503,104.674 94.2503,106.341 92.5,107.5C 92.1667,106.167 91.8333,106.167 91.5,107.5C 90.8333,107.5 90.5,107.833 90.5,108.5C 89.8333,108.5 89.5,108.833 89.5,109.5C 88.8333,109.5 88.5,109.833 88.5,110.5C 87.8333,110.5 87.5,110.833 87.5,111.5C 86.8333,111.5 86.5,111.833 86.5,112.5C 85.8333,112.5 85.5,112.833 85.5,113.5C 83.086,114.777 82.9193,116.443 85,118.5C 85.805,116.099 86.6383,116.266 87.5,119C 86.5,119.333 85.5,119.667 84.5,120C 86.4913,120.374 88.158,121.207 89.5,122.5C 87.5,122.5 85.5,122.5 83.5,122.5C 83.2155,119.746 82.5488,117.08 81.5,114.5C 78.8275,115.501 76.1608,116.501 73.5,117.5C 74.1153,120.039 74.7819,122.539 75.5,125C 77.8098,125.497 80.1432,125.663 82.5,125.5C 80.7354,126.461 78.7354,126.795 76.5,126.5C 74.6159,126.288 73.2826,125.288 72.5,123.5C 69.5319,125.14 66.8652,127.14 64.5,129.5C 63.8205,136.115 63.8205,142.782 64.5,149.5C 63.8333,149.5 63.1667,149.5 62.5,149.5C 62.5,146.5 62.5,143.5 62.5,140.5C 60.8561,140.286 59.3561,140.62 58,141.5C 57.5026,144.146 57.3359,146.813 57.5,149.5C 56.8333,149.5 56.1667,149.5 55.5,149.5C 55.5,147.167 55.5,144.833 55.5,142.5C 56.8333,141.833 56.8333,141.167 55.5,140.5C 52.1525,136.219 51.6525,131.552 54,126.5C 56.1193,126.493 57.9526,125.326 59.5,123C 62.877,122.631 66.2103,122.631 69.5,123C 72.1667,122.333 72.1667,121.667 69.5,121C 69.8333,120.667 70.1667,120.333 70.5,120C 68.1667,119.667 65.8333,119.333 63.5,119C 75.5,118.333 75.5,117.667 63.5,117C 62.5842,116.722 61.9175,116.222 61.5,115.5C 69.3812,116.965 76.7145,115.631 83.5,111.5C 88.6396,108.177 92.1396,103.51 94,97.5C 95.0781,84.3688 94.2447,71.3688 91.5,58.5C 91.5427,57.5836 91.8761,56.9169 92.5,56.5 Z"/></g>
<g><path style="opacity:1" fill="#b93d78" d="M 64.5,129.5 C 63.8826,129.611 63.3826,129.944 63,130.5C 62.5026,133.146 62.3359,135.813 62.5,138.5C 60.2776,138.822 58.4443,138.155 57,136.5C 54.9653,129.902 57.132,125.568 63.5,123.5C 64.938,123.719 66.2713,124.219 67.5,125C 65.8588,126.129 64.8588,127.629 64.5,129.5 Z"/></g>
<g><path style="opacity:1" fill="#a52c66" d="M 83.5,122.5 C 85.5,122.5 87.5,122.5 89.5,122.5C 89.8333,122.5 90.1667,122.5 90.5,122.5C 94.0302,122.08 97.6969,122.58 101.5,124C 104.428,127.257 105.262,131.091 104,135.5C 103.5,137.333 102.333,138.5 100.5,139C 90.2513,140.08 86.4179,135.58 89,125.5C 87.3375,127.158 86.5041,129.158 86.5,131.5C 85.5178,130.859 84.5178,130.193 83.5,129.5C 80.8971,130.562 78.2305,130.728 75.5,130C 84.0557,129.015 84.389,127.848 76.5,126.5C 78.7354,126.795 80.7354,126.461 82.5,125.5C 83.404,124.791 83.7373,123.791 83.5,122.5 Z"/></g>
<g><path style="opacity:1" fill="#f7469c" d="M 76.5,126.5 C 84.389,127.848 84.0557,129.015 75.5,130C 78.2305,130.728 80.8971,130.562 83.5,129.5C 84.5178,130.193 85.5178,130.859 86.5,131.5C 86.5,132.5 86.5,133.5 86.5,134.5C 86.5,139.5 86.5,144.5 86.5,149.5C 85.8333,149.5 85.1667,149.5 84.5,149.5C 84.5,146.5 84.5,143.5 84.5,140.5C 80.1667,140.5 75.8333,140.5 71.5,140.5C 71.5,143.5 71.5,146.5 71.5,149.5C 70.8333,149.5 70.1667,149.5 69.5,149.5C 69.6655,145.486 69.4988,141.486 69,137.5C 68.6322,136.09 67.7989,135.09 66.5,134.5C 66.0412,139.435 66.0412,144.435 66.5,149.5C 65.8333,149.5 65.1667,149.5 64.5,149.5C 63.8205,142.782 63.8205,136.115 64.5,129.5C 66.8652,127.14 69.5319,125.14 72.5,123.5C 73.2826,125.288 74.6159,126.288 76.5,126.5 Z"/></g>
<g><path style="opacity:0.012" fill="#300a00" d="M 107.5,135.5 C 107.336,132.813 107.503,130.146 108,127.5C 108.801,130.367 108.634,133.034 107.5,135.5 Z"/></g>
<g><path style="opacity:0.004" fill="#240800" d="M 106.5,135.5 C 106.833,135.5 107.167,135.5 107.5,135.5C 107.672,136.492 107.338,137.158 106.5,137.5C 106.5,136.833 106.5,136.167 106.5,135.5 Z"/></g>
<g><path style="opacity:1" fill="#fe9ecc" d="M 69.5,149.5 C 68.5,149.5 67.5,149.5 66.5,149.5C 66.0412,144.435 66.0412,139.435 66.5,134.5C 67.7989,135.09 68.6322,136.09 69,137.5C 69.4988,141.486 69.6655,145.486 69.5,149.5 Z"/></g>
<g><path style="opacity:1" fill="#b02f6d" d="M 86.5,134.5 C 88.859,138.854 92.5257,141.187 97.5,141.5C 97.5,144.167 97.5,146.833 97.5,149.5C 93.8333,149.5 90.1667,149.5 86.5,149.5C 86.5,144.5 86.5,139.5 86.5,134.5 Z"/></g>
<g><path style="opacity:0.608" fill="#3b1418" d="M 103.5,123.5 C 104.167,123.5 104.5,123.833 104.5,124.5C 106.222,127.92 106.889,131.586 106.5,135.5C 105.167,136.167 105.167,136.833 106.5,137.5C 105.25,139.968 105.417,142.301 107,144.5C 107.333,143.833 107.667,143.167 108,142.5C 109.202,144.677 109.702,147.011 109.5,149.5C 109.167,149.5 108.833,149.5 108.5,149.5C 108.167,144.167 107.833,144.167 107.5,149.5C 106.833,149.5 106.167,149.5 105.5,149.5C 105.6,146.333 104.933,143.333 103.5,140.5C 101.997,139.948 100.331,139.948 98.5,140.5C 99.4608,143.426 100.127,146.426 100.5,149.5C 99.5,149.5 98.5,149.5 97.5,149.5C 97.5,146.833 97.5,144.167 97.5,141.5C 92.5257,141.187 88.859,138.854 86.5,134.5C 86.5,133.5 86.5,132.5 86.5,131.5C 86.5041,129.158 87.3375,127.158 89,125.5C 86.4179,135.58 90.2513,140.08 100.5,139C 102.333,138.5 103.5,137.333 104,135.5C 105.262,131.091 104.428,127.257 101.5,124C 97.6969,122.58 94.0302,122.08 90.5,122.5C 95.0884,119.654 99.4217,119.988 103.5,123.5 Z"/></g>
<g><path style="opacity:0.008" fill="#240800" d="M 55.5,140.5 C 55.5,141.167 55.5,141.833 55.5,142.5C 55.1667,142.5 54.8333,142.5 54.5,142.5C 54.3284,141.508 54.6618,140.842 55.5,140.5 Z"/></g>
<g><path style="opacity:0.012" fill="#3a0900" d="M 54.5,142.5 C 54.5,144.833 54.5,147.167 54.5,149.5C 54.1667,149.5 53.8333,149.5 53.5,149.5C 53.1984,146.941 53.5318,144.607 54.5,142.5 Z"/></g>
<g><path style="opacity:0.998" fill="#625e60" d="M 62.5,149.5 C 60.8333,149.5 59.1667,149.5 57.5,149.5C 57.3359,146.813 57.5026,144.146 58,141.5C 59.3561,140.62 60.8561,140.286 62.5,140.5C 62.5,143.5 62.5,146.5 62.5,149.5 Z"/></g>
<g><path style="opacity:1" fill="#9c2c5a" d="M 84.5,149.5 C 83.8333,149.5 83.1667,149.5 82.5,149.5C 82.5,146.833 82.5,144.167 82.5,141.5C 79.1667,141.5 75.8333,141.5 72.5,141.5C 72.5,144.167 72.5,146.833 72.5,149.5C 72.1667,149.5 71.8333,149.5 71.5,149.5C 71.5,146.5 71.5,143.5 71.5,140.5C 75.8333,140.5 80.1667,140.5 84.5,140.5C 84.5,143.5 84.5,146.5 84.5,149.5 Z"/></g>
<g><path style="opacity:1" fill="#f7439b" d="M 82.5,149.5 C 79.1667,149.5 75.8333,149.5 72.5,149.5C 72.5,146.833 72.5,144.167 72.5,141.5C 75.8333,141.5 79.1667,141.5 82.5,141.5C 82.5,144.167 82.5,146.833 82.5,149.5 Z"/></g>
<g><path style="opacity:0.998" fill="#474445" d="M 105.5,149.5 C 103.833,149.5 102.167,149.5 100.5,149.5C 100.127,146.426 99.4608,143.426 98.5,140.5C 100.331,139.948 101.997,139.948 103.5,140.5C 104.933,143.333 105.6,146.333 105.5,149.5 Z"/></g>
</svg>
