<?xml version="1.0" encoding="UTF-8"?>
<!DOCTYPE svg PUBLIC "-//W3C//DTD SVG 1.1//EN" "http://www.w3.org/Graphics/SVG/1.1/DTD/svg11.dtd">
<svg xmlns="http://www.w3.org/2000/svg" version="1.1" width="300px" height="300px" style="shape-rendering:geometricPrecision; text-rendering:geometricPrecision; image-rendering:optimizeQuality; fill-rule:evenodd; clip-rule:evenodd" xmlns:xlink="http://www.w3.org/1999/xlink">
<g><path style="opacity:0.016" fill="#7e7d33" d="M 171.5,37.5 C 175.646,36.353 179.98,36.1864 184.5,37C 180.179,37.499 175.846,37.6657 171.5,37.5 Z"/></g>
<g><path style="opacity:1" fill="#f8eb0b" d="M 194.5,67.5 C 196.83,69.5844 197.997,72.251 198,75.5C 198.419,74.3279 199.085,73.3279 200,72.5C 213.922,86.0013 222.922,102.335 227,121.5C 229.309,129.068 231.142,136.734 232.5,144.5C 230.435,144.517 228.435,144.85 226.5,145.5C 227.586,141.822 227.586,138.155 226.5,134.5C 218.251,135.97 209.918,136.637 201.5,136.5C 183.668,137.79 165.835,137.79 148,136.5C 133.995,134.033 120.328,132.7 107,132.5C 99.3664,132.679 91.8664,133.679 84.5,135.5C 83.8243,136.602 83.1577,137.602 82.5,138.5C 82.0918,133.177 79.7585,129.01 75.5,126C 69.8593,124.928 64.1926,124.595 58.5,125C 57.6195,125.708 56.9528,126.542 56.5,127.5C 53.1667,130.167 50.1667,133.167 47.5,136.5C 47.1667,136.5 46.8333,136.5 46.5,136.5C 44.9777,129.098 43.1443,121.764 41,114.5C 40.1923,112.421 40.359,110.421 41.5,108.5C 57.3765,96.4045 73.7098,85.0712 90.5,74.5C 105.835,66.166 121.501,58.3326 137.5,51C 146.637,47.3988 155.97,44.3988 165.5,42C 171.129,40.8032 176.796,40.4698 182.5,41C 184.088,45.6859 185.088,50.5192 185.5,55.5C 173.601,56.9134 168.768,63.5801 171,75.5C 180.946,82.2943 188.113,79.961 192.5,68.5C 192.957,67.7025 193.624,67.3691 194.5,67.5 Z M 174.5,72.5 C 175.167,72.5 175.833,72.5 176.5,72.5C 179.495,72.2938 182.162,72.9605 184.5,74.5C 180.96,74.2474 177.627,73.5808 174.5,72.5 Z M 172.5,71.5 C 173.492,71.3284 174.158,71.6618 174.5,72.5C 173.075,74.0311 172.409,73.6977 172.5,71.5 Z"/></g>
<g><path style="opacity:0.012" fill="#c6c548" d="M 129.5,50.5 C 129.897,49.475 130.563,49.3083 131.5,50C 130.906,50.4643 130.239,50.631 129.5,50.5 Z"/></g>
<g><path style="opacity:0.008" fill="#706e37" d="M 188.5,51.5 C 188.167,51.5 187.833,51.5 187.5,51.5C 187.833,44.8333 188.167,44.8333 188.5,51.5 Z"/></g>
<g><path style="opacity:0.012" fill="#6e6d39" d="M 122.5,53.5 C 122.897,52.475 123.563,52.3083 124.5,53C 123.906,53.4643 123.239,53.631 122.5,53.5 Z"/></g>
<g><path style="opacity:0.012" fill="#9f9e34" d="M 188.5,51.5 C 189.622,53.2884 189.789,55.2884 189,57.5C 188.505,55.5273 188.338,53.5273 188.5,51.5 Z"/></g>
<g><path style="opacity:0.004" fill="#feff00" d="M 186.5,58.5 C 187.833,59.1667 187.833,59.1667 186.5,58.5 Z"/></g>
<g><path style="opacity:0.016" fill="#959252" d="M 181.5,60.5 C 181.5,60.1667 181.5,59.8333 181.5,59.5C 183.167,59.5 184.833,59.5 186.5,59.5C 185.081,60.4511 183.415,60.7845 181.5,60.5 Z"/></g>
<g><path style="opacity:0.012" fill="#b4b339" d="M 178.5,61.5 C 178.5,61.1667 178.5,60.8333 178.5,60.5C 179.5,60.5 180.5,60.5 181.5,60.5C 180.791,61.404 179.791,61.7373 178.5,61.5 Z"/></g>
<g><path style="opacity:0.012" fill="#9e6462" d="M 176.5,62.5 C 176.5,62.1667 176.5,61.8333 176.5,61.5C 177.167,61.5 177.833,61.5 178.5,61.5C 178.158,62.3382 177.492,62.6716 176.5,62.5 Z"/></g>
<g><path style="opacity:0.024" fill="#7e7f29" d="M 175.5,62.5 C 175.833,62.5 176.167,62.5 176.5,62.5C 176.315,63.1701 175.981,63.1701 175.5,62.5 Z"/></g>
<g><path style="opacity:0.016" fill="#898939" d="M 190.5,63.5 C 191.251,62.4265 192.251,62.2599 193.5,63C 192.552,63.4828 191.552,63.6495 190.5,63.5 Z"/></g>
<g><path style="opacity:0.008" fill="#7e7f00" d="M 194.5,63.5 C 195.833,64.1667 195.833,64.1667 194.5,63.5 Z"/></g>
<g><path style="opacity:0.012" fill="#b8b54f" d="M 85.5,70.5 C 86.6009,69.4017 87.9343,69.235 89.5,70C 88.2068,70.49 86.8734,70.6567 85.5,70.5 Z"/></g>
<g><path style="opacity:0.647" fill="#7c7942" d="M 89.5,72.5 C 78.8399,71.7336 68.1733,71.5669 57.5,72C 54.2895,78.726 51.6229,85.5593 49.5,92.5C 49.4669,87.8988 50.1335,83.3988 51.5,79C 50.4589,74.8843 51.6256,71.3843 55,68.5C 59.6917,68.5013 64.5251,68.668 69.5,69C 76.4077,69.5777 83.0744,70.7444 89.5,72.5 Z"/></g>
<g><path style="opacity:1" fill="#f1e60a" d="M 89.5,72.5 C 90.1667,72.5 90.8333,72.5 91.5,72.5C 91.1667,73.1667 90.8333,73.8333 90.5,74.5C 88.4068,75.0447 86.4068,75.878 84.5,77C 72.5997,85.0823 60.5997,92.9156 48.5,100.5C 48.1667,99.1667 47.8333,99.1667 47.5,100.5C 46.7611,100.631 46.0944,100.464 45.5,100C 46.2744,97.595 46.7744,95.095 47,92.5C 47.3333,94.5 47.6667,96.5 48,98.5C 48.1909,96.2922 48.6909,94.2922 49.5,92.5C 51.6229,85.5593 54.2895,78.726 57.5,72C 68.1733,71.5669 78.8399,71.7336 89.5,72.5 Z"/></g>
<g><path style="opacity:0.686" fill="#7f7c47" d="M 187.5,51.5 C 187.702,53.9496 187.369,56.283 186.5,58.5C 184.585,58.2155 182.919,58.5489 181.5,59.5C 180.209,59.2627 179.209,59.596 178.5,60.5C 177.508,60.3284 176.842,60.6618 176.5,61.5C 175.833,61.5 175.5,61.8333 175.5,62.5C 174.167,62.8333 174.167,63.1667 175.5,63.5C 175.737,64.791 175.404,65.791 174.5,66.5C 174.167,65.1667 173.833,65.1667 173.5,66.5C 172.596,67.209 172.263,68.209 172.5,69.5C 172.5,70.1667 172.5,70.8333 172.5,71.5C 172.409,73.6977 173.075,74.0311 174.5,72.5C 177.627,73.5808 180.96,74.2474 184.5,74.5C 182.162,72.9605 179.495,72.2938 176.5,72.5C 175.167,71.5 175.167,70.5 176.5,69.5C 178.415,69.7845 180.081,69.4511 181.5,68.5C 185.134,67.6031 188.634,66.2698 192,64.5C 193.981,64.8985 195.481,65.8985 196.5,67.5C 195.833,67.5 195.167,67.5 194.5,67.5C 193.624,67.3691 192.957,67.7025 192.5,68.5C 188.113,79.961 180.946,82.2943 171,75.5C 168.768,63.5801 173.601,56.9134 185.5,55.5C 185.088,50.5192 184.088,45.6859 182.5,41C 176.796,40.4698 171.129,40.8032 165.5,42C 155.97,44.3988 146.637,47.3988 137.5,51C 121.501,58.3326 105.835,66.166 90.5,74.5C 90.8333,73.8333 91.1667,73.1667 91.5,72.5C 114.256,57.6289 138.923,46.7956 165.5,40C 171.813,38.4752 178.146,38.3085 184.5,39.5C 185.297,43.669 186.297,47.669 187.5,51.5 Z M 174.5,72.5 C 175.167,72.5 175.833,72.5 176.5,72.5C 179.495,72.2938 182.162,72.9605 184.5,74.5C 180.96,74.2474 177.627,73.5808 174.5,72.5 Z M 172.5,71.5 C 173.492,71.3284 174.158,71.6618 174.5,72.5C 173.075,74.0311 172.409,73.6977 172.5,71.5 Z M 173.5,66.5 C 175.635,68.369 178.302,69.0356 181.5,68.5C 180.081,69.4511 178.415,69.7845 176.5,69.5C 175.167,69.5 173.833,69.5 172.5,69.5C 172.263,68.209 172.596,67.209 173.5,66.5 Z"/></g>
<g><path style="opacity:0.506" fill="#5b3397" d="M 172.5,69.5 C 173.833,69.5 175.167,69.5 176.5,69.5C 175.167,70.5 175.167,71.5 176.5,72.5C 175.833,72.5 175.167,72.5 174.5,72.5C 174.158,71.6618 173.492,71.3284 172.5,71.5C 172.5,70.8333 172.5,70.1667 172.5,69.5 Z"/></g>
<g><path style="opacity:0.012" fill="#6b6451" d="M 173.5,66.5 C 173.833,66.5 174.167,66.5 174.5,66.5C 176.833,67.1667 179.167,67.8333 181.5,68.5C 178.302,69.0356 175.635,68.369 173.5,66.5 Z"/></g>
<g><path style="opacity:1" fill="#87823b" d="M 163.5,59.5 C 164.043,59.56 164.376,59.8933 164.5,60.5C 162.616,65.0058 162.116,69.6725 163,74.5C 164.089,77.3062 165.089,79.9728 166,82.5C 159.82,75.3981 158.987,67.7314 163.5,59.5 Z"/></g>
<g><path style="opacity:1" fill="#737043" d="M 168.5,85.5 C 168.56,84.9569 168.893,84.6236 169.5,84.5C 174.14,88.3185 179.473,90.1519 185.5,90C 179.028,91.425 173.362,89.925 168.5,85.5 Z"/></g>
<g><path style="opacity:0.004" fill="#000000" d="M 280.5,100.5 C 281.833,101.167 281.833,101.167 280.5,100.5 Z"/></g>
<g><path style="opacity:0.012" fill="#404040" d="M 276.5,102.5 C 277.251,101.427 278.251,101.26 279.5,102C 278.552,102.483 277.552,102.649 276.5,102.5 Z"/></g>
<g><path style="opacity:0.012" fill="#404040" d="M 282.5,102.5 C 283.251,101.427 284.251,101.26 285.5,102C 284.552,102.483 283.552,102.649 282.5,102.5 Z"/></g>
<g><path style="opacity:0.997" fill="#444340" d="M 203.5,96.5 C 204.833,96.5 206.167,96.5 207.5,96.5C 207.5,100.5 207.5,104.5 207.5,108.5C 201.053,107.42 195.387,108.92 190.5,113C 188.833,113.167 187.167,113.333 185.5,113.5C 171.738,109.261 158.071,109.595 144.5,114.5C 141.908,112.839 141.241,110.672 142.5,108C 155.27,101.031 168.27,100.697 181.5,107C 183.5,107.667 185.5,107.667 187.5,107C 193.412,104.222 198.745,100.722 203.5,96.5 Z"/></g>
<g><path style="opacity:0.008" fill="#7e7f7e" d="M 234.5,113.5 C 235.833,114.167 235.833,114.167 234.5,113.5 Z"/></g>
<g><path style="opacity:0.992" fill="#595752" d="M 194.5,67.5 C 195.167,67.5 195.833,67.5 196.5,67.5C 198.371,67.8588 199.871,68.8588 201,70.5C 202.871,69.3322 204.371,69.8322 205.5,72C 205.167,72.3333 204.833,72.6667 204.5,73C 206.821,73.9396 208.988,75.4396 211,77.5C 211.617,78.4491 211.451,79.2825 210.5,80C 211.743,82.0338 213.243,82.8671 215,82.5C 215.617,83.4491 215.451,84.2825 214.5,85C 218.082,86.7431 220.748,89.9098 222.5,94.5C 221.674,95.451 221.508,96.451 222,97.5C 222.92,97.9302 223.753,98.2635 224.5,98.5C 223.693,100.961 224.193,103.294 226,105.5C 226.333,104.833 226.667,104.167 227,103.5C 228,106.167 229,108.833 230,111.5C 231.067,112.191 232.234,112.691 233.5,113C 232.5,113.333 231.5,113.667 230.5,114C 232.219,115.057 234.053,115.89 236,116.5C 236.333,116.167 236.667,115.833 237,115.5C 239.099,118.7 240.933,122.033 242.5,125.5C 241.508,125.328 240.842,125.662 240.5,126.5C 241.374,129.789 242.041,133.123 242.5,136.5C 244.167,136.5 245.833,136.5 247.5,136.5C 247.5,136.833 247.5,137.167 247.5,137.5C 242.167,137.833 242.167,138.167 247.5,138.5C 246.891,142.605 246.225,146.605 245.5,150.5C 245.167,135.833 244.833,135.833 244.5,150.5C 243.167,152.167 243.167,153.833 244.5,155.5C 244.587,158.598 244.087,158.932 243,156.5C 242.5,157.667 241.667,158.5 240.5,159C 241.167,159.333 241.833,159.667 242.5,160C 241.62,161.356 241.286,162.856 241.5,164.5C 240.842,165.793 240.508,167.293 240.5,169C 241.619,178.138 242.285,187.304 242.5,196.5C 241.833,196.5 241.5,196.833 241.5,197.5C 240.833,197.5 240.5,197.833 240.5,198.5C 239.833,198.5 239.5,198.833 239.5,199.5C 238.833,199.5 238.5,199.833 238.5,200.5C 237.833,200.5 237.5,200.833 237.5,201.5C 236.833,201.5 236.5,201.833 236.5,202.5C 235.167,202.833 235.167,203.167 236.5,203.5C 236.027,204.906 235.027,205.573 233.5,205.5C 233.167,204.167 232.833,204.167 232.5,205.5C 231.833,205.5 231.5,205.833 231.5,206.5C 230.833,206.5 230.167,206.5 229.5,206.5C 228.209,206.737 227.209,206.404 226.5,205.5C 230.506,202.066 234.672,198.732 239,195.5C 239.668,178.022 237.502,161.022 232.5,144.5C 231.142,136.734 229.309,129.068 227,121.5C 222.922,102.335 213.922,86.0013 200,72.5C 199.085,73.3279 198.419,74.3279 198,75.5C 197.997,72.251 196.83,69.5844 194.5,67.5 Z"/></g>
<g><path style="opacity:0.016" fill="#404040" d="M 294.5,112.5 C 295.833,115.167 295.833,117.833 294.5,120.5C 294.5,117.833 294.5,115.167 294.5,112.5 Z"/></g>
<g><path style="opacity:0.016" fill="#666438" d="M 37.5,116.5 C 37.8333,116.5 38.1667,116.5 38.5,116.5C 38.5,117.833 38.5,119.167 38.5,120.5C 37.5655,119.432 37.2322,118.099 37.5,116.5 Z"/></g>
<g><path style="opacity:1" fill="#e15352" d="M 273.5,124.5 C 274.793,122.704 276.293,121.037 278,119.5C 278.49,118.207 278.657,116.873 278.5,115.5C 275.594,115.957 272.928,116.957 270.5,118.5C 268.84,113.28 270.507,109.113 275.5,106C 281.923,103.1 287.09,104.6 291,110.5C 293.9,116.923 292.4,122.09 286.5,126C 282.833,126.667 279.167,126.667 275.5,126C 274.584,125.722 273.918,125.222 273.5,124.5 Z"/></g>
<g><path style="opacity:0.016" fill="#989647" d="M 38.5,120.5 C 38.8333,120.5 39.1667,120.5 39.5,120.5C 39.5,121.833 39.5,123.167 39.5,124.5C 38.5655,123.432 38.2322,122.099 38.5,120.5 Z"/></g>
<g><path style="opacity:0.004" fill="#1f1f1f" d="M 293.5,120.5 C 293.833,120.5 294.167,120.5 294.5,120.5C 294.672,121.492 294.338,122.158 293.5,122.5C 293.5,121.833 293.5,121.167 293.5,120.5 Z"/></g>
<g><path style="opacity:0.008" fill="#7e7f7e" d="M 292.5,122.5 C 292.833,122.5 293.167,122.5 293.5,122.5C 293.315,123.17 292.981,123.17 292.5,122.5 Z"/></g>
<g><path style="opacity:0.999" fill="#f15454" d="M 31.5,138.5 C 30.6618,138.842 30.3284,139.508 30.5,140.5C 25.8547,147.539 19.5213,149.372 11.5,146C 3.88945,139.42 3.55612,132.42 10.5,125C 18.9175,120.786 25.7508,122.619 31,130.5C 31.4974,133.146 31.6641,135.813 31.5,138.5 Z"/></g>
<g><path style="opacity:0.584" fill="#524745" d="M 294.5,112.5 C 293.527,114.948 293.194,117.615 293.5,120.5C 292.662,120.842 292.328,121.508 292.5,122.5C 291.167,122.833 291.167,123.167 292.5,123.5C 292.573,125.027 291.906,126.027 290.5,126.5C 289.833,125.167 289.167,125.167 288.5,126.5C 287.833,126.5 287.5,126.833 287.5,127.5C 286.508,127.328 285.842,127.662 285.5,128.5C 278.443,127.857 271.777,126.857 265.5,125.5C 268.206,125.425 270.873,125.092 273.5,124.5C 273.918,125.222 274.584,125.722 275.5,126C 279.167,126.667 282.833,126.667 286.5,126C 292.4,122.09 293.9,116.923 291,110.5C 287.09,104.6 281.923,103.1 275.5,106C 270.507,109.113 268.84,113.28 270.5,118.5C 269.167,119.833 267.833,119.833 266.5,118.5C 267.239,118.631 267.906,118.464 268.5,118C 267.207,117.51 265.873,117.343 264.5,117.5C 265.832,116.17 266.665,114.503 267,112.5C 267.333,113.833 267.667,115.167 268,116.5C 268.687,114.432 268.52,112.432 267.5,110.5C 268.667,108.833 269.833,107.167 271,105.5C 271.414,105.957 271.914,106.291 272.5,106.5C 279.723,101.248 286.223,102.248 292,109.5C 292.333,109.167 292.667,108.833 293,108.5C 294.188,109.563 294.688,110.897 294.5,112.5 Z"/></g>
<g><path style="opacity:0.998" fill="#babab9" d="M 264.5,117.5 C 264.842,118.338 265.508,118.672 266.5,118.5C 267.833,119.833 269.167,119.833 270.5,118.5C 272.928,116.957 275.594,115.957 278.5,115.5C 278.657,116.873 278.49,118.207 278,119.5C 276.293,121.037 274.793,122.704 273.5,124.5C 270.873,125.092 268.206,125.425 265.5,125.5C 262.111,124.027 259.778,125.027 258.5,128.5C 258.167,124.5 257.833,124.5 257.5,128.5C 256.167,129.167 256.167,129.833 257.5,130.5C 257.573,132.027 256.906,133.027 255.5,133.5C 255.167,132.167 254.833,132.167 254.5,133.5C 253.833,133.5 253.5,133.833 253.5,134.5C 252.833,134.5 252.5,134.833 252.5,135.5C 251.508,135.328 250.842,135.662 250.5,136.5C 249.5,136.5 248.5,136.5 247.5,136.5C 245.833,136.5 244.167,136.5 242.5,136.5C 242.041,133.123 241.374,129.789 240.5,126.5C 241.492,126.672 242.158,126.338 242.5,125.5C 244.655,125.628 246.655,125.128 248.5,124C 247.833,123.667 247.167,123.333 246.5,123C 248.458,120.252 250.291,117.418 252,114.5C 253.974,114.626 256.141,114.792 258.5,115C 260.407,116.122 262.407,116.955 264.5,117.5 Z"/></g>
<g><path style="opacity:0.004" fill="#52170a" d="M 288.5,127.5 C 288.5,127.167 288.5,126.833 288.5,126.5C 289.167,126.5 289.833,126.5 290.5,126.5C 290.158,127.338 289.492,127.672 288.5,127.5 Z"/></g>
<g><path style="opacity:0.012" fill="#949494" d="M 265.5,128.5 C 267.288,127.378 269.288,127.211 271.5,128C 269.527,128.495 267.527,128.662 265.5,128.5 Z"/></g>
<g><path style="opacity:0.012" fill="#545554" d="M 287.5,127.5 C 287.833,127.5 288.167,127.5 288.5,127.5C 288.315,128.17 287.981,128.17 287.5,127.5 Z"/></g>
<g><path style="opacity:1" fill="#716d49" d="M 90.5,74.5 C 73.7098,85.0712 57.3765,96.4045 41.5,108.5C 40.359,110.421 40.1923,112.421 41,114.5C 43.1443,121.764 44.9777,129.098 46.5,136.5C 44.5,136.5 43.5,135.5 43.5,133.5C 42.791,132.596 41.791,132.263 40.5,132.5C 40.1667,129.833 39.8333,127.167 39.5,124.5C 40.8333,123.167 40.8333,121.833 39.5,120.5C 39.7678,118.901 39.4345,117.568 38.5,116.5C 38.1667,112.5 37.8333,112.5 37.5,116.5C 35.7191,113.817 35.2191,110.817 36,107.5C 37.0793,105.606 38.4126,105.273 40,106.5C 42.6877,104.636 45.1877,102.636 47.5,100.5C 47.8333,100.5 48.1667,100.5 48.5,100.5C 60.5997,92.9156 72.5997,85.0823 84.5,77C 86.4068,75.878 88.4068,75.0447 90.5,74.5 Z"/></g>
<g><path style="opacity:0.008" fill="#7e7f7e" d="M 285.5,129.5 C 285.5,129.167 285.5,128.833 285.5,128.5C 286.167,128.5 286.833,128.5 287.5,128.5C 287.158,129.338 286.492,129.672 285.5,129.5 Z"/></g>
<g><path style="opacity:0.008" fill="#373737" d="M 257.5,128.5 C 257.833,128.5 258.167,128.5 258.5,128.5C 258.672,129.492 258.338,130.158 257.5,130.5C 257.5,129.833 257.5,129.167 257.5,128.5 Z"/></g>
<g><path style="opacity:0.004" fill="#999999" d="M 285.5,129.5 C 282.696,130.638 279.696,130.805 276.5,130C 279.482,129.502 282.482,129.335 285.5,129.5 Z"/></g>
<g><path style="opacity:1" fill="#776d53" d="M 82.5,138.5 C 82.5,141.833 82.5,145.167 82.5,148.5C 82.8064,151.385 82.4731,154.052 81.5,156.5C 81.6661,150.824 81.4994,145.157 81,139.5C 80.8461,135.902 79.8461,132.569 78,129.5C 77.3457,128.304 76.8457,128.304 76.5,129.5C 78.4883,139.058 78.9883,148.724 78,158.5C 77.5291,160.246 76.8624,161.913 76,163.5C 76.4848,158.383 76.9848,153.216 77.5,148C 77.2492,141.739 76.4158,135.573 75,129.5C 71.9123,126.903 68.4123,126.069 64.5,127C 65.9448,128.71 66.7782,130.544 67,132.5C 65.1396,130.64 63.3063,128.806 61.5,127C 59.8034,126.616 58.1368,126.782 56.5,127.5C 56.9528,126.542 57.6195,125.708 58.5,125C 64.1926,124.595 69.8593,124.928 75.5,126C 79.7585,129.01 82.0918,133.177 82.5,138.5 Z"/></g>
<g><path style="opacity:0.008" fill="#fefffe" d="M 254.5,133.5 C 254.833,133.5 255.167,133.5 255.5,133.5C 255.315,134.17 254.981,134.17 254.5,133.5 Z"/></g>
<g><path style="opacity:0.012" fill="#a9aaa9" d="M 253.5,134.5 C 253.833,134.5 254.167,134.5 254.5,134.5C 254.315,135.17 253.981,135.17 253.5,134.5 Z"/></g>
<g><path style="opacity:0.833" fill="#f9f040" d="M 201.5,136.5 C 202.195,141.313 204.528,144.979 208.5,147.5C 209.861,149.527 211.527,151.194 213.5,152.5C 207.939,153.211 202.272,154.711 196.5,157C 195.244,157.417 194.577,158.25 194.5,159.5C 193.367,153.164 191.367,146.997 188.5,141C 180.883,138.788 177.216,141.621 177.5,149.5C 178.548,153.264 179.881,156.931 181.5,160.5C 171.212,162.577 160.879,162.911 150.5,161.5C 151.694,160.728 152.694,159.728 153.5,158.5C 154.167,158.5 154.5,158.167 154.5,157.5C 159.847,152.859 162.181,146.859 161.5,139.5C 155.261,139.276 149.261,139.943 143.5,141.5C 138.951,141.624 134.618,142.291 130.5,143.5C 128.801,143.34 127.134,143.506 125.5,144C 124.766,147.338 125.432,150.505 127.5,153.5C 119.491,151.443 111.491,149.276 103.5,147C 96.3742,146.108 89.3742,146.608 82.5,148.5C 82.5,145.167 82.5,141.833 82.5,138.5C 83.1577,137.602 83.8243,136.602 84.5,135.5C 91.8664,133.679 99.3664,132.679 107,132.5C 120.328,132.7 133.995,134.033 148,136.5C 165.835,137.79 183.668,137.79 201.5,136.5 Z"/></g>
<g><path style="opacity:0.008" fill="#7e7f7e" d="M 252.5,135.5 C 252.833,135.5 253.167,135.5 253.5,135.5C 253.315,136.17 252.981,136.17 252.5,135.5 Z"/></g>
<g><path style="opacity:0.004" fill="#4e4e4e" d="M 250.5,137.5 C 250.5,137.167 250.5,136.833 250.5,136.5C 251.167,136.5 251.833,136.5 252.5,136.5C 252.158,137.338 251.492,137.672 250.5,137.5 Z"/></g>
<g><path style="opacity:0.012" fill="#524d4c" d="M 34.5,133.5 C 35.1667,134.167 35.8333,134.833 36.5,135.5C 36.5,136.5 36.5,137.5 36.5,138.5C 35.8333,138.5 35.1667,138.5 34.5,138.5C 34.5,137.833 34.1667,137.5 33.5,137.5C 33.5,137.167 33.5,136.833 33.5,136.5C 34.404,135.791 34.7373,134.791 34.5,133.5 Z"/></g>
<g><path style="opacity:0.012" fill="#b3b3b3" d="M 247.5,138.5 C 247.5,138.167 247.5,137.833 247.5,137.5C 248.5,137.5 249.5,137.5 250.5,137.5C 249.791,138.404 248.791,138.737 247.5,138.5 Z"/></g>
<g><path style="opacity:1" fill="#b6b5b3" d="M 43.5,133.5 C 43.5,135.5 44.5,136.5 46.5,136.5C 46.8333,136.5 47.1667,136.5 47.5,136.5C 48.2899,137.794 49.2899,138.961 50.5,140C 53.8333,140.333 57.1667,140.667 60.5,141C 63.9291,146.13 64.4291,151.63 62,157.5C 51.4934,165.763 46.66,163.43 47.5,150.5C 48.3424,148.235 48.0091,145.902 46.5,143.5C 43.1926,141.83 41.1926,142.83 40.5,146.5C 39.5,146.833 38.8333,147.5 38.5,148.5C 34.8593,148.348 32.1927,146.682 30.5,143.5C 30.5,142.5 30.5,141.5 30.5,140.5C 30.3284,139.508 30.6618,138.842 31.5,138.5C 32.1667,138.5 32.8333,138.5 33.5,138.5C 33.8333,138.5 34.1667,138.5 34.5,138.5C 35.5477,140.933 36.2144,140.933 36.5,138.5C 37.8333,137.5 37.8333,136.5 36.5,135.5C 38.5994,134.388 40.9327,133.721 43.5,133.5 Z M 34.5,138.5 C 35.1667,138.5 35.8333,138.5 36.5,138.5C 36.2144,140.933 35.5477,140.933 34.5,138.5 Z"/></g>
<g><path style="opacity:1" fill="#f4c464" d="M 236.5,118.5 C 238.225,124.844 240.058,131.178 242,137.5C 242.689,143.882 242.355,150.215 241,156.5C 240.586,156.957 240.086,157.291 239.5,157.5C 236.343,144.059 232.676,130.726 228.5,117.5C 231.435,116.102 234.102,116.435 236.5,118.5 Z"/></g>
<g><path style="opacity:0.995" fill="#6e6e6b" d="M 154.5,157.5 C 156.184,152.324 156.85,146.991 156.5,141.5C 154.5,141.5 152.5,141.5 150.5,141.5C 148.167,141.5 145.833,141.5 143.5,141.5C 149.261,139.943 155.261,139.276 161.5,139.5C 162.181,146.859 159.847,152.859 154.5,157.5 Z"/></g>
<g><path style="opacity:0.998" fill="#c0c0bd" d="M 194.5,159.5 C 195.162,163.157 195.829,166.824 196.5,170.5C 196.408,172.258 196.075,173.924 195.5,175.5C 193.076,175.808 190.743,175.474 188.5,174.5C 186.513,168.887 184.68,163.22 183,157.5C 181.884,154.244 180.051,151.578 177.5,149.5C 177.216,141.621 180.883,138.788 188.5,141C 191.367,146.997 193.367,153.164 194.5,159.5 Z"/></g>
<g><path style="opacity:0.757" fill="#45413f" d="M 34.5,133.5 C 33.596,134.209 33.2627,135.209 33.5,136.5C 32.1667,136.833 32.1667,137.167 33.5,137.5C 33.5,137.833 33.5,138.167 33.5,138.5C 32.8333,138.5 32.1667,138.5 31.5,138.5C 31.6641,135.813 31.4974,133.146 31,130.5C 25.7508,122.619 18.9175,120.786 10.5,125C 3.55612,132.42 3.88945,139.42 11.5,146C 19.5213,149.372 25.8547,147.539 30.5,140.5C 30.5,141.5 30.5,142.5 30.5,143.5C 29.5,143.833 28.8333,144.5 28.5,145.5C 27.8333,145.5 27.5,145.833 27.5,146.5C 26.8333,146.5 26.5,146.833 26.5,147.5C 25.5084,147.328 24.8417,147.662 24.5,148.5C 23.209,148.263 22.209,148.596 21.5,149.5C 19.1432,149.663 16.8098,149.497 14.5,149C 11.0905,147.203 7.92378,145.703 5,144.5C 4.15019,142.99 3.31686,141.49 2.5,140C 3.7362,135.787 4.2362,131.62 4,127.5C 4.66667,126.167 5.33333,126.167 6,127.5C 14.3333,119.5 22.6667,119.5 31,127.5C 31.3333,127.167 31.6667,126.833 32,126.5C 33.9028,128.441 34.7361,130.774 34.5,133.5 Z"/></g>
<g><path style="opacity:1" fill="#fff4f4" d="M 9.5,131.5 C 14.1585,131.015 15.4919,132.848 13.5,137C 8.72816,137.81 7.39483,135.977 9.5,131.5 Z"/></g>
<g><path style="opacity:0.008" fill="#7e7f7e" d="M 28.5,145.5 C 29.8333,146.167 29.8333,146.167 28.5,145.5 Z"/></g>
<g><path style="opacity:0.998" fill="#6b6d6d" d="M 130.5,143.5 C 130.761,159.799 138.428,164.799 153.5,158.5C 152.694,159.728 151.694,160.728 150.5,161.5C 146.204,162.463 141.871,162.629 137.5,162C 133.902,159.216 130.569,156.383 127.5,153.5C 125.432,150.505 124.766,147.338 125.5,144C 127.134,143.506 128.801,143.34 130.5,143.5 Z"/></g>
<g><path style="opacity:1" fill="#84c0e0" d="M 224.5,148.5 C 222.253,153.299 218.586,154.633 213.5,152.5C 211.527,151.194 209.861,149.527 208.5,147.5C 207.676,144.236 207.342,140.902 207.5,137.5C 213.167,137.5 218.833,137.5 224.5,137.5C 224.5,141.167 224.5,144.833 224.5,148.5 Z"/></g>
<g><path style="opacity:0.996" fill="#74756c" d="M 226.5,145.5 C 226.068,146.71 225.401,147.71 224.5,148.5C 224.5,144.833 224.5,141.167 224.5,137.5C 218.833,137.5 213.167,137.5 207.5,137.5C 207.342,140.902 207.676,144.236 208.5,147.5C 204.528,144.979 202.195,141.313 201.5,136.5C 209.918,136.637 218.251,135.97 226.5,134.5C 227.586,138.155 227.586,141.822 226.5,145.5 Z"/></g>
<g><path style="opacity:0.008" fill="#7e7f7e" d="M 27.5,146.5 C 27.8333,146.5 28.1667,146.5 28.5,146.5C 28.3147,147.17 27.9813,147.17 27.5,146.5 Z"/></g>
<g><path style="opacity:1" fill="#f8eb02" d="M 232.5,144.5 C 237.502,161.022 239.668,178.022 239,195.5C 234.672,198.732 230.506,202.066 226.5,205.5C 217.448,211.855 207.448,216.355 196.5,219C 168.481,225.096 140.147,227.096 111.5,225C 96.7734,223.992 82.1067,222.492 67.5,220.5C 66.5416,220.047 65.7083,219.381 65,218.5C 63.3745,219.412 62.5412,218.745 62.5,216.5C 62.8333,216.5 63.1667,216.5 63.5,216.5C 63.8333,217.833 64.1667,217.833 64.5,216.5C 62.8074,204.037 60.474,191.704 57.5,179.5C 66.5198,182.157 72.8532,179.157 76.5,170.5C 79.7342,166.469 81.4009,161.802 81.5,156.5C 82.4731,154.052 82.8064,151.385 82.5,148.5C 89.3742,146.608 96.3742,146.108 103.5,147C 111.491,149.276 119.491,151.443 127.5,153.5C 130.569,156.383 133.902,159.216 137.5,162C 141.871,162.629 146.204,162.463 150.5,161.5C 160.879,162.911 171.212,162.577 181.5,160.5C 183.769,166.32 185.602,172.32 187,178.5C 189.064,179.591 191.231,179.758 193.5,179C 194.823,178.184 195.489,177.017 195.5,175.5C 196.075,173.924 196.408,172.258 196.5,170.5C 195.829,166.824 195.162,163.157 194.5,159.5C 194.577,158.25 195.244,157.417 196.5,157C 202.272,154.711 207.939,153.211 213.5,152.5C 218.586,154.633 222.253,153.299 224.5,148.5C 225.401,147.71 226.068,146.71 226.5,145.5C 228.435,144.85 230.435,144.517 232.5,144.5 Z"/></g>
<g><path style="opacity:0.008" fill="#7e7f7e" d="M 26.5,147.5 C 26.8333,147.5 27.1667,147.5 27.5,147.5C 27.3147,148.17 26.9813,148.17 26.5,147.5 Z"/></g>
<g><path style="opacity:0.012" fill="#595959" d="M 41.5,146.5 C 41.8333,146.5 42.1667,146.5 42.5,146.5C 42.6602,148.199 42.4935,149.866 42,151.5C 40.9637,149.701 40.7971,148.034 41.5,146.5 Z"/></g>
<g><path style="opacity:0.004" fill="#1f1f1f" d="M 24.5,149.5 C 24.5,149.167 24.5,148.833 24.5,148.5C 25.1667,148.5 25.8333,148.5 26.5,148.5C 26.1583,149.338 25.4916,149.672 24.5,149.5 Z"/></g>
<g><path style="opacity:0.012" fill="#545554" d="M 38.5,148.5 C 39.8333,149.167 39.8333,149.167 38.5,148.5 Z"/></g>
<g><path style="opacity:0.012" fill="#656565" d="M 21.5,150.5 C 21.5,150.167 21.5,149.833 21.5,149.5C 22.5,149.5 23.5,149.5 24.5,149.5C 23.791,150.404 22.791,150.737 21.5,150.5 Z"/></g>
<g><path style="opacity:0.008" fill="#3e3e3e" d="M 38.5,149.5 C 37.7494,150.573 36.7494,150.74 35.5,150C 36.448,149.517 37.448,149.351 38.5,149.5 Z"/></g>
<g><path style="opacity:0.008" fill="#454545" d="M 21.5,150.5 C 19.3718,151.629 17.0385,151.796 14.5,151C 16.8098,150.503 19.1432,150.337 21.5,150.5 Z"/></g>
<g><path style="opacity:0.012" fill="#606060" d="M 244.5,150.5 C 244.833,150.5 245.167,150.5 245.5,150.5C 245.784,152.415 245.451,154.081 244.5,155.5C 244.5,153.833 244.5,152.167 244.5,150.5 Z"/></g>
<g><path style="opacity:1" fill="#b2d8ec" d="M 143.5,141.5 C 145.833,141.5 148.167,141.5 150.5,141.5C 151.26,151.316 146.926,154.316 137.5,150.5C 136.208,148.333 135.375,146 135,143.5C 134.167,152 138,155.833 146.5,155C 150.092,151.984 152.258,148.151 153,143.5C 154.833,155 150,159.833 138.5,158C 137.333,156.833 136.167,155.667 135,154.5C 133.933,150.419 132.433,146.753 130.5,143.5C 134.618,142.291 138.951,141.624 143.5,141.5 Z"/></g>
<g><path style="opacity:1" fill="#6ac2f0" d="M 150.5,141.5 C 152.5,141.5 154.5,141.5 156.5,141.5C 156.85,146.991 156.184,152.324 154.5,157.5C 154.5,158.167 154.167,158.5 153.5,158.5C 138.428,164.799 130.761,159.799 130.5,143.5C 132.433,146.753 133.933,150.419 135,154.5C 136.167,155.667 137.333,156.833 138.5,158C 150,159.833 154.833,155 153,143.5C 152.258,148.151 150.092,151.984 146.5,155C 138,155.833 134.167,152 135,143.5C 135.375,146 136.208,148.333 137.5,150.5C 146.926,154.316 151.26,151.316 150.5,141.5 Z"/></g>
<g><path style="opacity:1" fill="#717171" d="M 177.5,149.5 C 180.051,151.578 181.884,154.244 183,157.5C 184.68,163.22 186.513,168.887 188.5,174.5C 190.743,175.474 193.076,175.808 195.5,175.5C 195.489,177.017 194.823,178.184 193.5,179C 191.231,179.758 189.064,179.591 187,178.5C 185.602,172.32 183.769,166.32 181.5,160.5C 179.881,156.931 178.548,153.264 177.5,149.5 Z"/></g>
<g><path style="opacity:0.012" fill="#3e3e3e" d="M 241.5,164.5 C 242.634,166.966 242.801,169.633 242,172.5C 241.503,169.854 241.336,167.187 241.5,164.5 Z"/></g>
<g><path style="opacity:0.008" fill="#1f1f1f" d="M 43.5,168.5 C 43.5,169.167 43.5,169.833 43.5,170.5C 42.1667,169.833 42.1667,169.167 43.5,168.5 Z"/></g>
<g><path style="opacity:1" fill="#a8904c" d="M 44.5,164.5 C 46.9755,167.666 50.1421,169.999 54,171.5C 56.5915,170.168 59.0915,169.001 61.5,168C 59.695,170.403 57.3616,172.07 54.5,173C 57.2154,173.878 59.5487,175.378 61.5,177.5C 65.4416,175.062 68.9416,172.062 72,168.5C 71.4535,171.093 69.9535,173.26 67.5,175C 70.8284,174.377 73.8284,172.877 76.5,170.5C 72.8532,179.157 66.5198,182.157 57.5,179.5C 60.474,191.704 62.8074,204.037 64.5,216.5C 64.1667,216.5 63.8333,216.5 63.5,216.5C 63.1667,212.5 62.8333,212.5 62.5,216.5C 61.5489,215.081 61.2155,213.415 61.5,211.5C 62.8333,210.5 62.8333,209.5 61.5,208.5C 61.7678,206.901 61.4345,205.568 60.5,204.5C 60.1667,200.5 59.8333,200.5 59.5,204.5C 58.5489,203.081 58.2155,201.415 58.5,199.5C 59.8333,198.167 59.8333,196.833 58.5,195.5C 58.1667,191.5 57.8333,191.5 57.5,195.5C 56.5655,194.432 56.2322,193.099 56.5,191.5C 57.8333,190.167 57.8333,188.833 56.5,187.5C 56.7678,185.901 56.4345,184.568 55.5,183.5C 55.7373,182.209 55.404,181.209 54.5,180.5C 53.7375,179.732 52.7375,179.232 51.5,179C 53.3427,178.841 54.0093,178.341 53.5,177.5C 51.5389,175.037 49.3722,172.703 47,170.5C 45.878,168.593 45.0447,166.593 44.5,164.5 Z"/></g>
<g><path style="opacity:1" fill="#f5c462" d="M 81.5,156.5 C 81.4009,161.802 79.7342,166.469 76.5,170.5C 73.8284,172.877 70.8284,174.377 67.5,175C 69.9535,173.26 71.4535,171.093 72,168.5C 68.9416,172.062 65.4416,175.062 61.5,177.5C 59.5487,175.378 57.2154,173.878 54.5,173C 57.3616,172.07 59.695,170.403 61.5,168C 59.0915,169.001 56.5915,170.168 54,171.5C 50.1421,169.999 46.9755,167.666 44.5,164.5C 44.0899,158.379 44.5899,152.379 46,146.5C 46.7914,147.745 47.2914,149.078 47.5,150.5C 46.66,163.43 51.4934,165.763 62,157.5C 64.4291,151.63 63.9291,146.13 60.5,141C 57.1667,140.667 53.8333,140.333 50.5,140C 49.2899,138.961 48.2899,137.794 47.5,136.5C 50.1667,133.167 53.1667,130.167 56.5,127.5C 58.1368,126.782 59.8034,126.616 61.5,127C 63.3063,128.806 65.1396,130.64 67,132.5C 66.7782,130.544 65.9448,128.71 64.5,127C 68.4123,126.069 71.9123,126.903 75,129.5C 76.4158,135.573 77.2492,141.739 77.5,148C 76.9848,153.216 76.4848,158.383 76,163.5C 76.8624,161.913 77.5291,160.246 78,158.5C 78.9883,148.724 78.4883,139.058 76.5,129.5C 76.8457,128.304 77.3457,128.304 78,129.5C 79.8461,132.569 80.8461,135.902 81,139.5C 81.4994,145.157 81.6661,150.824 81.5,156.5 Z"/></g>
<g><path style="opacity:1" fill="#867656" d="M 68.5,134.5 C 69.5585,135.6 70.3918,136.934 71,138.5C 72.7171,147.259 71.0504,155.259 66,162.5C 68.169,157.136 69.669,151.469 70.5,145.5C 69.9891,141.793 69.3224,138.126 68.5,134.5 Z"/></g>
<g><path style="opacity:0.8" fill="#4b4643" d="M 47.5,150.5 C 47.2914,149.078 46.7914,147.745 46,146.5C 44.5899,152.379 44.0899,158.379 44.5,164.5C 45.0447,166.593 45.878,168.593 47,170.5C 49.3722,172.703 51.5389,175.037 53.5,177.5C 50.6277,176.474 48.1277,174.808 46,172.5C 44.3745,173.412 43.5412,172.745 43.5,170.5C 44.8333,169.833 44.8333,169.167 43.5,168.5C 42.601,161.003 42.2677,153.67 42.5,146.5C 42.1667,145.167 41.8333,145.167 41.5,146.5C 41.1667,146.5 40.8333,146.5 40.5,146.5C 41.1926,142.83 43.1926,141.83 46.5,143.5C 48.0091,145.902 48.3424,148.235 47.5,150.5 Z"/></g>
<g><path style="opacity:0.012" fill="#d4d340" d="M 54.5,180.5 C 54.5,181.5 54.5,182.5 54.5,183.5C 53.1667,182.5 53.1667,181.5 54.5,180.5 Z"/></g>
<g><path style="opacity:0.008" fill="#7b8728" d="M 54.5,183.5 C 54.8333,183.5 55.1667,183.5 55.5,183.5C 55.5,184.833 55.5,186.167 55.5,187.5C 54.5655,186.432 54.2322,185.099 54.5,183.5 Z"/></g>
<g><path style="opacity:1" fill="#545d5a" d="M 220.5,189.5 C 220.808,187.076 220.474,184.743 219.5,182.5C 213.212,185.98 206.546,188.313 199.5,189.5C 206.527,186.827 213.527,183.827 220.5,180.5C 221.803,183.645 221.803,186.645 220.5,189.5 Z"/></g>
<g><path style="opacity:0.016" fill="#88875e" d="M 55.5,187.5 C 55.8333,187.5 56.1667,187.5 56.5,187.5C 56.5,188.833 56.5,190.167 56.5,191.5C 55.5655,190.432 55.2322,189.099 55.5,187.5 Z"/></g>
<g><path style="opacity:0.012" fill="#686552" d="M 243.5,196.5 C 243.334,192.486 243.501,188.486 244,184.5C 244.812,188.689 244.645,192.689 243.5,196.5 Z"/></g>
<g><path style="opacity:0.012" fill="#c2c241" d="M 57.5,195.5 C 57.8333,195.5 58.1667,195.5 58.5,195.5C 58.5,196.833 58.5,198.167 58.5,199.5C 57.5655,198.432 57.2322,197.099 57.5,195.5 Z"/></g>
<g><path style="opacity:1" fill="#4d5250" d="M 190.5,192.5 C 190.082,193.222 189.416,193.722 188.5,194C 172.032,197.638 155.366,199.305 138.5,199C 136.771,200.789 136.104,202.956 136.5,205.5C 135.021,202.857 135.354,200.357 137.5,198C 155.339,197.728 173.005,195.895 190.5,192.5 Z"/></g>
<g><path style="opacity:0.008" fill="#7e7f7e" d="M 242.5,196.5 C 242.833,196.5 243.167,196.5 243.5,196.5C 243.315,197.17 242.981,197.17 242.5,196.5 Z"/></g>
<g><path style="opacity:0.012" fill="#545554" d="M 241.5,197.5 C 241.833,197.5 242.167,197.5 242.5,197.5C 242.315,198.17 241.981,198.17 241.5,197.5 Z"/></g>
<g><path style="opacity:1" fill="#a4e4f3" d="M 220.5,189.5 C 220.5,189.833 220.5,190.167 220.5,190.5C 217.938,193.223 214.938,195.389 211.5,197C 199.869,199.985 188.202,202.985 176.5,206C 177.167,206.333 177.833,206.667 178.5,207C 175.052,207.859 171.552,208.359 168,208.5C 158.137,208.074 148.304,207.741 138.5,207.5C 137.5,207.167 136.833,206.5 136.5,205.5C 136.104,202.956 136.771,200.789 138.5,199C 155.366,199.305 172.032,197.638 188.5,194C 189.416,193.722 190.082,193.222 190.5,192.5C 193.084,190.528 196.084,189.528 199.5,189.5C 206.546,188.313 213.212,185.98 219.5,182.5C 220.474,184.743 220.808,187.076 220.5,189.5 Z"/></g>
<g><path style="opacity:0.016" fill="#3e3f3e" d="M 240.5,198.5 C 240.833,198.5 241.167,198.5 241.5,198.5C 241.315,199.17 240.981,199.17 240.5,198.5 Z"/></g>
<g><path style="opacity:0.016" fill="#3e3f3e" d="M 239.5,199.5 C 239.833,199.5 240.167,199.5 240.5,199.5C 240.315,200.17 239.981,200.17 239.5,199.5 Z"/></g>
<g><path style="opacity:0.016" fill="#3e3f3e" d="M 238.5,200.5 C 238.833,200.5 239.167,200.5 239.5,200.5C 239.315,201.17 238.981,201.17 238.5,200.5 Z"/></g>
<g><path style="opacity:0.016" fill="#3e3f3e" d="M 237.5,201.5 C 237.833,201.5 238.167,201.5 238.5,201.5C 238.315,202.17 237.981,202.17 237.5,201.5 Z"/></g>
<g><path style="opacity:0.012" fill="#545554" d="M 236.5,202.5 C 236.833,202.5 237.167,202.5 237.5,202.5C 237.315,203.17 236.981,203.17 236.5,202.5 Z"/></g>
<g><path style="opacity:0.997" fill="#709da6" d="M 220.5,190.5 C 219.797,192.716 218.464,194.549 216.5,196C 192.865,207.617 167.865,212.284 141.5,210C 140.058,209.623 139.058,208.79 138.5,207.5C 148.304,207.741 158.137,208.074 168,208.5C 171.552,208.359 175.052,207.859 178.5,207C 177.833,206.667 177.167,206.333 176.5,206C 188.202,202.985 199.869,199.985 211.5,197C 214.938,195.389 217.938,193.223 220.5,190.5 Z"/></g>
<g><path style="opacity:0.008" fill="#6a8550" d="M 59.5,204.5 C 59.8333,204.5 60.1667,204.5 60.5,204.5C 60.5,205.833 60.5,207.167 60.5,208.5C 59.5655,207.432 59.2322,206.099 59.5,204.5 Z"/></g>
<g><path style="opacity:0.016" fill="#3e3f3e" d="M 232.5,205.5 C 232.833,205.5 233.167,205.5 233.5,205.5C 233.315,206.17 232.981,206.17 232.5,205.5 Z"/></g>
<g><path style="opacity:0.008" fill="#7e7f7e" d="M 231.5,206.5 C 231.833,206.5 232.167,206.5 232.5,206.5C 232.315,207.17 231.981,207.17 231.5,206.5 Z"/></g>
<g><path style="opacity:0.004" fill="#576755" d="M 229.5,207.5 C 230.167,207.5 230.833,207.5 231.5,207.5C 231.027,208.906 230.027,209.573 228.5,209.5C 228.5,209.167 228.5,208.833 228.5,208.5C 229.167,208.5 229.5,208.167 229.5,207.5 Z"/></g>
<g><path style="opacity:0.016" fill="#876828" d="M 60.5,208.5 C 60.8333,208.5 61.1667,208.5 61.5,208.5C 61.5,209.5 61.5,210.5 61.5,211.5C 60.596,210.791 60.2627,209.791 60.5,208.5 Z"/></g>
<g><path style="opacity:0.016" fill="#3e3f3e" d="M 227.5,209.5 C 227.833,209.5 228.167,209.5 228.5,209.5C 228.315,210.17 227.981,210.17 227.5,209.5 Z"/></g>
<g><path style="opacity:0.012" fill="#a9aa54" d="M 226.5,210.5 C 226.833,210.5 227.167,210.5 227.5,210.5C 227.315,211.17 226.981,211.17 226.5,210.5 Z"/></g>
<g><path style="opacity:0.004" fill="#bfd250" d="M 224.5,212.5 C 224.5,212.167 224.5,211.833 224.5,211.5C 225.167,211.5 225.833,211.5 226.5,211.5C 226.158,212.338 225.492,212.672 224.5,212.5 Z"/></g>
<g><path style="opacity:0.016" fill="#7e7f3e" d="M 223.5,212.5 C 223.833,212.5 224.167,212.5 224.5,212.5C 224.315,213.17 223.981,213.17 223.5,212.5 Z"/></g>
<g><path style="opacity:0.008" fill="#54530d" d="M 218.5,216.5 C 218.5,216.167 218.5,215.833 218.5,215.5C 219.167,215.5 219.833,215.5 220.5,215.5C 220.158,216.338 219.492,216.672 218.5,216.5 Z"/></g>
<g><path style="opacity:0.012" fill="#a9aa54" d="M 217.5,216.5 C 217.833,216.5 218.167,216.5 218.5,216.5C 218.315,217.17 217.981,217.17 217.5,216.5 Z"/></g>
<g><path style="opacity:0.995" fill="#64624d" d="M 226.5,205.5 C 227.209,206.404 228.209,206.737 229.5,206.5C 229.5,206.833 229.5,207.167 229.5,207.5C 228.833,207.5 228.5,207.833 228.5,208.5C 227.833,208.5 227.5,208.833 227.5,209.5C 226.833,209.5 226.5,209.833 226.5,210.5C 225.508,210.328 224.842,210.662 224.5,211.5C 223.833,211.5 223.5,211.833 223.5,212.5C 222.167,212.833 222.167,213.167 223.5,213.5C 223.027,214.906 222.027,215.573 220.5,215.5C 219.833,214.167 219.167,214.167 218.5,215.5C 217.833,215.5 217.5,215.833 217.5,216.5C 216.508,216.328 215.842,216.662 215.5,217.5C 214.508,217.328 213.842,217.662 213.5,218.5C 212.508,218.328 211.842,218.662 211.5,219.5C 210.209,219.263 209.209,219.596 208.5,220.5C 207.209,220.263 206.209,220.596 205.5,221.5C 203.901,221.232 202.568,221.566 201.5,222.5C 200.5,222.5 199.5,222.5 198.5,222.5C 190.815,223.562 183.149,224.729 175.5,226C 162.991,226.542 150.658,227.375 138.5,228.5C 137.508,228.328 136.842,228.662 136.5,229.5C 123.236,228.597 109.903,227.93 96.5,227.5C 86.5855,226.272 76.9188,223.938 67.5,220.5C 82.1067,222.492 96.7734,223.992 111.5,225C 140.147,227.096 168.481,225.096 196.5,219C 207.448,216.355 217.448,211.855 226.5,205.5 Z"/></g>
<g><path style="opacity:0.004" fill="#373720" d="M 215.5,218.5 C 215.5,218.167 215.5,217.833 215.5,217.5C 216.167,217.5 216.833,217.5 217.5,217.5C 217.158,218.338 216.492,218.672 215.5,218.5 Z"/></g>
<g><path style="opacity:0.004" fill="#e2e135" d="M 213.5,219.5 C 213.5,219.167 213.5,218.833 213.5,218.5C 214.167,218.5 214.833,218.5 215.5,218.5C 215.158,219.338 214.492,219.672 213.5,219.5 Z"/></g>
<g><path style="opacity:0.004" fill="#e2e135" d="M 211.5,220.5 C 211.5,220.167 211.5,219.833 211.5,219.5C 212.167,219.5 212.833,219.5 213.5,219.5C 213.158,220.338 212.492,220.672 211.5,220.5 Z"/></g>
<g><path style="opacity:0.012" fill="#4c4932" d="M 208.5,221.5 C 208.5,221.167 208.5,220.833 208.5,220.5C 209.5,220.5 210.5,220.5 211.5,220.5C 210.791,221.404 209.791,221.737 208.5,221.5 Z"/></g>
<g><path style="opacity:0.012" fill="#8a8961" d="M 205.5,222.5 C 205.5,222.167 205.5,221.833 205.5,221.5C 206.5,221.5 207.5,221.5 208.5,221.5C 207.791,222.404 206.791,222.737 205.5,222.5 Z"/></g>
<g><path style="opacity:0.016" fill="#a09f36" d="M 201.5,223.5 C 201.5,223.167 201.5,222.833 201.5,222.5C 202.833,222.5 204.167,222.5 205.5,222.5C 204.432,223.434 203.099,223.768 201.5,223.5 Z"/></g>
<g><path style="opacity:0.016" fill="#839e2d" d="M 198.5,224.5 C 198.5,224.167 198.5,223.833 198.5,223.5C 199.5,223.5 200.5,223.5 201.5,223.5C 200.791,224.404 199.791,224.737 198.5,224.5 Z"/></g>
<g><path style="opacity:0.008" fill="#68670d" d="M 195.5,225.5 C 195.5,225.167 195.5,224.833 195.5,224.5C 196.5,224.5 197.5,224.5 198.5,224.5C 197.791,225.404 196.791,225.737 195.5,225.5 Z"/></g>
<g><path style="opacity:0.008" fill="#6b6a2c" d="M 190.5,226.5 C 190.5,226.167 190.5,225.833 190.5,225.5C 192.167,225.5 193.833,225.5 195.5,225.5C 194.081,226.451 192.415,226.784 190.5,226.5 Z"/></g>
<g><path style="opacity:0.012" fill="#b9b83a" d="M 185.5,227.5 C 185.5,227.167 185.5,226.833 185.5,226.5C 187.167,226.5 188.833,226.5 190.5,226.5C 189.081,227.451 187.415,227.784 185.5,227.5 Z"/></g>
<g><path style="opacity:0.016" fill="#8c8a3f" d="M 96.5,227.5 C 96.5,227.833 96.5,228.167 96.5,228.5C 85.8333,228.167 85.8333,227.833 96.5,227.5 Z"/></g>
<g><path style="opacity:0.667" fill="#9b9837" d="M 198.5,222.5 C 198.5,222.833 198.5,223.167 198.5,223.5C 197.209,223.263 196.209,223.596 195.5,224.5C 193.585,224.216 191.919,224.549 190.5,225.5C 188.585,225.216 186.919,225.549 185.5,226.5C 182.941,226.198 180.607,226.532 178.5,227.5C 165.177,228.179 151.844,228.512 138.5,228.5C 150.658,227.375 162.991,226.542 175.5,226C 183.149,224.729 190.815,223.562 198.5,222.5 Z"/></g>
<g><path style="opacity:0.012" fill="#818021" d="M 178.5,228.5 C 178.5,228.167 178.5,227.833 178.5,227.5C 180.833,227.5 183.167,227.5 185.5,227.5C 183.393,228.468 181.059,228.802 178.5,228.5 Z"/></g>
<g><path style="opacity:0.016" fill="#75743e" d="M 96.5,228.5 C 100.042,228.187 103.375,228.521 106.5,229.5C 102.958,229.813 99.6248,229.479 96.5,228.5 Z"/></g>
<g><path style="opacity:0.016" fill="#6f6e39" d="M 178.5,228.5 C 174.689,229.645 170.689,229.812 166.5,229C 170.486,228.501 174.486,228.334 178.5,228.5 Z"/></g>
<g><path style="opacity:0.016" fill="#7f7d3f" d="M 106.5,229.5 C 115.173,229.334 123.84,229.5 132.5,230C 123.657,230.824 114.99,230.657 106.5,229.5 Z"/></g>
<g><path style="opacity:0.008" fill="#605d46" d="M 136.5,230.5 C 136.5,230.167 136.5,229.833 136.5,229.5C 140.5,229.833 140.5,230.167 136.5,230.5 Z"/></g>
<g><path style="opacity:0.016" fill="#837e39" d="M 140.5,230.5 C 148.656,229.343 156.99,229.177 165.5,230C 157.173,230.5 148.84,230.666 140.5,230.5 Z"/></g>
<g><path style="opacity:0.004" fill="#000000" d="M 136.5,230.5 C 135.833,231.167 135.833,231.167 136.5,230.5 Z"/></g>
</svg>
