<?xml version="1.0" encoding="UTF-8"?>
<!DOCTYPE svg PUBLIC "-//W3C//DTD SVG 1.1//EN" "http://www.w3.org/Graphics/SVG/1.1/DTD/svg11.dtd">
<svg xmlns="http://www.w3.org/2000/svg" version="1.1" width="300px" height="300px" style="shape-rendering:geometricPrecision; text-rendering:geometricPrecision; image-rendering:optimizeQuality; fill-rule:evenodd; clip-rule:evenodd" xmlns:xlink="http://www.w3.org/1999/xlink">
<g><path style="opacity:0.004" fill="#000000" d="M 125.5,30.5 C 126.833,31.1667 126.833,31.1667 125.5,30.5 Z"/></g>
<g><path style="opacity:0.004" fill="#000000" d="M 136.5,32.5 C 136.897,31.475 137.563,31.3083 138.5,32C 137.906,32.4643 137.239,32.631 136.5,32.5 Z"/></g>
<g><path style="opacity:0.004" fill="#000000" d="M 141.5,33.5 C 140.761,33.631 140.094,33.4643 139.5,33C 140.437,32.3083 141.103,32.475 141.5,33.5 Z"/></g>
<g><path style="opacity:0.004" fill="#000000" d="M 141.5,33.5 C 142.833,34.1667 142.833,34.1667 141.5,33.5 Z"/></g>
<g><path style="opacity:0.004" fill="#000000" d="M 156.5,35.5 C 155.761,35.631 155.094,35.4643 154.5,35C 155.437,34.3083 156.103,34.475 156.5,35.5 Z"/></g>
<g><path style="opacity:0.004" fill="#000000" d="M 151.5,36.5 C 151.897,35.475 152.563,35.3083 153.5,36C 152.906,36.4643 152.239,36.631 151.5,36.5 Z"/></g>
<g><path style="opacity:0.004" fill="#000000" d="M 156.5,36.5 C 156.5,36.1667 156.5,35.8333 156.5,35.5C 159.167,35.8333 159.167,36.1667 156.5,36.5 Z"/></g>
<g><path style="opacity:0.004" fill="#492518" d="M 116.5,44.5 C 116.389,43.8826 116.056,43.3826 115.5,43C 116.288,39.9243 116.788,36.7577 117,33.5C 117.81,37.3575 117.643,41.0242 116.5,44.5 Z"/></g>
<g><path style="opacity:0.004" fill="#000000" d="M 161.5,40.5 C 160.833,39.1667 160.833,39.1667 161.5,40.5 Z"/></g>
<g><path style="opacity:0.004" fill="#000000" d="M 161.5,40.5 C 162.629,42.6282 162.796,44.9615 162,47.5C 161.503,45.1902 161.337,42.8568 161.5,40.5 Z"/></g>
<g><path style="opacity:0.004" fill="#000000" d="M 111.5,43.5 C 112.251,42.4265 113.251,42.2599 114.5,43C 113.552,43.4828 112.552,43.6495 111.5,43.5 Z"/></g>
<g><path style="opacity:0.998" fill="#6e6054" d="M 122.5,57.5 C 122.297,59.3904 122.963,60.8904 124.5,62C 124.167,62.1667 123.833,62.3333 123.5,62.5C 120.455,59.7823 117.455,57.1156 114.5,54.5C 112.984,52.8143 111.65,50.981 110.5,49C 110.645,48.228 110.978,47.5613 111.5,47C 113.167,46.3333 114.833,46.3333 116.5,47C 118.728,50.3884 120.728,53.8884 122.5,57.5 Z"/></g>
<g><path style="opacity:0.004" fill="#a39f87" d="M 104.5,49.5 C 101.813,49.6641 99.146,49.4974 96.5,49C 99.367,48.1993 102.034,48.3659 104.5,49.5 Z"/></g>
<g><path style="opacity:0.004" fill="#a6a151" d="M 107.5,50.5 C 106.5,50.5 105.5,50.5 104.5,50.5C 104.5,50.1667 104.5,49.8333 104.5,49.5C 105.496,49.5858 106.329,49.2524 107,48.5C 107.464,49.0944 107.631,49.7611 107.5,50.5 Z"/></g>
<g><path style="opacity:0.004" fill="#000000" d="M 157.5,50.5 C 157.897,49.475 158.563,49.3083 159.5,50C 158.906,50.4643 158.239,50.631 157.5,50.5 Z"/></g>
<g><path style="opacity:0.275" fill="#231413" d="M 104.5,50.5 C 104.5,50.8333 104.5,51.1667 104.5,51.5C 102.143,51.3367 99.8098,51.5034 97.5,52C 96.6198,53.3561 96.2865,54.8561 96.5,56.5C 96.1667,56.5 95.8333,56.5 95.5,56.5C 95.2606,54.5328 95.5939,52.6995 96.5,51C 99.146,50.5026 101.813,50.3359 104.5,50.5 Z"/></g>
<g><path style="opacity:0.004" fill="#000000" d="M 155.5,51.5 C 155.5,51.1667 155.5,50.8333 155.5,50.5C 156.167,50.5 156.833,50.5 157.5,50.5C 157.158,51.3382 156.492,51.6716 155.5,51.5 Z"/></g>
<g><path style="opacity:0.004" fill="#a41a0a" d="M 93.5,51.5 C 94.525,51.8966 94.6917,52.5632 94,53.5C 93.5357,52.9056 93.369,52.2389 93.5,51.5 Z"/></g>
<g><path style="opacity:1" fill="#b9ad99" d="M 104.5,51.5 C 106.509,53.0652 108.843,54.0652 111.5,54.5C 111.5,55.1667 111.833,55.5 112.5,55.5C 123.442,62.4557 131.109,72.1224 135.5,84.5C 134.271,85.2811 132.938,85.7811 131.5,86C 136.996,85.8845 142.329,85.2178 147.5,84C 144.584,87.1993 140.917,88.8659 136.5,89C 131.61,89.9656 126.943,89.4656 122.5,87.5C 124.242,86.0427 126.242,84.876 128.5,84C 122.102,69.9535 111.435,60.7869 96.5,56.5C 96.2865,54.8561 96.6198,53.3561 97.5,52C 99.8098,51.5034 102.143,51.3367 104.5,51.5 Z"/></g>
<g><path style="opacity:0.282" fill="#2f1d1a" d="M 104.5,51.5 C 105.5,51.5 106.5,51.5 107.5,51.5C 108.209,52.404 109.209,52.7373 110.5,52.5C 110.5,53.1667 110.833,53.5 111.5,53.5C 111.5,53.8333 111.5,54.1667 111.5,54.5C 108.843,54.0652 106.509,53.0652 104.5,51.5 Z"/></g>
<g><path style="opacity:0.004" fill="#ff7a59" d="M 94.5,56.5 C 93.475,56.1034 93.3083,55.4368 94,54.5C 94.4643,55.0944 94.631,55.7611 94.5,56.5 Z"/></g>
<g><path style="opacity:0.004" fill="#000000" d="M 94.5,56.5 C 94.8333,56.5 95.1667,56.5 95.5,56.5C 95.3147,57.1701 94.9813,57.1701 94.5,56.5 Z"/></g>
<g><path style="opacity:0.004" fill="#3c3b14" d="M 148.5,59.5 C 148.833,59.5 149.167,59.5 149.5,59.5C 149.737,60.791 149.404,61.791 148.5,62.5C 148.5,61.5 148.5,60.5 148.5,59.5 Z"/></g>
<g><path style="opacity:0.004" fill="#000000" d="M 147.5,62.5 C 147.833,62.5 148.167,62.5 148.5,62.5C 148.167,65.1667 147.833,65.1667 147.5,62.5 Z"/></g>
<g><path style="opacity:0.004" fill="#000000" d="M 146.5,65.5 C 147.833,66.5 147.833,67.5 146.5,68.5C 146.5,67.5 146.5,66.5 146.5,65.5 Z"/></g>
<g><path style="opacity:0.004" fill="#000000" d="M 165.5,67.5 C 172.655,66.3448 179.988,66.1782 187.5,67C 180.174,67.4997 172.841,67.6663 165.5,67.5 Z"/></g>
<g><path style="opacity:0.004" fill="#000000" d="M 156.5,68.5 C 158.628,67.3709 160.961,67.2042 163.5,68C 161.19,68.4966 158.857,68.6633 156.5,68.5 Z"/></g>
<g><path style="opacity:0.004" fill="#000000" d="M 188.5,68.5 C 189.946,67.3871 191.613,67.2204 193.5,68C 191.866,68.4935 190.199,68.6602 188.5,68.5 Z"/></g>
<g><path style="opacity:0.004" fill="#000000" d="M 194.5,69.5 C 195.251,68.4265 196.251,68.2599 197.5,69C 196.552,69.4828 195.552,69.6495 194.5,69.5 Z"/></g>
<g><path style="opacity:0.004" fill="#000000" d="M 205.5,72.5 C 206.833,73.1667 206.833,73.1667 205.5,72.5 Z"/></g>
<g><path style="opacity:0.004" fill="#000000" d="M 207.5,73.5 C 208.833,74.1667 208.833,74.1667 207.5,73.5 Z"/></g>
<g><path style="opacity:0.996" fill="#321716" d="M 125.5,31.5 C 126.391,32.2613 127.058,33.2613 127.5,34.5C 128.008,38.923 128.841,43.2563 130,47.5C 130.49,45.4546 130.323,43.4546 129.5,41.5C 129.833,41.5 130.167,41.5 130.5,41.5C 131.206,42.5573 131.539,42.2239 131.5,40.5C 132.338,40.1583 132.672,39.4916 132.5,38.5C 133.167,38.5 133.5,38.1667 133.5,37.5C 134.451,35.882 135.784,34.5487 137.5,33.5C 138.736,34.2458 140.07,34.5792 141.5,34.5C 141.833,35.5 142.5,36.1667 143.5,36.5C 143.326,38.861 142.993,41.1944 142.5,43.5C 141.167,44.1667 141.167,44.8333 142.5,45.5C 142.5,46.1667 142.5,46.8333 142.5,47.5C 143.338,47.1583 143.672,46.4916 143.5,45.5C 144.167,45.5 144.5,45.1667 144.5,44.5C 145.338,44.1583 145.672,43.4916 145.5,42.5C 148.424,39.2033 152.091,37.2033 156.5,36.5C 157.833,37.8333 159.167,39.1667 160.5,40.5C 160.663,42.8568 160.497,45.1902 160,47.5C 158.122,48.0527 156.622,49.0527 155.5,50.5C 152.833,50.8333 152.833,51.1667 155.5,51.5C 153.084,53.9078 151.084,56.5744 149.5,59.5C 149.167,56.8333 148.833,56.8333 148.5,59.5C 147.596,60.209 147.263,61.209 147.5,62.5C 146.596,63.209 146.263,64.209 146.5,65.5C 145.167,66.5 145.167,67.5 146.5,68.5C 147.609,69.29 148.942,69.79 150.5,70C 148.122,70.5112 145.788,71.1779 143.5,72C 144.167,72.1667 144.833,72.3333 145.5,72.5C 165.654,66.8544 185.654,67.1878 205.5,73.5C 211.914,77.5628 215.914,83.2295 217.5,90.5C 224.69,123.996 229.69,157.829 232.5,192C 231.992,193.893 230.992,195.393 229.5,196.5C 227.973,196.427 226.973,197.094 226.5,198.5C 225.508,198.328 224.842,198.662 224.5,199.5C 223.508,199.328 222.842,199.662 222.5,200.5C 220.447,200.402 218.78,201.069 217.5,202.5C 216.508,202.328 215.842,202.662 215.5,203.5C 214.209,203.263 213.209,203.596 212.5,204.5C 211.508,204.328 210.842,204.662 210.5,205.5C 209.209,205.263 208.209,205.596 207.5,206.5C 206.508,206.328 205.842,206.662 205.5,207.5C 204.209,207.263 203.209,207.596 202.5,208.5C 201.209,208.263 200.209,208.596 199.5,209.5C 198.209,209.263 197.209,209.596 196.5,210.5C 195.209,210.263 194.209,210.596 193.5,211.5C 192.209,211.263 191.209,211.596 190.5,212.5C 184.906,213.232 179.573,214.565 174.5,216.5C 166.5,216.833 166.5,217.167 174.5,217.5C 173.791,218.404 172.791,218.737 171.5,218.5C 170.502,222.328 170.502,225.994 171.5,229.5C 171.194,232.385 171.527,235.052 172.5,237.5C 172.185,241.371 172.518,245.038 173.5,248.5C 173.334,254.509 173.501,260.509 174,266.5C 174.333,260.833 174.667,255.167 175,249.5C 175.167,252.5 175.333,255.5 175.5,258.5C 175.446,261.939 174.78,265.106 173.5,268C 174.967,269.098 175.801,270.598 176,272.5C 176.333,271.5 176.667,270.5 177,269.5C 177.783,271.433 177.283,272.933 175.5,274C 179.346,275.536 183.346,276.369 187.5,276.5C 191.903,277.704 195.737,280.037 199,283.5C 200.131,282.396 200.965,282.729 201.5,284.5C 201.291,285.086 200.957,285.586 200.5,286C 201.471,287.204 202.471,287.704 203.5,287.5C 202.316,289.467 202.649,291.134 204.5,292.5C 204.216,294.415 204.549,296.081 205.5,297.5C 205.5,298.167 205.5,298.833 205.5,299.5C 204.5,299.5 203.5,299.5 202.5,299.5C 201.602,291.535 197.602,285.702 190.5,282C 186.059,281.154 181.726,279.987 177.5,278.5C 176.548,279.533 176.548,280.7 177.5,282C 175.625,284.045 173.625,285.878 171.5,287.5C 164.291,289.409 156.958,289.909 149.5,289C 144.799,287.472 142.132,284.305 141.5,279.5C 129.167,280.499 122.501,287.166 121.5,299.5C 120.833,299.5 120.167,299.5 119.5,299.5C 119.5,296.833 119.5,294.167 119.5,291.5C 120.404,290.791 120.737,289.791 120.5,288.5C 122.268,286.492 123.934,284.326 125.5,282C 130.022,279.335 134.689,277.169 139.5,275.5C 140.45,271.699 142.784,268.866 146.5,267C 144.543,264.879 144.043,262.379 145,259.5C 145.667,267.5 146.333,267.5 147,259.5C 147.968,247.055 147.301,234.722 145,222.5C 144.193,226.449 143.693,226.449 143.5,222.5C 138.156,222.666 132.823,222.499 127.5,222C 133.5,221.667 139.5,221.333 145.5,221C 136.826,220.537 128.159,220.037 119.5,219.5C 117.351,218.264 115.018,217.264 112.5,216.5C 109.019,212.379 106.685,207.712 105.5,202.5C 105.59,199.848 104.924,197.515 103.5,195.5C 103.59,192.848 102.924,190.515 101.5,188.5C 101.59,185.848 100.924,183.515 99.5,181.5C 99.5905,178.848 98.9238,176.515 97.5,174.5C 95.3486,164.909 93.5152,155.242 92,145.5C 89.7848,130.912 91.9515,117.079 98.5,104C 97.5768,101.952 98.0768,100.119 100,98.5C 100.333,99.1667 100.667,99.8333 101,100.5C 105.686,92.2302 113.186,85.7302 123.5,81C 121.9,79.392 120.567,77.5586 119.5,75.5C 119.709,74.914 120.043,74.414 120.5,74C 113.638,66.422 105.638,60.5886 96.5,56.5C 111.435,60.7869 122.102,69.9535 128.5,84C 126.242,84.876 124.242,86.0427 122.5,87.5C 121.778,87.0825 121.278,86.4158 121,85.5C 120.601,85.7284 120.435,86.0618 120.5,86.5C 99.2477,100.354 90.4144,120.021 94,145.5C 97.3641,165.219 102.197,184.553 108.5,203.5C 108.348,207.883 110.015,211.383 113.5,214C 118.246,216.27 123.246,217.437 128.5,217.5C 129.167,210.833 129.833,210.833 130.5,217.5C 151.179,217.986 171.179,214.986 190.5,208.5C 204.494,205.419 217.327,199.752 229,191.5C 227.037,156.792 222.37,122.459 215,88.5C 213.951,86.3825 212.451,84.7158 210.5,83.5C 203.464,77.2017 195.131,73.7017 185.5,73C 171.273,71.7263 157.273,72.893 143.5,76.5C 142.549,75.0813 142.216,73.4147 142.5,71.5C 144.153,62.6986 147.82,54.8653 153.5,48C 155.025,46.9914 156.692,46.4914 158.5,46.5C 159.427,42.5546 158.094,39.8879 154.5,38.5C 147.192,43.4222 142.025,50.0888 139,58.5C 137.316,62.7155 136.149,67.0488 135.5,71.5C 134.624,71.6309 133.957,71.2975 133.5,70.5C 129.55,58.8084 126.884,46.8084 125.5,34.5C 121.519,32.4817 119.519,33.6483 119.5,38C 120.449,44.2895 121.782,50.4562 123.5,56.5C 123.5,57.1667 123.167,57.5 122.5,57.5C 120.728,53.8884 118.728,50.3884 116.5,47C 114.833,46.3333 113.167,46.3333 111.5,47C 110.978,47.5613 110.645,48.228 110.5,49C 111.65,50.981 112.984,52.8143 114.5,54.5C 114.158,55.3382 113.492,55.6716 112.5,55.5C 111.833,55.5 111.5,55.1667 111.5,54.5C 112.833,54.1667 112.833,53.8333 111.5,53.5C 110.833,53.5 110.5,53.1667 110.5,52.5C 109.791,51.596 108.791,51.2627 107.5,51.5C 107.5,51.1667 107.5,50.8333 107.5,50.5C 108.885,46.1202 111.885,44.1202 116.5,44.5C 117.14,46.332 118.14,46.6653 119.5,45.5C 118.4,41.5575 118.233,37.5575 119,33.5C 120.789,31.771 122.956,31.1043 125.5,31.5 Z M 142.5,47.5 C 140.846,51.373 140.346,51.0397 141,46.5C 141.383,47.056 141.883,47.3893 142.5,47.5 Z M 143.5,36.5 C 144.309,38.0276 144.976,39.6943 145.5,41.5C 144.222,41.7822 143.222,42.4489 142.5,43.5C 142.993,41.1944 143.326,38.861 143.5,36.5 Z"/></g>
<g><path style="opacity:1" fill="#a5a6a9" d="M 210.5,83.5 C 201.94,84.4819 193.94,87.3153 186.5,92C 180.758,97.6493 177.258,104.483 176,112.5C 175.179,125.201 175.512,137.868 177,150.5C 180.564,170.086 185.064,189.42 190.5,208.5C 171.179,214.986 151.179,217.986 130.5,217.5C 129.833,210.833 129.167,210.833 128.5,217.5C 123.246,217.437 118.246,216.27 113.5,214C 110.015,211.383 108.348,207.883 108.5,203.5C 110.163,201.507 111.33,199.174 112,196.5C 112.667,190.167 112.667,183.833 112,177.5C 109.937,165.917 106.937,154.583 103,143.5C 99.8238,123.87 105.657,107.536 120.5,94.5C 130.689,98.797 140.689,98.297 150.5,93C 153.533,85.2 150.866,81.3666 142.5,81.5C 142.366,79.7085 142.699,78.0418 143.5,76.5C 157.273,72.893 171.273,71.7263 185.5,73C 195.131,73.7017 203.464,77.2017 210.5,83.5 Z"/></g>
<g><path style="opacity:0.004" fill="#000000" d="M 156.5,68.5 C 155.054,69.6129 153.387,69.7796 151.5,69C 153.134,68.5065 154.801,68.3398 156.5,68.5 Z"/></g>
<g><path style="opacity:1" fill="#bdaf96" d="M 142.5,71.5 C 141.677,74.977 141.177,78.6437 141,82.5C 139.89,84.0368 138.39,84.7035 136.5,84.5C 136.483,82.4352 136.15,80.4352 135.5,78.5C 135.5,76.1667 135.5,73.8333 135.5,71.5C 136.149,67.0488 137.316,62.7155 139,58.5C 142.025,50.0888 147.192,43.4222 154.5,38.5C 158.094,39.8879 159.427,42.5546 158.5,46.5C 156.692,46.4914 155.025,46.9914 153.5,48C 147.82,54.8653 144.153,62.6986 142.5,71.5 Z"/></g>
<g><path style="opacity:0.006" fill="#000000" d="M 145.5,41.5 C 145.5,41.8333 145.5,42.1667 145.5,42.5C 144.662,42.8417 144.328,43.5084 144.5,44.5C 143.833,44.5 143.5,44.8333 143.5,45.5C 143.167,45.5 142.833,45.5 142.5,45.5C 142.5,44.8333 142.5,44.1667 142.5,43.5C 143.222,42.4489 144.222,41.7822 145.5,41.5 Z"/></g>
<g><path style="opacity:0.998" fill="#957e74" d="M 135.5,71.5 C 135.5,73.8333 135.5,76.1667 135.5,78.5C 133.529,74.5866 131.029,70.9199 128,67.5C 126.178,63.8426 124.678,60.1759 123.5,56.5C 121.782,50.4562 120.449,44.2895 119.5,38C 119.519,33.6483 121.519,32.4817 125.5,34.5C 126.884,46.8084 129.55,58.8084 133.5,70.5C 133.957,71.2975 134.624,71.6309 135.5,71.5 Z"/></g>
<g><path style="opacity:0.004" fill="#000000" d="M 131.5,38.5 C 131.5,39.1667 131.5,39.8333 131.5,40.5C 130.833,40.5 130.5,40.8333 130.5,41.5C 130.167,41.5 129.833,41.5 129.5,41.5C 129.34,39.8008 129.506,38.1341 130,36.5C 130.278,37.4158 130.778,38.0825 131.5,38.5 Z"/></g>
<g><path style="opacity:0.999" fill="#6e6054" d="M 136.5,35.5 C 139.261,34.9147 140.927,35.9147 141.5,38.5C 137.869,46.3897 136.036,54.7231 136,63.5C 135.333,64.8333 134.667,66.1667 134,67.5C 129.241,56.4395 130.074,45.7728 136.5,35.5 Z"/></g>
<g><path style="opacity:0.004" fill="#000000" d="M 133.5,37.5 C 132.833,37.5 132.5,37.8333 132.5,38.5C 132.167,38.5 131.833,38.5 131.5,38.5C 132.032,35.5404 132.699,35.2071 133.5,37.5 Z"/></g>
<g><path style="opacity:0.004" fill="#000000" d="M 128.5,33.5 C 129.833,34.1667 129.833,34.1667 128.5,33.5 Z"/></g>
<g><path style="opacity:1" fill="#503230" d="M 114.5,54.5 C 117.455,57.1156 120.455,59.7823 123.5,62.5C 123.833,62.3333 124.167,62.1667 124.5,62C 122.963,60.8904 122.297,59.3904 122.5,57.5C 123.167,57.5 123.5,57.1667 123.5,56.5C 124.678,60.1759 126.178,63.8426 128,67.5C 131.029,70.9199 133.529,74.5866 135.5,78.5C 136.15,80.4352 136.483,82.4352 136.5,84.5C 138.39,84.7035 139.89,84.0368 141,82.5C 141.177,78.6437 141.677,74.977 142.5,71.5C 142.216,73.4147 142.549,75.0813 143.5,76.5C 142.699,78.0418 142.366,79.7085 142.5,81.5C 150.866,81.3666 153.533,85.2 150.5,93C 140.689,98.297 130.689,98.797 120.5,94.5C 120.5,91.8333 120.5,89.1667 120.5,86.5C 120.435,86.0618 120.601,85.7284 121,85.5C 121.278,86.4158 121.778,87.0825 122.5,87.5C 126.943,89.4656 131.61,89.9656 136.5,89C 140.917,88.8659 144.584,87.1993 147.5,84C 142.329,85.2178 136.996,85.8845 131.5,86C 132.938,85.7811 134.271,85.2811 135.5,84.5C 131.109,72.1224 123.442,62.4557 112.5,55.5C 113.492,55.6716 114.158,55.3382 114.5,54.5 Z"/></g>
<g><path style="opacity:0.004" fill="#2d1105" d="M 218.5,90.5 C 218.167,90.5 217.833,90.5 217.5,90.5C 217.833,83.8333 218.167,83.8333 218.5,90.5 Z"/></g>
<g><path style="opacity:1" fill="#727274" d="M 210.5,83.5 C 212.451,84.7158 213.951,86.3825 215,88.5C 222.37,122.459 227.037,156.792 229,191.5C 217.327,199.752 204.494,205.419 190.5,208.5C 185.064,189.42 180.564,170.086 177,150.5C 175.512,137.868 175.179,125.201 176,112.5C 177.258,104.483 180.758,97.6493 186.5,92C 193.94,87.3153 201.94,84.4819 210.5,83.5 Z"/></g>
<g><path style="opacity:1" fill="#cfcfd0" d="M 120.5,86.5 C 120.5,89.1667 120.5,91.8333 120.5,94.5C 105.657,107.536 99.8238,123.87 103,143.5C 106.937,154.583 109.937,165.917 112,177.5C 112.667,183.833 112.667,190.167 112,196.5C 111.33,199.174 110.163,201.507 108.5,203.5C 102.197,184.553 97.3641,165.219 94,145.5C 90.4144,120.021 99.2477,100.354 120.5,86.5 Z"/></g>
<g><path style="opacity:0.004" fill="#000000" d="M 218.5,90.5 C 219.573,91.2506 219.74,92.2506 219,93.5C 218.517,92.552 218.351,91.552 218.5,90.5 Z"/></g>
<g><path style="opacity:1" fill="#979799" d="M 147.5,85.5 C 148.496,85.4142 149.329,85.7476 150,86.5C 150.494,88.1341 150.66,89.8008 150.5,91.5C 144.753,93.4714 138.919,95.138 133,96.5C 129.711,96.3858 126.544,95.7192 123.5,94.5C 122.352,92.5766 121.852,90.5766 122,88.5C 122.5,89 123,89.5 123.5,90C 131.017,91.0726 138.35,90.4059 145.5,88C 146.381,87.2917 147.047,86.4584 147.5,85.5 Z"/></g>
<g><path style="opacity:0.004" fill="#000000" d="M 220.5,97.5 C 219.427,96.7494 219.26,95.7494 220,94.5C 220.483,95.448 220.649,96.448 220.5,97.5 Z"/></g>
<g><path style="opacity:0.004" fill="#000000" d="M 220.5,97.5 C 221.598,98.6009 221.765,99.9343 221,101.5C 220.51,100.207 220.343,98.8734 220.5,97.5 Z"/></g>
<g><path style="opacity:0.004" fill="#000000" d="M 221.5,102.5 C 222.598,103.601 222.765,104.934 222,106.5C 221.51,105.207 221.343,103.873 221.5,102.5 Z"/></g>
<g><path style="opacity:0.004" fill="#000000" d="M 222.5,107.5 C 223.598,108.601 223.765,109.934 223,111.5C 222.51,110.207 222.343,108.873 222.5,107.5 Z"/></g>
<g><path style="opacity:0.004" fill="#000000" d="M 223.5,112.5 C 224.613,113.946 224.78,115.613 224,117.5C 223.506,115.866 223.34,114.199 223.5,112.5 Z"/></g>
<g><path style="opacity:0.004" fill="#000000" d="M 90.5,117.5 C 91.5983,118.601 91.765,119.934 91,121.5C 90.51,120.207 90.3433,118.873 90.5,117.5 Z"/></g>
<g><path style="opacity:0.004" fill="#000000" d="M 224.5,118.5 C 225.613,119.946 225.78,121.613 225,123.5C 224.506,121.866 224.34,120.199 224.5,118.5 Z"/></g>
<g><path style="opacity:0.004" fill="#000000" d="M 89.5,123.5 C 90.6552,130.655 90.8218,137.988 90,145.5C 89.5003,138.174 89.3337,130.841 89.5,123.5 Z"/></g>
<g><path style="opacity:0.004" fill="#000000" d="M 225.5,124.5 C 226.613,125.946 226.78,127.613 226,129.5C 225.506,127.866 225.34,126.199 225.5,124.5 Z"/></g>
<g><path style="opacity:0.004" fill="#000000" d="M 226.5,130.5 C 227.613,131.946 227.78,133.613 227,135.5C 226.506,133.866 226.34,132.199 226.5,130.5 Z"/></g>
<g><path style="opacity:0.004" fill="#000000" d="M 227.5,136.5 C 228.622,138.288 228.789,140.288 228,142.5C 227.505,140.527 227.338,138.527 227.5,136.5 Z"/></g>
<g><path style="opacity:0.997" fill="#514646" d="M 108.5,133.5 C 123.991,132.504 139.658,132.17 155.5,132.5C 155.5,134.5 155.5,136.5 155.5,138.5C 141.276,140.434 126.942,140.934 112.5,140C 126.434,138.37 140.434,137.536 154.5,137.5C 154.5,136.167 154.5,134.833 154.5,133.5C 139.167,133.5 123.833,133.5 108.5,133.5 Z"/></g>
<g><path style="opacity:0.986" fill="#4a1f1d" d="M 108.5,133.5 C 123.833,133.5 139.167,133.5 154.5,133.5C 154.5,134.833 154.5,136.167 154.5,137.5C 140.434,137.536 126.434,138.37 112.5,140C 126.942,140.934 141.276,140.434 155.5,138.5C 155.5,139.5 155.5,140.5 155.5,141.5C 140.17,142.197 124.836,142.364 109.5,142C 108.556,139.281 108.223,136.448 108.5,133.5 Z"/></g>
<g><path style="opacity:0.004" fill="#000000" d="M 228.5,143.5 C 229.622,145.288 229.789,147.288 229,149.5C 228.505,147.527 228.338,145.527 228.5,143.5 Z"/></g>
<g><path style="opacity:0.004" fill="#000000" d="M 90.5,147.5 C 91.6129,148.946 91.7796,150.613 91,152.5C 90.5065,150.866 90.3398,149.199 90.5,147.5 Z"/></g>
<g><path style="opacity:0.004" fill="#000000" d="M 229.5,150.5 C 230.629,152.628 230.796,154.961 230,157.5C 229.503,155.19 229.337,152.857 229.5,150.5 Z"/></g>
<g><path style="opacity:0.004" fill="#000000" d="M 91.5,153.5 C 92.5983,154.601 92.765,155.934 92,157.5C 91.51,156.207 91.3433,154.873 91.5,153.5 Z"/></g>
<g><path style="opacity:0.004" fill="#000000" d="M 92.5,158.5 C 93.5983,159.601 93.765,160.934 93,162.5C 92.51,161.207 92.3433,159.873 92.5,158.5 Z"/></g>
<g><path style="opacity:0.004" fill="#000000" d="M 230.5,158.5 C 231.629,160.628 231.796,162.961 231,165.5C 230.503,163.19 230.337,160.857 230.5,158.5 Z"/></g>
<g><path style="opacity:0.004" fill="#000000" d="M 93.5,163.5 C 94.5735,164.251 94.7401,165.251 94,166.5C 93.5172,165.552 93.3505,164.552 93.5,163.5 Z"/></g>
<g><path style="opacity:0.004" fill="#000000" d="M 94.5,167.5 C 95.5735,168.251 95.7401,169.251 95,170.5C 94.5172,169.552 94.3505,168.552 94.5,167.5 Z"/></g>
<g><path style="opacity:0.004" fill="#000000" d="M 231.5,167.5 C 232.634,169.966 232.801,172.633 232,175.5C 231.503,172.854 231.336,170.187 231.5,167.5 Z"/></g>
<g><path style="opacity:0.004" fill="#000000" d="M 97.5,174.5 C 97.6495,175.552 97.4828,176.552 97,177.5C 96.2599,176.251 96.4265,175.251 97.5,174.5 Z"/></g>
<g><path style="opacity:0.004" fill="#000000" d="M 232.5,177.5 C 233.638,180.304 233.805,183.304 233,186.5C 232.502,183.518 232.335,180.518 232.5,177.5 Z"/></g>
<g><path style="opacity:0.004" fill="#000000" d="M 98.5,181.5 C 97.4265,180.749 97.2599,179.749 98,178.5C 98.4828,179.448 98.6495,180.448 98.5,181.5 Z"/></g>
<g><path style="opacity:0.004" fill="#000000" d="M 98.5,181.5 C 98.8333,181.5 99.1667,181.5 99.5,181.5C 99.1667,185.5 98.8333,185.5 98.5,181.5 Z"/></g>
<g><path style="opacity:0.004" fill="#000000" d="M 100.5,188.5 C 99.4265,187.749 99.2599,186.749 100,185.5C 100.483,186.448 100.649,187.448 100.5,188.5 Z"/></g>
<g><path style="opacity:0.004" fill="#000000" d="M 100.5,188.5 C 100.833,188.5 101.167,188.5 101.5,188.5C 101.167,192.5 100.833,192.5 100.5,188.5 Z"/></g>
<g><path style="opacity:0.004" fill="#000000" d="M 233.5,189.5 C 234.613,190.946 234.78,192.613 234,194.5C 233.506,192.866 233.34,191.199 233.5,189.5 Z"/></g>
<g><path style="opacity:1" fill="#433131" d="M 138.5,176.5 C 140.766,176.141 142.599,176.808 144,178.5C 145.167,186.177 146.334,193.844 147.5,201.5C 146.221,203.146 144.555,204.313 142.5,205C 137.845,205.499 133.179,205.666 128.5,205.5C 127.746,196.471 126.746,187.471 125.5,178.5C 130.122,178.844 134.455,178.177 138.5,176.5 Z"/></g>
<g><path style="opacity:1" fill="#5a5a5c" d="M 140.5,177.5 C 141.725,178.152 142.392,179.319 142.5,181C 143.278,184.155 143.445,187.322 143,190.5C 141.647,189.296 139.981,188.629 138,188.5C 135.128,188.01 133.128,189.01 132,191.5C 131.281,187.855 130.781,184.188 130.5,180.5C 134.116,180.101 137.45,179.101 140.5,177.5 Z"/></g>
<g><path style="opacity:1" fill="#5a5a5c" d="M 134.5,189.5 C 141.653,189.151 144.819,192.484 144,199.5C 140.35,201.046 136.516,201.713 132.5,201.5C 132.191,197.295 132.857,193.295 134.5,189.5 Z"/></g>
<g><path style="opacity:0.004" fill="#000000" d="M 102.5,195.5 C 101.427,194.749 101.26,193.749 102,192.5C 102.483,193.448 102.649,194.448 102.5,195.5 Z"/></g>
<g><path style="opacity:0.004" fill="#000000" d="M 102.5,195.5 C 102.833,195.5 103.167,195.5 103.5,195.5C 103.167,199.5 102.833,199.5 102.5,195.5 Z"/></g>
<g><path style="opacity:0.004" fill="#000000" d="M 229.5,196.5 C 230.833,197.167 230.833,197.167 229.5,196.5 Z"/></g>
<g><path style="opacity:0.004" fill="#000000" d="M 229.5,197.5 C 228.833,198.167 228.833,198.167 229.5,197.5 Z"/></g>
<g><path style="opacity:0.004" fill="#000000" d="M 226.5,198.5 C 227.833,199.167 227.833,199.167 226.5,198.5 Z"/></g>
<g><path style="opacity:0.004" fill="#000000" d="M 104.5,202.5 C 103.427,201.749 103.26,200.749 104,199.5C 104.483,200.448 104.649,201.448 104.5,202.5 Z"/></g>
<g><path style="opacity:0.004" fill="#000000" d="M 224.5,200.5 C 224.5,200.167 224.5,199.833 224.5,199.5C 225.167,199.5 225.833,199.5 226.5,199.5C 226.158,200.338 225.492,200.672 224.5,200.5 Z"/></g>
<g><path style="opacity:0.004" fill="#000000" d="M 222.5,201.5 C 222.5,201.167 222.5,200.833 222.5,200.5C 223.167,200.5 223.833,200.5 224.5,200.5C 224.158,201.338 223.492,201.672 222.5,201.5 Z"/></g>
<g><path style="opacity:0.004" fill="#000000" d="M 222.5,201.5 C 222.103,202.525 221.437,202.692 220.5,202C 221.094,201.536 221.761,201.369 222.5,201.5 Z"/></g>
<g><path style="opacity:0.004" fill="#000000" d="M 217.5,203.5 C 217.5,203.167 217.5,202.833 217.5,202.5C 220.167,202.833 220.167,203.167 217.5,203.5 Z"/></g>
<g><path style="opacity:0.004" fill="#303030" d="M 104.5,202.5 C 104.833,202.5 105.167,202.5 105.5,202.5C 105.167,207.833 104.833,207.833 104.5,202.5 Z"/></g>
<g><path style="opacity:0.004" fill="#000000" d="M 215.5,204.5 C 215.5,204.167 215.5,203.833 215.5,203.5C 216.167,203.5 216.833,203.5 217.5,203.5C 217.158,204.338 216.492,204.672 215.5,204.5 Z"/></g>
<g><path style="opacity:0.004" fill="#000000" d="M 212.5,205.5 C 212.5,205.167 212.5,204.833 212.5,204.5C 213.5,204.5 214.5,204.5 215.5,204.5C 214.791,205.404 213.791,205.737 212.5,205.5 Z"/></g>
<g><path style="opacity:0.004" fill="#000000" d="M 210.5,206.5 C 210.5,206.167 210.5,205.833 210.5,205.5C 211.167,205.5 211.833,205.5 212.5,205.5C 212.158,206.338 211.492,206.672 210.5,206.5 Z"/></g>
<g><path style="opacity:0.004" fill="#000000" d="M 207.5,207.5 C 207.5,207.167 207.5,206.833 207.5,206.5C 208.5,206.5 209.5,206.5 210.5,206.5C 209.791,207.404 208.791,207.737 207.5,207.5 Z"/></g>
<g><path style="opacity:0.004" fill="#000000" d="M 205.5,208.5 C 205.5,208.167 205.5,207.833 205.5,207.5C 206.167,207.5 206.833,207.5 207.5,207.5C 207.158,208.338 206.492,208.672 205.5,208.5 Z"/></g>
<g><path style="opacity:0.004" fill="#000000" d="M 202.5,209.5 C 202.5,209.167 202.5,208.833 202.5,208.5C 203.5,208.5 204.5,208.5 205.5,208.5C 204.791,209.404 203.791,209.737 202.5,209.5 Z"/></g>
<g><path style="opacity:0.004" fill="#000000" d="M 199.5,210.5 C 199.5,210.167 199.5,209.833 199.5,209.5C 200.5,209.5 201.5,209.5 202.5,209.5C 201.791,210.404 200.791,210.737 199.5,210.5 Z"/></g>
<g><path style="opacity:0.004" fill="#000000" d="M 196.5,211.5 C 196.5,211.167 196.5,210.833 196.5,210.5C 197.5,210.5 198.5,210.5 199.5,210.5C 198.791,211.404 197.791,211.737 196.5,211.5 Z"/></g>
<g><path style="opacity:0.004" fill="#000000" d="M 193.5,212.5 C 193.5,212.167 193.5,211.833 193.5,211.5C 194.5,211.5 195.5,211.5 196.5,211.5C 195.791,212.404 194.791,212.737 193.5,212.5 Z"/></g>
<g><path style="opacity:0.004" fill="#000000" d="M 190.5,213.5 C 190.5,213.167 190.5,212.833 190.5,212.5C 191.5,212.5 192.5,212.5 193.5,212.5C 192.791,213.404 191.791,213.737 190.5,213.5 Z"/></g>
<g><path style="opacity:0.004" fill="#000000" d="M 190.5,213.5 C 189.749,214.573 188.749,214.74 187.5,214C 188.448,213.517 189.448,213.351 190.5,213.5 Z"/></g>
<g><path style="opacity:0.004" fill="#000000" d="M 183.5,215.5 C 184.251,214.427 185.251,214.26 186.5,215C 185.552,215.483 184.552,215.649 183.5,215.5 Z"/></g>
<g><path style="opacity:0.004" fill="#000000" d="M 183.5,215.5 C 182.399,216.598 181.066,216.765 179.5,216C 180.793,215.51 182.127,215.343 183.5,215.5 Z"/></g>
<g><path style="opacity:0.004" fill="#000000" d="M 112.5,216.5 C 112.5,216.833 112.5,217.167 112.5,217.5C 111.83,217.019 111.83,216.685 112.5,216.5 Z"/></g>
<g><path style="opacity:0.004" fill="#000000" d="M 174.5,217.5 C 174.5,217.167 174.5,216.833 174.5,216.5C 179.833,216.833 179.833,217.167 174.5,217.5 Z"/></g>
<g><path style="opacity:0.004" fill="#000000" d="M 112.5,217.5 C 113.833,218.167 113.833,218.167 112.5,217.5 Z"/></g>
<g><path style="opacity:0.004" fill="#000000" d="M 119.5,219.5 C 119.5,219.833 119.5,220.167 119.5,220.5C 115.5,220.167 115.5,219.833 119.5,219.5 Z"/></g>
<g><path style="opacity:0.994" fill="#666567" d="M 160.5,217.5 C 162.167,217.5 163.833,217.5 165.5,217.5C 164.455,220.385 162.455,222.552 159.5,224C 155.94,225.237 152.273,225.737 148.5,225.5C 148.5,223.167 148.5,220.833 148.5,218.5C 152.702,218.817 156.702,218.483 160.5,217.5 Z"/></g>
<g><path style="opacity:0.004" fill="#000000" d="M 119.5,220.5 C 121.199,220.34 122.866,220.506 124.5,221C 122.613,221.78 120.946,221.613 119.5,220.5 Z"/></g>
<g><path style="opacity:0.005" fill="#000000" d="M 171.5,229.5 C 171.338,227.473 171.505,225.473 172,223.5C 172.789,225.712 172.622,227.712 171.5,229.5 Z"/></g>
<g><path style="opacity:0.005" fill="#000000" d="M 172.5,237.5 C 172.337,235.143 172.503,232.81 173,230.5C 173.796,233.039 173.629,235.372 172.5,237.5 Z"/></g>
<g><path style="opacity:0.004" fill="#000000" d="M 173.5,248.5 C 173.335,245.15 173.502,241.817 174,238.5C 174.808,242.027 174.641,245.36 173.5,248.5 Z"/></g>
<g><path style="opacity:1" fill="#676769" d="M 163.5,222.5 C 165.124,222.36 166.29,223.027 167,224.5C 168.361,228.495 168.527,232.495 167.5,236.5C 163.756,238.538 159.756,239.705 155.5,240C 160.331,240.778 164.997,240.278 169.5,238.5C 169.82,241.898 169.487,245.232 168.5,248.5C 164.212,251.209 159.545,253.042 154.5,254C 156.833,254.667 159.167,254.667 161.5,254C 164.096,252.864 166.763,252.031 169.5,251.5C 169.82,254.898 169.487,258.232 168.5,261.5C 162.755,264.507 156.755,265.174 150.5,263.5C 149.829,251.347 149.496,239.014 149.5,226.5C 152.518,226.665 155.518,226.498 158.5,226C 160.584,225.303 162.251,224.136 163.5,222.5 Z"/></g>
<g><path style="opacity:1" fill="#69696b" d="M 148.5,264.5 C 151.789,265.291 155.122,265.958 158.5,266.5C 162.149,265.67 165.815,265.004 169.5,264.5C 169.784,267.777 169.451,270.943 168.5,274C 163.028,276.285 157.362,276.952 151.5,276C 150.069,275.535 148.903,274.701 148,273.5C 147.366,270.445 147.532,267.445 148.5,264.5 Z"/></g>
<g><path style="opacity:0.005" fill="#000000" d="M 139.5,275.5 C 138.761,275.631 138.094,275.464 137.5,275C 138.882,270.295 139.549,270.461 139.5,275.5 Z"/></g>
<g><path style="opacity:0.005" fill="#000000" d="M 187.5,276.5 C 188.251,275.427 189.251,275.26 190.5,276C 189.552,276.483 188.552,276.649 187.5,276.5 Z"/></g>
<g><path style="opacity:0.004" fill="#000000" d="M 125.5,279.5 C 126.833,280.167 126.833,280.167 125.5,279.5 Z"/></g>
<g><path style="opacity:1" fill="#5a5254" d="M 169.5,285.5 C 169.5,283.833 169.5,282.167 169.5,280.5C 162.269,280.783 161.936,279.95 168.5,278C 167.906,277.536 167.239,277.369 166.5,277.5C 169.857,276.467 171.857,274.134 172.5,270.5C 173.097,274.302 174.097,277.968 175.5,281.5C 174.168,283.833 172.168,285.166 169.5,285.5 Z"/></g>
<g><path style="opacity:1" fill="#767577" d="M 166.5,277.5 C 167.239,277.369 167.906,277.536 168.5,278C 161.936,279.95 162.269,280.783 169.5,280.5C 169.5,282.167 169.5,283.833 169.5,285.5C 162.994,287.434 156.327,287.934 149.5,287C 142.877,283.807 140.71,278.64 143,271.5C 143.689,270.643 144.522,269.977 145.5,269.5C 145.747,273.579 147.747,276.412 151.5,278C 156.537,278.663 161.537,278.496 166.5,277.5 Z"/></g>
<g><path style="opacity:1" fill="#5b5b5d" d="M 202.5,299.5 C 199.167,299.5 195.833,299.5 192.5,299.5C 194.159,290.5 190.492,286.167 181.5,286.5C 178.145,286.724 174.812,287.057 171.5,287.5C 173.625,285.878 175.625,284.045 177.5,282C 176.548,280.7 176.548,279.533 177.5,278.5C 181.726,279.987 186.059,281.154 190.5,282C 197.602,285.702 201.602,291.535 202.5,299.5 Z"/></g>
<g><path style="opacity:1" fill="#a9aaad" d="M 171.5,287.5 C 174.812,287.057 178.145,286.724 181.5,286.5C 190.492,286.167 194.159,290.5 192.5,299.5C 168.833,299.5 145.167,299.5 121.5,299.5C 122.501,287.166 129.167,280.499 141.5,279.5C 142.132,284.305 144.799,287.472 149.5,289C 156.958,289.909 164.291,289.409 171.5,287.5 Z"/></g>
<g><path style="opacity:0.004" fill="#000000" d="M 120.5,288.5 C 119.833,287.167 119.833,287.167 120.5,288.5 Z"/></g>
<g><path style="opacity:0.006" fill="#000000" d="M 119.5,291.5 C 118.475,291.103 118.308,290.437 119,289.5C 119.464,290.094 119.631,290.761 119.5,291.5 Z"/></g>
<g><path style="opacity:0.004" fill="#000000" d="M 204.5,292.5 C 204.369,291.761 204.536,291.094 205,290.5C 205.692,291.437 205.525,292.103 204.5,292.5 Z"/></g>
<g><path style="opacity:0.005" fill="#000000" d="M 118.5,299.5 C 118.167,299.5 117.833,299.5 117.5,299.5C 117.833,290.167 118.167,290.167 118.5,299.5 Z"/></g>
<g><path style="opacity:0.005" fill="#000000" d="M 206.5,297.5 C 206.167,297.5 205.833,297.5 205.5,297.5C 205.833,292.167 206.167,292.167 206.5,297.5 Z"/></g>
<g><path style="opacity:0.004" fill="#000000" d="M 206.5,297.5 C 207.338,297.842 207.672,298.508 207.5,299.5C 207.167,299.5 206.833,299.5 206.5,299.5C 206.5,298.833 206.5,298.167 206.5,297.5 Z"/></g>
</svg>
