<?xml version="1.0" encoding="UTF-8"?>
<!DOCTYPE svg PUBLIC "-//W3C//DTD SVG 1.1//EN" "http://www.w3.org/Graphics/SVG/1.1/DTD/svg11.dtd">
<svg xmlns="http://www.w3.org/2000/svg" version="1.1" width="300px" height="300px" style="shape-rendering:geometricPrecision; text-rendering:geometricPrecision; image-rendering:optimizeQuality; fill-rule:evenodd; clip-rule:evenodd" xmlns:xlink="http://www.w3.org/1999/xlink">
<g><path style="opacity:0.004" fill="#1c1c1c" d="M 169.5,59.5 C 170.601,58.4017 171.934,58.235 173.5,59C 172.207,59.49 170.873,59.6567 169.5,59.5 Z"/></g>
<g><path style="opacity:0.008" fill="#4f4f4f" d="M 140.5,63.5 C 141.601,62.4017 142.934,62.235 144.5,63C 143.207,63.49 141.873,63.6567 140.5,63.5 Z"/></g>
<g><path style="opacity:1" fill="#7a47a0" d="M 182.5,67.5 C 183.262,65.7376 184.596,64.7376 186.5,64.5C 188.197,66.3052 189.03,68.6385 189,71.5C 189.192,69.4233 189.692,67.4233 190.5,65.5C 197.648,69.7803 203.482,75.447 208,82.5C 216.114,94.7277 222.614,107.728 227.5,121.5C 223.22,120.206 219.22,120.206 215.5,121.5C 199.567,109.397 182.234,107.23 163.5,115C 153.553,118.797 145.553,124.964 139.5,133.5C 138.601,132.528 137.434,131.862 136,131.5C 116.724,128.424 97.5576,128.924 78.5,133C 77.9152,134.302 77.2485,135.469 76.5,136.5C 75.7384,132.215 74.4051,128.215 72.5,124.5C 71.2825,123.839 69.9492,123.172 68.5,122.5C 75.3367,99.6636 90.0033,84.3303 112.5,76.5C 113.192,77.0253 113.692,77.6919 114,78.5C 114.309,77.2341 114.809,76.0674 115.5,75C 124.396,70.982 133.563,68.8153 143,68.5C 143.984,73.3014 146.15,77.4681 149.5,81C 155.917,82.5963 159.751,80.0963 161,73.5C 161.498,70.1832 161.665,66.8499 161.5,63.5C 164.898,63.1796 168.232,63.513 171.5,64.5C 173.384,69.7744 176.384,74.2744 180.5,78C 182.473,78.4955 184.473,78.6621 186.5,78.5C 186.719,77.325 186.386,76.325 185.5,75.5C 181.358,77.0728 178.358,75.7394 176.5,71.5C 179.107,70.6816 181.774,70.1816 184.5,70C 183.619,69.2917 182.953,68.4584 182.5,67.5 Z"/></g>
<g><path style="opacity:0.012" fill="#3a3a3a" d="M 129.5,66.5 C 130.251,65.4265 131.251,65.2599 132.5,66C 131.552,66.4828 130.552,66.6495 129.5,66.5 Z"/></g>
<g><path style="opacity:0.004" fill="#171717" d="M 175.5,66.5 C 175.351,65.448 175.517,64.448 176,63.5C 176.772,64.8491 177.939,65.6824 179.5,66C 178.207,66.49 176.873,66.6567 175.5,66.5 Z"/></g>
<g><path style="opacity:0.844" fill="#3d3c3e" d="M 175.5,66.5 C 177.607,67.4682 179.941,67.8016 182.5,67.5C 182.953,68.4584 183.619,69.2917 184.5,70C 181.774,70.1816 179.107,70.6816 176.5,71.5C 178.358,75.7394 181.358,77.0728 185.5,75.5C 186.386,76.325 186.719,77.325 186.5,78.5C 184.473,78.6621 182.473,78.4955 180.5,78C 176.384,74.2744 173.384,69.7744 171.5,64.5C 168.232,63.513 164.898,63.1796 161.5,63.5C 161.665,66.8499 161.498,70.1832 161,73.5C 159.751,80.0963 155.917,82.5963 149.5,81C 146.15,77.4681 143.984,73.3014 143,68.5C 133.563,68.8153 124.396,70.982 115.5,75C 114.809,76.0674 114.309,77.2341 114,78.5C 113.692,77.6919 113.192,77.0253 112.5,76.5C 90.0033,84.3303 75.3367,99.6636 68.5,122.5C 69.9492,123.172 71.2825,123.839 72.5,124.5C 68.5752,124.57 64.9085,123.903 61.5,122.5C 62.791,122.737 63.791,122.404 64.5,121.5C 66.0022,118.346 67.3355,115.013 68.5,111.5C 67.3387,109.776 67.5053,108.11 69,106.5C 69.6667,107.833 70.3333,107.833 71,106.5C 71.4922,105.451 71.3256,104.451 70.5,103.5C 71.5312,102.3 72.3645,100.966 73,99.5C 74.5523,99.9889 75.719,99.3223 76.5,97.5C 77.1667,97.5 77.5,97.1667 77.5,96.5C 78.1667,96.5 78.5,96.1667 78.5,95.5C 79.1667,95.5 79.5,95.1667 79.5,94.5C 80.1667,94.5 80.5,94.1667 80.5,93.5C 81.1667,93.5 81.5,93.1667 81.5,92.5C 100.337,77.7544 121.671,68.4211 145.5,64.5C 145.682,69.7937 146.182,69.7937 147,64.5C 147.483,65.448 147.649,66.448 147.5,67.5C 151.794,67.8025 154.961,66.1358 157,62.5C 157.333,62.8333 157.667,63.1667 158,63.5C 162.962,61.7404 168.129,60.7404 173.5,60.5C 173.595,62.7857 174.262,64.7857 175.5,66.5 Z"/></g>
<g><path style="opacity:1" fill="#75439b" d="M 150.5,70.5 C 153.5,70.5 156.5,70.5 159.5,70.5C 158.694,79.2166 154.86,81.2166 148,76.5C 146.991,74.9751 146.491,73.3084 146.5,71.5C 148.099,71.7678 149.432,71.4345 150.5,70.5 Z"/></g>
<g><path style="opacity:0.012" fill="#373737" d="M 81.5,92.5 C 80.8333,92.5 80.5,92.8333 80.5,93.5C 79.8333,93.5 79.5,93.8333 79.5,94.5C 78.8333,94.5 78.5,94.8333 78.5,95.5C 77.8333,95.5 77.5,95.8333 77.5,96.5C 76.8333,96.5 76.5,96.8333 76.5,97.5C 75.475,97.1034 75.3083,96.4368 76,95.5C 77.1667,94.3333 78.3333,93.1667 79.5,92C 80.4368,91.3083 81.1034,91.475 81.5,92.5 Z"/></g>
<g><path style="opacity:0.998" fill="#4d4b4e" d="M 197.5,96.5 C 203.513,97.5068 209.513,98.5068 215.5,99.5C 214.908,102.127 214.575,104.794 214.5,107.5C 208.814,106.608 203.147,105.608 197.5,104.5C 197.5,101.833 197.5,99.1667 197.5,96.5 Z"/></g>
<g><path style="opacity:0.997" fill="#4c4b4c" d="M 154.5,99.5 C 155.675,99.281 156.675,99.6143 157.5,100.5C 158.961,102.811 159.294,105.144 158.5,107.5C 153.633,110.6 148.633,113.1 143.5,115C 141.912,113.013 141.079,110.846 141,108.5C 145.479,105.353 149.979,102.353 154.5,99.5 Z"/></g>
<g><path style="opacity:0.004" fill="#000000" d="M 52.5,119.5 C 51.8333,118.167 51.8333,118.167 52.5,119.5 Z"/></g>
<g><path style="opacity:0.004" fill="#fefffe" d="M 51.5,119.5 C 50.8333,120.167 50.8333,120.167 51.5,119.5 Z"/></g>
<g><path style="opacity:0.009" fill="#9f9f9f" d="M 52.5,119.5 C 55.3854,119.194 58.0521,119.527 60.5,120.5C 57.6146,120.806 54.9479,120.473 52.5,119.5 Z"/></g>
<g><path style="opacity:0.012" fill="#8f8f8f" d="M 64.5,121.5 C 63.1667,121.5 61.8333,121.5 60.5,121.5C 60.5,121.167 60.5,120.833 60.5,120.5C 62.1238,120.64 63.2904,119.973 64,118.5C 64.4828,119.448 64.6495,120.448 64.5,121.5 Z"/></g>
<g><path style="opacity:0.81" fill="#9870b6" d="M 139.5,133.5 C 135.761,139.26 134.594,145.594 136,152.5C 137.666,154.996 139.5,157.329 141.5,159.5C 128.393,154.631 115.06,150.464 101.5,147C 94.446,146.619 87.446,147.119 80.5,148.5C 80.5,149.5 80.5,150.5 80.5,151.5C 79.0678,146.634 77.7345,141.634 76.5,136.5C 77.2485,135.469 77.9152,134.302 78.5,133C 97.5576,128.924 116.724,128.424 136,131.5C 137.434,131.862 138.601,132.528 139.5,133.5 Z"/></g>
<g><path style="opacity:0.997" fill="#bebdbe" d="M 191.5,146.5 C 192.373,150.983 193.373,155.317 194.5,159.5C 196.46,164.783 196.793,170.116 195.5,175.5C 193.076,175.808 190.743,175.474 188.5,174.5C 186.001,164.664 182.335,155.331 177.5,146.5C 179.158,141.003 182.825,139.17 188.5,141C 189.609,142.876 190.609,144.709 191.5,146.5 Z"/></g>
<g><path style="opacity:0.012" fill="#757575" d="M 249.5,137.5 C 250.833,139.167 250.833,140.833 249.5,142.5C 249.5,140.833 249.5,139.167 249.5,137.5 Z"/></g>
<g><path style="opacity:1" fill="#78449f" d="M 233.5,142.5 C 237.79,160.144 240.29,178.144 241,196.5C 233.352,206.754 223.518,214.254 211.5,219C 175.79,231.724 139.456,233.724 102.5,225C 94.7406,218.983 89.9073,211.15 88,201.5C 86.6124,200.446 85.1124,200.28 83.5,201C 84.9308,201.465 86.0975,202.299 87,203.5C 89.0068,211.686 93.1734,218.519 99.5,224C 86.8225,221.499 74.1558,218.666 61.5,215.5C 58.279,215.104 55.6123,213.771 53.5,211.5C 52.8885,209.087 52.5552,206.587 52.5,204C 53.2148,197.165 53.8814,190.332 54.5,183.5C 58.8461,183.666 63.1794,183.499 67.5,183C 68.056,182.617 68.3893,182.117 68.5,181.5C 69.1098,180.609 69.4431,179.609 69.5,178.5C 75.6457,170.538 79.3124,161.538 80.5,151.5C 80.5,150.5 80.5,149.5 80.5,148.5C 87.446,147.119 94.446,146.619 101.5,147C 115.06,150.464 128.393,154.631 141.5,159.5C 143.117,160.038 144.784,160.371 146.5,160.5C 151.916,162.029 157.583,162.695 163.5,162.5C 169.517,162.333 175.517,161.999 181.5,161.5C 183.827,168.123 186.16,174.79 188.5,181.5C 179.917,183.078 171.25,183.745 162.5,183.5C 157.665,182.103 152.999,180.103 148.5,177.5C 147.45,195.353 152.45,211.353 163.5,225.5C 165.856,222.814 168.189,220.147 170.5,217.5C 172.336,215.412 174.669,214.079 177.5,213.5C 190.411,208.103 203.745,203.937 217.5,201C 216.248,198.367 214.914,195.867 213.5,193.5C 213.5,186.833 213.5,180.167 213.5,173.5C 210.833,174.167 208.167,174.833 205.5,175.5C 202.314,175.895 199.314,176.895 196.5,178.5C 195.614,177.675 195.281,176.675 195.5,175.5C 196.793,170.116 196.46,164.783 194.5,159.5C 194.577,158.25 195.244,157.417 196.5,157C 209.435,153.416 221.769,148.583 233.5,142.5 Z"/></g>
<g><path style="opacity:0.999" fill="#d6d6d6" d="M 246.5,146.5 C 243.676,150.63 242.009,155.297 241.5,160.5C 239.908,161.602 239.075,160.935 239,158.5C 237.216,143.078 233.716,128.078 228.5,113.5C 230.792,113.244 232.959,113.577 235,114.5C 239,122.5 243,130.5 247,138.5C 246.917,141.119 246.75,143.786 246.5,146.5 Z"/></g>
<g><path style="opacity:0.012" fill="#404040" d="M 247.5,146.5 C 247.833,146.5 248.167,146.5 248.5,146.5C 248.737,147.791 248.404,148.791 247.5,149.5C 247.5,148.5 247.5,147.5 247.5,146.5 Z"/></g>
<g><path style="opacity:0.795" fill="#9871b6" d="M 227.5,121.5 C 230.878,127.997 232.878,134.997 233.5,142.5C 221.769,148.583 209.435,153.416 196.5,157C 195.244,157.417 194.577,158.25 194.5,159.5C 193.373,155.317 192.373,150.983 191.5,146.5C 199.174,146.666 206.841,146.5 214.5,146C 216.848,145.654 218.681,144.487 220,142.5C 221.708,134.716 220.208,127.716 215.5,121.5C 219.22,120.206 223.22,120.206 227.5,121.5 Z"/></g>
<g><path style="opacity:0.918" fill="#58545b" d="M 72.5,124.5 C 74.4051,128.215 75.7384,132.215 76.5,136.5C 77.7345,141.634 79.0678,146.634 80.5,151.5C 79.3124,161.538 75.6457,170.538 69.5,178.5C 73.0932,170.752 76.4266,162.919 79.5,155C 76.7034,144.918 74.3701,134.751 72.5,124.5 Z"/></g>
<g><path style="opacity:0.012" fill="#333333" d="M 37.5,148.5 C 37.5,149.833 37.5,151.167 37.5,152.5C 36.1667,151.167 36.1667,149.833 37.5,148.5 Z"/></g>
<g><path style="opacity:0.793" fill="#9f79bb" d="M 181.5,161.5 C 175.517,161.999 169.517,162.333 163.5,162.5C 157.583,162.695 151.916,162.029 146.5,160.5C 149.518,160.665 152.518,160.498 155.5,160C 162.123,155.842 169.123,152.342 176.5,149.5C 178.733,153.294 180.399,157.294 181.5,161.5 Z"/></g>
<g><path style="opacity:0.275" fill="#404040" d="M 246.5,146.5 C 246.263,147.791 246.596,148.791 247.5,149.5C 247.072,152.785 246.072,155.785 244.5,158.5C 244.167,154.5 243.833,154.5 243.5,158.5C 242.662,158.842 242.328,159.508 242.5,160.5C 242.167,160.5 241.833,160.5 241.5,160.5C 242.009,155.297 243.676,150.63 246.5,146.5 Z"/></g>
<g><path style="opacity:0.008" fill="#1f1f1f" d="M 39.5,157.5 C 39.8333,157.5 40.1667,157.5 40.5,157.5C 40.5,158.167 40.5,158.833 40.5,159.5C 39.6618,159.158 39.3284,158.492 39.5,157.5 Z"/></g>
<g><path style="opacity:0.008" fill="#1f1f1f" d="M 243.5,158.5 C 243.833,158.5 244.167,158.5 244.5,158.5C 244.672,159.492 244.338,160.158 243.5,160.5C 243.5,159.833 243.5,159.167 243.5,158.5 Z"/></g>
<g><path style="opacity:0.008" fill="#1f1f1f" d="M 42.5,164.5 C 42.8333,164.5 43.1667,164.5 43.5,164.5C 43.5,165.167 43.5,165.833 43.5,166.5C 42.6618,166.158 42.3284,165.492 42.5,164.5 Z"/></g>
<g><path style="opacity:1" fill="#4fcdf0" d="M 213.5,193.5 C 213.317,195.936 213.984,198.103 215.5,200C 212.367,200.96 209.2,201.793 206,202.5C 205.055,202.095 204.388,201.428 204,200.5C 202.279,193.241 201.612,185.907 202,178.5C 203.145,177.364 204.312,176.364 205.5,175.5C 208.167,174.833 210.833,174.167 213.5,173.5C 213.5,180.167 213.5,186.833 213.5,193.5 Z"/></g>
<g><path style="opacity:0.998" fill="#c3c3c3" d="M 60.5,121.5 C 60.5,122.167 60.8333,122.5 61.5,122.5C 64.9085,123.903 68.5752,124.57 72.5,124.5C 74.3701,134.751 76.7034,144.918 79.5,155C 76.4266,162.919 73.0932,170.752 69.5,178.5C 69.4431,179.609 69.1098,180.609 68.5,181.5C 63.4889,181.666 58.4889,181.499 53.5,181C 48.3428,171.353 44.0095,161.353 40.5,151C 42.7714,144.905 44.7714,138.738 46.5,132.5C 46.1667,131.167 45.8333,131.167 45.5,132.5C 45.1667,132.5 44.8333,132.5 44.5,132.5C 45.6311,129.111 46.9645,125.778 48.5,122.5C 52.4454,121.509 56.4454,121.176 60.5,121.5 Z"/></g>
<g><path style="opacity:1" fill="#eaab3e" d="M 54.5,129.5 C 55.8221,129.33 56.9887,129.663 58,130.5C 62.4698,140.662 63.1365,150.995 60,161.5C 58.9731,164.754 57.4731,167.754 55.5,170.5C 48.8279,165.171 45.8279,158.171 46.5,149.5C 45.8621,141.452 48.5288,134.785 54.5,129.5 Z"/></g>
<g><path style="opacity:1" fill="#494645" d="M 44.5,132.5 C 44.8333,135.167 45.1667,135.167 45.5,132.5C 45.8333,132.5 46.1667,132.5 46.5,132.5C 44.7714,138.738 42.7714,144.905 40.5,151C 44.0095,161.353 48.3428,171.353 53.5,181C 58.4889,181.499 63.4889,181.666 68.5,181.5C 68.3893,182.117 68.056,182.617 67.5,183C 63.1794,183.499 58.8461,183.666 54.5,183.5C 53.8814,190.332 53.2148,197.165 52.5,204C 52.5552,206.587 52.8885,209.087 53.5,211.5C 51.1278,213.148 49.7944,212.481 49.5,209.5C 50.2679,208.737 50.7679,207.737 51,206.5C 52.0814,198.568 52.5814,190.735 52.5,183C 51.4479,181.881 50.2812,181.381 49,181.5C 47.0576,176.503 45.2243,171.503 43.5,166.5C 44.8333,165.833 44.8333,165.167 43.5,164.5C 43.1667,161.833 42.8333,161.833 42.5,164.5C 41.0687,163.22 40.4021,161.553 40.5,159.5C 41.8333,158.833 41.8333,158.167 40.5,157.5C 40.1667,154.833 39.8333,154.833 39.5,157.5C 38.0687,156.22 37.4021,154.553 37.5,152.5C 38.8333,151.167 38.8333,149.833 37.5,148.5C 38.562,145.484 39.7286,142.484 41,139.5C 41.3333,140.167 41.6667,140.833 42,141.5C 42.8333,139.833 43.6667,138.167 44.5,136.5C 43.2947,135.005 43.2947,133.672 44.5,132.5 Z"/></g>
<g><path style="opacity:1" fill="#4dd2f7" d="M 162.5,183.5 C 164.214,184.738 166.214,185.405 168.5,185.5C 168.344,189.582 168.844,193.582 170,197.5C 172.255,203.006 174.755,208.34 177.5,213.5C 174.669,214.079 172.336,215.412 170.5,217.5C 168.914,218.413 167.414,218.413 166,217.5C 160.34,206.859 157.506,195.525 157.5,183.5C 159.167,183.5 160.833,183.5 162.5,183.5 Z"/></g>
<g><path style="opacity:0.004" fill="#000000" d="M 246.5,192.5 C 246.343,191.127 246.51,189.793 247,188.5C 247.765,190.066 247.598,191.399 246.5,192.5 Z"/></g>
<g><path style="opacity:0.016" fill="#2d2d2d" d="M 245.5,192.5 C 245.833,192.5 246.167,192.5 246.5,192.5C 246.795,194.735 246.461,196.735 245.5,198.5C 245.5,196.5 245.5,194.5 245.5,192.5 Z"/></g>
<g><path style="opacity:0.008" fill="#000000" d="M 242.5,201.5 C 242.833,201.5 243.167,201.5 243.5,201.5C 243.315,202.17 242.981,202.17 242.5,201.5 Z"/></g>
<g><path style="opacity:0.012" fill="#545554" d="M 241.5,202.5 C 241.833,202.5 242.167,202.5 242.5,202.5C 242.315,203.17 241.981,203.17 241.5,202.5 Z"/></g>
<g><path style="opacity:0.008" fill="#000000" d="M 240.5,203.5 C 240.833,203.5 241.167,203.5 241.5,203.5C 241.315,204.17 240.981,204.17 240.5,203.5 Z"/></g>
<g><path style="opacity:0.004" fill="#2b2b2b" d="M 238.5,205.5 C 238.5,205.167 238.5,204.833 238.5,204.5C 239.167,204.5 239.833,204.5 240.5,204.5C 240.158,205.338 239.492,205.672 238.5,205.5 Z"/></g>
<g><path style="opacity:0.016" fill="#3e3f3e" d="M 237.5,205.5 C 237.833,205.5 238.167,205.5 238.5,205.5C 238.315,206.17 237.981,206.17 237.5,205.5 Z"/></g>
<g><path style="opacity:0.016" fill="#3e3f3e" d="M 236.5,206.5 C 236.833,206.5 237.167,206.5 237.5,206.5C 237.315,207.17 236.981,207.17 236.5,206.5 Z"/></g>
<g><path style="opacity:0.004" fill="#fffece" d="M 49.5,209.5 C 48.4265,208.749 48.2599,207.749 49,206.5C 49.4828,207.448 49.6495,208.448 49.5,209.5 Z"/></g>
<g><path style="opacity:0.008" fill="#7e7f7e" d="M 235.5,207.5 C 235.833,207.5 236.167,207.5 236.5,207.5C 236.315,208.17 235.981,208.17 235.5,207.5 Z"/></g>
<g><path style="opacity:1" fill="#5b5a5a" d="M 215.5,121.5 C 220.208,127.716 221.708,134.716 220,142.5C 218.681,144.487 216.848,145.654 214.5,146C 206.841,146.5 199.174,146.666 191.5,146.5C 190.609,144.709 189.609,142.876 188.5,141C 182.825,139.17 179.158,141.003 177.5,146.5C 182.335,155.331 186.001,164.664 188.5,174.5C 190.743,175.474 193.076,175.808 195.5,175.5C 195.281,176.675 195.614,177.675 196.5,178.5C 199.314,176.895 202.314,175.895 205.5,175.5C 204.312,176.364 203.145,177.364 202,178.5C 201.612,185.907 202.279,193.241 204,200.5C 204.388,201.428 205.055,202.095 206,202.5C 209.2,201.793 212.367,200.96 215.5,200C 213.984,198.103 213.317,195.936 213.5,193.5C 214.914,195.867 216.248,198.367 217.5,201C 203.745,203.937 190.411,208.103 177.5,213.5C 174.755,208.34 172.255,203.006 170,197.5C 168.844,193.582 168.344,189.582 168.5,185.5C 166.214,185.405 164.214,184.738 162.5,183.5C 171.25,183.745 179.917,183.078 188.5,181.5C 186.16,174.79 183.827,168.123 181.5,161.5C 180.399,157.294 178.733,153.294 176.5,149.5C 169.123,152.342 162.123,155.842 155.5,160C 152.518,160.498 149.518,160.665 146.5,160.5C 144.784,160.371 143.117,160.038 141.5,159.5C 139.5,157.329 137.666,154.996 136,152.5C 134.594,145.594 135.761,139.26 139.5,133.5C 145.553,124.964 153.553,118.797 163.5,115C 182.234,107.23 199.567,109.397 215.5,121.5 Z"/></g>
<g><path style="opacity:1" fill="#4dd3f7" d="M 188.5,181.5 C 189.586,181.62 190.253,182.287 190.5,183.5C 190.564,190.913 192.23,197.913 195.5,204.5C 192.232,206.645 188.732,208.312 185,209.5C 180.333,201.314 179.499,192.814 182.5,184C 184.611,183.155 186.611,182.322 188.5,181.5 Z"/></g>
<g><path style="opacity:1" fill="#eae0c0" d="M 157.5,145.5 C 162.38,151.403 165.88,150.736 168,143.5C 168.667,138.833 168.667,134.167 168,129.5C 166.939,126.438 165.106,123.938 162.5,122C 158.909,121.55 156.409,123.05 155,126.5C 154.501,130.486 154.334,134.486 154.5,138.5C 153.353,134.354 153.186,130.02 154,125.5C 158.617,118.848 163.283,118.848 168,125.5C 170.241,133.631 169.908,141.631 167,149.5C 162.481,152.003 159.314,150.669 157.5,145.5 Z"/></g>
<g><path style="opacity:1" fill="#ffd079" d="M 157.5,145.5 C 155.182,143.815 154.182,141.481 154.5,138.5C 154.334,134.486 154.501,130.486 155,126.5C 156.409,123.05 158.909,121.55 162.5,122C 165.106,123.938 166.939,126.438 168,129.5C 168.667,134.167 168.667,138.833 168,143.5C 165.88,150.736 162.38,151.403 157.5,145.5 Z"/></g>
<g><path style="opacity:1" fill="#fcd589" d="M 204.5,122.5 C 208.391,122.892 210.391,125.059 210.5,129C 210.494,134.19 208.328,138.024 204,140.5C 202.674,140.245 201.674,139.578 201,138.5C 199.432,132.375 200.599,127.042 204.5,122.5 Z"/></g>
<g><path style="opacity:0.004" fill="#1f1f1f" d="M 233.5,209.5 C 233.5,209.167 233.5,208.833 233.5,208.5C 234.167,208.5 234.833,208.5 235.5,208.5C 235.158,209.338 234.492,209.672 233.5,209.5 Z"/></g>
<g><path style="opacity:0.012" fill="#545554" d="M 232.5,209.5 C 232.833,209.5 233.167,209.5 233.5,209.5C 233.315,210.17 232.981,210.17 232.5,209.5 Z"/></g>
<g><path style="opacity:0.008" fill="#7e7f7e" d="M 231.5,210.5 C 231.833,210.5 232.167,210.5 232.5,210.5C 232.315,211.17 231.981,211.17 231.5,210.5 Z"/></g>
<g><path style="opacity:0.004" fill="#1f1f1f" d="M 229.5,212.5 C 229.5,212.167 229.5,211.833 229.5,211.5C 230.167,211.5 230.833,211.5 231.5,211.5C 231.158,212.338 230.492,212.672 229.5,212.5 Z"/></g>
<g><path style="opacity:0.012" fill="#545554" d="M 228.5,212.5 C 228.833,212.5 229.167,212.5 229.5,212.5C 229.315,213.17 228.981,213.17 228.5,212.5 Z"/></g>
<g><path style="opacity:0.006" fill="#000000" d="M 226.5,214.5 C 226.5,214.167 226.5,213.833 226.5,213.5C 227.167,213.5 227.833,213.5 228.5,213.5C 228.158,214.338 227.492,214.672 226.5,214.5 Z"/></g>
<g><path style="opacity:0.999" fill="#505052" d="M 162.5,183.5 C 160.833,183.5 159.167,183.5 157.5,183.5C 157.506,195.525 160.34,206.859 166,217.5C 167.414,218.413 168.914,218.413 170.5,217.5C 168.189,220.147 165.856,222.814 163.5,225.5C 152.45,211.353 147.45,195.353 148.5,177.5C 152.999,180.103 157.665,182.103 162.5,183.5 Z"/></g>
<g><path style="opacity:0.012" fill="#545554" d="M 225.5,214.5 C 225.833,214.5 226.167,214.5 226.5,214.5C 226.315,215.17 225.981,215.17 225.5,214.5 Z"/></g>
<g><path style="opacity:0.008" fill="#000000" d="M 223.5,216.5 C 223.5,216.167 223.5,215.833 223.5,215.5C 224.167,215.5 224.833,215.5 225.5,215.5C 225.158,216.338 224.492,216.672 223.5,216.5 Z"/></g>
<g><path style="opacity:0.012" fill="#545554" d="M 222.5,216.5 C 222.833,216.5 223.167,216.5 223.5,216.5C 223.315,217.17 222.981,217.17 222.5,216.5 Z"/></g>
<g><path style="opacity:0.004" fill="#1f1f1f" d="M 220.5,218.5 C 220.5,218.167 220.5,217.833 220.5,217.5C 221.167,217.5 221.833,217.5 222.5,217.5C 222.158,218.338 221.492,218.672 220.5,218.5 Z"/></g>
<g><path style="opacity:0.012" fill="#545554" d="M 219.5,218.5 C 219.833,218.5 220.167,218.5 220.5,218.5C 220.315,219.17 219.981,219.17 219.5,218.5 Z"/></g>
<g><path style="opacity:0.004" fill="#1f1f1f" d="M 217.5,220.5 C 217.5,220.167 217.5,219.833 217.5,219.5C 218.167,219.5 218.833,219.5 219.5,219.5C 219.158,220.338 218.492,220.672 217.5,220.5 Z"/></g>
<g><path style="opacity:0.004" fill="#1f1f1f" d="M 215.5,221.5 C 215.5,221.167 215.5,220.833 215.5,220.5C 216.167,220.5 216.833,220.5 217.5,220.5C 217.158,221.338 216.492,221.672 215.5,221.5 Z"/></g>
<g><path style="opacity:0.008" fill="#000000" d="M 213.5,222.5 C 213.5,222.167 213.5,221.833 213.5,221.5C 214.167,221.5 214.833,221.5 215.5,221.5C 215.158,222.338 214.492,222.672 213.5,222.5 Z"/></g>
<g><path style="opacity:0.008" fill="#535353" d="M 211.5,223.5 C 211.5,223.167 211.5,222.833 211.5,222.5C 212.167,222.5 212.833,222.5 213.5,222.5C 213.158,223.338 212.492,223.672 211.5,223.5 Z"/></g>
<g><path style="opacity:0.012" fill="#626262" d="M 209.5,224.5 C 209.5,224.167 209.5,223.833 209.5,223.5C 210.167,223.5 210.833,223.5 211.5,223.5C 211.158,224.338 210.492,224.672 209.5,224.5 Z"/></g>
<g><path style="opacity:0.008" fill="#707070" d="M 207.5,225.5 C 207.5,225.167 207.5,224.833 207.5,224.5C 208.167,224.5 208.833,224.5 209.5,224.5C 209.158,225.338 208.492,225.672 207.5,225.5 Z"/></g>
<g><path style="opacity:0.012" fill="#2c2c2c" d="M 204.5,226.5 C 204.5,226.167 204.5,225.833 204.5,225.5C 205.5,225.5 206.5,225.5 207.5,225.5C 206.791,226.404 205.791,226.737 204.5,226.5 Z"/></g>
<g><path style="opacity:0.677" fill="#3d3b3e" d="M 249.5,137.5 C 248.167,139.167 248.167,140.833 249.5,142.5C 249.768,144.099 249.434,145.432 248.5,146.5C 248.167,142.5 247.833,142.5 247.5,146.5C 247.167,146.5 246.833,146.5 246.5,146.5C 246.75,143.786 246.917,141.119 247,138.5C 243,130.5 239,122.5 235,114.5C 232.959,113.577 230.792,113.244 228.5,113.5C 233.716,128.078 237.216,143.078 239,158.5C 239.075,160.935 239.908,161.602 241.5,160.5C 241.833,161.833 242.167,161.833 242.5,160.5C 242.833,160.5 243.167,160.5 243.5,160.5C 243.579,164.202 243.246,167.868 242.5,171.5C 243.747,178.475 244.747,185.475 245.5,192.5C 244.167,194.5 244.167,196.5 245.5,198.5C 245.573,200.027 244.906,201.027 243.5,201.5C 243.167,200.167 242.833,200.167 242.5,201.5C 241.833,201.5 241.5,201.833 241.5,202.5C 240.833,202.5 240.5,202.833 240.5,203.5C 239.508,203.328 238.842,203.662 238.5,204.5C 237.833,204.5 237.5,204.833 237.5,205.5C 236.833,205.5 236.5,205.833 236.5,206.5C 235.833,206.5 235.5,206.833 235.5,207.5C 234.508,207.328 233.842,207.662 233.5,208.5C 232.833,208.5 232.5,208.833 232.5,209.5C 231.833,209.5 231.5,209.833 231.5,210.5C 230.508,210.328 229.842,210.662 229.5,211.5C 228.833,211.5 228.5,211.833 228.5,212.5C 227.508,212.328 226.842,212.662 226.5,213.5C 225.833,213.5 225.5,213.833 225.5,214.5C 224.508,214.328 223.842,214.662 223.5,215.5C 222.833,215.5 222.5,215.833 222.5,216.5C 221.508,216.328 220.842,216.662 220.5,217.5C 219.833,217.5 219.5,217.833 219.5,218.5C 218.508,218.328 217.842,218.662 217.5,219.5C 216.508,219.328 215.842,219.662 215.5,220.5C 214.508,220.328 213.842,220.662 213.5,221.5C 212.508,221.328 211.842,221.662 211.5,222.5C 210.508,222.328 209.842,222.662 209.5,223.5C 208.508,223.328 207.842,223.662 207.5,224.5C 206.209,224.263 205.209,224.596 204.5,225.5C 203.209,225.263 202.209,225.596 201.5,226.5C 188.546,229.824 175.546,232.157 162.5,233.5C 148.131,233.529 133.798,232.862 119.5,231.5C 112.717,229.678 105.717,228.344 98.5,227.5C 85.9288,224.273 73.5955,220.273 61.5,215.5C 74.1558,218.666 86.8225,221.499 99.5,224C 93.1734,218.519 89.0068,211.686 87,203.5C 86.0975,202.299 84.9308,201.465 83.5,201C 85.1124,200.28 86.6124,200.446 88,201.5C 89.9073,211.15 94.7406,218.983 102.5,225C 139.456,233.724 175.79,231.724 211.5,219C 223.518,214.254 233.352,206.754 241,196.5C 240.29,178.144 237.79,160.144 233.5,142.5C 232.878,134.997 230.878,127.997 227.5,121.5C 222.614,107.728 216.114,94.7277 208,82.5C 203.482,75.447 197.648,69.7803 190.5,65.5C 189.692,67.4233 189.192,69.4233 189,71.5C 189.03,68.6385 188.197,66.3052 186.5,64.5C 187.314,62.7274 188.648,62.2274 190.5,63C 196.291,65.98 201.457,69.8134 206,74.5C 206.667,73.1667 207.333,73.1667 208,74.5C 208.617,75.4491 208.451,76.2825 207.5,77C 209.138,77.242 210.638,78.0753 212,79.5C 212.635,80.9663 213.469,82.2997 214.5,83.5C 213.674,84.451 213.508,85.451 214,86.5C 214.667,87.8333 215.333,87.8333 216,86.5C 217.333,88.5 218.667,90.5 220,92.5C 221.333,96.5 222.667,100.5 224,104.5C 224.333,103.833 224.667,103.167 225,102.5C 226.167,104.833 227.333,107.167 228.5,109.5C 231.758,111.402 234.924,112.735 238,113.5C 239.495,115.11 239.661,116.776 238.5,118.5C 239.315,120.276 240.482,120.943 242,120.5C 243.217,122.52 243.383,124.52 242.5,126.5C 243.333,128.167 244.167,129.833 245,131.5C 245.333,130.833 245.667,130.167 246,129.5C 247.454,132.071 248.62,134.738 249.5,137.5 Z"/></g>
<g><path style="opacity:0.016" fill="#222222" d="M 201.5,226.5 C 202.5,226.5 203.5,226.5 204.5,226.5C 203.5,227.833 202.5,227.833 201.5,226.5 Z"/></g>
<g><path style="opacity:0.012" fill="#474747" d="M 98.5,227.5 C 98.5,227.833 98.5,228.167 98.5,228.5C 93.1667,228.167 93.1667,227.833 98.5,227.5 Z"/></g>
<g><path style="opacity:0.008" fill="#4f4f4f" d="M 98.5,228.5 C 100.099,228.232 101.432,228.566 102.5,229.5C 100.901,229.768 99.5676,229.434 98.5,228.5 Z"/></g>
<g><path style="opacity:0.016" fill="#353535" d="M 102.5,229.5 C 104.199,229.34 105.866,229.506 107.5,230C 105.613,230.78 103.946,230.613 102.5,229.5 Z"/></g>
<g><path style="opacity:0.016" fill="#2a2a2a" d="M 119.5,231.5 C 119.5,231.833 119.5,232.167 119.5,232.5C 111.5,232.167 111.5,231.833 119.5,231.5 Z"/></g>
<g><path style="opacity:0.006" fill="#1f1f1f" d="M 181.5,232.5 C 182.946,231.387 184.613,231.22 186.5,232C 184.866,232.494 183.199,232.66 181.5,232.5 Z"/></g>
<g><path style="opacity:0.016" fill="#2c2c2c" d="M 119.5,232.5 C 122.385,232.194 125.052,232.527 127.5,233.5C 124.615,233.806 121.948,233.473 119.5,232.5 Z"/></g>
<g><path style="opacity:0.016" fill="#4a4a4a" d="M 174.5,233.5 C 176.288,232.378 178.288,232.211 180.5,233C 178.527,233.495 176.527,233.662 174.5,233.5 Z"/></g>
<g><path style="opacity:0.016" fill="#373737" d="M 127.5,233.5 C 131.514,233.334 135.514,233.501 139.5,234C 135.311,234.812 131.311,234.645 127.5,233.5 Z"/></g>
<g><path style="opacity:0.016" fill="#3d3d3d" d="M 162.5,234.5 C 162.5,234.167 162.5,233.833 162.5,233.5C 177.167,233.833 177.167,234.167 162.5,234.5 Z"/></g>
<g><path style="opacity:0.006" fill="#090909" d="M 162.5,234.5 C 155.345,235.655 148.012,235.822 140.5,235C 147.826,234.5 155.159,234.334 162.5,234.5 Z"/></g>
</svg>
