<?xml version="1.0" encoding="UTF-8"?>
<!DOCTYPE svg PUBLIC "-//W3C//DTD SVG 1.1//EN" "http://www.w3.org/Graphics/SVG/1.1/DTD/svg11.dtd">
<svg xmlns="http://www.w3.org/2000/svg" version="1.1" width="300px" height="300px" style="shape-rendering:geometricPrecision; text-rendering:geometricPrecision; image-rendering:optimizeQuality; fill-rule:evenodd; clip-rule:evenodd" xmlns:xlink="http://www.w3.org/1999/xlink">
<g><path style="opacity:0.004" fill="#000000" d="M 131.5,49.5 C 130.761,49.631 130.094,49.4643 129.5,49C 130.437,48.3083 131.103,48.475 131.5,49.5 Z"/></g>
<g><path style="opacity:0.004" fill="#000000" d="M 131.5,49.5 C 132.833,50.1667 132.833,50.1667 131.5,49.5 Z"/></g>
<g><path style="opacity:0.004" fill="#000000" d="M 126.5,51.5 C 127.629,53.6282 127.796,55.9615 127,58.5C 126.503,56.1902 126.337,53.8568 126.5,51.5 Z"/></g>
<g><path style="opacity:0.004" fill="#000000" d="M 135.5,54.5 C 134.833,53.1667 134.833,53.1667 135.5,54.5 Z"/></g>
<g><path style="opacity:0.004" fill="#000000" d="M 135.5,54.5 C 136.525,54.8966 136.692,55.5632 136,56.5C 135.536,55.9056 135.369,55.2389 135.5,54.5 Z"/></g>
<g><path style="opacity:0.004" fill="#000000" d="M 125.5,60.5 C 126.622,62.2884 126.789,64.2884 126,66.5C 125.505,64.5273 125.338,62.5273 125.5,60.5 Z"/></g>
<g><path style="opacity:0.004" fill="#000000" d="M 139.5,65.5 C 139.167,65.5 138.833,65.5 138.5,65.5C 138.833,61.5 139.167,61.5 139.5,65.5 Z"/></g>
<g><path style="opacity:0.004" fill="#000000" d="M 139.5,65.5 C 140.525,65.8966 140.692,66.5632 140,67.5C 139.536,66.9056 139.369,66.2389 139.5,65.5 Z"/></g>
<g><path style="opacity:0.004" fill="#000000" d="M 142.5,73.5 C 142.167,73.5 141.833,73.5 141.5,73.5C 141.833,69.5 142.167,69.5 142.5,73.5 Z"/></g>
<g><path style="opacity:0.004" fill="#000000" d="M 142.5,73.5 C 143.525,73.8966 143.692,74.5632 143,75.5C 142.536,74.9056 142.369,74.2389 142.5,73.5 Z"/></g>
<g><path style="opacity:0.004" fill="#000000" d="M 149.5,80.5 C 150.833,81.1667 150.833,81.1667 149.5,80.5 Z"/></g>
<g><path style="opacity:0.004" fill="#000000" d="M 121.5,82.5 C 122.833,83.1667 122.833,83.1667 121.5,82.5 Z"/></g>
<g><path style="opacity:0.004" fill="#000000" d="M 117.5,86.5 C 118.573,87.2506 118.74,88.2506 118,89.5C 117.517,88.552 117.351,87.552 117.5,86.5 Z"/></g>
<g><path style="opacity:0.004" fill="#000000" d="M 163.5,88.5 C 164.167,87.1667 164.833,87.1667 165.5,88.5C 164.833,88.5 164.167,88.5 163.5,88.5 Z"/></g>
<g><path style="opacity:0.004" fill="#000000" d="M 165.5,88.5 C 166.833,89.1667 166.833,89.1667 165.5,88.5 Z"/></g>
<g><path style="opacity:0.004" fill="#000000" d="M 167.5,89.5 C 168.833,90.1667 168.833,90.1667 167.5,89.5 Z"/></g>
<g><path style="opacity:1" fill="#641a62" d="M 178.5,214.5 C 175.319,218.765 171.319,222.099 166.5,224.5C 176.683,205.061 180.516,184.394 178,162.5C 176.699,141.99 171.366,122.657 162,104.5C 159.38,99.7144 155.88,95.7144 151.5,92.5C 151.5,91.5 151.5,90.5 151.5,89.5C 165.937,91.7641 175.77,99.7641 181,113.5C 184.753,123.513 187.087,133.846 188,144.5C 188.971,159.494 189.304,174.494 189,189.5C 187.676,198.806 184.176,207.14 178.5,214.5 Z"/></g>
<g><path style="opacity:0.004" fill="#000000" d="M 114.5,93.5 C 115.833,94.1667 115.833,94.1667 114.5,93.5 Z"/></g>
<g><path style="opacity:1" fill="#2f1215" d="M 131.5,50.5 C 132.026,52.2303 133.026,53.5637 134.5,54.5C 135.459,58.383 136.792,62.0497 138.5,65.5C 138.98,68.4432 139.98,71.1098 141.5,73.5C 141.687,75.5643 142.187,77.5643 143,79.5C 143.807,75.551 144.307,75.551 144.5,79.5C 146.415,79.2155 148.081,79.5489 149.5,80.5C 141.5,80.8333 141.5,81.1667 149.5,81.5C 150.008,83.2327 150.841,83.566 152,82.5C 153.491,84.0037 155.324,84.8371 157.5,85C 155.833,85.3333 154.167,85.6667 152.5,86C 156.207,86.7373 159.873,87.5707 163.5,88.5C 167.434,91.2546 171.267,94.2546 175,97.5C 175.667,96.1667 176.333,96.1667 177,97.5C 176.383,99.0948 176.716,100.428 178,101.5C 178.333,101.167 178.667,100.833 179,100.5C 181.303,102.528 182.137,104.861 181.5,107.5C 182.275,109.396 183.275,111.063 184.5,112.5C 184.402,114.553 185.069,116.22 186.5,117.5C 186.232,119.099 186.566,120.432 187.5,121.5C 191.341,146.033 192.674,170.7 191.5,195.5C 190.566,196.568 190.232,197.901 190.5,199.5C 189.596,200.209 189.263,201.209 189.5,202.5C 188.069,203.78 187.402,205.447 187.5,207.5C 185.618,208.221 185.285,209.221 186.5,210.5C 185.714,214.324 183.714,216.324 180.5,216.5C 180.5,215.167 179.833,214.5 178.5,214.5C 184.176,207.14 187.676,198.806 189,189.5C 189.304,174.494 188.971,159.494 188,144.5C 187.087,133.846 184.753,123.513 181,113.5C 175.77,99.7641 165.937,91.7641 151.5,89.5C 151.5,90.5 151.5,91.5 151.5,92.5C 147.818,94.6742 143.818,96.1742 139.5,97C 133.055,97.5999 126.722,97.2666 120.5,96C 100.808,109.512 91.4747,128.345 92.5,152.5C 91.913,179.534 99.913,203.534 116.5,224.5C 116.672,225.492 116.338,226.158 115.5,226.5C 115.5,225.833 115.167,225.5 114.5,225.5C 114.5,224.833 114.167,224.5 113.5,224.5C 112.149,221.908 110.315,220.574 108,220.5C 107.383,219.551 107.549,218.718 108.5,218C 107.448,216.881 106.281,216.381 105,216.5C 104.209,215.255 103.709,213.922 103.5,212.5C 104.833,211.833 104.833,211.167 103.5,210.5C 103.5,209.833 103.167,209.5 102.5,209.5C 101.07,205.646 99.4031,201.979 97.5,198.5C 90.5252,177.292 88.6919,155.625 92,133.5C 93.2712,126.853 95.4378,120.52 98.5,114.5C 97.8635,111.861 98.6968,109.528 101,107.5C 101.914,108.654 102.747,108.487 103.5,107C 102.216,105.703 102.383,104.536 104,103.5C 104.333,103.833 104.667,104.167 105,104.5C 109.014,99.5832 113.848,95.7499 119.5,93C 117.203,91.8403 117.536,90.8403 120.5,90C 119.483,88.9505 119.316,87.7839 120,86.5C 121.579,84.9588 123.413,83.7922 125.5,83C 124.833,82.6667 124.167,82.3333 123.5,82C 124.303,77.5855 124.803,73.0855 125,68.5C 125.333,72.5 125.667,76.5 126,80.5C 126.999,70.5073 127.833,60.5073 128.5,50.5C 129.5,50.5 130.5,50.5 131.5,50.5 Z"/></g>
<g><path style="opacity:1" fill="#83237f" d="M 148.5,85.5 C 149.649,85.7911 150.316,86.6244 150.5,88C 150.333,88.8333 150.167,89.6667 150,90.5C 144.695,93.4906 139.029,95.4906 133,96.5C 129.511,95.7243 126.011,95.0577 122.5,94.5C 122.149,92.1305 121.982,89.7972 122,87.5C 122.833,88.3333 123.667,89.1667 124.5,90C 129.5,90.6667 134.5,90.6667 139.5,90C 143.11,89.5283 146.11,88.0283 148.5,85.5 Z"/></g>
<g><path style="opacity:1" fill="#a1599b" d="M 128.5,84.5 C 129.167,84.8333 129.833,85.1667 130.5,85.5C 134.937,87.272 138.937,86.4387 142.5,83C 148.121,82.1557 148.787,83.4891 144.5,87C 138.369,89.3441 132.036,90.0108 125.5,89C 124.833,88.3333 124.167,87.6667 123.5,87C 124.91,85.6283 126.577,84.795 128.5,84.5 Z"/></g>
<g><path style="opacity:1" fill="#e1e0e1" d="M 130.5,85.5 C 129.833,85.1667 129.167,84.8333 128.5,84.5C 128.214,74.7372 129.048,65.0705 131,55.5C 135.173,63.6846 138.673,72.1846 141.5,81C 138.724,84.3229 135.058,85.8229 130.5,85.5 Z"/></g>
<g><path style="opacity:0.004" fill="#000000" d="M 185.5,112.5 C 185.167,112.5 184.833,112.5 184.5,112.5C 184.833,109.833 185.167,109.833 185.5,112.5 Z"/></g>
<g><path style="opacity:0.004" fill="#000000" d="M 185.5,112.5 C 186.525,112.897 186.692,113.563 186,114.5C 185.536,113.906 185.369,113.239 185.5,112.5 Z"/></g>
<g><path style="opacity:0.004" fill="#000000" d="M 186.5,117.5 C 186.369,116.761 186.536,116.094 187,115.5C 187.692,116.437 187.525,117.103 186.5,117.5 Z"/></g>
<g><path style="opacity:0.004" fill="#000000" d="M 188.5,121.5 C 188.167,121.5 187.833,121.5 187.5,121.5C 187.833,117.5 188.167,117.5 188.5,121.5 Z"/></g>
<g><path style="opacity:0.004" fill="#000000" d="M 188.5,121.5 C 189.573,122.251 189.74,123.251 189,124.5C 188.517,123.552 188.351,122.552 188.5,121.5 Z"/></g>
<g><path style="opacity:0.004" fill="#000000" d="M 91.5,125.5 C 92.5735,126.251 92.7401,127.251 92,128.5C 91.5172,127.552 91.3505,126.552 91.5,125.5 Z"/></g>
<g><path style="opacity:0.004" fill="#000000" d="M 189.5,125.5 C 190.598,126.601 190.765,127.934 190,129.5C 189.51,128.207 189.343,126.873 189.5,125.5 Z"/></g>
<g><path style="opacity:0.004" fill="#000000" d="M 90.5,129.5 C 91.5735,130.251 91.7401,131.251 91,132.5C 90.5172,131.552 90.3505,130.552 90.5,129.5 Z"/></g>
<g><path style="opacity:0.004" fill="#000000" d="M 190.5,130.5 C 191.613,131.946 191.78,133.613 191,135.5C 190.506,133.866 190.34,132.199 190.5,130.5 Z"/></g>
<g><path style="opacity:0.004" fill="#000000" d="M 89.5,133.5 C 90.6129,134.946 90.7796,136.613 90,138.5C 89.5065,136.866 89.3398,135.199 89.5,133.5 Z"/></g>
<g><path style="opacity:1" fill="#8e268c" d="M 151.5,92.5 C 155.88,95.7144 159.38,99.7144 162,104.5C 171.366,122.657 176.699,141.99 178,162.5C 180.516,184.394 176.683,205.061 166.5,224.5C 154.291,231.312 141.291,233.812 127.5,232C 123.458,229.984 119.791,227.484 116.5,224.5C 99.913,203.534 91.913,179.534 92.5,152.5C 91.4747,128.345 100.808,109.512 120.5,96C 126.722,97.2666 133.055,97.5999 139.5,97C 143.818,96.1742 147.818,94.6742 151.5,92.5 Z"/></g>
<g><path style="opacity:0.945" fill="#42181d" d="M 108.5,154.5 C 103.559,152.558 99.8922,149.225 97.5,144.5C 97.4013,141.763 97.7347,139.096 98.5,136.5C 101.27,132.395 104.937,129.395 109.5,127.5C 125.222,123.356 141.222,121.856 157.5,123C 169.262,127.823 171.262,135.156 163.5,145C 160.618,146.608 157.618,147.941 154.5,149C 139.309,151.982 123.975,153.816 108.5,154.5 Z"/></g>
<g><path style="opacity:0.999" fill="#391036" d="M 105.5,142.5 C 107.554,147.099 111.221,149.099 116.5,148.5C 130.105,146.128 143.772,144.128 157.5,142.5C 159.836,141.657 162.169,141.157 164.5,141C 161.108,145.053 156.775,147.386 151.5,148C 137.276,150.737 122.943,152.07 108.5,152C 101.415,149.664 98.5817,144.831 100,137.5C 100.941,135.939 102.108,134.605 103.5,133.5C 104.167,136.642 104.834,139.642 105.5,142.5 Z"/></g>
<g><path style="opacity:1" fill="#f1e42f" d="M 128.5,131.5 C 127.173,143.912 121.007,147.246 110,141.5C 108.711,138.649 108.211,135.649 108.5,132.5C 108.511,130.983 109.177,129.816 110.5,129C 115.005,127.038 119.672,126.371 124.5,127C 126.041,128.371 127.375,129.871 128.5,131.5 Z"/></g>
<g><path style="opacity:1" fill="#f2e430" d="M 155.5,124.5 C 157.587,125.585 158.92,127.251 159.5,129.5C 159.7,137.635 155.7,141.969 147.5,142.5C 141.304,141.313 138.304,137.48 138.5,131C 138.58,129.106 138.913,127.273 139.5,125.5C 144.792,124.505 150.125,124.172 155.5,124.5 Z"/></g>
<g><path style="opacity:1" fill="#461d16" d="M 155.5,124.5 C 150.125,124.172 144.792,124.505 139.5,125.5C 138.913,127.273 138.58,129.106 138.5,131C 138.304,137.48 141.304,141.313 147.5,142.5C 155.7,141.969 159.7,137.635 159.5,129.5C 160.302,130.952 160.802,132.618 161,134.5C 160.37,127.181 162.037,126.181 166,131.5C 166.808,133.579 166.641,135.579 165.5,137.5C 162.618,138.961 159.618,140.127 156.5,141C 157.056,141.383 157.389,141.883 157.5,142.5C 143.772,144.128 130.105,146.128 116.5,148.5C 111.221,149.099 107.554,147.099 105.5,142.5C 105.338,140.473 105.505,138.473 106,136.5C 106.333,136.833 106.667,137.167 107,137.5C 107.198,135.618 107.698,133.952 108.5,132.5C 108.211,135.649 108.711,138.649 110,141.5C 121.007,147.246 127.173,143.912 128.5,131.5C 129.302,132.952 129.802,134.618 130,136.5C 130.667,134.5 130.667,132.5 130,130.5C 128.5,129 127,127.5 125.5,126C 125.833,125.667 126.167,125.333 126.5,125C 136.313,123.559 145.98,123.393 155.5,124.5 Z"/></g>
<g><path style="opacity:1" fill="#4a2916" d="M 117.5,132.5 C 121.161,132.35 122.161,133.85 120.5,137C 119.552,137.483 118.552,137.649 117.5,137.5C 117.5,135.833 117.5,134.167 117.5,132.5 Z"/></g>
<g><path style="opacity:1" fill="#452314" d="M 147.5,129.5 C 148.5,129.5 149.5,129.5 150.5,129.5C 150.5,131.167 150.5,132.833 150.5,134.5C 149.5,134.5 148.5,134.5 147.5,134.5C 147.5,132.833 147.5,131.167 147.5,129.5 Z"/></g>
<g><path style="opacity:1" fill="#c18ac0" d="M 109.5,127.5 C 104.937,129.395 101.27,132.395 98.5,136.5C 98.717,132.015 100.217,128.015 103,124.5C 104.897,122.984 107.064,122.317 109.5,122.5C 109.5,124.167 109.5,125.833 109.5,127.5 Z"/></g>
<g><path style="opacity:1" fill="#c58fc4" d="M 114.5,108.5 C 119.659,108.136 121.492,110.47 120,115.5C 117.839,119.124 114.672,120.291 110.5,119C 107.719,114.048 109.052,110.548 114.5,108.5 Z"/></g>
<g><path style="opacity:0.004" fill="#000000" d="M 191.5,137.5 C 192.634,139.966 192.801,142.633 192,145.5C 191.503,142.854 191.336,140.187 191.5,137.5 Z"/></g>
<g><path style="opacity:0.004" fill="#000000" d="M 88.5,139.5 C 89.6378,142.304 89.8045,145.304 89,148.5C 88.502,145.518 88.3354,142.518 88.5,139.5 Z"/></g>
<g><path style="opacity:0.004" fill="#000000" d="M 192.5,148.5 C 193.654,154.987 193.821,161.654 193,168.5C 192.5,161.842 192.334,155.175 192.5,148.5 Z"/></g>
<g><path style="opacity:1" fill="#c58fc4" d="M 97.5,144.5 C 99.8922,149.225 103.559,152.558 108.5,154.5C 110.21,160.011 110.877,165.677 110.5,171.5C 106.088,170.93 102.922,168.597 101,164.5C 98.4802,158.068 97.3136,151.401 97.5,144.5 Z"/></g>
<g><path style="opacity:0.004" fill="#000000" d="M 88.5,159.5 C 89.6408,162.64 89.8075,165.973 89,169.5C 88.5017,166.183 88.335,162.85 88.5,159.5 Z"/></g>
<g><path style="opacity:0.004" fill="#000000" d="M 90.5,176.5 C 89.3775,174.712 89.2109,172.712 90,170.5C 90.4955,172.473 90.6621,174.473 90.5,176.5 Z"/></g>
<g><path style="opacity:0.004" fill="#000000" d="M 193.5,174.5 C 194.65,179.316 194.816,184.316 194,189.5C 193.501,184.511 193.334,179.511 193.5,174.5 Z"/></g>
<g><path style="opacity:0.004" fill="#000000" d="M 90.5,176.5 C 91.6129,177.946 91.7796,179.613 91,181.5C 90.5065,179.866 90.3398,178.199 90.5,176.5 Z"/></g>
<g><path style="opacity:0.998" fill="#481820" d="M 148.5,176.5 C 150.5,176.5 152.5,176.5 154.5,176.5C 155.66,183.783 156.327,191.117 156.5,198.5C 154.5,198.5 152.5,198.5 150.5,198.5C 149.57,191.195 148.903,183.862 148.5,176.5 Z"/></g>
<g><path style="opacity:0.997" fill="#47181f" d="M 130.5,177.5 C 132.5,177.5 134.5,177.5 136.5,177.5C 138,184.812 138.333,192.146 137.5,199.5C 133.678,201.197 131.845,199.863 132,195.5C 131.037,189.535 130.537,183.535 130.5,177.5 Z"/></g>
<g><path style="opacity:0.998" fill="#481820" d="M 140.5,176.5 C 142.5,176.5 144.5,176.5 146.5,176.5C 146.873,182.859 147.54,189.192 148.5,195.5C 147.916,198.8 145.916,200.134 142.5,199.5C 141.019,191.916 140.352,184.249 140.5,176.5 Z"/></g>
<g><path style="opacity:0.004" fill="#000000" d="M 192.5,195.5 C 192.34,193.801 192.506,192.134 193,190.5C 193.78,192.387 193.613,194.054 192.5,195.5 Z"/></g>
<g><path style="opacity:0.004" fill="#000000" d="M 191.5,195.5 C 191.833,195.5 192.167,195.5 192.5,195.5C 192.768,197.099 192.434,198.432 191.5,199.5C 191.5,198.167 191.5,196.833 191.5,195.5 Z"/></g>
<g><path style="opacity:0.939" fill="#491822" d="M 121.5,178.5 C 123.5,178.5 125.5,178.5 127.5,178.5C 128.819,185.765 129.485,193.098 129.5,200.5C 127.54,201.138 125.707,201.138 124,200.5C 122.443,193.262 121.609,185.929 121.5,178.5 Z"/></g>
<g><path style="opacity:0.004" fill="#000000" d="M 97.5,198.5 C 97.631,199.239 97.4643,199.906 97,200.5C 96.3083,199.563 96.475,198.897 97.5,198.5 Z"/></g>
<g><path style="opacity:0.004" fill="#000000" d="M 190.5,199.5 C 190.833,199.5 191.167,199.5 191.5,199.5C 191.737,200.791 191.404,201.791 190.5,202.5C 190.5,201.5 190.5,200.5 190.5,199.5 Z"/></g>
<g><path style="opacity:0.004" fill="#000000" d="M 97.5,201.5 C 98.525,201.897 98.6917,202.563 98,203.5C 97.5357,202.906 97.369,202.239 97.5,201.5 Z"/></g>
<g><path style="opacity:0.004" fill="#000000" d="M 189.5,202.5 C 189.833,202.5 190.167,202.5 190.5,202.5C 190.167,205.167 189.833,205.167 189.5,202.5 Z"/></g>
<g><path style="opacity:0.004" fill="#000000" d="M 188.5,207.5 C 188.369,206.761 188.536,206.094 189,205.5C 189.692,206.437 189.525,207.103 188.5,207.5 Z"/></g>
<g><path style="opacity:0.004" fill="#000000" d="M 187.5,207.5 C 187.833,207.5 188.167,207.5 188.5,207.5C 188.315,208.17 187.981,208.17 187.5,207.5 Z"/></g>
<g><path style="opacity:0.004" fill="#000000" d="M 102.5,209.5 C 103.167,209.5 103.5,209.833 103.5,210.5C 103.5,211.167 103.5,211.833 103.5,212.5C 101.618,211.779 101.285,210.779 102.5,209.5 Z"/></g>
<g><path style="opacity:0.004" fill="#000000" d="M 186.5,209.5 C 187.833,210.167 187.833,210.167 186.5,209.5 Z"/></g>
<g><path style="opacity:0.004" fill="#000000" d="M 191.5,219.5 C 191.897,218.475 192.563,218.308 193.5,219C 192.906,219.464 192.239,219.631 191.5,219.5 Z"/></g>
<g><path style="opacity:0.004" fill="#000000" d="M 194.5,219.5 C 195.833,220.167 195.833,220.167 194.5,219.5 Z"/></g>
<g><path style="opacity:0.005" fill="#000000" d="M 113.5,224.5 C 114.167,224.5 114.5,224.833 114.5,225.5C 114.5,225.833 114.5,226.167 114.5,226.5C 112.576,226.289 112.243,225.623 113.5,224.5 Z"/></g>
<g><path style="opacity:0.005" fill="#000000" d="M 202.5,228.5 C 202.5,228.167 202.5,227.833 202.5,227.5C 209.167,227.833 209.167,228.167 202.5,228.5 Z"/></g>
<g><path style="opacity:0.004" fill="#000000" d="M 259.5,232.5 C 263.981,231.352 268.648,231.185 273.5,232C 268.845,232.499 264.179,232.666 259.5,232.5 Z"/></g>
<g><path style="opacity:0.005" fill="#000000" d="M 254.5,233.5 C 255.601,232.402 256.934,232.235 258.5,233C 257.207,233.49 255.873,233.657 254.5,233.5 Z"/></g>
<g><path style="opacity:0.005" fill="#000000" d="M 274.5,233.5 C 275.601,232.402 276.934,232.235 278.5,233C 277.207,233.49 275.873,233.657 274.5,233.5 Z"/></g>
<g><path style="opacity:0.004" fill="#000000" d="M 279.5,234.5 C 280.251,233.427 281.251,233.26 282.5,234C 281.552,234.483 280.552,234.649 279.5,234.5 Z"/></g>
<g><path style="opacity:0.004" fill="#000000" d="M 283.5,235.5 C 283.897,234.475 284.563,234.308 285.5,235C 284.906,235.464 284.239,235.631 283.5,235.5 Z"/></g>
<g><path style="opacity:0.005" fill="#000000" d="M 73.5,237.5 C 67.8236,237.666 62.1569,237.499 56.5,237C 62.3487,236.182 68.0154,236.348 73.5,237.5 Z"/></g>
<g><path style="opacity:0.006" fill="#000000" d="M 101.5,237.5 C 100.761,237.631 100.094,237.464 99.5,237C 100.437,236.308 101.103,236.475 101.5,237.5 Z"/></g>
<g><path style="opacity:0.005" fill="#000000" d="M 55.5,238.5 C 54.448,238.649 53.448,238.483 52.5,238C 53.7494,237.26 54.7494,237.427 55.5,238.5 Z"/></g>
<g><path style="opacity:0.005" fill="#000000" d="M 73.5,238.5 C 73.5,238.167 73.5,237.833 73.5,237.5C 77.5,237.833 77.5,238.167 73.5,238.5 Z"/></g>
<g><path style="opacity:0.004" fill="#000000" d="M 96.5,238.5 C 96.8966,237.475 97.5632,237.308 98.5,238C 97.9056,238.464 97.2389,238.631 96.5,238.5 Z"/></g>
<g><path style="opacity:1" fill="#3a1319" d="M 178.5,214.5 C 179.833,214.5 180.5,215.167 180.5,216.5C 183.888,218.118 187.554,219.118 191.5,219.5C 192.209,220.404 193.209,220.737 194.5,220.5C 197.499,223.213 200.166,225.546 202.5,227.5C 201.167,227.833 201.167,228.167 202.5,228.5C 208.699,229.736 214.699,231.903 220.5,235C 223.454,237.441 225.787,240.275 227.5,243.5C 227.328,244.492 227.662,245.158 228.5,245.5C 228.263,246.791 228.596,247.791 229.5,248.5C 229.833,249.833 230.167,249.833 230.5,248.5C 231.167,248.5 231.5,248.167 231.5,247.5C 235.524,244.469 239.524,241.469 243.5,238.5C 244.492,238.672 245.158,238.338 245.5,237.5C 248.67,236.735 251.67,235.735 254.5,234.5C 261.137,233.724 267.804,233.391 274.5,233.5C 275.919,234.451 277.585,234.784 279.5,234.5C 285.672,236.582 291.672,239.248 297.5,242.5C 297.842,243.338 298.508,243.672 299.5,243.5C 299.5,245.167 299.5,246.833 299.5,248.5C 295.528,246.178 291.528,243.845 287.5,241.5C 284.785,244.057 282.618,247.057 281,250.5C 279.47,258.436 279.137,266.436 280,274.5C 281.363,282.951 283.197,291.284 285.5,299.5C 285.167,299.5 284.833,299.5 284.5,299.5C 277.641,282.964 276.141,265.964 280,248.5C 281.061,245.438 282.894,242.938 285.5,241C 263.717,233.321 244.884,237.821 229,254.5C 225.12,259.927 222.62,265.927 221.5,272.5C 220.374,281.493 220.374,290.493 221.5,299.5C 221.167,299.5 220.833,299.5 220.5,299.5C 219.468,289.522 219.301,279.522 220,269.5C 220.91,264.349 222.91,259.682 226,255.5C 226.667,252.833 226.667,250.167 226,247.5C 225.722,248.416 225.222,249.082 224.5,249.5C 225.3,244.874 223.966,241.04 220.5,238C 214.429,235.254 208.095,233.421 201.5,232.5C 201.225,239.047 201.558,245.547 202.5,252C 199.624,255.376 196.291,258.209 192.5,260.5C 168.642,271.159 143.975,273.326 118.5,267C 115.588,265.627 112.754,264.127 110,262.5C 107.133,255.093 105.966,247.426 106.5,239.5C 98.0734,241.047 90.7401,244.713 84.5,250.5C 85.4132,248.914 85.4132,247.414 84.5,246C 78.1442,243.073 71.4776,241.907 64.5,242.5C 54.5702,241.732 45.5702,244.232 37.5,250C 35.2663,251.638 33.933,253.805 33.5,256.5C 32.3478,255.375 31.3478,255.375 30.5,256.5C 19.4729,269.042 16.4729,283.375 21.5,299.5C 20.5,299.5 19.5,299.5 18.5,299.5C 18.5,298.833 18.1667,298.5 17.5,298.5C 15.1716,286.514 16.505,275.014 21.5,264C 21.0426,263.586 20.7093,263.086 20.5,262.5C 22.3102,262.577 23.6435,261.41 24.5,259C 23.5494,258.282 23.3828,257.449 24,256.5C 24.6667,255.167 25.3333,255.167 26,256.5C 33.9855,247.323 43.8188,241.323 55.5,238.5C 61.5,238.5 67.5,238.5 73.5,238.5C 75.3024,239.458 77.3024,240.125 79.5,240.5C 82.0744,241.881 84.5744,243.548 87,245.5C 91.6862,242.41 96.5196,239.744 101.5,237.5C 104.598,237.587 104.932,237.087 102.5,236C 106.975,233.35 110.975,230.183 114.5,226.5C 114.833,226.5 115.167,226.5 115.5,226.5C 116.338,226.158 116.672,225.492 116.5,224.5C 119.791,227.484 123.458,229.984 127.5,232C 141.291,233.812 154.291,231.312 166.5,224.5C 171.319,222.099 175.319,218.765 178.5,214.5 Z"/></g>
<g><path style="opacity:0.004" fill="#000000" d="M 245.5,237.5 C 244.833,236.167 244.833,236.167 245.5,237.5 Z"/></g>
<g><path style="opacity:1" fill="#8e278b" d="M 224.5,249.5 C 223.833,249.5 223.5,249.833 223.5,250.5C 220.833,257.833 215.833,262.833 208.5,265.5C 203.178,263.837 197.845,262.171 192.5,260.5C 196.291,258.209 199.624,255.376 202.5,252C 201.558,245.547 201.225,239.047 201.5,232.5C 208.095,233.421 214.429,235.254 220.5,238C 223.966,241.04 225.3,244.874 224.5,249.5 Z"/></g>
<g><path style="opacity:0.004" fill="#000000" d="M 254.5,233.5 C 254.5,233.833 254.5,234.167 254.5,234.5C 250.5,234.167 250.5,233.833 254.5,233.5 Z"/></g>
<g><path style="opacity:1" fill="#4e144d" d="M 176.5,220.5 C 182.249,221.187 187.916,222.353 193.5,224C 201.171,228.391 201.504,233.391 194.5,239C 171.19,252.327 146.523,255.66 120.5,249C 116.131,247.579 112.631,245.079 110,241.5C 108.074,234.413 110.74,230.08 118,228.5C 121.405,230.453 124.905,232.287 128.5,234C 132.833,234.333 137.167,234.667 141.5,235C 147.678,240.302 154.178,240.802 161,236.5C 162.61,234.403 163.777,232.07 164.5,229.5C 169.108,227.213 173.108,224.213 176.5,220.5 Z"/></g>
<g><path style="opacity:1" fill="#5b5758" d="M 159.5,231.5 C 161.028,231.517 161.528,232.184 161,233.5C 156.159,238.051 150.993,238.551 145.5,235C 150.44,234.432 155.107,233.265 159.5,231.5 Z"/></g>
<g><path style="opacity:0.004" fill="#000000" d="M 243.5,238.5 C 242.833,237.167 242.833,237.167 243.5,238.5 Z"/></g>
<g><path style="opacity:0.004" fill="#000000" d="M 79.5,240.5 C 79.8966,239.475 80.5632,239.308 81.5,240C 80.9056,240.464 80.2389,240.631 79.5,240.5 Z"/></g>
<g><path style="opacity:1" fill="#621a5e" d="M 189.5,259.5 C 189.23,254.55 188.23,249.883 186.5,245.5C 191.182,243.391 195.349,240.391 199,236.5C 199.559,241.863 199.892,247.196 200,252.5C 196.729,255.216 193.229,257.549 189.5,259.5 Z"/></g>
<g><path style="opacity:1" fill="#641a62" d="M 284.5,299.5 C 263.5,299.5 242.5,299.5 221.5,299.5C 220.374,290.493 220.374,281.493 221.5,272.5C 222.62,265.927 225.12,259.927 229,254.5C 244.884,237.821 263.717,233.321 285.5,241C 282.894,242.938 281.061,245.438 280,248.5C 276.141,265.964 277.641,282.964 284.5,299.5 Z"/></g>
<g><path style="opacity:1" fill="#af66ac" d="M 192.5,260.5 C 197.845,262.171 203.178,263.837 208.5,265.5C 203.823,268.166 198.823,270.333 193.5,272C 167.849,278.633 141.849,280.3 115.5,277C 107.081,275.124 99.0813,272.124 91.5,268C 88.628,265.463 86.128,262.63 84,259.5C 83.3658,256.445 83.5325,253.445 84.5,250.5C 90.7401,244.713 98.0734,241.047 106.5,239.5C 105.966,247.426 107.133,255.093 110,262.5C 112.754,264.127 115.588,265.627 118.5,267C 143.975,273.326 168.642,271.159 192.5,260.5 Z"/></g>
<g><path style="opacity:0.004" fill="#000000" d="M 227.5,243.5 C 227.369,242.761 227.536,242.094 228,241.5C 228.692,242.437 228.525,243.103 227.5,243.5 Z"/></g>
<g><path style="opacity:0.004" fill="#000000" d="M 297.5,242.5 C 297.842,241.662 298.508,241.328 299.5,241.5C 299.5,241.833 299.5,242.167 299.5,242.5C 298.833,242.5 298.167,242.5 297.5,242.5 Z"/></g>
<g><path style="opacity:1" fill="#ae65ab" d="M 64.5,242.5 C 64.2189,244.963 63.2189,247.13 61.5,249C 54.1667,253 46.8333,257 39.5,261C 36.2678,264.062 33.2678,267.229 30.5,270.5C 30.4849,265.572 31.4849,260.906 33.5,256.5C 33.933,253.805 35.2663,251.638 37.5,250C 45.5702,244.232 54.5702,241.732 64.5,242.5 Z"/></g>
<g><path style="opacity:0.004" fill="#000000" d="M 36.5,244.5 C 37.8333,245.167 37.8333,245.167 36.5,244.5 Z"/></g>
<g><path style="opacity:1" fill="#641a62" d="M 64.5,242.5 C 71.4776,241.907 78.1442,243.073 84.5,246C 85.4132,247.414 85.4132,248.914 84.5,250.5C 81.1287,253.51 79.7954,257.344 80.5,262C 81.6869,274.494 82.6869,286.994 83.5,299.5C 67.1667,299.5 50.8333,299.5 34.5,299.5C 31.6132,290.075 30.2799,280.409 30.5,270.5C 33.2678,267.229 36.2678,264.062 39.5,261C 46.8333,257 54.1667,253 61.5,249C 63.2189,247.13 64.2189,244.963 64.5,242.5 Z"/></g>
<g><path style="opacity:0.004" fill="#000000" d="M 228.5,244.5 C 229.833,245.167 229.833,245.167 228.5,244.5 Z"/></g>
<g><path style="opacity:1" fill="#641a62" d="M 299.5,248.5 C 299.5,265.5 299.5,282.5 299.5,299.5C 294.833,299.5 290.167,299.5 285.5,299.5C 283.197,291.284 281.363,282.951 280,274.5C 279.137,266.436 279.47,258.436 281,250.5C 282.618,247.057 284.785,244.057 287.5,241.5C 291.528,243.845 295.528,246.178 299.5,248.5 Z"/></g>
<g><path style="opacity:0.006" fill="#1e0600" d="M 231.5,247.5 C 230.833,247.5 230.5,247.833 230.5,248.5C 230.167,248.5 229.833,248.5 229.5,248.5C 229.711,246.576 230.377,246.243 231.5,247.5 Z"/></g>
<g><path style="opacity:1" fill="#8c2688" d="M 186.5,245.5 C 188.23,249.883 189.23,254.55 189.5,259.5C 166.818,269.181 143.485,271.015 119.5,265C 115.006,264.288 112.006,261.955 110.5,258C 109.337,253.201 108.837,248.368 109,243.5C 112.472,247.107 116.639,249.607 121.5,251C 143.807,256.834 165.474,255.001 186.5,245.5 Z"/></g>
<g><path style="opacity:1" fill="#641b62" d="M 220.5,299.5 C 217.167,299.5 213.833,299.5 210.5,299.5C 210.607,288.966 209.94,278.633 208.5,268.5C 215.657,264.842 220.99,259.342 224.5,252C 224.43,251.235 224.097,250.735 223.5,250.5C 223.5,249.833 223.833,249.5 224.5,249.5C 225.222,249.082 225.722,248.416 226,247.5C 226.667,250.167 226.667,252.833 226,255.5C 222.91,259.682 220.91,264.349 220,269.5C 219.301,279.522 219.468,289.522 220.5,299.5 Z"/></g>
<g><path style="opacity:1" fill="#ac63a8" d="M 30.5,256.5 C 31.0431,256.56 31.3764,256.893 31.5,257.5C 29.9939,263.437 28.9939,269.437 28.5,275.5C 27.2237,277.562 26.3903,279.896 26,282.5C 25.5006,288.157 25.3339,293.824 25.5,299.5C 24.1667,299.5 22.8333,299.5 21.5,299.5C 16.4729,283.375 19.4729,269.042 30.5,256.5 Z"/></g>
<g><path style="opacity:1" fill="#8f278d" d="M 208.5,268.5 C 209.94,278.633 210.607,288.966 210.5,299.5C 172.5,299.5 134.5,299.5 96.5,299.5C 96.666,294.156 96.4994,288.823 96,283.5C 93.5177,278.859 89.6844,275.859 84.5,274.5C 83.4042,270.587 83.2375,266.587 84,262.5C 95.3242,273.951 109.158,279.785 125.5,280C 154.13,282.63 181.797,278.797 208.5,268.5 Z"/></g>
<g><path style="opacity:1" fill="#481a29" d="M 84.5,250.5 C 83.5325,253.445 83.3658,256.445 84,259.5C 86.128,262.63 88.628,265.463 91.5,268C 99.0813,272.124 107.081,275.124 115.5,277C 141.849,280.3 167.849,278.633 193.5,272C 198.823,270.333 203.823,268.166 208.5,265.5C 215.833,262.833 220.833,257.833 223.5,250.5C 224.097,250.735 224.43,251.235 224.5,252C 220.99,259.342 215.657,264.842 208.5,268.5C 181.797,278.797 154.13,282.63 125.5,280C 109.158,279.785 95.3242,273.951 84,262.5C 83.2375,266.587 83.4042,270.587 84.5,274.5C 86.1804,282.722 86.847,291.055 86.5,299.5C 85.5,299.5 84.5,299.5 83.5,299.5C 82.6869,286.994 81.6869,274.494 80.5,262C 79.7954,257.344 81.1287,253.51 84.5,250.5 Z"/></g>
<g><path style="opacity:1" fill="#c58fc4" d="M 84.5,274.5 C 89.6844,275.859 93.5177,278.859 96,283.5C 96.4994,288.823 96.666,294.156 96.5,299.5C 93.1667,299.5 89.8333,299.5 86.5,299.5C 86.847,291.055 86.1804,282.722 84.5,274.5 Z"/></g>
<g><path style="opacity:1" fill="#511e3a" d="M 30.5,256.5 C 31.3478,255.375 32.3478,255.375 33.5,256.5C 31.4849,260.906 30.4849,265.572 30.5,270.5C 30.2799,280.409 31.6132,290.075 34.5,299.5C 33.8333,299.5 33.1667,299.5 32.5,299.5C 30.5226,291.612 29.1893,283.612 28.5,275.5C 28.9939,269.437 29.9939,263.437 31.5,257.5C 31.3764,256.893 31.0431,256.56 30.5,256.5 Z"/></g>
<g><path style="opacity:1" fill="#671e64" d="M 28.5,275.5 C 29.1893,283.612 30.5226,291.612 32.5,299.5C 30.1667,299.5 27.8333,299.5 25.5,299.5C 25.3339,293.824 25.5006,288.157 26,282.5C 26.3903,279.896 27.2237,277.562 28.5,275.5 Z"/></g>
<g><path style="opacity:0.004" fill="#000000" d="M 17.5,298.5 C 17.5,298.833 17.5,299.167 17.5,299.5C 16.8299,299.019 16.8299,298.685 17.5,298.5 Z"/></g>
</svg>
