<?xml version="1.0" encoding="UTF-8"?>
<!DOCTYPE svg PUBLIC "-//W3C//DTD SVG 1.1//EN" "http://www.w3.org/Graphics/SVG/1.1/DTD/svg11.dtd">
<svg xmlns="http://www.w3.org/2000/svg" version="1.1" width="300px" height="300px" style="shape-rendering:geometricPrecision; text-rendering:geometricPrecision; image-rendering:optimizeQuality; fill-rule:evenodd; clip-rule:evenodd" xmlns:xlink="http://www.w3.org/1999/xlink">
<g><path style="opacity:0.004" fill="#000000" d="M 131.5,49.5 C 130.761,49.631 130.094,49.4643 129.5,49C 130.437,48.3083 131.103,48.475 131.5,49.5 Z"/></g>
<g><path style="opacity:0.004" fill="#000000" d="M 131.5,49.5 C 132.833,50.1667 132.833,50.1667 131.5,49.5 Z"/></g>
<g><path style="opacity:0.004" fill="#000000" d="M 126.5,51.5 C 127.629,53.6282 127.796,55.9615 127,58.5C 126.503,56.1902 126.337,53.8568 126.5,51.5 Z"/></g>
<g><path style="opacity:0.004" fill="#000000" d="M 135.5,54.5 C 134.833,53.1667 134.833,53.1667 135.5,54.5 Z"/></g>
<g><path style="opacity:0.004" fill="#000000" d="M 135.5,54.5 C 136.525,54.8966 136.692,55.5632 136,56.5C 135.536,55.9056 135.369,55.2389 135.5,54.5 Z"/></g>
<g><path style="opacity:0.004" fill="#000000" d="M 125.5,60.5 C 126.622,62.2884 126.789,64.2884 126,66.5C 125.505,64.5273 125.338,62.5273 125.5,60.5 Z"/></g>
<g><path style="opacity:0.004" fill="#000000" d="M 139.5,65.5 C 139.167,65.5 138.833,65.5 138.5,65.5C 138.833,61.5 139.167,61.5 139.5,65.5 Z"/></g>
<g><path style="opacity:0.004" fill="#000000" d="M 139.5,65.5 C 140.525,65.8966 140.692,66.5632 140,67.5C 139.536,66.9056 139.369,66.2389 139.5,65.5 Z"/></g>
<g><path style="opacity:0.004" fill="#000000" d="M 142.5,73.5 C 142.167,73.5 141.833,73.5 141.5,73.5C 141.833,69.5 142.167,69.5 142.5,73.5 Z"/></g>
<g><path style="opacity:0.004" fill="#000000" d="M 142.5,73.5 C 143.525,73.8966 143.692,74.5632 143,75.5C 142.536,74.9056 142.369,74.2389 142.5,73.5 Z"/></g>
<g><path style="opacity:0.004" fill="#000000" d="M 149.5,80.5 C 150.833,81.1667 150.833,81.1667 149.5,80.5 Z"/></g>
<g><path style="opacity:0.004" fill="#000000" d="M 121.5,82.5 C 122.833,83.1667 122.833,83.1667 121.5,82.5 Z"/></g>
<g><path style="opacity:0.004" fill="#000000" d="M 117.5,86.5 C 118.573,87.2506 118.74,88.2506 118,89.5C 117.517,88.552 117.351,87.552 117.5,86.5 Z"/></g>
<g><path style="opacity:0.004" fill="#000000" d="M 160.5,90.5 C 160.897,89.475 161.563,89.3083 162.5,90C 161.906,90.4643 161.239,90.631 160.5,90.5 Z"/></g>
<g><path style="opacity:0.004" fill="#000000" d="M 163.5,90.5 C 164.833,91.1667 164.833,91.1667 163.5,90.5 Z"/></g>
<g><path style="opacity:0.004" fill="#281004" d="M 120.5,94.5 C 120.5,94.8333 120.5,95.1667 120.5,95.5C 119.351,95.2089 118.684,94.3756 118.5,93C 118.667,92.1667 118.833,91.3333 119,90.5C 119.21,92.0581 119.71,93.3915 120.5,94.5 Z"/></g>
<g><path style="opacity:0.004" fill="#000000" d="M 166.5,92.5 C 167.833,93.1667 167.833,93.1667 166.5,92.5 Z"/></g>
<g><path style="opacity:0.004" fill="#000000" d="M 169.5,94.5 C 168.833,93.1667 168.833,93.1667 169.5,94.5 Z"/></g>
<g><path style="opacity:0.004" fill="#000000" d="M 169.5,94.5 C 170.833,95.1667 170.833,95.1667 169.5,94.5 Z"/></g>
<g><path style="opacity:0.004" fill="#000000" d="M 171.5,95.5 C 172.833,96.1667 172.833,96.1667 171.5,95.5 Z"/></g>
<g><path style="opacity:1" fill="#e61b23" d="M 165.5,99.5 C 191.339,116.544 208.173,140.211 216,170.5C 218.716,185.277 216.216,198.943 208.5,211.5C 201.554,218.807 193.221,223.807 183.5,226.5C 200.703,219.625 208.703,206.792 207.5,188C 207.428,184.117 207.095,180.283 206.5,176.5C 206.768,174.901 206.434,173.568 205.5,172.5C 199.411,144.291 184.411,122.291 160.5,106.5C 161.01,103.326 162.677,100.992 165.5,99.5 Z"/></g>
<g><path style="opacity:1" fill="#591818" d="M 127.5,95.5 C 129.764,96.2186 132.097,96.552 134.5,96.5C 136.688,97.6227 139.021,97.6227 141.5,96.5C 148.152,99.0636 154.485,102.397 160.5,106.5C 184.411,122.291 199.411,144.291 205.5,172.5C 205.649,173.552 205.483,174.552 205,175.5C 199.006,146.06 183.506,123.393 158.5,107.5C 146.366,98.4887 133.366,97.1553 119.5,103.5C 116.902,102.528 116.902,101.528 119.5,100.5C 119.56,101.043 119.893,101.376 120.5,101.5C 123.5,100.333 126.5,99.1667 129.5,98C 128.584,97.7216 127.918,97.2216 127.5,96.5C 127.5,96.1667 127.5,95.8333 127.5,95.5 Z"/></g>
<g><path style="opacity:0.004" fill="#000000" d="M 182.5,106.5 C 184.268,105.493 185.601,106.159 186.5,108.5C 186.376,109.107 186.043,109.44 185.5,109.5C 185.5,108.833 185.167,108.5 184.5,108.5C 184.5,107.833 184.167,107.5 183.5,107.5C 183.5,106.833 183.167,106.5 182.5,106.5 Z"/></g>
<g><path style="opacity:0.007" fill="#000000" d="M 187.5,111.5 C 187.56,110.957 187.893,110.624 188.5,110.5C 189.773,111.257 189.773,111.923 188.5,112.5C 188.5,111.833 188.167,111.5 187.5,111.5 Z"/></g>
<g><path style="opacity:1" fill="#a31418" d="M 158.5,107.5 C 183.506,123.393 199.006,146.06 205,175.5C 205.483,174.552 205.649,173.552 205.5,172.5C 206.434,173.568 206.768,174.901 206.5,176.5C 206.702,184.703 206.202,193.036 205,201.5C 203.176,211.321 197.676,218.154 188.5,222C 181.429,224.632 174.429,227.132 167.5,229.5C 165.194,229.993 162.861,230.326 160.5,230.5C 168.395,224.783 175.895,218.449 183,211.5C 187.562,204.368 189.729,196.535 189.5,188C 188.748,161.382 179.248,138.548 161,119.5C 158.868,115.792 158.035,111.792 158.5,107.5 Z"/></g>
<g><path style="opacity:0.004" fill="#000000" d="M 87.5,127.5 C 88.8333,128.167 88.8333,128.167 87.5,127.5 Z"/></g>
<g><path style="opacity:0.004" fill="#000000" d="M 87.5,128.5 C 87.5,128.833 87.5,129.167 87.5,129.5C 86.8299,129.019 86.8299,128.685 87.5,128.5 Z"/></g>
<g><path style="opacity:0.004" fill="#000000" d="M 203.5,131.5 C 203.5,130.833 203.167,130.5 202.5,130.5C 202.747,128.025 203.413,128.025 204.5,130.5C 204.376,131.107 204.043,131.44 203.5,131.5 Z"/></g>
<g><path style="opacity:0.004" fill="#000000" d="M 84.5,129.5 C 85.8333,130.167 85.8333,130.167 84.5,129.5 Z"/></g>
<g><path style="opacity:0.942" fill="#321110" d="M 131.5,50.5 C 132.026,52.2303 133.026,53.5637 134.5,54.5C 135.459,58.383 136.792,62.0497 138.5,65.5C 138.98,68.4432 139.98,71.1098 141.5,73.5C 141.687,75.5643 142.187,77.5643 143,79.5C 143.807,75.551 144.307,75.551 144.5,79.5C 146.415,79.2155 148.081,79.5489 149.5,80.5C 141.5,80.8333 141.5,81.1667 149.5,81.5C 150.657,83.1376 151.824,84.8043 153,86.5C 153.914,85.3463 154.747,85.513 155.5,87C 154.5,87.3333 153.5,87.6667 152.5,88C 155.154,88.9406 157.821,89.7739 160.5,90.5C 162.181,92.0075 164.181,93.0075 166.5,93.5C 166.973,94.9063 167.973,95.573 169.5,95.5C 173.979,98.919 178.312,102.586 182.5,106.5C 183.167,106.5 183.5,106.833 183.5,107.5C 184.167,107.5 184.5,107.833 184.5,108.5C 185.167,108.5 185.5,108.833 185.5,109.5C 185.833,110.5 186.5,111.167 187.5,111.5C 188.167,111.5 188.5,111.833 188.5,112.5C 189.793,114.296 191.293,115.963 193,117.5C 194.666,116.66 194.833,117.16 193.5,119C 194.667,120.167 195.833,121.333 197,122.5C 198.666,121.66 198.833,122.16 197.5,124C 198.552,125.119 199.719,125.619 201,125.5C 201.617,126.449 201.451,127.282 200.5,128C 201.066,128.995 201.733,129.828 202.5,130.5C 203.167,130.5 203.5,130.833 203.5,131.5C 203.461,132.756 203.961,133.756 205,134.5C 205.667,133.167 206.333,133.167 207,134.5C 207,135.833 207,137.167 207,138.5C 208,138.833 209,139.167 210,139.5C 209.683,143.231 210.85,146.564 213.5,149.5C 215.529,155.917 217.529,162.251 219.5,168.5C 220.792,178.169 220.792,187.836 219.5,197.5C 218.566,198.568 218.232,199.901 218.5,201.5C 217.069,202.78 216.402,204.447 216.5,206.5C 215.833,206.5 215.5,206.833 215.5,207.5C 214.167,208.167 214.167,208.833 215.5,209.5C 214.66,211.853 213.326,213.853 211.5,215.5C 211.167,214.167 210.833,214.167 210.5,215.5C 210.167,215.5 209.833,215.5 209.5,215.5C 209.167,214.167 208.833,212.833 208.5,211.5C 216.216,198.943 218.716,185.277 216,170.5C 208.173,140.211 191.339,116.544 165.5,99.5C 160.986,96.7058 156.152,94.3725 151,92.5C 148.128,94.5134 144.962,95.8467 141.5,96.5C 139.021,97.6227 136.688,97.6227 134.5,96.5C 137.579,95.696 140.579,94.696 143.5,93.5C 145.512,92.7717 147.512,91.9383 149.5,91C 150.76,89.1862 150.76,87.3529 149.5,85.5C 147.235,87.1274 144.901,88.4608 142.5,89.5C 141.167,89.5 139.833,89.5 138.5,89.5C 141.863,88.3892 144.863,86.5559 147.5,84C 143.104,84.293 138.771,85.1263 134.5,86.5C 132.955,86.4892 131.622,86.1558 130.5,85.5C 133.059,85.8016 135.393,85.4682 137.5,84.5C 139.464,84.023 140.798,82.8563 141.5,81C 138.673,72.1846 135.173,63.6846 131,55.5C 130.503,57.8098 130.337,60.1432 130.5,62.5C 128.761,69.588 128.094,76.9213 128.5,84.5C 127.167,84.8333 125.833,85.1667 124.5,85.5C 123.167,85.5 122.5,86.1667 122.5,87.5C 121.629,89.7767 121.962,92.11 123.5,94.5C 124.736,95.2458 126.07,95.5792 127.5,95.5C 127.5,95.8333 127.5,96.1667 127.5,96.5C 124.592,97.2872 121.926,98.6205 119.5,100.5C 116.902,101.528 116.902,102.528 119.5,103.5C 111.873,106.803 106.206,112.136 102.5,119.5C 100.139,121.194 98.1394,123.194 96.5,125.5C 95.9569,125.56 95.6236,125.893 95.5,126.5C 97.7662,127.314 100.1,127.814 102.5,128C 98.5138,128.499 94.5138,128.666 90.5,128.5C 90.3893,127.883 90.056,127.383 89.5,127C 90.893,124.822 92.5596,123.822 94.5,124C 93.1669,122.16 93.3335,121.66 95,122.5C 96.2837,121.428 96.6171,120.095 96,118.5C 97.7566,118.867 99.2566,118.034 100.5,116C 99.5494,115.282 99.3828,114.449 100,113.5C 102.468,113.131 104.635,111.631 106.5,109C 105.549,108.282 105.383,107.449 106,106.5C 110.953,103.539 115.786,99.8728 120.5,95.5C 121.833,95.1667 121.833,94.8333 120.5,94.5C 117.813,88.7184 119.48,84.8851 125.5,83C 124.833,82.6667 124.167,82.3333 123.5,82C 124.303,77.5855 124.803,73.0855 125,68.5C 125.333,72.5 125.667,76.5 126,80.5C 126.999,70.5073 127.833,60.5073 128.5,50.5C 129.5,50.5 130.5,50.5 131.5,50.5 Z"/></g>
<g><path style="opacity:0.996" fill="#d0686a" d="M 102.5,119.5 C 101.5,121.5 100.5,123.5 99.5,125.5C 98.3478,126.625 97.3478,126.625 96.5,125.5C 98.1394,123.194 100.139,121.194 102.5,119.5 Z"/></g>
<g><path style="opacity:1" fill="#481312" d="M 162.5,114.5 C 165.956,115.536 166.29,117.203 163.5,119.5C 162.548,117.955 162.215,116.288 162.5,114.5 Z"/></g>
<g><path style="opacity:1" fill="#db575c" d="M 127.5,96.5 C 127.918,97.2216 128.584,97.7216 129.5,98C 126.5,99.1667 123.5,100.333 120.5,101.5C 119.893,101.376 119.56,101.043 119.5,100.5C 121.926,98.6205 124.592,97.2872 127.5,96.5 Z"/></g>
<g><path style="opacity:1" fill="#eb5d62" d="M 165.5,99.5 C 162.677,100.992 161.01,103.326 160.5,106.5C 154.485,102.397 148.152,99.0636 141.5,96.5C 144.962,95.8467 148.128,94.5134 151,92.5C 156.152,94.3725 160.986,96.7058 165.5,99.5 Z"/></g>
<g><path style="opacity:1" fill="#e21b22" d="M 122.5,87.5 C 122.953,88.4584 123.619,89.2917 124.5,90C 129.02,90.8136 133.354,90.647 137.5,89.5C 137.833,89.5 138.167,89.5 138.5,89.5C 139.833,89.5 141.167,89.5 142.5,89.5C 143.434,90.5676 143.768,91.901 143.5,93.5C 140.579,94.696 137.579,95.696 134.5,96.5C 132.097,96.552 129.764,96.2186 127.5,95.5C 126.07,95.5792 124.736,95.2458 123.5,94.5C 121.962,92.11 121.629,89.7767 122.5,87.5 Z"/></g>
<g><path style="opacity:1" fill="#712223" d="M 124.5,85.5 C 123.294,86.8804 123.627,88.0471 125.5,89C 129.486,89.4988 133.486,89.6655 137.5,89.5C 133.354,90.647 129.02,90.8136 124.5,90C 123.619,89.2917 122.953,88.4584 122.5,87.5C 122.5,86.1667 123.167,85.5 124.5,85.5 Z"/></g>
<g><path style="opacity:1" fill="#a01418" d="M 143.5,93.5 C 143.768,91.901 143.434,90.5676 142.5,89.5C 144.901,88.4608 147.235,87.1274 149.5,85.5C 150.76,87.3529 150.76,89.1862 149.5,91C 147.512,91.9383 145.512,92.7717 143.5,93.5 Z"/></g>
<g><path style="opacity:1" fill="#e7565a" d="M 138.5,89.5 C 138.167,89.5 137.833,89.5 137.5,89.5C 133.486,89.6655 129.486,89.4988 125.5,89C 123.627,88.0471 123.294,86.8804 124.5,85.5C 125.833,85.1667 127.167,84.8333 128.5,84.5C 129.167,84.8333 129.833,85.1667 130.5,85.5C 131.622,86.1558 132.955,86.4892 134.5,86.5C 138.771,85.1263 143.104,84.293 147.5,84C 144.863,86.5559 141.863,88.3892 138.5,89.5 Z"/></g>
<g><path style="opacity:0.992" fill="#beb3b3" d="M 130.5,62.5 C 129.833,69.4952 129.667,76.4952 130,83.5C 132.381,84.435 134.881,84.7683 137.5,84.5C 135.393,85.4682 133.059,85.8016 130.5,85.5C 129.833,85.1667 129.167,84.8333 128.5,84.5C 128.094,76.9213 128.761,69.588 130.5,62.5 Z"/></g>
<g><path style="opacity:1" fill="#e6e7e8" d="M 137.5,84.5 C 134.881,84.7683 132.381,84.435 130,83.5C 129.667,76.4952 129.833,69.4952 130.5,62.5C 130.337,60.1432 130.503,57.8098 131,55.5C 135.173,63.6846 138.673,72.1846 141.5,81C 140.798,82.8563 139.464,84.023 137.5,84.5 Z"/></g>
<g><path style="opacity:1" fill="#e31b23" d="M 107.5,151.5 C 102.156,151.666 96.8229,151.499 91.5,151C 82.2543,148.023 80.2543,142.523 85.5,134.5C 87.34,132.832 89.34,131.332 91.5,130C 107.818,128.721 124.151,128.388 140.5,129C 147.11,129.655 153.443,131.321 159.5,134C 164.692,137.833 165.692,142.499 162.5,148C 158.653,149.616 154.653,150.616 150.5,151C 136.171,151.5 121.837,151.667 107.5,151.5 Z"/></g>
<g><path style="opacity:1" fill="#461916" d="M 156.5,143.5 C 155.258,142.957 153.925,142.623 152.5,142.5C 135.925,145.14 119.258,145.973 102.5,145C 96.8626,144.937 94.0293,142.104 94,136.5C 92.0527,138.063 90.886,140.063 90.5,142.5C 89.5112,138.55 91.1779,135.716 95.5,134C 97.5,133.333 99.5,132.667 101.5,132C 115.167,131.333 128.833,131.333 142.5,132C 147.927,132.393 152.76,134.227 157,137.5C 159.109,139.861 158.942,141.861 156.5,143.5 Z"/></g>
<g><path style="opacity:1" fill="#ea1c23" d="M 158.5,107.5 C 158.035,111.792 158.868,115.792 161,119.5C 179.248,138.548 188.748,161.382 189.5,188C 189.729,196.535 187.562,204.368 183,211.5C 175.895,218.449 168.395,224.783 160.5,230.5C 146.709,232.147 133.042,231.48 119.5,228.5C 114.736,228.231 110.403,226.898 106.5,224.5C 104.547,220.88 101.881,217.88 98.5,215.5C 93.8954,211.398 89.3954,207.064 85,202.5C 79.7232,192.861 78.0565,182.528 80,171.5C 80.925,164.562 82.7583,157.895 85.5,151.5C 88.989,152.93 92.6557,153.764 96.5,154C 111.859,154.769 127.192,154.602 142.5,153.5C 148.601,153.428 154.601,152.594 160.5,151C 167.903,147.485 170.737,141.652 169,133.5C 166.224,129.35 162.391,126.516 157.5,125C 138.126,121.663 118.793,121.829 99.5,125.5C 100.5,123.5 101.5,121.5 102.5,119.5C 106.206,112.136 111.873,106.803 119.5,103.5C 133.366,97.1553 146.366,98.4887 158.5,107.5 Z"/></g>
<g><path style="opacity:1" fill="#3d1212" d="M 109.5,112.5 C 110.586,112.62 111.253,113.287 111.5,114.5C 111.167,115.167 110.833,115.833 110.5,116.5C 109.571,115.311 109.238,113.978 109.5,112.5 Z"/></g>
<g><path style="opacity:1" fill="#561515" d="M 137.5,103.5 C 138.649,103.791 139.316,104.624 139.5,106C 138.706,109.122 137.706,109.122 136.5,106C 136.743,105.098 137.077,104.265 137.5,103.5 Z"/></g>
<g><path style="opacity:1" fill="#401312" d="M 182.5,133.5 C 183.5,133.5 184.5,133.5 185.5,133.5C 185.5,134.833 185.5,136.167 185.5,137.5C 184.5,137.5 183.5,137.5 182.5,137.5C 182.5,136.167 182.5,134.833 182.5,133.5 Z"/></g>
<g><path style="opacity:1" fill="#e7d905" d="M 136.5,134.5 C 140.252,135.306 141.252,137.472 139.5,141C 138.207,141.49 136.873,141.657 135.5,141.5C 135.298,139.05 135.631,136.717 136.5,134.5 Z"/></g>
<g><path style="opacity:1" fill="#e3d305" d="M 109.5,134.5 C 110.822,134.33 111.989,134.663 113,135.5C 113.495,137.473 113.662,139.473 113.5,141.5C 108.59,141.424 107.257,139.09 109.5,134.5 Z"/></g>
<g><path style="opacity:1" fill="#731114" d="M 156.5,143.5 C 150.879,145.948 144.879,147.448 138.5,148C 125.5,148.667 112.5,148.667 99.5,148C 96.624,147.562 93.9573,146.562 91.5,145C 90.7476,144.329 90.4142,143.496 90.5,142.5C 90.886,140.063 92.0527,138.063 94,136.5C 94.0293,142.104 96.8626,144.937 102.5,145C 119.258,145.973 135.925,145.14 152.5,142.5C 153.925,142.623 155.258,142.957 156.5,143.5 Z"/></g>
<g><path style="opacity:0.004" fill="#000000" d="M 213.5,149.5 C 213.369,148.761 213.536,148.094 214,147.5C 214.692,148.437 214.525,149.103 213.5,149.5 Z"/></g>
<g><path style="opacity:0.98" fill="#531818" d="M 142.5,153.5 C 130.833,152.833 119.167,152.167 107.5,151.5C 121.837,151.667 136.171,151.5 150.5,151C 154.653,150.616 158.653,149.616 162.5,148C 165.692,142.499 164.692,137.833 159.5,134C 153.443,131.321 147.11,129.655 140.5,129C 124.151,128.388 107.818,128.721 91.5,130C 89.34,131.332 87.34,132.832 85.5,134.5C 85.5,133.5 85.5,132.5 85.5,131.5C 86.5,131.167 87.1667,130.5 87.5,129.5C 88.609,129.443 89.609,129.11 90.5,128.5C 94.5138,128.666 98.5138,128.499 102.5,128C 100.1,127.814 97.7662,127.314 95.5,126.5C 95.6236,125.893 95.9569,125.56 96.5,125.5C 97.3478,126.625 98.3478,126.625 99.5,125.5C 118.793,121.829 138.126,121.663 157.5,125C 162.391,126.516 166.224,129.35 169,133.5C 170.737,141.652 167.903,147.485 160.5,151C 154.601,152.594 148.601,153.428 142.5,153.5 Z"/></g>
<g><path style="opacity:1" fill="#e55b60" d="M 112.5,124.5 C 124.838,124.333 137.171,124.5 149.5,125C 156.542,125.558 162.376,128.391 167,133.5C 167.913,137.362 167.58,141.028 166,144.5C 165.974,137.805 162.808,133.305 156.5,131C 153.226,129.798 149.893,128.798 146.5,128C 133.526,126.897 120.526,126.231 107.5,126C 109.382,125.802 111.048,125.302 112.5,124.5 Z"/></g>
<g><path style="opacity:1" fill="#481312" d="M 192.5,154.5 C 195.956,155.536 196.29,157.203 193.5,159.5C 192.548,157.955 192.215,156.288 192.5,154.5 Z"/></g>
<g><path style="opacity:0.004" fill="#000000" d="M 73.5,159.5 C 72.8333,158.167 72.8333,158.167 73.5,159.5 Z"/></g>
<g><path style="opacity:0.004" fill="#000000" d="M 220.5,168.5 C 220.167,168.5 219.833,168.5 219.5,168.5C 219.833,163.167 220.167,163.167 220.5,168.5 Z"/></g>
<g><path style="opacity:0.004" fill="#000000" d="M 70.5,167.5 C 70.1667,167.5 69.8333,167.5 69.5,167.5C 69.8333,164.833 70.1667,164.833 70.5,167.5 Z"/></g>
<g><path style="opacity:1" fill="#f0888b" d="M 85.5,151.5 C 82.7583,157.895 80.925,164.562 80,171.5C 78.0565,182.528 79.7232,192.861 85,202.5C 89.3954,207.064 93.8954,211.398 98.5,215.5C 101.881,217.88 104.547,220.88 106.5,224.5C 79.5788,216.341 68.7455,198.341 74,170.5C 76.0868,162.994 79.2535,155.994 83.5,149.5C 84.5223,149.855 85.189,150.522 85.5,151.5 Z"/></g>
<g><path style="opacity:0.004" fill="#000000" d="M 69.5,167.5 C 69.6495,168.552 69.4828,169.552 69,170.5C 68.2599,169.251 68.4265,168.251 69.5,167.5 Z"/></g>
<g><path style="opacity:0.004" fill="#000000" d="M 220.5,168.5 C 221.613,169.946 221.78,171.613 221,173.5C 220.506,171.866 220.34,170.199 220.5,168.5 Z"/></g>
<g><path style="opacity:0.004" fill="#000000" d="M 67.5,171.5 C 68.5983,172.601 68.765,173.934 68,175.5C 67.51,174.207 67.3433,172.873 67.5,171.5 Z"/></g>
<g><path style="opacity:0.004" fill="#000000" d="M 221.5,174.5 C 222.652,179.985 222.818,185.651 222,191.5C 221.501,185.843 221.334,180.176 221.5,174.5 Z"/></g>
<g><path style="opacity:0.004" fill="#000000" d="M 66.5,176.5 C 67.647,180.646 67.8136,184.98 67,189.5C 66.501,185.179 66.3343,180.846 66.5,176.5 Z"/></g>
<g><path style="opacity:1" fill="#421212" d="M 199.5,178.5 C 200.5,178.5 201.5,178.5 202.5,178.5C 202.5,179.833 202.5,181.167 202.5,182.5C 201.5,182.5 200.5,182.5 199.5,182.5C 199.5,181.167 199.5,179.833 199.5,178.5 Z"/></g>
<g><path style="opacity:0.004" fill="#000000" d="M 67.5,190.5 C 68.5983,191.601 68.765,192.934 68,194.5C 67.51,193.207 67.3433,191.873 67.5,190.5 Z"/></g>
<g><path style="opacity:0.004" fill="#000000" d="M 220.5,197.5 C 220.343,196.127 220.51,194.793 221,193.5C 221.765,195.066 221.598,196.399 220.5,197.5 Z"/></g>
<g><path style="opacity:0.004" fill="#000000" d="M 219.5,197.5 C 219.833,197.5 220.167,197.5 220.5,197.5C 220.768,199.099 220.434,200.432 219.5,201.5C 219.5,200.167 219.5,198.833 219.5,197.5 Z"/></g>
<g><path style="opacity:0.91" fill="#481612" d="M 138.5,173.5 C 141.833,173.5 145.167,173.5 148.5,173.5C 149.909,181.545 149.742,189.545 148,197.5C 142.356,202.87 135.856,204.37 128.5,202C 125.366,199.612 123.533,196.446 123,192.5C 122.501,187.177 122.334,181.844 122.5,176.5C 128.116,176.344 133.449,175.344 138.5,173.5 Z"/></g>
<g><path style="opacity:1" fill="#7b0f13" d="M 123.5,178.5 C 125.167,178.5 126.833,178.5 128.5,178.5C 127.889,184.434 128.722,190.1 131,195.5C 133.448,198.473 136.614,199.973 140.5,200C 134.704,202.73 129.87,201.563 126,196.5C 124.19,190.639 123.357,184.639 123.5,178.5 Z"/></g>
<g><path style="opacity:1" fill="#ecdf2f" d="M 129.5,177.5 C 131.833,177.5 134.167,177.5 136.5,177.5C 136.5,183.833 136.5,190.167 136.5,196.5C 132.957,196.128 130.79,194.128 130,190.5C 129.501,186.179 129.334,181.846 129.5,177.5 Z"/></g>
<g><path style="opacity:1" fill="#f08e1d" d="M 137.5,176.5 C 140.5,176.5 143.5,176.5 146.5,176.5C 147.332,182.484 147.499,188.484 147,194.5C 144.258,196.558 141.091,197.558 137.5,197.5C 137.5,190.5 137.5,183.5 137.5,176.5 Z"/></g>
<g><path style="opacity:0.004" fill="#000000" d="M 71.5,201.5 C 71.631,202.239 71.4643,202.906 71,203.5C 70.3083,202.563 70.475,201.897 71.5,201.5 Z"/></g>
<g><path style="opacity:0.004" fill="#000000" d="M 218.5,201.5 C 218.833,201.5 219.167,201.5 219.5,201.5C 219.167,204.167 218.833,204.167 218.5,201.5 Z"/></g>
<g><path style="opacity:0.004" fill="#000000" d="M 71.5,204.5 C 72.8333,205.167 72.8333,205.167 71.5,204.5 Z"/></g>
<g><path style="opacity:1" fill="#481312" d="M 198.5,202.5 C 201.956,203.536 202.29,205.203 199.5,207.5C 198.548,205.955 198.215,204.288 198.5,202.5 Z"/></g>
<g><path style="opacity:0.004" fill="#000000" d="M 217.5,206.5 C 217.369,205.761 217.536,205.094 218,204.5C 218.692,205.437 218.525,206.103 217.5,206.5 Z"/></g>
<g><path style="opacity:0.004" fill="#000000" d="M 73.5,207.5 C 72.8333,206.167 72.8333,206.167 73.5,207.5 Z"/></g>
<g><path style="opacity:0.004" fill="#000000" d="M 216.5,206.5 C 216.833,206.5 217.167,206.5 217.5,206.5C 217.573,208.027 216.906,209.027 215.5,209.5C 215.5,208.833 215.5,208.167 215.5,207.5C 216.167,207.5 216.5,207.167 216.5,206.5 Z"/></g>
<g><path style="opacity:0.004" fill="#000000" d="M 210.5,215.5 C 210.833,215.5 211.167,215.5 211.5,215.5C 211.315,216.17 210.981,216.17 210.5,215.5 Z"/></g>
<g><path style="opacity:1" fill="#4b2020" d="M 98.5,215.5 C 98.5,216.833 98.5,218.167 98.5,219.5C 97.5,219.5 96.5,219.5 95.5,219.5C 95.5,218.167 95.5,216.833 95.5,215.5C 96.5,215.5 97.5,215.5 98.5,215.5 Z"/></g>
<g><path style="opacity:1" fill="#421212" d="M 181.5,215.5 C 182.5,215.5 183.5,215.5 184.5,215.5C 184.5,216.833 184.5,218.167 184.5,219.5C 183.5,219.5 182.5,219.5 181.5,219.5C 181.5,218.167 181.5,216.833 181.5,215.5 Z"/></g>
<g><path style="opacity:1" fill="#691416" d="M 206.5,176.5 C 207.095,180.283 207.428,184.117 207.5,188C 208.703,206.792 200.703,219.625 183.5,226.5C 178.518,228.739 173.184,229.739 167.5,229.5C 174.429,227.132 181.429,224.632 188.5,222C 197.676,218.154 203.176,211.321 205,201.5C 206.202,193.036 206.702,184.703 206.5,176.5 Z"/></g>
<g><path style="opacity:0.008" fill="#000000" d="M 209.5,216.5 C 209.833,216.5 210.167,216.5 210.5,216.5C 210.315,217.17 209.981,217.17 209.5,216.5 Z"/></g>
<g><path style="opacity:0.008" fill="#000000" d="M 208.5,217.5 C 208.833,217.5 209.167,217.5 209.5,217.5C 209.315,218.17 208.981,218.17 208.5,217.5 Z"/></g>
<g><path style="opacity:0.008" fill="#000000" d="M 207.5,218.5 C 207.833,218.5 208.167,218.5 208.5,218.5C 208.315,219.17 207.981,219.17 207.5,218.5 Z"/></g>
<g><path style="opacity:1" fill="#361211" d="M 85.5,131.5 C 85.5,132.5 85.5,133.5 85.5,134.5C 80.2543,142.523 82.2543,148.023 91.5,151C 96.8229,151.499 102.156,151.666 107.5,151.5C 119.167,152.167 130.833,152.833 142.5,153.5C 127.192,154.602 111.859,154.769 96.5,154C 92.6557,153.764 88.989,152.93 85.5,151.5C 85.189,150.522 84.5223,149.855 83.5,149.5C 79.2535,155.994 76.0868,162.994 74,170.5C 68.7455,198.341 79.5788,216.341 106.5,224.5C 110.403,226.898 114.736,228.231 119.5,228.5C 119.611,229.117 119.944,229.617 120.5,230C 116.735,231.377 117.068,232.377 121.5,233C 120.552,233.483 119.552,233.649 118.5,233.5C 117.833,233.5 117.167,233.5 116.5,233.5C 112.383,231.796 108.049,230.463 103.5,229.5C 93.8381,225.688 85.3381,220.022 78,212.5C 76.3335,213.34 76.1669,212.84 77.5,211C 76.7471,209.513 75.9138,209.346 75,210.5C 73.9614,209.756 73.4614,208.756 73.5,207.5C 74.1081,205.316 73.4414,203.316 71.5,201.5C 67.995,190.266 67.6617,178.932 70.5,167.5C 72.0198,165.11 73.0198,162.443 73.5,159.5C 75.9885,156.887 76.9885,153.887 76.5,150.5C 78.1178,146.356 78.9511,142.022 79,137.5C 79.3333,141.167 79.6667,144.833 80,148.5C 80.2315,144.445 80.7315,140.445 81.5,136.5C 81.1667,135.833 80.8333,135.167 80.5,134.5C 82.3188,133.68 83.9855,132.68 85.5,131.5 Z"/></g>
<g><path style="opacity:1" fill="#561514" d="M 116.5,218.5 C 117.649,218.791 118.316,219.624 118.5,221C 117.706,224.122 116.706,224.122 115.5,221C 115.743,220.098 116.077,219.265 116.5,218.5 Z"/></g>
<g><path style="opacity:1" fill="#4a1413" d="M 140.5,220.5 C 141.5,220.5 142.5,220.5 143.5,220.5C 143.5,221.833 143.5,223.167 143.5,224.5C 142.5,224.5 141.5,224.5 140.5,224.5C 140.5,223.167 140.5,221.833 140.5,220.5 Z"/></g>
<g><path style="opacity:1" fill="#471413" d="M 161.5,220.5 C 162.5,220.5 163.5,220.5 164.5,220.5C 164.5,221.833 164.5,223.167 164.5,224.5C 163.5,224.5 162.5,224.5 161.5,224.5C 161.5,223.167 161.5,221.833 161.5,220.5 Z"/></g>
<g><path style="opacity:0.004" fill="#000000" d="M 210.5,222.5 C 210.897,221.475 211.563,221.308 212.5,222C 211.906,222.464 211.239,222.631 210.5,222.5 Z"/></g>
<g><path style="opacity:0.004" fill="#000000" d="M 220.5,226.5 C 221.833,227.167 221.833,227.167 220.5,226.5 Z"/></g>
<g><path style="opacity:0.004" fill="#000000" d="M 103.5,229.5 C 103.5,229.833 103.5,230.167 103.5,230.5C 99.5,230.167 99.5,229.833 103.5,229.5 Z"/></g>
<g><path style="opacity:0.994" fill="#3d1313" d="M 208.5,211.5 C 208.833,212.833 209.167,214.167 209.5,215.5C 209.5,215.833 209.5,216.167 209.5,216.5C 208.833,216.5 208.5,216.833 208.5,217.5C 207.833,217.5 207.5,217.833 207.5,218.5C 206.167,218.833 206.167,219.167 207.5,219.5C 207.918,220.222 208.584,220.722 209.5,221C 205.774,222.043 206.107,222.543 210.5,222.5C 213.768,224.134 217.101,225.801 220.5,227.5C 223.141,229.804 225.808,232.138 228.5,234.5C 228.369,235.239 228.536,235.906 229,236.5C 230.948,235.891 232.782,235.224 234.5,234.5C 244.607,234.04 254.607,234.707 264.5,236.5C 265.209,237.404 266.209,237.737 267.5,237.5C 268.29,238.401 269.29,239.068 270.5,239.5C 273.804,241.973 276.638,244.973 279,248.5C 282.429,255.295 284.929,262.295 286.5,269.5C 286.205,271.735 286.539,273.735 287.5,275.5C 287.194,278.385 287.527,281.052 288.5,283.5C 288.5,288.833 288.5,294.167 288.5,299.5C 287.5,299.5 286.5,299.5 285.5,299.5C 285.042,286.373 283.542,273.373 281,260.5C 279.409,254.969 276.576,250.302 272.5,246.5C 272.167,245.5 271.5,244.833 270.5,244.5C 258.428,239.085 245.761,237.251 232.5,239C 221.006,242.822 212.172,249.989 206,260.5C 199.209,272.375 194.709,285.041 192.5,298.5C 193.108,285.15 196.942,272.484 204,260.5C 209.255,251.625 216.088,244.292 224.5,238.5C 218.78,230.514 211.78,229.347 203.5,235C 199.958,237.266 196.625,239.766 193.5,242.5C 192.833,242.5 192.5,242.167 192.5,241.5C 197.99,235.581 204.657,231.415 212.5,229C 208.151,227.288 203.651,226.121 199,225.5C 193.239,227.627 187.405,229.627 181.5,231.5C 180.719,232.729 180.219,234.062 180,235.5C 179.592,233.59 178.425,232.59 176.5,232.5C 173.855,233.108 171.188,233.608 168.5,234C 167.887,236.147 167.221,238.314 166.5,240.5C 159.995,244.751 153.328,245.418 146.5,242.5C 153.18,243.337 159.347,242.004 165,238.5C 165.49,237.207 165.657,235.873 165.5,234.5C 157.846,235.07 150.179,235.404 142.5,235.5C 142.5,236.833 142.5,238.167 142.5,239.5C 141.566,238.432 141.232,237.099 141.5,235.5C 138.833,235.5 136.167,235.5 133.5,235.5C 133.167,235.5 132.833,235.5 132.5,235.5C 130.372,234.371 128.039,234.204 125.5,235C 114.994,240.006 105.828,246.84 98,255.5C 95.9205,258.065 94.0872,260.732 92.5,263.5C 83.6749,273.827 78.6749,285.827 77.5,299.5C 77.1667,299.5 76.8333,299.5 76.5,299.5C 78.6276,279.078 87.2943,261.912 102.5,248C 94.4223,248.969 87.089,251.803 80.5,256.5C 63.5756,265.992 53.2423,280.325 49.5,299.5C 48.5,299.5 47.5,299.5 46.5,299.5C 47.4769,291.403 50.1436,283.903 54.5,277C 54.0774,274.624 54.9107,272.457 57,270.5C 57.3333,270.833 57.6667,271.167 58,271.5C 66.927,260.547 77.927,252.547 91,247.5C 95.7758,246.098 100.609,244.931 105.5,244C 109.025,241.302 112.358,238.469 115.5,235.5C 117.027,235.573 118.027,234.906 118.5,233.5C 119.552,233.649 120.552,233.483 121.5,233C 117.068,232.377 116.735,231.377 120.5,230C 119.944,229.617 119.611,229.117 119.5,228.5C 133.042,231.48 146.709,232.147 160.5,230.5C 162.861,230.326 165.194,229.993 167.5,229.5C 173.184,229.739 178.518,228.739 183.5,226.5C 193.221,223.807 201.554,218.807 208.5,211.5 Z M 228.5,234.5 C 230.5,234.5 232.5,234.5 234.5,234.5C 232.782,235.224 230.948,235.891 229,236.5C 228.536,235.906 228.369,235.239 228.5,234.5 Z"/></g>
<g><path style="opacity:1" fill="#ea1c23" d="M 192.5,241.5 C 176.847,257.496 168.847,276.83 168.5,299.5C 140.5,299.5 112.5,299.5 84.5,299.5C 86.8345,291.165 90.0012,283.165 94,275.5C 95.006,271.198 94.506,267.198 92.5,263.5C 94.0872,260.732 95.9205,258.065 98,255.5C 105.828,246.84 114.994,240.006 125.5,235C 128.039,234.204 130.372,234.371 132.5,235.5C 129.473,239.792 130.14,243.626 134.5,247C 147.952,253.105 161.286,252.771 174.5,246C 176.403,244.553 178.07,242.886 179.5,241C 166.675,249.688 152.675,251.688 137.5,247C 131.467,244.592 130.133,240.759 133.5,235.5C 136.167,235.5 138.833,235.5 141.5,235.5C 141.232,237.099 141.566,238.432 142.5,239.5C 143.436,240.974 144.77,241.974 146.5,242.5C 153.328,245.418 159.995,244.751 166.5,240.5C 167.221,238.314 167.887,236.147 168.5,234C 171.188,233.608 173.855,233.108 176.5,232.5C 178.425,232.59 179.592,233.59 180,235.5C 180.219,234.062 180.719,232.729 181.5,231.5C 187.405,229.627 193.239,227.627 199,225.5C 203.651,226.121 208.151,227.288 212.5,229C 204.657,231.415 197.99,235.581 192.5,241.5 Z"/></g>
<g><path style="opacity:0.004" fill="#000000" d="M 103.5,230.5 C 104.239,230.369 104.906,230.536 105.5,231C 104.563,231.692 103.897,231.525 103.5,230.5 Z"/></g>
<g><path style="opacity:0.004" fill="#000000" d="M 106.5,232.5 C 106.897,231.475 107.563,231.308 108.5,232C 107.906,232.464 107.239,232.631 106.5,232.5 Z"/></g>
<g><path style="opacity:1" fill="#a31418" d="M 192.5,298.5 C 192.5,298.833 192.5,299.167 192.5,299.5C 185.167,299.5 177.833,299.5 170.5,299.5C 170.556,277.311 178.223,258.311 193.5,242.5C 196.625,239.766 199.958,237.266 203.5,235C 211.78,229.347 218.78,230.514 224.5,238.5C 216.088,244.292 209.255,251.625 204,260.5C 196.942,272.484 193.108,285.15 192.5,298.5 Z"/></g>
<g><path style="opacity:0.005" fill="#000000" d="M 234.5,233.5 C 241.655,232.345 248.988,232.178 256.5,233C 249.174,233.5 241.841,233.666 234.5,233.5 Z"/></g>
<g><path style="opacity:0.005" fill="#000000" d="M 116.5,233.5 C 116.167,234.167 115.833,234.833 115.5,235.5C 111.588,234.007 111.921,233.34 116.5,233.5 Z"/></g>
<g><path style="opacity:0.004" fill="#000000" d="M 112.5,235.5 C 113.833,236.167 113.833,236.167 112.5,235.5 Z"/></g>
<g><path style="opacity:0.004" fill="#000000" d="M 264.5,236.5 C 264.897,235.475 265.563,235.308 266.5,236C 265.906,236.464 265.239,236.631 264.5,236.5 Z"/></g>
<g><path style="opacity:1" fill="#431312" d="M 172.5,235.5 C 174.465,235.948 174.798,236.948 173.5,238.5C 172.614,237.675 172.281,236.675 172.5,235.5 Z"/></g>
<g><path style="opacity:0.004" fill="#000000" d="M 267.5,236.5 C 268.833,237.167 268.833,237.167 267.5,236.5 Z"/></g>
<g><path style="opacity:0.998" fill="#676567" d="M 146.5,242.5 C 144.77,241.974 143.436,240.974 142.5,239.5C 142.5,238.167 142.5,236.833 142.5,235.5C 150.179,235.404 157.846,235.07 165.5,234.5C 165.657,235.873 165.49,237.207 165,238.5C 159.347,242.004 153.18,243.337 146.5,242.5 Z"/></g>
<g><path style="opacity:0.004" fill="#000000" d="M 270.5,238.5 C 271.833,239.167 271.833,239.167 270.5,238.5 Z"/></g>
<g><path style="opacity:1" fill="#eb1b23" d="M 270.5,244.5 C 262.868,253.436 258.201,263.769 256.5,275.5C 255.596,276.209 255.263,277.209 255.5,278.5C 253.918,285.391 253.252,292.391 253.5,299.5C 233.167,299.5 212.833,299.5 192.5,299.5C 192.5,299.167 192.5,298.833 192.5,298.5C 194.709,285.041 199.209,272.375 206,260.5C 212.172,249.989 221.006,242.822 232.5,239C 245.761,237.251 258.428,239.085 270.5,244.5 Z"/></g>
<g><path style="opacity:1" fill="#a31418" d="M 272.5,246.5 C 276.576,250.302 279.409,254.969 281,260.5C 283.542,273.373 285.042,286.373 285.5,299.5C 275.5,299.5 265.5,299.5 255.5,299.5C 255.861,292.31 255.861,285.31 255.5,278.5C 255.263,277.209 255.596,276.209 256.5,275.5C 259.012,268.274 262.179,260.607 266,252.5C 267.406,249.591 269.572,247.591 272.5,246.5 Z"/></g>
<g><path style="opacity:1" fill="#651516" d="M 132.5,235.5 C 132.833,235.5 133.167,235.5 133.5,235.5C 130.133,240.759 131.467,244.592 137.5,247C 152.675,251.688 166.675,249.688 179.5,241C 178.07,242.886 176.403,244.553 174.5,246C 161.286,252.771 147.952,253.105 134.5,247C 130.14,243.626 129.473,239.792 132.5,235.5 Z"/></g>
<g><path style="opacity:1" fill="#481313" d="M 153.5,245.5 C 155.337,245.639 155.67,246.306 154.5,247.5C 153.702,247.043 153.369,246.376 153.5,245.5 Z"/></g>
<g><path style="opacity:1" fill="#3d1211" d="M 141.5,244.5 C 143.337,244.639 143.67,245.306 142.5,246.5C 141.702,246.043 141.369,245.376 141.5,244.5 Z"/></g>
<g><path style="opacity:1" fill="#e91d24" d="M 76.5,299.5 C 69.5,299.5 62.5,299.5 55.5,299.5C 60.3655,286.099 67.5321,274.099 77,263.5C 78.705,261.423 79.8717,259.09 80.5,256.5C 87.089,251.803 94.4223,248.969 102.5,248C 87.2943,261.912 78.6276,279.078 76.5,299.5 Z"/></g>
<g><path style="opacity:1" fill="#f0898c" d="M 80.5,256.5 C 79.8717,259.09 78.705,261.423 77,263.5C 67.5321,274.099 60.3655,286.099 55.5,299.5C 53.5,299.5 51.5,299.5 49.5,299.5C 53.2423,280.325 63.5756,265.992 80.5,256.5 Z"/></g>
<g><path style="opacity:1" fill="#641415" d="M 270.5,244.5 C 271.5,244.833 272.167,245.5 272.5,246.5C 269.572,247.591 267.406,249.591 266,252.5C 262.179,260.607 259.012,268.274 256.5,275.5C 258.201,263.769 262.868,253.436 270.5,244.5 Z"/></g>
<g><path style="opacity:0.004" fill="#000000" d="M 286.5,269.5 C 286.34,267.801 286.506,266.134 287,264.5C 287.78,266.387 287.613,268.054 286.5,269.5 Z"/></g>
<g><path style="opacity:1" fill="#f18a8e" d="M 92.5,263.5 C 94.506,267.198 95.006,271.198 94,275.5C 90.0012,283.165 86.8345,291.165 84.5,299.5C 82.1667,299.5 79.8333,299.5 77.5,299.5C 78.6749,285.827 83.6749,273.827 92.5,263.5 Z"/></g>
<g><path style="opacity:1" fill="#591414" d="M 192.5,241.5 C 192.5,242.167 192.833,242.5 193.5,242.5C 178.223,258.311 170.556,277.311 170.5,299.5C 169.833,299.5 169.167,299.5 168.5,299.5C 168.847,276.83 176.847,257.496 192.5,241.5 Z"/></g>
<g><path style="opacity:0.004" fill="#000000" d="M 287.5,275.5 C 287.34,273.801 287.506,272.134 288,270.5C 288.78,272.387 288.613,274.054 287.5,275.5 Z"/></g>
<g><path style="opacity:0.004" fill="#000000" d="M 288.5,283.5 C 288.337,281.143 288.503,278.81 289,276.5C 289.796,279.039 289.629,281.372 288.5,283.5 Z"/></g>
<g><path style="opacity:0.006" fill="#000000" d="M 290.5,299.5 C 290.167,299.5 289.833,299.5 289.5,299.5C 289.833,279.5 290.167,279.5 290.5,299.5 Z"/></g>
<g><path style="opacity:1" fill="#591414" d="M 255.5,278.5 C 255.861,285.31 255.861,292.31 255.5,299.5C 254.833,299.5 254.167,299.5 253.5,299.5C 253.252,292.391 253.918,285.391 255.5,278.5 Z"/></g>
<g><path style="opacity:0.005" fill="#000000" d="M 45.5,299.5 C 45.1667,299.5 44.8333,299.5 44.5,299.5C 44.8333,294.167 45.1667,294.167 45.5,299.5 Z"/></g>
</svg>
