<?xml version="1.0" encoding="utf-8"?>
<!-- Generator: Adobe Illustrator 24.3.0, SVG Export Plug-In . SVG Version: 6.00 Build 0)  -->
<svg version="1.1" id="Layer_1" xmlns="http://www.w3.org/2000/svg" xmlns:xlink="http://www.w3.org/1999/xlink" x="0px" y="0px"
	 viewBox="0 0 350 350" enable-background="new 0 0 350 350" xml:space="preserve">
<g>
	<path fill="#041C3F" d="M273.646,177.521v-2.935c0-23.173-18.853-42.025-42.024-42.025H181.77v-17.956
		c11.31-2.999,19.671-13.319,19.671-25.559c0-14.581-11.861-26.441-26.441-26.441s-26.442,11.86-26.442,26.441
		c0,12.239,8.361,22.56,19.67,25.559v17.956h-49.85c-23.173,0-42.025,18.853-42.025,42.025v2.935
		c-16.411,3.172-28.845,17.645-28.845,34.967c0,17.344,12.46,31.826,28.897,34.979c1.096,22.201,19.503,39.928,41.973,39.928
		h113.242c22.469,0,40.876-17.727,41.973-39.928c16.437-3.152,28.898-17.635,28.898-34.979
		C302.491,195.166,290.058,180.693,273.646,177.521z M76.354,233.496c-8.869-2.865-15.302-11.197-15.302-21.008
		c0-9.809,6.434-18.141,15.302-21.006V233.496z M260.104,245.369c0,15.705-12.778,28.482-28.483,28.482H118.379
		c-15.706,0-28.483-12.777-28.483-28.482v-70.782c0-15.705,12.777-28.482,28.483-28.482h113.242
		c15.705,0,28.483,12.777,28.483,28.482V245.369z M273.646,233.496v-42.014c8.868,2.865,15.303,11.197,15.303,21.006
		C288.948,222.299,282.514,230.631,273.646,233.496z"/>
	<path fill="#9788E2" d="M76.354,233.496c-8.869-2.865-15.302-11.197-15.302-21.008c0-9.809,6.434-18.141,15.302-21.006V233.496z"/>
	<path fill="#9788E2" d="M162.1,89.047c0-7.112,5.787-12.899,12.9-12.899c7.112,0,12.899,5.787,12.899,12.899
		c0,7.112-5.787,12.899-12.899,12.899C167.887,101.946,162.1,96.159,162.1,89.047z"/>
	<path fill="#8478D6" d="M175,76.147c-5.371,0-9.982,3.302-11.92,7.979c1.518-0.628,3.178-0.979,4.92-0.979
		c7.112,0,12.899,5.787,12.899,12.899c0,1.742-0.352,3.402-0.98,4.92c4.678-1.938,7.98-6.55,7.98-11.92
		C187.899,81.935,182.112,76.147,175,76.147z"/>
	<path fill="#88E5D9" d="M260.104,245.369c0,15.705-12.778,28.482-28.483,28.482H118.379c-15.706,0-28.483-12.777-28.483-28.482
		v-70.782c0-15.705,12.777-28.482,28.483-28.482h113.242c15.705,0,28.483,12.777,28.483,28.482V245.369z"/>
	<path fill="#69CCBE" d="M231.621,146.105h-25.224c15.706,0,28.483,12.777,28.483,28.482v70.782
		c0,15.705-12.777,28.482-28.483,28.482h25.224c15.705,0,28.483-12.777,28.483-28.482v-70.782
		C260.104,158.882,247.326,146.105,231.621,146.105z"/>
	<path fill="#9788E2" d="M273.646,233.496v-42.014c8.868,2.865,15.303,11.197,15.303,21.006
		C288.948,222.299,282.514,230.631,273.646,233.496z"/>
	<path fill="#8478D6" d="M68.702,212.488c0-6.66,2.971-12.633,7.651-16.683v-4.323c-8.869,2.865-15.302,11.197-15.302,21.006
		c0,9.811,6.434,18.143,15.302,21.008v-4.323C71.673,225.123,68.702,219.149,68.702,212.488z"/>
	<path fill="#8478D6" d="M273.646,191.482v4.324c4.68,4.049,7.651,10.023,7.651,16.682c0,6.661-2.971,12.635-7.651,16.684v4.324
		c8.868-2.865,15.303-11.197,15.303-21.008C288.948,202.68,282.514,194.348,273.646,191.482z"/>
	<path fill="#FF54A4" d="M224.384,201.625c-3.547,0-6.433-2.885-6.433-6.432c0-3.547,2.886-6.434,6.433-6.434
		c3.547,0,6.433,2.887,6.433,6.434C230.816,198.74,227.931,201.625,224.384,201.625z"/>
	<path fill="#FF54A4" d="M125.616,201.625c-3.547,0-6.433-2.885-6.433-6.432c0-3.547,2.885-6.434,6.433-6.434
		c3.547,0,6.433,2.887,6.433,6.434C132.049,198.74,129.163,201.625,125.616,201.625z"/>
	<path fill="#EF4198" d="M224.384,188.76c-2.852,0-5.273,1.868-6.114,4.443c0.627-0.204,1.294-0.318,1.989-0.318
		c3.547,0,6.433,2.887,6.433,6.434c0,0.694-0.114,1.361-0.318,1.988c2.576-0.84,4.443-3.261,4.443-6.113
		C230.816,191.646,227.931,188.76,224.384,188.76z"/>
	<path fill="#EF4198" d="M125.616,188.76c-2.853,0-5.273,1.868-6.114,4.443c0.627-0.205,1.294-0.318,1.989-0.318
		c3.547,0,6.433,2.887,6.433,6.434c0,0.694-0.114,1.361-0.318,1.988c2.576-0.84,4.443-3.261,4.443-6.113
		C132.049,191.646,129.163,188.76,125.616,188.76z"/>
	<path fill="#041C3F" d="M224.384,175.219c-11.015,0-19.975,8.961-19.975,19.975c0,11.014,8.96,19.975,19.975,19.975
		c11.014,0,19.975-8.961,19.975-19.975C244.358,184.18,235.397,175.219,224.384,175.219z M224.384,201.625
		c-3.547,0-6.433-2.885-6.433-6.432c0-3.547,2.886-6.434,6.433-6.434c3.547,0,6.433,2.887,6.433,6.434
		C230.816,198.74,227.931,201.625,224.384,201.625z"/>
	<path fill="#041C3F" d="M125.616,175.219c-11.015,0-19.975,8.961-19.975,19.975c0,11.014,8.961,19.975,19.975,19.975
		c11.014,0,19.975-8.961,19.975-19.975C145.591,184.18,136.63,175.219,125.616,175.219z M125.616,201.625
		c-3.547,0-6.433-2.885-6.433-6.432c0-3.547,2.885-6.434,6.433-6.434c3.547,0,6.433,2.887,6.433,6.434
		C132.049,198.74,129.163,201.625,125.616,201.625z"/>
	<path fill="#69CCBE" d="M193.451,241.157h-36.902c-3.74,0-6.771,3.031-6.771,6.77c0,3.74,3.031,6.771,6.771,6.771h36.902
		c3.739,0,6.77-3.031,6.77-6.771C200.222,244.189,197.19,241.157,193.451,241.157z"/>
	<path fill="#041C3F" d="M193.451,236.219h-36.902c-3.74,0-6.771,3.031-6.771,6.77c0,3.74,3.031,6.771,6.771,6.771h36.902
		c3.739,0,6.77-3.031,6.77-6.771C200.222,239.25,197.19,236.219,193.451,236.219z"/>
</g>
</svg>
