<?xml version="1.0" encoding="UTF-8"?>
<!DOCTYPE svg PUBLIC "-//W3C//DTD SVG 1.1//EN" "http://www.w3.org/Graphics/SVG/1.1/DTD/svg11.dtd">
<svg xmlns="http://www.w3.org/2000/svg" version="1.1" width="300px" height="300px" style="shape-rendering:geometricPrecision; text-rendering:geometricPrecision; image-rendering:optimizeQuality; fill-rule:evenodd; clip-rule:evenodd" xmlns:xlink="http://www.w3.org/1999/xlink">
<g><path style="opacity:0.008" fill="#89877b" d="M 156.5,63.5 C 160.646,62.353 164.98,62.1864 169.5,63C 165.179,63.499 160.846,63.6657 156.5,63.5 Z"/></g>
<g><path style="opacity:0.004" fill="#000000" d="M 154.5,63.5 C 155.833,64.1667 155.833,64.1667 154.5,63.5 Z"/></g>
<g><path style="opacity:0.004" fill="#1f1f1f" d="M 207.5,69.5 C 207.897,68.475 208.563,68.3083 209.5,69C 208.906,69.4643 208.239,69.631 207.5,69.5 Z"/></g>
<g><path style="opacity:0.997" fill="#40a8e4" d="M 232.5,142.5 C 227.961,145.6 222.961,147.933 217.5,149.5C 218.6,148.395 219.267,147.062 219.5,145.5C 220.79,144.942 221.623,143.942 222,142.5C 223.456,136.903 223.789,131.237 223,125.5C 222.8,123.68 221.966,122.347 220.5,121.5C 219.214,117.847 216.547,116.18 212.5,116.5C 211.167,116.667 209.833,116.833 208.5,117C 205.921,118.076 204.254,119.909 203.5,122.5C 201.32,124.863 199.653,127.53 198.5,130.5C 197.71,131.609 197.21,132.942 197,134.5C 187.254,134.175 177.421,134.175 167.5,134.5C 164.749,127.247 159.749,122.081 152.5,119C 145.085,117.552 139.085,119.719 134.5,125.5C 133.778,125.082 133.278,124.416 133,123.5C 119.261,123.464 105.428,123.63 91.5,124C 86.8053,124.872 82.1386,125.872 77.5,127C 75.5743,127.422 74.5743,128.589 74.5,130.5C 72.2677,129.131 69.9344,128.131 67.5,127.5C 67.7736,115.417 68.9403,103.417 71,91.5C 72.1667,89 74,87.1667 76.5,86C 96.5387,77.3203 117.372,71.487 139,68.5C 140.107,68.5852 141.107,68.9186 142,69.5C 144.798,76.0887 147.298,82.7554 149.5,89.5C 161.203,89.7679 172.869,89.2679 184.5,88C 185.658,86.9914 186.325,85.6581 186.5,84C 186.129,81.1443 185.629,78.3109 185,75.5C 184.501,79.1516 184.335,82.8183 184.5,86.5C 173.514,87.541 162.514,88.041 151.5,88C 148.459,81.7524 146.126,75.2524 144.5,68.5C 165.457,66.1752 186.124,67.6752 206.5,73C 213.914,88.9049 220.747,105.072 227,121.5C 229.619,128.308 231.452,135.308 232.5,142.5 Z"/></g>
<g><path style="opacity:0.012" fill="#57a25c" d="M 97.5,73.5 C 98.2506,72.4265 99.2506,72.2599 100.5,73C 99.552,73.4828 98.552,73.6495 97.5,73.5 Z"/></g>
<g><path style="opacity:1" fill="#58625d" d="M 154.5,64.5 C 172.07,64.5938 189.737,66.2605 207.5,69.5C 209.19,70.1031 210.69,71.1031 212,72.5C 213.362,76.058 214.862,79.558 216.5,83C 215.198,84.9233 215.365,86.7566 217,88.5C 217.333,87.8333 217.667,87.1667 218,86.5C 218.595,87.8989 218.428,89.2322 217.5,90.5C 218.609,92.3853 219.443,94.3853 220,96.5C 220.333,95.5 220.667,94.5 221,93.5C 221.471,95.2464 222.138,96.913 223,98.5C 222.009,101.244 222.343,103.911 224,106.5C 224.333,105.5 224.667,104.5 225,103.5C 226.649,104.953 228.482,105.953 230.5,106.5C 225.167,106.833 225.167,107.167 230.5,107.5C 233.34,108.082 235.673,109.582 237.5,112C 236.833,112.333 236.167,112.667 235.5,113C 238.859,114.047 241.859,115.547 244.5,117.5C 242.45,117.039 240.45,116.372 238.5,115.5C 238.167,116 237.833,116.5 237.5,117C 239.471,121.108 241.304,125.275 243,129.5C 244.226,137.19 245.559,144.857 247,152.5C 253.84,144.767 255.007,136.433 250.5,127.5C 249.571,124.588 248.238,121.921 246.5,119.5C 246.833,119.5 247.167,119.5 247.5,119.5C 248.542,121.791 250.042,122.791 252,122.5C 253,124.5 254,126.5 255,128.5C 254.735,133.609 255.235,138.609 256.5,143.5C 256.737,144.791 256.404,145.791 255.5,146.5C 255.167,143.833 254.833,143.833 254.5,146.5C 253.167,147.167 253.167,147.833 254.5,148.5C 254.573,150.027 253.906,151.027 252.5,151.5C 252.167,150.167 251.833,150.167 251.5,151.5C 250.167,151.833 250.167,152.167 251.5,152.5C 250.209,156.052 248.542,159.386 246.5,162.5C 246.167,161.167 245.833,161.167 245.5,162.5C 244.833,162.5 244.5,162.833 244.5,163.5C 243.167,163.833 243.167,164.167 244.5,164.5C 242.32,166.031 241.32,168.198 241.5,171C 241.946,174.175 242.446,177.342 243,180.5C 243.333,178.5 243.667,176.5 244,174.5C 244.497,176.81 244.663,179.143 244.5,181.5C 243.51,187.31 243.177,193.31 243.5,199.5C 242.833,199.5 242.5,199.833 242.5,200.5C 241.833,200.5 241.5,200.833 241.5,201.5C 240.833,201.5 240.5,201.833 240.5,202.5C 239.833,202.5 239.5,202.833 239.5,203.5C 238.833,203.5 238.5,203.833 238.5,204.5C 237.508,204.328 236.842,204.662 236.5,205.5C 235.833,205.5 235.5,205.833 235.5,206.5C 234.508,206.328 233.842,206.662 233.5,207.5C 232.833,207.5 232.5,207.833 232.5,208.5C 231.508,208.328 230.842,208.662 230.5,209.5C 229.833,209.5 229.5,209.833 229.5,210.5C 228.508,210.328 227.842,210.662 227.5,211.5C 226.508,211.328 225.842,211.662 225.5,212.5C 224.833,212.5 224.5,212.833 224.5,213.5C 223.508,213.328 222.842,213.662 222.5,214.5C 221.508,214.328 220.842,214.662 220.5,215.5C 219.508,215.328 218.842,215.662 218.5,216.5C 216.447,216.402 214.78,217.069 213.5,218.5C 212.508,218.328 211.842,218.662 211.5,219.5C 210.209,219.263 209.209,219.596 208.5,220.5C 207.508,220.328 206.842,220.662 206.5,221.5C 205.209,221.263 204.209,221.596 203.5,222.5C 202.209,222.263 201.209,222.596 200.5,223.5C 198.901,223.232 197.568,223.566 196.5,224.5C 187.71,226.192 179.043,227.859 170.5,229.5C 135.667,231.999 102.667,225.666 71.5,210.5C 98.5868,220.517 126.587,226.184 155.5,227.5C 174.57,227.482 192.903,223.816 210.5,216.5C 211.429,215.311 211.762,213.978 211.5,212.5C 204.166,214.268 196.833,216.101 189.5,218C 187.238,221.342 186.405,221.175 187,217.5C 195.679,214.622 204.512,212.288 213.5,210.5C 213.5,211.833 213.5,213.167 213.5,214.5C 223.479,211.092 232.313,205.759 240,198.5C 240.372,179.326 237.872,160.659 232.5,142.5C 231.452,135.308 229.619,128.308 227,121.5C 220.747,105.072 213.914,88.9049 206.5,73C 186.124,67.6752 165.457,66.1752 144.5,68.5C 146.126,75.2524 148.459,81.7524 151.5,88C 162.514,88.041 173.514,87.541 184.5,86.5C 184.335,82.8183 184.501,79.1516 185,75.5C 185.629,78.3109 186.129,81.1443 186.5,84C 186.325,85.6581 185.658,86.9914 184.5,88C 172.869,89.2679 161.203,89.7679 149.5,89.5C 147.298,82.7554 144.798,76.0887 142,69.5C 141.107,68.9186 140.107,68.5852 139,68.5C 117.372,71.487 96.5387,77.3203 76.5,86C 74,87.1667 72.1667,89 71,91.5C 68.9403,103.417 67.7736,115.417 67.5,127.5C 66.209,127.737 65.209,127.404 64.5,126.5C 61.3586,125.679 58.0252,125.179 54.5,125C 57.146,124.503 59.8127,124.336 62.5,124.5C 63.1413,118.523 63.6413,112.523 64,106.5C 64.3333,110.833 64.6667,115.167 65,119.5C 66.3654,108.835 66.6987,98.1679 66,87.5C 66.3333,89.8333 66.6667,92.1667 67,94.5C 67.2256,91.905 67.7256,89.405 68.5,87C 67.3463,86.0862 67.513,85.2529 69,84.5C 96.2146,73.7428 124.715,67.0762 154.5,64.5 Z"/></g>
<g><path style="opacity:0.999" fill="#525253" d="M 144.5,98.5 C 150.161,99.8307 155.827,101.164 161.5,102.5C 161.249,106.249 160.583,109.915 159.5,113.5C 153.206,112.01 146.873,110.677 140.5,109.5C 141.548,105.736 142.881,102.069 144.5,98.5 Z"/></g>
<g><path style="opacity:0.999" fill="#525354" d="M 206.5,98.5 C 208.467,98.2606 210.301,98.5939 212,99.5C 213.171,102.35 214.338,105.184 215.5,108C 211.273,108.744 207.106,109.578 203,110.5C 201.476,107.39 200.642,104.056 200.5,100.5C 202.786,100.405 204.786,99.7384 206.5,98.5 Z"/></g>
<g><path style="opacity:0.012" fill="#656565" d="M 230.5,107.5 C 230.5,107.167 230.5,106.833 230.5,106.5C 234.5,106.833 234.5,107.167 230.5,107.5 Z"/></g>
<g><path style="opacity:0.004" fill="#4a3635" d="M 246.5,118.5 C 246.56,117.957 246.893,117.624 247.5,117.5C 248.773,118.257 248.773,118.923 247.5,119.5C 247.5,118.833 247.167,118.5 246.5,118.5 Z"/></g>
<g><path style="opacity:0.933" fill="#4c565d" d="M 220.5,121.5 C 214.538,115.99 208.872,116.323 203.5,122.5C 204.254,119.909 205.921,118.076 208.5,117C 209.833,116.833 211.167,116.667 212.5,116.5C 216.547,116.18 219.214,117.847 220.5,121.5 Z"/></g>
<g><path style="opacity:0.949" fill="#494b4d" d="M 167.5,134.5 C 169.656,147.522 164.99,156.855 153.5,162.5C 150.482,162.665 147.482,162.498 144.5,162C 141.688,160.672 139.022,159.172 136.5,157.5C 129.382,147.184 128.715,136.518 134.5,125.5C 139.085,119.719 145.085,117.552 152.5,119C 159.749,122.081 164.749,127.247 167.5,134.5 Z"/></g>
<g><path style="opacity:1" fill="#e99b4e" d="M 244.5,117.5 C 245.167,117.833 245.833,118.167 246.5,118.5C 246.5,118.833 246.5,119.167 246.5,119.5C 248.238,121.921 249.571,124.588 250.5,127.5C 255.007,136.433 253.84,144.767 247,152.5C 245.559,144.857 244.226,137.19 243,129.5C 241.304,125.275 239.471,121.108 237.5,117C 237.833,116.5 238.167,116 238.5,115.5C 240.45,116.372 242.45,117.039 244.5,117.5 Z"/></g>
<g><path style="opacity:0.888" fill="#55b1e6" d="M 220.5,121.5 C 222.152,126.341 222.818,131.341 222.5,136.5C 215.133,135.686 207.799,134.686 200.5,133.5C 200.892,129.658 201.892,125.991 203.5,122.5C 208.872,116.323 214.538,115.99 220.5,121.5 Z"/></g>
<g><path style="opacity:0.998" fill="#fef1e2" d="M 250.5,127.5 C 250.649,128.552 250.483,129.552 250,130.5C 246.526,126.529 246.693,125.529 250.5,127.5 Z"/></g>
<g><path style="opacity:1" fill="#d4d4d4" d="M 73.5,181.5 C 68.5374,182.496 63.5374,182.663 58.5,182C 58.2625,179.712 58.2625,177.212 58.5,174.5C 61.2298,165.097 61.0632,155.763 58,146.5C 56.2892,141.044 52.7892,137.377 47.5,135.5C 45.8295,135.668 44.4961,136.335 43.5,137.5C 41.9382,137.733 40.6049,138.4 39.5,139.5C 39.1667,138.167 38.8333,138.167 38.5,139.5C 37.9569,139.44 37.6236,139.107 37.5,138.5C 38.1359,136.22 39.1359,134.22 40.5,132.5C 40.8333,135.167 41.1667,135.167 41.5,132.5C 41.8333,132.5 42.1667,132.5 42.5,132.5C 43.6828,131.496 45.0161,130.662 46.5,130C 53.856,129.169 61.1893,129.335 68.5,130.5C 66.5767,131.308 64.5767,131.808 62.5,132C 66.211,132.175 69.8776,132.675 73.5,133.5C 75.839,137.184 77.1723,141.184 77.5,145.5C 73.0848,145.305 68.7514,145.805 64.5,147C 67.5,147.333 70.5,147.667 73.5,148C 75.9306,148.295 77.764,149.462 79,151.5C 79.8283,156.202 79.6616,160.869 78.5,165.5C 77.2054,166.098 75.8721,166.598 74.5,167C 76.5767,167.192 78.5767,167.692 80.5,168.5C 80.2212,174.051 77.8879,178.385 73.5,181.5 Z"/></g>
<g><path style="opacity:0.831" fill="#5fb5e7" d="M 140.5,142.5 C 137.751,142.274 135.084,142.607 132.5,143.5C 130.701,133.733 134.034,126.233 142.5,121C 155.596,118.929 163.263,124.429 165.5,137.5C 156.982,138.86 148.649,140.527 140.5,142.5 Z"/></g>
<g><path style="opacity:1" fill="#fca34c" d="M 43.5,137.5 C 45.2091,137.608 47.2091,137.775 49.5,138C 50.8825,139.271 51.8825,140.771 52.5,142.5C 53.9636,151.86 53.7969,161.193 52,170.5C 49.5134,175.827 45.3468,178.16 39.5,177.5C 31.0723,171.043 28.5723,162.71 32,152.5C 33.8599,148.78 35.6932,145.114 37.5,141.5C 37.8333,140.833 38.1667,140.167 38.5,139.5C 38.8333,139.5 39.1667,139.5 39.5,139.5C 40.6049,138.4 41.9382,137.733 43.5,137.5 Z"/></g>
<g><path style="opacity:0.012" fill="#414141" d="M 256.5,143.5 C 256.335,140.482 256.502,137.482 257,134.5C 257.805,137.696 257.638,140.696 256.5,143.5 Z"/></g>
<g><path style="opacity:1" fill="#505254" d="M 220.5,121.5 C 221.966,122.347 222.8,123.68 223,125.5C 223.789,131.237 223.456,136.903 222,142.5C 221.623,143.942 220.79,144.942 219.5,145.5C 220.928,142.988 221.428,140.322 221,137.5C 219.305,141.346 216.805,144.346 213.5,146.5C 209.529,149.475 206.029,148.809 203,144.5C 202.529,142.754 201.862,141.087 201,139.5C 200.51,140.793 200.343,142.127 200.5,143.5C 198.823,139.455 198.156,135.122 198.5,130.5C 199.653,127.53 201.32,124.863 203.5,122.5C 201.892,125.991 200.892,129.658 200.5,133.5C 207.799,134.686 215.133,135.686 222.5,136.5C 222.818,131.341 222.152,126.341 220.5,121.5 Z"/></g>
<g><path style="opacity:0.998" fill="#efefef" d="M 201.5,134.5 C 203.564,134.687 205.564,135.187 207.5,136C 204.28,139.645 202.28,139.145 201.5,134.5 Z"/></g>
<g><path style="opacity:0.799" fill="#6abceb" d="M 134.5,125.5 C 128.715,136.518 129.382,147.184 136.5,157.5C 126.35,153.759 116.016,150.593 105.5,148C 97.1439,147.335 88.8106,147.501 80.5,148.5C 79.7263,142.064 77.7263,136.064 74.5,130.5C 74.5743,128.589 75.5743,127.422 77.5,127C 82.1386,125.872 86.8053,124.872 91.5,124C 105.428,123.63 119.261,123.464 133,123.5C 133.278,124.416 133.778,125.082 134.5,125.5 Z"/></g>
<g><path style="opacity:1" fill="#3ca7e4" d="M 232.5,142.5 C 237.872,160.659 240.372,179.326 240,198.5C 232.313,205.759 223.479,211.092 213.5,214.5C 213.5,213.167 213.5,211.833 213.5,210.5C 204.512,212.288 195.679,214.622 187,217.5C 186.405,221.175 187.238,221.342 189.5,218C 196.833,216.101 204.166,214.268 211.5,212.5C 211.762,213.978 211.429,215.311 210.5,216.5C 192.903,223.816 174.57,227.482 155.5,227.5C 126.587,226.184 98.5868,220.517 71.5,210.5C 70.5977,208.659 69.2644,207.326 67.5,206.5C 67.1667,206.5 66.8333,206.5 66.5,206.5C 66.5,205.833 66.1667,205.5 65.5,205.5C 65.5,204.833 65.1667,204.5 64.5,204.5C 64.5,203.833 64.1667,203.5 63.5,203.5C 63.5,203.167 63.5,202.833 63.5,202.5C 64.299,199.57 64.6323,196.57 64.5,193.5C 66.8568,193.663 69.1902,193.497 71.5,193C 80.8243,179.547 83.8243,164.713 80.5,148.5C 88.8106,147.501 97.1439,147.335 105.5,148C 116.016,150.593 126.35,153.759 136.5,157.5C 139.022,159.172 141.688,160.672 144.5,162C 147.482,162.498 150.482,162.665 153.5,162.5C 162.524,162.642 171.524,162.308 180.5,161.5C 180.369,164.367 181.703,166.033 184.5,166.5C 189.04,169.296 194.04,170.129 199.5,169C 202.936,167.726 205.603,165.559 207.5,162.5C 208.9,159.096 208.234,156.096 205.5,153.5C 207.099,153.768 208.432,153.434 209.5,152.5C 212.38,152.06 215.046,151.06 217.5,149.5C 222.961,147.933 227.961,145.6 232.5,142.5 Z"/></g>
<g><path style="opacity:0.798" fill="#6ebdea" d="M 198.5,130.5 C 198.156,135.122 198.823,139.455 200.5,143.5C 201.89,144.899 202.89,146.566 203.5,148.5C 204.802,150.822 206.802,152.155 209.5,152.5C 208.432,153.434 207.099,153.768 205.5,153.5C 204.833,153.5 204.167,153.5 203.5,153.5C 195.494,149.882 188.327,151.215 182,157.5C 181.209,158.745 180.709,160.078 180.5,161.5C 171.524,162.308 162.524,162.642 153.5,162.5C 164.99,156.855 169.656,147.522 167.5,134.5C 177.421,134.175 187.254,134.175 197,134.5C 197.21,132.942 197.71,131.609 198.5,130.5 Z"/></g>
<g><path style="opacity:1" fill="#e2e3e3" d="M 140.5,142.5 C 141.5,142.5 142.5,142.5 143.5,142.5C 144.041,146.295 142.375,148.295 138.5,148.5C 136.575,148.41 135.408,147.41 135,145.5C 135.744,151.089 138.911,154.756 144.5,156.5C 149.255,158.057 153.921,157.557 158.5,155C 159.252,154.329 159.586,153.496 159.5,152.5C 159.66,150.847 160.326,149.514 161.5,148.5C 163.175,145.493 163.841,142.16 163.5,138.5C 164.5,138.5 165.5,138.5 166.5,138.5C 166.221,155.638 157.888,162.471 141.5,159C 136.193,155.541 133.193,150.707 132.5,144.5C 135.373,144.198 138.039,143.531 140.5,142.5 Z"/></g>
<g><path style="opacity:1" fill="#c4c4c4" d="M 223.5,110.5 C 226.796,108.973 229.962,109.307 233,111.5C 242.018,126.587 245.685,142.92 244,160.5C 239.207,164.639 237.54,163.306 239,156.5C 240.167,155.333 241.333,154.167 242.5,153C 237.509,151.871 235.343,148.704 236,143.5C 237.205,142.929 238.372,142.262 239.5,141.5C 234.36,138.795 232.027,134.461 232.5,128.5C 234.103,128.688 235.437,128.188 236.5,127C 228.204,126.084 226.537,122.418 231.5,116C 227.854,115.51 225.187,113.677 223.5,110.5 Z"/></g>
<g><path style="opacity:0.012" fill="#626262" d="M 254.5,146.5 C 254.833,146.5 255.167,146.5 255.5,146.5C 255.672,147.492 255.338,148.158 254.5,148.5C 254.5,147.833 254.5,147.167 254.5,146.5 Z"/></g>
<g><path style="opacity:0.999" fill="#e2e2e2" d="M 219.5,145.5 C 214.933,150.77 209.6,151.77 203.5,148.5C 202.89,146.566 201.89,144.899 200.5,143.5C 200.343,142.127 200.51,140.793 201,139.5C 201.862,141.087 202.529,142.754 203,144.5C 206.029,148.809 209.529,149.475 213.5,146.5C 216.805,144.346 219.305,141.346 221,137.5C 221.428,140.322 220.928,142.988 219.5,145.5 Z"/></g>
<g><path style="opacity:1" fill="#ef9437" d="M 213.5,146.5 C 207.704,148.526 204.871,146.526 205,140.5C 205.718,139.549 206.551,139.383 207.5,140C 208.604,145.781 210.271,145.948 212.5,140.5C 213.325,139.614 214.325,139.281 215.5,139.5C 215.834,142.188 215.168,144.521 213.5,146.5 Z"/></g>
<g><path style="opacity:1" fill="#586066" d="M 219.5,145.5 C 219.267,147.062 218.6,148.395 217.5,149.5C 215.046,151.06 212.38,152.06 209.5,152.5C 206.802,152.155 204.802,150.822 203.5,148.5C 209.6,151.77 214.933,150.77 219.5,145.5 Z"/></g>
<g><path style="opacity:0.012" fill="#545554" d="M 251.5,151.5 C 251.833,151.5 252.167,151.5 252.5,151.5C 252.315,152.17 251.981,152.17 251.5,151.5 Z"/></g>
<g><path style="opacity:1" fill="#f29334" d="M 161.5,148.5 C 160.326,149.514 159.66,150.847 159.5,152.5C 155.153,155.993 150.153,157.327 144.5,156.5C 143.878,155.373 143.045,154.373 142,153.5C 140.833,149.333 142.333,147.833 146.5,149C 148.087,153.513 150.587,154.347 154,151.5C 154.333,148.833 154.667,146.167 155,143.5C 159.528,141.848 161.695,143.514 161.5,148.5 Z"/></g>
<g><path style="opacity:1" fill="#d6d6d7" d="M 203.5,153.5 C 204.167,153.5 204.833,153.5 205.5,153.5C 208.234,156.096 208.9,159.096 207.5,162.5C 203.801,161.996 200.635,160.33 198,157.5C 196.285,159.759 194.452,161.926 192.5,164C 189.518,164.498 186.518,164.665 183.5,164.5C 184.703,156.957 189.203,152.957 197,152.5C 199.187,152.788 201.354,153.122 203.5,153.5 Z"/></g>
<g><path style="opacity:1" fill="#726b65" d="M 159.5,152.5 C 159.586,153.496 159.252,154.329 158.5,155C 153.921,157.557 149.255,158.057 144.5,156.5C 150.153,157.327 155.153,155.993 159.5,152.5 Z"/></g>
<g><path style="opacity:1" fill="#5f6062" d="M 203.5,153.5 C 201.354,153.122 199.187,152.788 197,152.5C 189.203,152.957 184.703,156.957 183.5,164.5C 183.833,165.167 184.167,165.833 184.5,166.5C 181.703,166.033 180.369,164.367 180.5,161.5C 180.709,160.078 181.209,158.745 182,157.5C 188.327,151.215 195.494,149.882 203.5,153.5 Z"/></g>
<g><path style="opacity:1" fill="#9a9c9e" d="M 207.5,162.5 C 205.603,165.559 202.936,167.726 199.5,169C 194.04,170.129 189.04,169.296 184.5,166.5C 184.167,165.833 183.833,165.167 183.5,164.5C 186.518,164.665 189.518,164.498 192.5,164C 194.452,161.926 196.285,159.759 198,157.5C 200.635,160.33 203.801,161.996 207.5,162.5 Z"/></g>
<g><path style="opacity:0.008" fill="#000000" d="M 245.5,162.5 C 245.833,162.5 246.167,162.5 246.5,162.5C 246.315,163.17 245.981,163.17 245.5,162.5 Z"/></g>
<g><path style="opacity:0.012" fill="#686868" d="M 27.5,154.5 C 27.5,159.167 27.5,163.833 27.5,168.5C 26.1667,163.833 26.1667,159.167 27.5,154.5 Z"/></g>
<g><path style="opacity:0.008" fill="#7e7f7e" d="M 244.5,163.5 C 244.833,163.5 245.167,163.5 245.5,163.5C 245.315,164.17 244.981,164.17 244.5,163.5 Z"/></g>
<g><path style="opacity:0.829" fill="#4f4e4e" d="M 64.5,126.5 C 65.209,127.404 66.209,127.737 67.5,127.5C 69.9344,128.131 72.2677,129.131 74.5,130.5C 77.7263,136.064 79.7263,142.064 80.5,148.5C 83.8243,164.713 80.8243,179.547 71.5,193C 69.1902,193.497 66.8568,193.663 64.5,193.5C 64.6323,196.57 64.299,199.57 63.5,202.5C 62.8333,202.5 62.5,202.833 62.5,203.5C 60.8372,201.562 60.1706,199.228 60.5,196.5C 57.9407,196.802 55.6074,196.468 53.5,195.5C 56.5184,195.665 59.5184,195.498 62.5,195C 57.5484,194.612 52.7151,193.779 48,192.5C 47.6667,192.833 47.3333,193.167 47,193.5C 45.3742,191.083 43.8742,188.583 42.5,186C 43.1667,185.667 43.8333,185.333 44.5,185C 42.2068,183.305 39.8734,182.638 37.5,183C 36.6667,179.5 34.5,177.333 31,176.5C 29.0073,174.182 27.8406,171.516 27.5,168.5C 28.8333,163.833 28.8333,159.167 27.5,154.5C 28.176,150.813 29.676,147.48 32,144.5C 33.9935,144.462 35.8268,143.462 37.5,141.5C 35.6932,145.114 33.8599,148.78 32,152.5C 28.5723,162.71 31.0723,171.043 39.5,177.5C 42.5121,181.502 46.5121,183.002 51.5,182C 58.2346,172.429 60.0679,161.929 57,150.5C 55.7258,147.609 54.2258,144.942 52.5,142.5C 51.8825,140.771 50.8825,139.271 49.5,138C 47.2091,137.775 45.2091,137.608 43.5,137.5C 44.4961,136.335 45.8295,135.668 47.5,135.5C 52.7892,137.377 56.2892,141.044 58,146.5C 61.0632,155.763 61.2298,165.097 58.5,174.5C 56.5939,179.62 53.2606,183.62 48.5,186.5C 49.0983,187.795 49.5983,189.128 50,190.5C 56.7524,191.645 63.5857,191.811 70.5,191C 71.3805,190.292 72.0472,189.458 72.5,188.5C 73.1408,187.518 73.8075,186.518 74.5,185.5C 73.6667,185.167 72.8333,184.833 72,184.5C 69.5379,185.159 67.0379,185.493 64.5,185.5C 63.448,185.649 62.448,185.483 61.5,185C 65.793,184.356 69.793,183.19 73.5,181.5C 77.8879,178.385 80.2212,174.051 80.5,168.5C 78.5767,167.692 76.5767,167.192 74.5,167C 75.8721,166.598 77.2054,166.098 78.5,165.5C 79.6616,160.869 79.8283,156.202 79,151.5C 77.764,149.462 75.9306,148.295 73.5,148C 70.5,147.667 67.5,147.333 64.5,147C 68.7514,145.805 73.0848,145.305 77.5,145.5C 77.1723,141.184 75.839,137.184 73.5,133.5C 69.8776,132.675 66.211,132.175 62.5,132C 64.5767,131.808 66.5767,131.308 68.5,130.5C 61.1893,129.335 53.856,129.169 46.5,130C 45.0161,130.662 43.6828,131.496 42.5,132.5C 42.1667,131.167 41.8333,131.167 41.5,132.5C 41.1667,132.5 40.8333,132.5 40.5,132.5C 40.7086,131.078 41.2086,129.745 42,128.5C 42.9138,129.654 43.7471,129.487 44.5,128C 51.146,127.169 57.8126,126.669 64.5,126.5 Z"/></g>
<g><path style="opacity:1" fill="#9b9b9b" d="M 58.5,174.5 C 58.2625,177.212 58.2625,179.712 58.5,182C 63.5374,182.663 68.5374,182.496 73.5,181.5C 69.793,183.19 65.793,184.356 61.5,185C 62.448,185.483 63.448,185.649 64.5,185.5C 60.636,186.475 56.636,186.642 52.5,186C 51.1667,187.333 51.1667,188.667 52.5,190C 59.2765,190.799 65.9432,190.299 72.5,188.5C 72.0472,189.458 71.3805,190.292 70.5,191C 63.5857,191.811 56.7524,191.645 50,190.5C 49.5983,189.128 49.0983,187.795 48.5,186.5C 53.2606,183.62 56.5939,179.62 58.5,174.5 Z"/></g>
<g><path style="opacity:1" fill="#ffefe0" d="M 37.5,157.5 C 37.775,163.32 39.4417,168.82 42.5,174C 42.1667,174.5 41.8333,175 41.5,175.5C 39.1322,174.631 37.6322,172.965 37,170.5C 36.2316,166.08 36.3982,161.747 37.5,157.5 Z"/></g>
<g><path style="opacity:1" fill="#cb8540" d="M 52.5,142.5 C 54.2258,144.942 55.7258,147.609 57,150.5C 60.0679,161.929 58.2346,172.429 51.5,182C 46.5121,183.002 42.5121,181.502 39.5,177.5C 45.3468,178.16 49.5134,175.827 52,170.5C 53.7969,161.193 53.9636,151.86 52.5,142.5 Z"/></g>
<g><path style="opacity:1" fill="#fff9f4" d="M 38.5,147.5 C 42.1612,147.35 43.1612,148.85 41.5,152C 37.7071,152.487 36.7071,150.987 38.5,147.5 Z"/></g>
<g><path style="opacity:1" fill="#dfdfdf" d="M 72.5,188.5 C 65.9432,190.299 59.2765,190.799 52.5,190C 51.1667,188.667 51.1667,187.333 52.5,186C 56.636,186.642 60.636,186.475 64.5,185.5C 67.0379,185.493 69.5379,185.159 72,184.5C 72.8333,184.833 73.6667,185.167 74.5,185.5C 73.8075,186.518 73.1408,187.518 72.5,188.5 Z"/></g>
<g><path style="opacity:0.016" fill="#486d55" d="M 244.5,181.5 C 245.833,187.5 245.833,193.5 244.5,199.5C 244.5,193.5 244.5,187.5 244.5,181.5 Z"/></g>
<g><path style="opacity:0.937" fill="#45555e" d="M 220.5,190.5 C 220.813,187.753 220.48,185.086 219.5,182.5C 199.156,191.586 177.823,196.919 155.5,198.5C 149.824,198.334 144.157,198.501 138.5,199C 136.984,200.897 136.317,203.064 136.5,205.5C 135.021,202.857 135.354,200.357 137.5,198C 167.153,198.335 195.487,192.501 222.5,180.5C 222.841,184.16 222.175,187.493 220.5,190.5 Z"/></g>
<g><path style="opacity:1" fill="#adebfa" d="M 220.5,190.5 C 217.743,193.579 214.41,195.912 210.5,197.5C 208.143,197.337 205.81,197.503 203.5,198C 183.168,206.419 162.168,208.752 140.5,205C 144.157,205.108 147.823,205.108 151.5,205C 147.95,203.818 144.284,202.818 140.5,202C 144.749,200.165 149.749,198.998 155.5,198.5C 177.823,196.919 199.156,191.586 219.5,182.5C 220.48,185.086 220.813,187.753 220.5,190.5 Z"/></g>
<g><path style="opacity:0.012" fill="#7d7d7d" d="M 53.5,195.5 C 51.8008,195.66 50.1341,195.494 48.5,195C 50.3869,194.22 52.0536,194.387 53.5,195.5 Z"/></g>
<g><path style="opacity:0.996" fill="#82c6d7" d="M 210.5,197.5 C 209.015,200.083 206.682,201.416 203.5,201.5C 184.642,207.599 165.309,210.099 145.5,209C 142.037,208.883 139.037,207.716 136.5,205.5C 136.317,203.064 136.984,200.897 138.5,199C 144.157,198.501 149.824,198.334 155.5,198.5C 149.749,198.998 144.749,200.165 140.5,202C 144.284,202.818 147.95,203.818 151.5,205C 147.823,205.108 144.157,205.108 140.5,205C 162.168,208.752 183.168,206.419 203.5,198C 205.81,197.503 208.143,197.337 210.5,197.5 Z"/></g>
<g><path style="opacity:0.004" fill="#252739" d="M 243.5,199.5 C 243.833,199.5 244.167,199.5 244.5,199.5C 244.167,201.833 242.833,203.167 240.5,203.5C 240.5,203.167 240.5,202.833 240.5,202.5C 241.167,202.5 241.5,202.167 241.5,201.5C 242.167,201.5 242.5,201.167 242.5,200.5C 243.167,200.5 243.5,200.167 243.5,199.5 Z"/></g>
<g><path style="opacity:0.016" fill="#3f7f3e" d="M 239.5,203.5 C 239.833,203.5 240.167,203.5 240.5,203.5C 240.315,204.17 239.981,204.17 239.5,203.5 Z"/></g>
<g><path style="opacity:0.008" fill="#7e7f7e" d="M 238.5,204.5 C 238.833,204.5 239.167,204.5 239.5,204.5C 239.315,205.17 238.981,205.17 238.5,204.5 Z"/></g>
<g><path style="opacity:0.004" fill="#4fc33d" d="M 236.5,206.5 C 236.5,206.167 236.5,205.833 236.5,205.5C 237.167,205.5 237.833,205.5 238.5,205.5C 238.158,206.338 237.492,206.672 236.5,206.5 Z"/></g>
<g><path style="opacity:0.024" fill="#766574" d="M 62.5,203.5 C 62.8333,203.5 63.1667,203.5 63.5,203.5C 64.1667,203.5 64.5,203.833 64.5,204.5C 65.1667,204.5 65.5,204.833 65.5,205.5C 66.1667,205.5 66.5,205.833 66.5,206.5C 66.8333,207.833 67.1667,207.833 67.5,206.5C 69.2644,207.326 70.5977,208.659 71.5,210.5C 68.1566,209.941 65.1566,208.608 62.5,206.5C 61.4376,205.575 61.4376,204.575 62.5,203.5 Z"/></g>
<g><path style="opacity:0.016" fill="#3f7f3e" d="M 235.5,206.5 C 235.833,206.5 236.167,206.5 236.5,206.5C 236.315,207.17 235.981,207.17 235.5,206.5 Z"/></g>
<g><path style="opacity:0.008" fill="#535353" d="M 233.5,208.5 C 233.5,208.167 233.5,207.833 233.5,207.5C 234.167,207.5 234.833,207.5 235.5,207.5C 235.158,208.338 234.492,208.672 233.5,208.5 Z"/></g>
<g><path style="opacity:0.016" fill="#3f7f3e" d="M 232.5,208.5 C 232.833,208.5 233.167,208.5 233.5,208.5C 233.315,209.17 232.981,209.17 232.5,208.5 Z"/></g>
<g><path style="opacity:0.961" fill="#424f55" d="M 203.5,201.5 C 192.452,206.345 180.785,209.178 168.5,210C 159.5,210.667 150.5,210.667 141.5,210C 138.885,209.388 137.219,207.888 136.5,205.5C 139.037,207.716 142.037,208.883 145.5,209C 165.309,210.099 184.642,207.599 203.5,201.5 Z"/></g>
<g><path style="opacity:0.008" fill="#655680" d="M 230.5,210.5 C 230.5,210.167 230.5,209.833 230.5,209.5C 231.167,209.5 231.833,209.5 232.5,209.5C 232.158,210.338 231.492,210.672 230.5,210.5 Z"/></g>
<g><path style="opacity:0.012" fill="#545554" d="M 229.5,210.5 C 229.833,210.5 230.167,210.5 230.5,210.5C 230.315,211.17 229.981,211.17 229.5,210.5 Z"/></g>
<g><path style="opacity:0.004" fill="#4fc33d" d="M 227.5,212.5 C 227.5,212.167 227.5,211.833 227.5,211.5C 228.167,211.5 228.833,211.5 229.5,211.5C 229.158,212.338 228.492,212.672 227.5,212.5 Z"/></g>
<g><path style="opacity:0.008" fill="#535353" d="M 225.5,213.5 C 225.5,213.167 225.5,212.833 225.5,212.5C 226.167,212.5 226.833,212.5 227.5,212.5C 227.158,213.338 226.492,213.672 225.5,213.5 Z"/></g>
<g><path style="opacity:0.012" fill="#55aa54" d="M 224.5,213.5 C 224.833,213.5 225.167,213.5 225.5,213.5C 225.315,214.17 224.981,214.17 224.5,213.5 Z"/></g>
<g><path style="opacity:0.004" fill="#1f1f1f" d="M 222.5,215.5 C 222.5,215.167 222.5,214.833 222.5,214.5C 223.167,214.5 223.833,214.5 224.5,214.5C 224.158,215.338 223.492,215.672 222.5,215.5 Z"/></g>
<g><path style="opacity:0.004" fill="#c8e2e1" d="M 220.5,216.5 C 220.5,216.167 220.5,215.833 220.5,215.5C 221.167,215.5 221.833,215.5 222.5,215.5C 222.158,216.338 221.492,216.672 220.5,216.5 Z"/></g>
<g><path style="opacity:0.004" fill="#bed2d2" d="M 218.5,217.5 C 218.5,217.167 218.5,216.833 218.5,216.5C 219.167,216.5 219.833,216.5 220.5,216.5C 220.158,217.338 219.492,217.672 218.5,217.5 Z"/></g>
<g><path style="opacity:0.004" fill="#1f1f1f" d="M 218.5,217.5 C 218.103,218.525 217.437,218.692 216.5,218C 217.094,217.536 217.761,217.369 218.5,217.5 Z"/></g>
<g><path style="opacity:0.012" fill="#4a3b64" d="M 213.5,219.5 C 213.5,219.167 213.5,218.833 213.5,218.5C 216.167,218.833 216.167,219.167 213.5,219.5 Z"/></g>
<g><path style="opacity:0.008" fill="#707070" d="M 211.5,220.5 C 211.5,220.167 211.5,219.833 211.5,219.5C 212.167,219.5 212.833,219.5 213.5,219.5C 213.158,220.338 212.492,220.672 211.5,220.5 Z"/></g>
<g><path style="opacity:0.012" fill="#6a9067" d="M 208.5,221.5 C 208.5,221.167 208.5,220.833 208.5,220.5C 209.5,220.5 210.5,220.5 211.5,220.5C 210.791,221.404 209.791,221.737 208.5,221.5 Z"/></g>
<g><path style="opacity:0.008" fill="#74708d" d="M 206.5,222.5 C 206.5,222.167 206.5,221.833 206.5,221.5C 207.167,221.5 207.833,221.5 208.5,221.5C 208.158,222.338 207.492,222.672 206.5,222.5 Z"/></g>
<g><path style="opacity:0.012" fill="#404040" d="M 203.5,223.5 C 203.5,223.167 203.5,222.833 203.5,222.5C 204.5,222.5 205.5,222.5 206.5,222.5C 205.791,223.404 204.791,223.737 203.5,223.5 Z"/></g>
<g><path style="opacity:0.012" fill="#55774a" d="M 200.5,224.5 C 200.5,224.167 200.5,223.833 200.5,223.5C 201.5,223.5 202.5,223.5 203.5,223.5C 202.791,224.404 201.791,224.737 200.5,224.5 Z"/></g>
<g><path style="opacity:0.016" fill="#364b4b" d="M 196.5,225.5 C 196.5,225.167 196.5,224.833 196.5,224.5C 197.833,224.5 199.167,224.5 200.5,224.5C 199.432,225.434 198.099,225.768 196.5,225.5 Z"/></g>
<g><path style="opacity:0.012" fill="#7c7c7c" d="M 196.5,225.5 C 195.749,226.573 194.749,226.74 193.5,226C 194.448,225.517 195.448,225.351 196.5,225.5 Z"/></g>
<g><path style="opacity:0.016" fill="#5b6970" d="M 170.5,230.5 C 170.5,230.167 170.5,229.833 170.5,229.5C 181.167,229.833 181.167,230.167 170.5,230.5 Z"/></g>
<g><path style="opacity:0.012" fill="#646a69" d="M 170.5,230.5 C 159.007,231.659 147.341,231.826 135.5,231C 147.162,230.5 158.829,230.333 170.5,230.5 Z"/></g>
</svg>
