<?xml version="1.0" encoding="UTF-8"?>
<!DOCTYPE svg PUBLIC "-//W3C//DTD SVG 1.1//EN" "http://www.w3.org/Graphics/SVG/1.1/DTD/svg11.dtd">
<svg xmlns="http://www.w3.org/2000/svg" version="1.1" width="300px" height="300px" style="shape-rendering:geometricPrecision; text-rendering:geometricPrecision; image-rendering:optimizeQuality; fill-rule:evenodd; clip-rule:evenodd" xmlns:xlink="http://www.w3.org/1999/xlink">
<g><path style="opacity:0.004" fill="#000000" d="M 139.5,45.5 C 140.833,46.1667 140.833,46.1667 139.5,45.5 Z"/></g>
<g><path style="opacity:0.004" fill="#000000" d="M 133.5,47.5 C 134.601,46.4017 135.934,46.235 137.5,47C 136.207,47.49 134.873,47.6567 133.5,47.5 Z"/></g>
<g><path style="opacity:0.004" fill="#000000" d="M 142.5,47.5 C 143.601,46.4017 144.934,46.235 146.5,47C 145.207,47.49 143.873,47.6567 142.5,47.5 Z"/></g>
<g><path style="opacity:0.004" fill="#000000" d="M 133.5,47.5 C 133.5,47.8333 133.5,48.1667 133.5,48.5C 130.833,48.1667 130.833,47.8333 133.5,47.5 Z"/></g>
<g><path style="opacity:0.004" fill="#000000" d="M 129.5,48.5 C 130.833,49.1667 130.833,49.1667 129.5,48.5 Z"/></g>
<g><path style="opacity:0.004" fill="#000000" d="M 127.5,49.5 C 128.833,50.1667 128.833,50.1667 127.5,49.5 Z"/></g>
<g><path style="opacity:0.004" fill="#000000" d="M 150.5,49.5 C 151.833,50.1667 151.833,50.1667 150.5,49.5 Z"/></g>
<g><path style="opacity:0.004" fill="#000000" d="M 152.5,50.5 C 153.833,51.1667 153.833,51.1667 152.5,50.5 Z"/></g>
<g><path style="opacity:0.812" fill="#391f1e" d="M 150.5,50.5 C 152.791,53.0447 155.291,54.7114 158,55.5C 157.609,58.0941 158.443,60.4275 160.5,62.5C 161.722,69.8838 161.722,77.2172 160.5,84.5C 159.861,85.0968 159.528,85.9302 159.5,87C 160.008,88.8926 161.008,90.3926 162.5,91.5C 160.666,90.506 158.999,90.506 157.5,91.5C 149.527,106.153 137.193,112.32 120.5,110C 116.717,108.942 113.383,107.109 110.5,104.5C 100.825,112.174 94.9916,122.174 93,134.5C 92.0699,147.914 92.7365,161.247 95,174.5C 99.0014,190.171 102.835,205.838 106.5,221.5C 105.833,221.5 105.167,221.5 104.5,221.5C 103.79,217.975 102.79,214.642 101.5,211.5C 101.768,209.901 101.434,208.568 100.5,207.5C 100.768,205.901 100.434,204.568 99.5,203.5C 98.1016,195.24 96.1016,187.24 93.5,179.5C 91.6069,168.58 90.2736,157.58 89.5,146.5C 89.8355,141.816 90.3355,137.149 91,132.5C 92.8829,125.217 94.8829,118.217 97,111.5C 98.016,110.366 98.6827,110.699 99,112.5C 99.4652,111.069 100.299,109.903 101.5,109C 100.549,108.282 100.383,107.449 101,106.5C 103.811,105.777 106.311,103.944 108.5,101C 104.478,90.6317 105.144,80.465 110.5,70.5C 110.167,69.8333 109.833,69.1667 109.5,68.5C 111.138,65.6959 112.971,63.0292 115,60.5C 115.333,60.8333 115.667,61.1667 116,61.5C 121.171,56.1469 127.004,51.8136 133.5,48.5C 139.241,47.5067 144.908,48.1733 150.5,50.5 Z"/></g>
<g><path style="opacity:1" fill="#eeedee" d="M 152.5,72.5 C 151.602,80.0702 149.435,87.4036 146,94.5C 140.957,100.772 134.457,104.606 126.5,106C 138.589,105.268 146.755,99.1017 151,87.5C 151.737,83.7934 152.571,80.1268 153.5,76.5C 155.317,66.0971 151.984,57.9304 143.5,52C 152.182,54.0148 157.682,59.5148 160,68.5C 161.378,87.5766 153.211,100.743 135.5,108C 111.685,110.171 103.185,99.6708 110,76.5C 114.415,63.7518 123.082,55.4184 136,51.5C 146.927,54.2584 152.427,61.2584 152.5,72.5 Z"/></g>
<g><path style="opacity:0.004" fill="#000000" d="M 161.5,62.5 C 161.167,62.5 160.833,62.5 160.5,62.5C 160.833,59.8333 161.167,59.8333 161.5,62.5 Z"/></g>
<g><path style="opacity:0.004" fill="#000000" d="M 161.5,62.5 C 162.573,63.2506 162.74,64.2506 162,65.5C 161.517,64.552 161.351,63.552 161.5,62.5 Z"/></g>
<g><path style="opacity:0.004" fill="#341206" d="M 162.5,66.5 C 163.598,67.6009 163.765,68.9343 163,70.5C 162.51,69.2068 162.343,67.8734 162.5,66.5 Z"/></g>
<g><path style="opacity:1" fill="#cc2527" d="M 118.5,71.5 C 123.3,71.0587 126.633,72.892 128.5,77C 128.646,79.1879 127.646,80.5212 125.5,81C 123.19,81.4966 120.857,81.6633 118.5,81.5C 114.951,80.0433 113.784,77.3766 115,73.5C 115.816,72.1772 116.983,71.5106 118.5,71.5 Z"/></g>
<g><path style="opacity:1" fill="#fc979a" d="M 117.5,73.5 C 118.978,73.238 120.311,73.5713 121.5,74.5C 120.68,76.1112 119.346,76.7778 117.5,76.5C 117.5,75.5 117.5,74.5 117.5,73.5 Z"/></g>
<g><path style="opacity:1" fill="#867171" d="M 130.5,75.5 C 134.473,76.0755 135.473,78.2421 133.5,82C 131.934,82.765 130.601,82.5983 129.5,81.5C 130.167,81.5 130.5,81.1667 130.5,80.5C 131.5,80.5 132.5,80.5 133.5,80.5C 133.5,79.5 133.5,78.5 133.5,77.5C 132.5,77.5 131.5,77.5 130.5,77.5C 130.5,76.8333 130.5,76.1667 130.5,75.5 Z"/></g>
<g><path style="opacity:0.004" fill="#000000" d="M 104.5,79.5 C 105.598,80.6009 105.765,81.9343 105,83.5C 104.51,82.2068 104.343,80.8734 104.5,79.5 Z"/></g>
<g><path style="opacity:1" fill="#e4e1e1" d="M 130.5,77.5 C 131.5,77.5 132.5,77.5 133.5,77.5C 133.5,78.5 133.5,79.5 133.5,80.5C 132.5,80.5 131.5,80.5 130.5,80.5C 129.167,79.5 129.167,78.5 130.5,77.5 Z"/></g>
<g><path style="opacity:0.004" fill="#292929" d="M 162.5,78.5 C 163.613,79.9464 163.78,81.6131 163,83.5C 162.506,81.8659 162.34,80.1992 162.5,78.5 Z"/></g>
<g><path style="opacity:1" fill="#49201f" d="M 118.5,71.5 C 121.74,70.2578 125.074,70.4245 128.5,72C 129.085,73.3024 129.751,74.469 130.5,75.5C 130.5,76.1667 130.5,76.8333 130.5,77.5C 129.167,78.5 129.167,79.5 130.5,80.5C 130.5,81.1667 130.167,81.5 129.5,81.5C 127.693,82.6148 125.693,83.2814 123.5,83.5C 121.443,83.5643 119.777,82.8976 118.5,81.5C 120.857,81.6633 123.19,81.4966 125.5,81C 127.646,80.5212 128.646,79.1879 128.5,77C 126.633,72.892 123.3,71.0587 118.5,71.5 Z"/></g>
<g><path style="opacity:0.004" fill="#000000" d="M 103.5,85.5 C 104.634,87.9664 104.801,90.633 104,93.5C 103.503,90.854 103.336,88.1873 103.5,85.5 Z"/></g>
<g><path style="opacity:0.004" fill="#000000" d="M 166.5,87.5 C 167.833,88.1667 167.833,88.1667 166.5,87.5 Z"/></g>
<g><path style="opacity:1" fill="#f0eff0" d="M 157.5,91.5 C 169.985,101.747 175.819,115.081 175,131.5C 172.996,139.843 169.163,147.176 163.5,153.5C 167.885,157.6 170.718,162.6 172,168.5C 172.5,187.497 172.667,206.497 172.5,225.5C 170.45,227.547 168.117,229.214 165.5,230.5C 165.198,227.627 164.531,224.961 163.5,222.5C 162.993,218.14 162.327,213.807 161.5,209.5C 148.816,209.168 136.149,209.501 123.5,210.5C 122.667,212.167 121.833,213.833 121,215.5C 120.827,221.348 120.327,227.015 119.5,232.5C 115.435,228.428 111.102,224.762 106.5,221.5C 102.835,205.838 99.0014,190.171 95,174.5C 92.7365,161.247 92.0699,147.914 93,134.5C 94.9916,122.174 100.825,112.174 110.5,104.5C 113.383,107.109 116.717,108.942 120.5,110C 137.193,112.32 149.527,106.153 157.5,91.5 Z"/></g>
<g><path style="opacity:0.004" fill="#341206" d="M 104.5,94.5 C 105.598,95.6009 105.765,96.9343 105,98.5C 104.51,97.2068 104.343,95.8734 104.5,94.5 Z"/></g>
<g><path style="opacity:1" fill="#a7a7a8" d="M 157.5,91.5 C 158.999,90.506 160.666,90.506 162.5,91.5C 177.687,98.5551 186.187,110.555 188,127.5C 188.333,147.5 188.667,167.5 189,187.5C 189.956,197.176 190.622,206.842 191,216.5C 185.011,219.912 178.844,222.912 172.5,225.5C 172.667,206.497 172.5,187.497 172,168.5C 170.718,162.6 167.885,157.6 163.5,153.5C 169.163,147.176 172.996,139.843 175,131.5C 175.819,115.081 169.985,101.747 157.5,91.5 Z"/></g>
<g><path style="opacity:1" fill="#6d5352" d="M 152.5,72.5 C 152.232,74.099 152.566,75.4324 153.5,76.5C 152.571,80.1268 151.737,83.7934 151,87.5C 146.755,99.1017 138.589,105.268 126.5,106C 134.457,104.606 140.957,100.772 146,94.5C 149.435,87.4036 151.602,80.0702 152.5,72.5 Z"/></g>
<g><path style="opacity:0.004" fill="#000000" d="M 184.5,105.5 C 185.833,106.167 185.833,106.167 184.5,105.5 Z"/></g>
<g><path style="opacity:0.004" fill="#000000" d="M 188.5,115.5 C 188.369,114.761 188.536,114.094 189,113.5C 189.692,114.437 189.525,115.103 188.5,115.5 Z"/></g>
<g><path style="opacity:0.004" fill="#000000" d="M 191.5,123.5 C 191.167,123.5 190.833,123.5 190.5,123.5C 190.833,118.167 191.167,118.167 191.5,123.5 Z"/></g>
<g><path style="opacity:0.004" fill="#000000" d="M 191.5,123.5 C 192.622,125.288 192.789,127.288 192,129.5C 191.505,127.527 191.338,125.527 191.5,123.5 Z"/></g>
<g><path style="opacity:0.004" fill="#000000" d="M 89.5,127.5 C 90.5983,128.601 90.765,129.934 90,131.5C 89.51,130.207 89.3433,128.873 89.5,127.5 Z"/></g>
<g><path style="opacity:0.004" fill="#000000" d="M 192.5,130.5 C 193.662,147.328 193.828,164.328 193,181.5C 192.5,164.503 192.333,147.503 192.5,130.5 Z"/></g>
<g><path style="opacity:0.004" fill="#000000" d="M 88.5,132.5 C 89.6129,133.946 89.7796,135.613 89,137.5C 88.5065,135.866 88.3398,134.199 88.5,132.5 Z"/></g>
<g><path style="opacity:0.996" fill="#452220" d="M 125.5,118.5 C 137.129,116.468 144.129,121.135 146.5,132.5C 155.256,132.727 155.589,134.227 147.5,137C 146.663,138.011 146.33,139.178 146.5,140.5C 145.637,127.304 138.637,119.97 125.5,118.5 Z"/></g>
<g><path style="opacity:1" fill="#4e2e2d" d="M 123.5,119.5 C 120.912,121.561 118.078,124.227 115,127.5C 109.486,141.803 114.319,150.136 129.5,152.5C 136.868,151.902 142.035,148.235 145,141.5C 145.399,141.728 145.565,142.062 145.5,142.5C 143.426,150.05 138.426,154.05 130.5,154.5C 120.593,154.088 113.926,149.254 110.5,140C 109.207,139.51 107.873,139.343 106.5,139.5C 105.833,135.5 107.5,133.833 111.5,134.5C 112.533,127.133 116.533,122.133 123.5,119.5 Z"/></g>
<g><path style="opacity:0.004" fill="#000000" d="M 87.5,140.5 C 88.6453,144.311 88.8119,148.311 88,152.5C 87.5012,148.514 87.3345,144.514 87.5,140.5 Z"/></g>
<g><path style="opacity:1" fill="#7d7a7a" d="M 123.5,119.5 C 123.842,118.662 124.508,118.328 125.5,118.5C 138.637,119.97 145.637,127.304 146.5,140.5C 146.672,141.492 146.338,142.158 145.5,142.5C 145.565,142.062 145.399,141.728 145,141.5C 142.035,148.235 136.868,151.902 129.5,152.5C 114.319,150.136 109.486,141.803 115,127.5C 118.078,124.227 120.912,121.561 123.5,119.5 Z"/></g>
<g><path style="opacity:1" fill="#595354" d="M 122.5,124.5 C 120.956,127.61 119.956,130.944 119.5,134.5C 120.3,143.586 125.3,147.419 134.5,146C 126.667,149.307 121,147.14 117.5,139.5C 115.389,133.36 117.056,128.36 122.5,124.5 Z"/></g>
<g><path style="opacity:1" fill="#441a18" d="M 117.5,139.5 C 121,147.14 126.667,149.307 134.5,146C 125.3,147.419 120.3,143.586 119.5,134.5C 119.956,130.944 120.956,127.61 122.5,124.5C 130.544,121.691 137.044,123.691 142,130.5C 143.478,146.032 136.645,151.532 121.5,147C 118.976,145.117 117.642,142.617 117.5,139.5 Z"/></g>
<g><path style="opacity:1" fill="#e31b23" d="M 129.5,131.5 C 130.5,131.5 131.5,131.5 132.5,131.5C 132.5,133.167 132.5,134.833 132.5,136.5C 131.5,136.5 130.5,136.5 129.5,136.5C 129.5,134.833 129.5,133.167 129.5,131.5 Z"/></g>
<g><path style="opacity:0.004" fill="#000000" d="M 88.5,155.5 C 89.6291,157.628 89.7958,159.961 89,162.5C 88.5034,160.19 88.3367,157.857 88.5,155.5 Z"/></g>
<g><path style="opacity:0.004" fill="#000000" d="M 89.5,163.5 C 90.6225,165.288 90.7891,167.288 90,169.5C 89.5045,167.527 89.3379,165.527 89.5,163.5 Z"/></g>
<g><path style="opacity:0.004" fill="#000000" d="M 90.5,170.5 C 91.5983,171.601 91.765,172.934 91,174.5C 90.51,173.207 90.3433,171.873 90.5,170.5 Z"/></g>
<g><path style="opacity:0.004" fill="#000000" d="M 92.5,179.5 C 91.4017,178.399 91.235,177.066 92,175.5C 92.49,176.793 92.6567,178.127 92.5,179.5 Z"/></g>
<g><path style="opacity:0.004" fill="#000000" d="M 92.5,179.5 C 92.8333,179.5 93.1667,179.5 93.5,179.5C 93.1667,184.833 92.8333,184.833 92.5,179.5 Z"/></g>
<g><path style="opacity:0.004" fill="#000000" d="M 193.5,183.5 C 194.638,186.304 194.805,189.304 194,192.5C 193.502,189.518 193.335,186.518 193.5,183.5 Z"/></g>
<g><path style="opacity:0.004" fill="#000000" d="M 93.5,184.5 C 94.5735,185.251 94.7401,186.251 94,187.5C 93.5172,186.552 93.3505,185.552 93.5,184.5 Z"/></g>
<g><path style="opacity:0.999" fill="#817f80" d="M 121.5,186.5 C 121.5,185.5 121.5,184.5 121.5,183.5C 125.355,184.635 129.355,185.302 133.5,185.5C 138.136,185.503 142.469,184.503 146.5,182.5C 147.092,185.127 147.425,187.794 147.5,190.5C 139.167,190.5 130.833,190.5 122.5,190.5C 122.768,188.901 122.434,187.568 121.5,186.5 Z"/></g>
<g><path style="opacity:0.004" fill="#000000" d="M 94.5,188.5 C 95.5735,189.251 95.7401,190.251 95,191.5C 94.5172,190.552 94.3505,189.552 94.5,188.5 Z"/></g>
<g><path style="opacity:0.908" fill="#4c2e2d" d="M 121.5,186.5 C 122.434,187.568 122.768,188.901 122.5,190.5C 130.833,190.5 139.167,190.5 147.5,190.5C 147.425,187.794 147.092,185.127 146.5,182.5C 142.469,184.503 138.136,185.503 133.5,185.5C 129.355,185.302 125.355,184.635 121.5,183.5C 130.2,181.047 139.2,180.047 148.5,180.5C 148.552,184.198 148.886,187.865 149.5,191.5C 140.195,192.354 130.861,192.687 121.5,192.5C 121.5,190.5 121.5,188.5 121.5,186.5 Z"/></g>
<g><path style="opacity:0.004" fill="#000000" d="M 95.5,192.5 C 96.5735,193.251 96.7401,194.251 96,195.5C 95.5172,194.552 95.3505,193.552 95.5,192.5 Z"/></g>
<g><path style="opacity:0.004" fill="#000000" d="M 194.5,194.5 C 195.634,196.966 195.801,199.633 195,202.5C 194.503,199.854 194.336,197.187 194.5,194.5 Z"/></g>
<g><path style="opacity:0.004" fill="#000000" d="M 96.5,196.5 C 97.5735,197.251 97.7401,198.251 97,199.5C 96.5172,198.552 96.3505,197.552 96.5,196.5 Z"/></g>
<g><path style="opacity:0.004" fill="#000000" d="M 98.5,203.5 C 97.4265,202.749 97.2599,201.749 98,200.5C 98.4828,201.448 98.6495,202.448 98.5,203.5 Z"/></g>
<g><path style="opacity:0.004" fill="#303030" d="M 98.5,203.5 C 98.8333,203.5 99.1667,203.5 99.5,203.5C 99.5,204.833 99.5,206.167 99.5,207.5C 98.5655,206.432 98.2322,205.099 98.5,203.5 Z"/></g>
<g><path style="opacity:0.004" fill="#000000" d="M 195.5,205.5 C 196.643,208.976 196.81,212.642 196,216.5C 195.501,212.848 195.335,209.182 195.5,205.5 Z"/></g>
<g><path style="opacity:0.004" fill="#303030" d="M 99.5,207.5 C 99.8333,207.5 100.167,207.5 100.5,207.5C 100.5,208.833 100.5,210.167 100.5,211.5C 99.5655,210.432 99.2322,209.099 99.5,207.5 Z"/></g>
<g><path style="opacity:0.004" fill="#303030" d="M 100.5,211.5 C 100.833,211.5 101.167,211.5 101.5,211.5C 101.167,216.833 100.833,216.833 100.5,211.5 Z"/></g>
<g><path style="opacity:1" fill="#efeff0" d="M 155.5,218.5 C 154.348,225.828 155.014,233.161 157.5,240.5C 157.043,241.298 156.376,241.631 155.5,241.5C 145.187,240.796 134.854,240.296 124.5,240C 123.603,237.913 122.936,235.746 122.5,233.5C 120.796,226.075 121.463,218.908 124.5,212C 135.5,211.333 146.5,211.333 157.5,212C 155.984,213.897 155.317,216.064 155.5,218.5 Z"/></g>
<g><path style="opacity:0.004" fill="#000000" d="M 102.5,220.5 C 101.402,219.399 101.235,218.066 102,216.5C 102.49,217.793 102.657,219.127 102.5,220.5 Z"/></g>
<g><path style="opacity:0.004" fill="#000000" d="M 206.5,221.5 C 207.251,220.427 208.251,220.26 209.5,221C 208.552,221.483 207.552,221.649 206.5,221.5 Z"/></g>
<g><path style="opacity:0.004" fill="#4e4e4e" d="M 102.5,220.5 C 103.525,220.897 103.692,221.563 103,222.5C 102.536,221.906 102.369,221.239 102.5,220.5 Z"/></g>
<g><path style="opacity:1" fill="#a29fa0" d="M 163.5,222.5 C 164.531,224.961 165.198,227.627 165.5,230.5C 162.142,233.879 159.809,237.879 158.5,242.5C 157.209,242.737 156.209,242.404 155.5,241.5C 156.376,241.631 157.043,241.298 157.5,240.5C 155.014,233.161 154.348,225.828 155.5,218.5C 155.351,219.552 155.517,220.552 156,221.5C 156.23,217.71 157.563,214.376 160,211.5C 160.761,215.999 161.927,219.666 163.5,222.5 Z"/></g>
<g><path style="opacity:0.004" fill="#000000" d="M 210.5,222.5 C 210.897,221.475 211.563,221.308 212.5,222C 211.906,222.464 211.239,222.631 210.5,222.5 Z"/></g>
<g><path style="opacity:1" fill="#7a6363" d="M 163.5,222.5 C 161.927,219.666 160.761,215.999 160,211.5C 157.563,214.376 156.23,217.71 156,221.5C 155.517,220.552 155.351,219.552 155.5,218.5C 155.317,216.064 155.984,213.897 157.5,212C 146.5,211.333 135.5,211.333 124.5,212C 121.463,218.908 120.796,226.075 122.5,233.5C 121.105,234.815 120.105,234.481 119.5,232.5C 120.327,227.015 120.827,221.348 121,215.5C 121.833,213.833 122.667,212.167 123.5,210.5C 136.149,209.501 148.816,209.168 161.5,209.5C 162.327,213.807 162.993,218.14 163.5,222.5 Z"/></g>
<g><path style="opacity:0.714" fill="#3a1918" d="M 160.5,84.5 C 161.756,84.4614 162.756,84.9614 163.5,86C 162.262,85.9227 161.262,86.0894 160.5,86.5C 168.137,89.5697 174.637,94.2363 180,100.5C 180.333,100.167 180.667,99.8333 181,99.5C 182.442,101.391 183.609,103.391 184.5,105.5C 183.167,105.833 183.167,106.167 184.5,106.5C 185.463,109.744 186.796,112.744 188.5,115.5C 188.565,118.428 189.232,121.095 190.5,123.5C 190.687,155.227 192.187,186.894 195,218.5C 195.333,218.167 195.667,217.833 196,217.5C 197.399,218.227 198.899,218.727 200.5,219C 197.833,219.333 195.167,219.667 192.5,220C 197.171,220.538 201.838,221.038 206.5,221.5C 207.568,222.434 208.901,222.768 210.5,222.5C 217.272,225.259 223.272,229.259 228.5,234.5C 228.369,235.239 228.536,235.906 229,236.5C 230.948,235.891 232.782,235.224 234.5,234.5C 244.607,234.04 254.607,234.707 264.5,236.5C 265.209,237.404 266.209,237.737 267.5,237.5C 268.29,238.401 269.29,239.068 270.5,239.5C 273.804,241.973 276.638,244.973 279,248.5C 282.429,255.295 284.929,262.295 286.5,269.5C 286.205,271.735 286.539,273.735 287.5,275.5C 287.194,278.385 287.527,281.052 288.5,283.5C 288.5,288.833 288.5,294.167 288.5,299.5C 287.5,299.5 286.5,299.5 285.5,299.5C 285.041,286.361 283.541,273.361 281,260.5C 279.402,255.468 276.902,250.968 273.5,247C 272.552,246.517 271.552,246.351 270.5,246.5C 270.5,246.167 270.5,245.833 270.5,245.5C 266.889,242.232 262.555,240.399 257.5,240C 234.441,233.705 217.108,240.872 205.5,261.5C 204.833,261.5 204.5,261.167 204.5,260.5C 209.338,251.479 216.005,244.145 224.5,238.5C 221.952,233.608 217.952,231.274 212.5,231.5C 211.761,231.631 211.094,231.464 210.5,231C 211.624,230.751 212.624,230.251 213.5,229.5C 213.376,228.893 213.043,228.56 212.5,228.5C 202.105,225.04 191.439,223.873 180.5,225C 178.273,225.941 176.273,227.108 174.5,228.5C 173.005,228.989 171.671,229.655 170.5,230.5C 167.959,233.26 166.459,236.594 166,240.5C 158.976,244.67 151.476,245.67 143.5,243.5C 139.601,242.209 135.601,242.209 131.5,243.5C 128.813,243.664 126.146,243.497 123.5,243C 123.012,240.824 122.012,238.991 120.5,237.5C 96.7028,251.626 82.3694,272.293 77.5,299.5C 76.8333,299.5 76.1667,299.5 75.5,299.5C 78.5548,279.224 87.5548,262.057 102.5,248C 83.1638,251.765 67.9971,261.931 57,278.5C 53.2052,285.052 50.7052,292.052 49.5,299.5C 48.5,299.5 47.5,299.5 46.5,299.5C 46.7678,297.901 46.4345,296.568 45.5,295.5C 45.4568,291.107 45.9568,290.774 47,294.5C 48.3907,288.991 50.5573,283.824 53.5,279C 53.0426,278.586 52.7093,278.086 52.5,277.5C 53.4672,275.37 54.6338,273.37 56,271.5C 61.4957,268.048 66.6624,263.548 71.5,258C 81.4897,250.222 92.823,245.555 105.5,244C 109.217,240.615 113.217,237.615 117.5,235C 115.5,233.667 113.5,232.333 111.5,231C 112.167,230.667 112.833,230.333 113.5,230C 110,227.666 107,224.832 104.5,221.5C 105.167,221.5 105.833,221.5 106.5,221.5C 111.102,224.762 115.435,228.428 119.5,232.5C 120.105,234.481 121.105,234.815 122.5,233.5C 122.936,235.746 123.603,237.913 124.5,240C 134.854,240.296 145.187,240.796 155.5,241.5C 156.209,242.404 157.209,242.737 158.5,242.5C 159.809,237.879 162.142,233.879 165.5,230.5C 168.117,229.214 170.45,227.547 172.5,225.5C 178.844,222.912 185.011,219.912 191,216.5C 190.622,206.842 189.956,197.176 189,187.5C 188.667,167.5 188.333,147.5 188,127.5C 186.187,110.555 177.687,98.5551 162.5,91.5C 161.008,90.3926 160.008,88.8926 159.5,87C 159.528,85.9302 159.861,85.0968 160.5,84.5 Z M 228.5,234.5 C 230.5,234.5 232.5,234.5 234.5,234.5C 232.782,235.224 230.948,235.891 229,236.5C 228.536,235.906 228.369,235.239 228.5,234.5 Z"/></g>
<g><path style="opacity:1" fill="#f0f0f1" d="M 212.5,228.5 C 187.658,240.575 173.158,260.575 169,288.5C 168.501,292.152 168.335,295.818 168.5,299.5C 138.167,299.5 107.833,299.5 77.5,299.5C 82.3694,272.293 96.7028,251.626 120.5,237.5C 122.012,238.991 123.012,240.824 123.5,243C 126.146,243.497 128.813,243.664 131.5,243.5C 134.852,247.515 139.185,250.015 144.5,251C 152.634,251.924 160.634,251.258 168.5,249C 175.23,246.668 179.564,242.168 181.5,235.5C 180.117,232.116 177.783,229.783 174.5,228.5C 176.273,227.108 178.273,225.941 180.5,225C 191.439,223.873 202.105,225.04 212.5,228.5 Z"/></g>
<g><path style="opacity:0.005" fill="#000000" d="M 234.5,233.5 C 241.655,232.345 248.988,232.178 256.5,233C 249.174,233.5 241.841,233.666 234.5,233.5 Z"/></g>
<g><path style="opacity:1" fill="#a7a6a7" d="M 212.5,231.5 C 217.952,231.274 221.952,233.608 224.5,238.5C 216.005,244.145 209.338,251.479 204.5,260.5C 197.021,272.26 193.021,284.926 192.5,298.5C 192.5,298.833 192.5,299.167 192.5,299.5C 185.167,299.5 177.833,299.5 170.5,299.5C 170.401,275.204 179.401,255.038 197.5,239C 202.045,235.394 207.045,232.894 212.5,231.5 Z"/></g>
<g><path style="opacity:0.004" fill="#000000" d="M 112.5,235.5 C 113.833,236.167 113.833,236.167 112.5,235.5 Z"/></g>
<g><path style="opacity:0.004" fill="#000000" d="M 264.5,236.5 C 264.897,235.475 265.563,235.308 266.5,236C 265.906,236.464 265.239,236.631 264.5,236.5 Z"/></g>
<g><path style="opacity:0.004" fill="#000000" d="M 267.5,236.5 C 268.833,237.167 268.833,237.167 267.5,236.5 Z"/></g>
<g><path style="opacity:0.004" fill="#000000" d="M 270.5,238.5 C 271.833,239.167 271.833,239.167 270.5,238.5 Z"/></g>
<g><path style="opacity:1" fill="#f0f0f1" d="M 270.5,245.5 C 264.562,251.696 260.395,259.029 258,267.5C 254.87,277.945 253.37,288.612 253.5,299.5C 233.167,299.5 212.833,299.5 192.5,299.5C 192.5,299.167 192.5,298.833 192.5,298.5C 194.65,285.382 198.984,273.048 205.5,261.5C 217.108,240.872 234.441,233.705 257.5,240C 262.555,240.399 266.889,242.232 270.5,245.5 Z"/></g>
<g><path style="opacity:0.999" fill="#e7e4e5" d="M 170.5,230.5 C 176.991,230.156 179.825,233.156 179,239.5C 173.769,245.198 167.269,248.365 159.5,249C 154.167,249.667 148.833,249.667 143.5,249C 139.658,248.279 136.324,246.613 133.5,244C 136.146,243.503 138.813,243.336 141.5,243.5C 142.167,247.5 142.833,247.5 143.5,243.5C 151.476,245.67 158.976,244.67 166,240.5C 166.459,236.594 167.959,233.26 170.5,230.5 Z"/></g>
<g><path style="opacity:1" fill="#432424" d="M 172.5,235.5 C 174.465,235.948 174.798,236.948 173.5,238.5C 172.614,237.675 172.281,236.675 172.5,235.5 Z"/></g>
<g><path style="opacity:1" fill="#674b4a" d="M 174.5,228.5 C 177.783,229.783 180.117,232.116 181.5,235.5C 179.564,242.168 175.23,246.668 168.5,249C 160.634,251.258 152.634,251.924 144.5,251C 139.185,250.015 134.852,247.515 131.5,243.5C 135.601,242.209 139.601,242.209 143.5,243.5C 142.833,247.5 142.167,247.5 141.5,243.5C 138.813,243.336 136.146,243.503 133.5,244C 136.324,246.613 139.658,248.279 143.5,249C 148.833,249.667 154.167,249.667 159.5,249C 167.269,248.365 173.769,245.198 179,239.5C 179.825,233.156 176.991,230.156 170.5,230.5C 171.671,229.655 173.005,228.989 174.5,228.5 Z"/></g>
<g><path style="opacity:0.996" fill="#492928" d="M 153.5,245.5 C 155.337,245.639 155.67,246.306 154.5,247.5C 153.702,247.043 153.369,246.376 153.5,245.5 Z"/></g>
<g><path style="opacity:1" fill="#a7a6a7" d="M 270.5,246.5 C 271.552,246.351 272.552,246.517 273.5,247C 276.902,250.968 279.402,255.468 281,260.5C 283.541,273.361 285.041,286.361 285.5,299.5C 275.5,299.5 265.5,299.5 255.5,299.5C 254.458,279.986 259.458,262.32 270.5,246.5 Z"/></g>
<g><path style="opacity:1" fill="#efefef" d="M 75.5,299.5 C 66.8333,299.5 58.1667,299.5 49.5,299.5C 50.7052,292.052 53.2052,285.052 57,278.5C 67.9971,261.931 83.1638,251.765 102.5,248C 87.5548,262.057 78.5548,279.224 75.5,299.5 Z"/></g>
<g><path style="opacity:0.004" fill="#000000" d="M 286.5,269.5 C 286.34,267.801 286.506,266.134 287,264.5C 287.78,266.387 287.613,268.054 286.5,269.5 Z"/></g>
<g><path style="opacity:1" fill="#583c3b" d="M 204.5,260.5 C 204.5,261.167 204.833,261.5 205.5,261.5C 198.984,273.048 194.65,285.382 192.5,298.5C 193.021,284.926 197.021,272.26 204.5,260.5 Z"/></g>
<g><path style="opacity:1" fill="#573b3a" d="M 212.5,228.5 C 213.043,228.56 213.376,228.893 213.5,229.5C 212.624,230.251 211.624,230.751 210.5,231C 211.094,231.464 211.761,231.631 212.5,231.5C 207.045,232.894 202.045,235.394 197.5,239C 179.401,255.038 170.401,275.204 170.5,299.5C 169.833,299.5 169.167,299.5 168.5,299.5C 168.335,295.818 168.501,292.152 169,288.5C 173.158,260.575 187.658,240.575 212.5,228.5 Z"/></g>
<g><path style="opacity:0.004" fill="#000000" d="M 287.5,275.5 C 287.34,273.801 287.506,272.134 288,270.5C 288.78,272.387 288.613,274.054 287.5,275.5 Z"/></g>
<g><path style="opacity:0.004" fill="#000000" d="M 288.5,283.5 C 288.337,281.143 288.503,278.81 289,276.5C 289.796,279.039 289.629,281.372 288.5,283.5 Z"/></g>
<g><path style="opacity:1" fill="#674f4e" d="M 270.5,245.5 C 270.5,245.833 270.5,246.167 270.5,246.5C 259.458,262.32 254.458,279.986 255.5,299.5C 254.833,299.5 254.167,299.5 253.5,299.5C 253.37,288.612 254.87,277.945 258,267.5C 260.395,259.029 264.562,251.696 270.5,245.5 Z"/></g>
<g><path style="opacity:0.006" fill="#000000" d="M 290.5,299.5 C 290.167,299.5 289.833,299.5 289.5,299.5C 289.833,279.5 290.167,279.5 290.5,299.5 Z"/></g>
<g><path style="opacity:0.005" fill="#000000" d="M 45.5,295.5 C 45.5,296.833 45.5,298.167 45.5,299.5C 45.1667,299.5 44.8333,299.5 44.5,299.5C 44.2322,297.901 44.5655,296.568 45.5,295.5 Z"/></g>
</svg>
