<?xml version="1.0" encoding="UTF-8"?>
<!DOCTYPE svg PUBLIC "-//W3C//DTD SVG 1.1//EN" "http://www.w3.org/Graphics/SVG/1.1/DTD/svg11.dtd">
<svg xmlns="http://www.w3.org/2000/svg" version="1.1" width="300px" height="300px" style="shape-rendering:geometricPrecision; text-rendering:geometricPrecision; image-rendering:optimizeQuality; fill-rule:evenodd; clip-rule:evenodd" xmlns:xlink="http://www.w3.org/1999/xlink">
<g><path style="opacity:0.004" fill="#000000" d="M 131.5,49.5 C 130.761,49.631 130.094,49.4643 129.5,49C 130.437,48.3083 131.103,48.475 131.5,49.5 Z"/></g>
<g><path style="opacity:0.004" fill="#000000" d="M 131.5,49.5 C 132.833,50.1667 132.833,50.1667 131.5,49.5 Z"/></g>
<g><path style="opacity:0.004" fill="#000000" d="M 126.5,51.5 C 127.629,53.6282 127.796,55.9615 127,58.5C 126.503,56.1902 126.337,53.8568 126.5,51.5 Z"/></g>
<g><path style="opacity:0.004" fill="#000000" d="M 135.5,54.5 C 134.833,53.1667 134.833,53.1667 135.5,54.5 Z"/></g>
<g><path style="opacity:0.004" fill="#000000" d="M 135.5,54.5 C 136.525,54.8966 136.692,55.5632 136,56.5C 135.536,55.9056 135.369,55.2389 135.5,54.5 Z"/></g>
<g><path style="opacity:0.004" fill="#000000" d="M 125.5,60.5 C 126.622,62.2884 126.789,64.2884 126,66.5C 125.505,64.5273 125.338,62.5273 125.5,60.5 Z"/></g>
<g><path style="opacity:0.004" fill="#000000" d="M 139.5,65.5 C 139.167,65.5 138.833,65.5 138.5,65.5C 138.833,61.5 139.167,61.5 139.5,65.5 Z"/></g>
<g><path style="opacity:0.004" fill="#000000" d="M 139.5,65.5 C 140.525,65.8966 140.692,66.5632 140,67.5C 139.536,66.9056 139.369,66.2389 139.5,65.5 Z"/></g>
<g><path style="opacity:0.004" fill="#000000" d="M 142.5,73.5 C 142.167,73.5 141.833,73.5 141.5,73.5C 141.833,69.5 142.167,69.5 142.5,73.5 Z"/></g>
<g><path style="opacity:0.004" fill="#000000" d="M 142.5,73.5 C 143.525,73.8966 143.692,74.5632 143,75.5C 142.536,74.9056 142.369,74.2389 142.5,73.5 Z"/></g>
<g><path style="opacity:0.004" fill="#000000" d="M 163.5,81.5 C 165.628,80.3709 167.961,80.2042 170.5,81C 168.19,81.4966 165.857,81.6633 163.5,81.5 Z"/></g>
<g><path style="opacity:0.004" fill="#000000" d="M 171.5,82.5 C 172.946,81.3871 174.613,81.2204 176.5,82C 174.866,82.4935 173.199,82.6602 171.5,82.5 Z"/></g>
<g><path style="opacity:0.004" fill="#000000" d="M 181.5,83.5 C 180.127,83.6567 178.793,83.49 177.5,83C 179.066,82.235 180.399,82.4017 181.5,83.5 Z"/></g>
<g><path style="opacity:0.004" fill="#000000" d="M 181.5,83.5 C 182.552,83.3505 183.552,83.5172 184.5,84C 183.251,84.7401 182.251,84.5735 181.5,83.5 Z"/></g>
<g><path style="opacity:0.004" fill="#000000" d="M 192.5,88.5 C 192.897,87.475 193.563,87.3083 194.5,88C 193.906,88.4643 193.239,88.631 192.5,88.5 Z"/></g>
<g><path style="opacity:0.004" fill="#000000" d="M 195.5,88.5 C 196.833,89.1667 196.833,89.1667 195.5,88.5 Z"/></g>
<g><path style="opacity:0.004" fill="#000000" d="M 91.5,92.5 C 92.8333,93.1667 92.8333,93.1667 91.5,92.5 Z"/></g>
<g><path style="opacity:0.974" fill="#331514" d="M 131.5,50.5 C 132.026,52.2303 133.026,53.5637 134.5,54.5C 135.459,58.383 136.792,62.0497 138.5,65.5C 138.98,68.4432 139.98,71.1098 141.5,73.5C 141.687,75.5643 142.187,77.5643 143,79.5C 143.807,75.551 144.307,75.551 144.5,79.5C 149.844,79.334 155.177,79.5006 160.5,80C 154.833,80.3333 149.167,80.6667 143.5,81C 160.27,80.901 176.604,83.401 192.5,88.5C 199.742,92.3898 206.242,97.3898 212,103.5C 212.333,103.167 212.667,102.833 213,102.5C 214.442,104.391 215.609,106.391 216.5,108.5C 215.957,108.56 215.624,108.893 215.5,109.5C 216.879,112.259 218.213,114.925 219.5,117.5C 222.258,130.568 221.924,143.568 218.5,156.5C 217.596,157.209 217.263,158.209 217.5,159.5C 216.596,160.209 216.263,161.209 216.5,162.5C 215.662,162.842 215.328,163.508 215.5,164.5C 214.596,165.209 214.263,166.209 214.5,167.5C 213.662,167.842 213.328,168.508 213.5,169.5C 212.662,169.842 212.328,170.508 212.5,171.5C 211.662,171.842 211.328,172.508 211.5,173.5C 210.662,173.842 210.328,174.508 210.5,175.5C 209.167,176.167 209.167,176.833 210.5,177.5C 210.573,179.027 209.906,180.027 208.5,180.5C 208.167,179.167 207.833,179.167 207.5,180.5C 206.167,181.167 206.167,181.833 207.5,182.5C 206.66,184.853 205.326,186.853 203.5,188.5C 203.167,187.167 202.833,187.167 202.5,188.5C 201.662,188.842 201.328,189.508 201.5,190.5C 200.167,190.833 200.167,191.167 201.5,191.5C 201.573,193.027 200.906,194.027 199.5,194.5C 199.167,193.167 198.833,193.167 198.5,194.5C 197.167,194.833 197.167,195.167 198.5,195.5C 198.573,197.027 197.906,198.027 196.5,198.5C 196.167,197.167 195.833,197.167 195.5,198.5C 194.833,198.5 194.5,198.833 194.5,199.5C 193.833,199.5 193.5,199.833 193.5,200.5C 192.662,200.842 192.328,201.508 192.5,202.5C 191.833,202.5 191.5,202.833 191.5,203.5C 190.833,203.5 190.5,203.833 190.5,204.5C 189.833,204.5 189.5,204.833 189.5,205.5C 188.833,205.5 188.5,205.833 188.5,206.5C 187.833,206.5 187.5,206.833 187.5,207.5C 186.833,207.5 186.5,207.833 186.5,208.5C 185.833,208.5 185.5,208.833 185.5,209.5C 184.833,209.5 184.5,209.833 184.5,210.5C 183.833,210.5 183.5,210.833 183.5,211.5C 182.833,211.5 182.5,211.833 182.5,212.5C 181.833,212.5 181.5,212.833 181.5,213.5C 180.833,213.5 180.5,213.833 180.5,214.5C 179.833,214.5 179.5,214.833 179.5,215.5C 178.508,215.328 177.842,215.662 177.5,216.5C 176.833,216.5 176.5,216.833 176.5,217.5C 175.833,217.5 175.5,217.833 175.5,218.5C 174.508,218.328 173.842,218.662 173.5,219.5C 172.833,219.5 172.5,219.833 172.5,220.5C 171.833,220.5 171.5,220.833 171.5,221.5C 168.833,221.833 168.833,222.167 171.5,222.5C 170.344,227.085 169.844,231.752 170,236.5C 170.818,231.206 171.318,231.206 171.5,236.5C 173.857,236.337 176.19,236.503 178.5,237C 175.5,237.333 172.5,237.667 169.5,238C 174.834,238.567 180.167,239.067 185.5,239.5C 190.711,240.732 195.711,242.732 200.5,245.5C 202.142,246.803 203.809,248.136 205.5,249.5C 206.026,251.23 207.026,252.564 208.5,253.5C 208.328,254.492 208.662,255.158 209.5,255.5C 209.808,259.36 210.475,263.026 211.5,266.5C 211.557,267.609 211.89,268.609 212.5,269.5C 209.833,269.833 209.833,270.167 212.5,270.5C 214.46,272.156 216.46,273.823 218.5,275.5C 218.5,276.167 218.833,276.5 219.5,276.5C 220.793,278.296 222.293,279.963 224,281.5C 225.625,280.588 226.459,281.255 226.5,283.5C 225.167,283.833 225.167,284.167 226.5,284.5C 226.328,285.492 226.662,286.158 227.5,286.5C 227.328,287.492 227.662,288.158 228.5,288.5C 228.263,289.791 228.596,290.791 229.5,291.5C 229.575,294.206 229.908,296.873 230.5,299.5C 229.167,299.5 227.833,299.5 226.5,299.5C 226.5,298.5 226.5,297.5 226.5,296.5C 221.644,295.839 217.31,296.839 213.5,299.5C 211.833,299.5 210.167,299.5 208.5,299.5C 208.737,298.209 208.404,297.209 207.5,296.5C 206.5,293.5 204.5,291.5 201.5,290.5C 201.167,289.167 200.833,289.167 200.5,290.5C 199.833,290.833 199.167,291.167 198.5,291.5C 198.167,290.167 197.833,290.167 197.5,291.5C 196.662,291.842 196.328,292.508 196.5,293.5C 195.167,293.833 195.167,294.167 196.5,294.5C 196.672,295.492 196.338,296.158 195.5,296.5C 195.167,295.167 194.833,295.167 194.5,296.5C 193.662,296.842 193.328,297.508 193.5,298.5C 192.833,298.5 192.5,298.833 192.5,299.5C 190.833,299.5 189.167,299.5 187.5,299.5C 192.177,291.827 196.843,284.16 201.5,276.5C 200.561,271.231 197.561,267.898 192.5,266.5C 187.921,263.863 182.921,262.196 177.5,261.5C 178.209,260.596 179.209,260.263 180.5,260.5C 184.949,261.029 189.282,262.029 193.5,263.5C 197.863,266.037 201.03,269.704 203,274.5C 210.433,261.036 206.933,251.703 192.5,246.5C 185.053,244.057 177.386,242.723 169.5,242.5C 171.155,248.991 168.822,253.158 162.5,255C 157.292,256.294 152.792,255.128 149,251.5C 148.506,249.866 148.34,248.199 148.5,246.5C 149.52,247.814 150.854,249.647 152.5,252C 156.167,252.667 159.833,252.667 163.5,252C 164.931,251.535 166.097,250.701 167,249.5C 167.381,241.783 166.881,234.117 165.5,226.5C 159.775,227.222 154.108,228.222 148.5,229.5C 148.5,234.5 148.5,239.5 148.5,244.5C 146.585,244.216 144.919,244.549 143.5,245.5C 137.543,246.148 132.21,248.148 127.5,251.5C 121.317,253.685 117.65,258.018 116.5,264.5C 115.314,265.705 115.314,267.039 116.5,268.5C 117.146,272.797 118.646,276.797 121,280.5C 125.685,286.548 129.851,292.881 133.5,299.5C 132.5,299.5 131.5,299.5 130.5,299.5C 130.5,298.833 130.167,298.5 129.5,298.5C 129.539,297.244 129.039,296.244 128,295.5C 127.333,296.833 126.667,296.833 126,295.5C 126.617,293.905 126.284,292.572 125,291.5C 124.283,292.044 123.783,292.711 123.5,293.5C 122.833,293.5 122.5,293.833 122.5,294.5C 121.833,294.5 121.5,294.833 121.5,295.5C 120.167,295.833 120.167,296.167 121.5,296.5C 121.218,297.778 120.551,298.778 119.5,299.5C 118.167,299.5 116.833,299.5 115.5,299.5C 116.822,297.689 117.322,295.689 117,293.5C 113.64,291.134 110.64,288.467 108,285.5C 105.844,287.801 104.178,290.467 103,293.5C 102.316,294.784 102.483,295.951 103.5,297C 102.244,297.417 101.577,298.25 101.5,299.5C 100.5,299.5 99.5,299.5 98.5,299.5C 98.8723,296.383 98.8723,293.383 98.5,290.5C 99,289.5 99.5,288.5 100,287.5C 100.333,287.833 100.667,288.167 101,288.5C 102.046,286.91 103.213,285.41 104.5,284C 104.043,283.586 103.709,283.086 103.5,282.5C 107.303,279.866 110.97,277.033 114.5,274C 113.809,272.933 113.309,271.766 113,270.5C 111.957,274.226 111.457,273.893 111.5,269.5C 112.061,265.199 113.394,261.033 115.5,257C 114.549,256.282 114.383,255.449 115,254.5C 117.811,253.777 120.311,251.944 122.5,249C 126.434,246.536 130.434,244.369 134.5,242.5C 138.553,241.987 142.553,241.154 146.5,240C 145.167,239.667 143.833,239.333 142.5,239C 145.08,237.519 145.913,235.352 145,232.5C 144.193,236.449 143.693,236.449 143.5,232.5C 141.801,232.66 140.134,232.494 138.5,232C 140.833,231.667 143.167,231.333 145.5,231C 140.034,230.274 134.701,229.108 129.5,227.5C 121.322,222.504 113.822,216.504 107,209.5C 105.869,210.604 105.035,210.271 104.5,208.5C 104.709,207.914 105.043,207.414 105.5,207C 103.635,204.369 101.468,202.869 99,202.5C 98.3645,201.034 97.5312,199.7 96.5,198.5C 96.7093,197.914 97.0426,197.414 97.5,197C 96.4479,195.881 95.2812,195.381 94,195.5C 94.9791,193.721 94.6458,192.055 93,190.5C 92.3333,189.167 91.6667,189.167 91,190.5C 88.3332,188.26 87.3332,185.594 88,182.5C 87,182.167 86,181.833 85,181.5C 84.3333,178.833 83.6667,176.167 83,173.5C 82.6827,175.301 82.016,175.634 81,174.5C 79.0171,166.51 75.8505,158.843 71.5,151.5C 68.124,138.135 69.124,125.135 74.5,112.5C 73.8635,109.861 74.6968,107.528 77,105.5C 77.3333,105.833 77.6667,106.167 78,106.5C 90.9847,93.1567 106.818,85.3234 125.5,83C 124.5,82.6667 123.5,82.3333 122.5,82C 124.239,77.8082 125.072,73.3082 125,68.5C 125.333,72.5 125.667,76.5 126,80.5C 126.999,70.5073 127.833,60.5073 128.5,50.5C 129.5,50.5 130.5,50.5 131.5,50.5 Z"/></g>
<g><path style="opacity:0.78" fill="#6d5d5e" d="M 124.5,85.5 C 123.294,86.8804 123.627,88.0471 125.5,89C 131.315,89.8766 136.982,89.3766 142.5,87.5C 142.735,88.0967 143.235,88.4301 144,88.5C 145.737,87.3802 147.571,86.3802 149.5,85.5C 150.76,87.3529 150.76,89.1862 149.5,91C 147.512,91.9383 145.512,92.7717 143.5,93.5C 143.5,92.1667 143.5,90.8333 143.5,89.5C 136.807,90.6466 130.14,90.6466 123.5,89.5C 121.95,92.1293 122.616,93.9626 125.5,95C 129.152,95.4986 132.818,95.6653 136.5,95.5C 134.167,96.1667 131.833,96.8333 129.5,97.5C 125.272,97.227 122.272,95.227 120.5,91.5C 119.311,90.5713 117.978,90.238 116.5,90.5C 119.799,89.786 122.466,88.1193 124.5,85.5 Z"/></g>
<g><path style="opacity:1" fill="#aeabac" d="M 142.5,87.5 C 136.982,89.3766 131.315,89.8766 125.5,89C 123.627,88.0471 123.294,86.8804 124.5,85.5C 126.153,85.3404 127.486,84.6737 128.5,83.5C 131.054,84.388 133.721,84.7214 136.5,84.5C 135.048,85.3019 133.382,85.8019 131.5,86C 135.809,87.1984 139.476,86.1984 142.5,83C 144.259,82.2025 145.926,82.3691 147.5,83.5C 146.395,85.6114 144.729,86.9447 142.5,87.5 Z"/></g>
<g><path style="opacity:1" fill="#e3e2e3" d="M 136.5,84.5 C 133.721,84.7214 131.054,84.388 128.5,83.5C 128.251,74.0712 129.084,64.7379 131,55.5C 135.173,63.6846 138.673,72.1846 141.5,81C 140.57,83.1384 138.903,84.305 136.5,84.5 Z"/></g>
<g><path style="opacity:1" fill="#bfbfc1" d="M 199.5,98.5 C 197.167,102.833 193.833,106.167 189.5,108.5C 167.459,100.468 144.793,98.3012 121.5,102C 112.364,103.26 103.364,105.094 94.5,107.5C 90.336,108.721 86.1694,110.054 82,111.5C 81.2352,111.43 80.7352,111.097 80.5,110.5C 90.0965,99.6974 102.097,93.0308 116.5,90.5C 117.978,90.238 119.311,90.5713 120.5,91.5C 122.272,95.227 125.272,97.227 129.5,97.5C 137.105,98.1817 144.105,96.515 150.5,92.5C 151.466,90.604 151.799,88.604 151.5,86.5C 168.796,85.8306 184.796,89.8306 199.5,98.5 Z"/></g>
<g><path style="opacity:0.998" fill="#a4a5a8" d="M 143.5,93.5 C 141.299,94.5664 138.965,95.233 136.5,95.5C 132.818,95.6653 129.152,95.4986 125.5,95C 122.616,93.9626 121.95,92.1293 123.5,89.5C 130.14,90.6466 136.807,90.6466 143.5,89.5C 143.5,90.8333 143.5,92.1667 143.5,93.5 Z"/></g>
<g><path style="opacity:1" fill="#a3a4a7" d="M 199.5,98.5 C 212.176,106.016 218.176,117.183 217.5,132C 217.204,147.891 213.038,162.725 205,176.5C 201.823,181.528 198.656,186.528 195.5,191.5C 194.957,191.44 194.624,191.107 194.5,190.5C 204.897,171.743 209.231,151.743 207.5,130.5C 207.672,129.508 207.338,128.842 206.5,128.5C 204.659,118.663 198.993,112.33 189.5,109.5C 189.5,109.167 189.5,108.833 189.5,108.5C 193.833,106.167 197.167,102.833 199.5,98.5 Z"/></g>
<g><path style="opacity:1" fill="#6c5858" d="M 189.5,108.5 C 189.5,108.833 189.5,109.167 189.5,109.5C 158.683,99.6011 127.683,99.2678 96.5,108.5C 95.5836,108.457 94.9169,108.124 94.5,107.5C 103.364,105.094 112.364,103.26 121.5,102C 144.793,98.3012 167.459,100.468 189.5,108.5 Z"/></g>
<g><path style="opacity:1" fill="#a4a6a9" d="M 189.5,109.5 C 189.5,109.833 189.5,110.167 189.5,110.5C 192.477,124.72 194.81,139.053 196.5,153.5C 194.366,176.472 184.533,195.472 167,210.5C 164.336,214.657 161.503,218.657 158.5,222.5C 147.714,229.183 137.047,229.016 126.5,222C 123.645,219.969 120.978,217.803 118.5,215.5C 119.043,215.44 119.376,215.107 119.5,214.5C 118.146,210.765 116.812,207.098 115.5,203.5C 137.572,208.614 157.739,204.614 176,191.5C 176.078,184.712 175.078,178.046 173,171.5C 172.592,169.59 171.425,168.59 169.5,168.5C 156.328,174.043 142.661,177.877 128.5,180C 120.154,180.519 111.821,180.352 103.5,179.5C 103.629,181.216 103.962,182.883 104.5,184.5C 94.0348,172.489 86.2014,158.822 81,143.5C 80.3333,138.167 80.3333,132.833 81,127.5C 82.8666,122.449 84.6999,117.449 86.5,112.5C 83.7628,112.401 81.0961,112.735 78.5,113.5C 78.9321,112.29 79.5987,111.29 80.5,110.5C 80.7352,111.097 81.2352,111.43 82,111.5C 86.1694,110.054 90.336,108.721 94.5,107.5C 94.9169,108.124 95.5836,108.457 96.5,108.5C 127.683,99.2678 158.683,99.6011 189.5,109.5 Z"/></g>
<g><path style="opacity:1" fill="#371414" d="M 141.5,107.5 C 142.586,107.62 143.253,108.287 143.5,109.5C 143.167,110.167 142.833,110.833 142.5,111.5C 141.571,110.311 141.238,108.978 141.5,107.5 Z"/></g>
<g><path style="opacity:1" fill="#3c1b1b" d="M 162.5,107.5 C 163.5,107.5 164.5,107.5 165.5,107.5C 165.5,108.833 165.5,110.167 165.5,111.5C 164.5,111.5 163.5,111.5 162.5,111.5C 162.5,110.167 162.5,108.833 162.5,107.5 Z"/></g>
<g><path style="opacity:0.004" fill="#000000" d="M 216.5,108.5 C 217.833,109.167 217.833,109.167 216.5,108.5 Z"/></g>
<g><path style="opacity:1" fill="#4e3130" d="M 116.5,108.5 C 117.5,108.5 118.5,108.5 119.5,108.5C 119.5,110.167 119.5,111.833 119.5,113.5C 118.5,113.5 117.5,113.5 116.5,113.5C 116.5,111.833 116.5,110.167 116.5,108.5 Z"/></g>
<g><path style="opacity:1" fill="#4e3434" d="M 189.5,110.5 C 189.5,110.167 189.5,109.833 189.5,109.5C 198.993,112.33 204.659,118.663 206.5,128.5C 204.476,124.91 201.976,120.91 199,116.5C 196.216,113.881 193.049,111.881 189.5,110.5 Z"/></g>
<g><path style="opacity:1" fill="#716f71" d="M 189.5,110.5 C 193.049,111.881 196.216,113.881 199,116.5C 201.976,120.91 204.476,124.91 206.5,128.5C 207.338,128.842 207.672,129.508 207.5,130.5C 207.597,153.769 201.597,175.436 189.5,195.5C 181.935,207.735 171.602,216.735 158.5,222.5C 161.503,218.657 164.336,214.657 167,210.5C 184.533,195.472 194.366,176.472 196.5,153.5C 194.81,139.053 192.477,124.72 189.5,110.5 Z"/></g>
<g><path style="opacity:1" fill="#371414" d="M 96.5,112.5 C 97.5862,112.62 98.2528,113.287 98.5,114.5C 98.1667,115.167 97.8333,115.833 97.5,116.5C 96.5713,115.311 96.238,113.978 96.5,112.5 Z"/></g>
<g><path style="opacity:1" fill="#371414" d="M 182.5,112.5 C 183.586,112.62 184.253,113.287 184.5,114.5C 184.167,115.167 183.833,115.833 183.5,116.5C 182.571,115.311 182.238,113.978 182.5,112.5 Z"/></g>
<g><path style="opacity:0.004" fill="#000000" d="M 220.5,117.5 C 220.167,117.5 219.833,117.5 219.5,117.5C 219.833,113.5 220.167,113.5 220.5,117.5 Z"/></g>
<g><path style="opacity:0.004" fill="#000000" d="M 220.5,117.5 C 221.573,118.251 221.74,119.251 221,120.5C 220.517,119.552 220.351,118.552 220.5,117.5 Z"/></g>
<g><path style="opacity:0.004" fill="#000000" d="M 68.5,121.5 C 69.5983,122.601 69.765,123.934 69,125.5C 68.51,124.207 68.3433,122.873 68.5,121.5 Z"/></g>
<g><path style="opacity:0.004" fill="#000000" d="M 221.5,121.5 C 222.598,122.601 222.765,123.934 222,125.5C 221.51,124.207 221.343,122.873 221.5,121.5 Z"/></g>
<g><path style="opacity:1" fill="#cececf" d="M 104.5,184.5 C 105.965,188.024 106.965,191.691 107.5,195.5C 107.811,199.302 109.811,201.635 113.5,202.5C 114.167,202.833 114.833,203.167 115.5,203.5C 116.812,207.098 118.146,210.765 119.5,214.5C 119.376,215.107 119.043,215.44 118.5,215.5C 116.025,214.313 115.025,212.313 115.5,209.5C 114.127,209.657 112.793,209.49 111.5,209C 93.5564,189.191 80.8897,166.358 73.5,140.5C 73.8098,134.878 73.9765,129.212 74,123.5C 75.2236,119.977 76.7236,116.644 78.5,113.5C 81.0961,112.735 83.7628,112.401 86.5,112.5C 84.6999,117.449 82.8666,122.449 81,127.5C 80.3333,132.833 80.3333,138.167 81,143.5C 86.2014,158.822 94.0348,172.489 104.5,184.5 Z"/></g>
<g><path style="opacity:1" fill="#381515" d="M 78.5,118.5 C 79.5862,118.62 80.2528,119.287 80.5,120.5C 80.1667,121.167 79.8333,121.833 79.5,122.5C 78.5713,121.311 78.238,119.978 78.5,118.5 Z"/></g>
<g><path style="opacity:0.004" fill="#000000" d="M 68.5,143.5 C 67.3483,138.015 67.1816,132.349 68,126.5C 68.4994,132.157 68.6661,137.824 68.5,143.5 Z"/></g>
<g><path style="opacity:0.004" fill="#000000" d="M 222.5,126.5 C 223.65,131.316 223.816,136.316 223,141.5C 222.501,136.511 222.334,131.511 222.5,126.5 Z"/></g>
<g><path style="opacity:1" fill="#441917" d="M 165.5,136.5 C 166.027,148.456 160.36,152.956 148.5,150C 143.997,146.155 142.497,141.322 144,135.5C 145.841,133.841 147.008,131.841 147.5,129.5C 151.51,128.164 155.51,128.33 159.5,130C 162.409,131.406 164.409,133.572 165.5,136.5 Z"/></g>
<g><path style="opacity:1" fill="#441917" d="M 117.5,151.5 C 117.12,150.867 116.787,150.2 116.5,149.5C 107.073,153.62 101.407,150.62 99.5,140.5C 100.388,136.96 101.722,133.627 103.5,130.5C 111.687,127.473 117.853,129.806 122,137.5C 123.689,143.345 122.189,148.012 117.5,151.5 Z"/></g>
<g><path style="opacity:1" fill="#d51c22" d="M 109.5,137.5 C 113.161,137.35 114.161,138.85 112.5,142C 111.551,142.617 110.718,142.451 110,141.5C 109.51,140.207 109.343,138.873 109.5,137.5 Z"/></g>
<g><path style="opacity:0.004" fill="#000000" d="M 221.5,148.5 C 221.338,146.473 221.505,144.473 222,142.5C 222.789,144.712 222.622,146.712 221.5,148.5 Z"/></g>
<g><path style="opacity:0.004" fill="#000000" d="M 68.5,143.5 C 69.4511,144.919 69.7845,146.585 69.5,148.5C 68.5489,147.081 68.2155,145.415 68.5,143.5 Z"/></g>
<g><path style="opacity:0.998" fill="#453737" d="M 103.5,130.5 C 101.722,133.627 100.388,136.96 99.5,140.5C 101.407,150.62 107.073,153.62 116.5,149.5C 116.787,150.2 117.12,150.867 117.5,151.5C 111.441,155.773 105.608,155.44 100,150.5C 97.6261,146.106 96.9595,141.44 98,136.5C 99.331,134.004 101.164,132.004 103.5,130.5 Z"/></g>
<g><path style="opacity:0.004" fill="#000000" d="M 69.5,148.5 C 70.404,149.209 70.7373,150.209 70.5,151.5C 69.596,150.791 69.2627,149.791 69.5,148.5 Z"/></g>
<g><path style="opacity:0.004" fill="#000000" d="M 221.5,148.5 C 221.657,149.873 221.49,151.207 221,152.5C 220.235,150.934 220.402,149.601 221.5,148.5 Z"/></g>
<g><path style="opacity:0.998" fill="#433131" d="M 147.5,129.5 C 147.008,131.841 145.841,133.841 144,135.5C 142.497,141.322 143.997,146.155 148.5,150C 160.36,152.956 166.027,148.456 165.5,136.5C 167.709,149.464 162.043,155.297 148.5,154C 141.142,149.259 138.975,142.759 142,134.5C 143.704,132.627 145.537,130.96 147.5,129.5 Z"/></g>
<g><path style="opacity:1" fill="#ce1c21" d="M 153.5,136.5 C 154.5,136.5 155.5,136.5 156.5,136.5C 156.5,138.5 156.5,140.5 156.5,142.5C 152.843,141.853 151.843,139.853 153.5,136.5 Z"/></g>
<g><path style="opacity:0.004" fill="#000000" d="M 70.5,151.5 C 70.8333,151.5 71.1667,151.5 71.5,151.5C 71.1667,154.167 70.8333,154.167 70.5,151.5 Z"/></g>
<g><path style="opacity:0.004" fill="#000000" d="M 219.5,153.5 C 220.525,153.897 220.692,154.563 220,155.5C 219.536,154.906 219.369,154.239 219.5,153.5 Z"/></g>
<g><path style="opacity:0.004" fill="#000000" d="M 218.5,156.5 C 219.833,157.5 219.833,158.5 218.5,159.5C 218.5,158.5 218.5,157.5 218.5,156.5 Z"/></g>
<g><path style="opacity:0.004" fill="#000000" d="M 217.5,159.5 C 217.833,159.5 218.167,159.5 218.5,159.5C 218.737,160.791 218.404,161.791 217.5,162.5C 217.5,161.5 217.5,160.5 217.5,159.5 Z"/></g>
<g><path style="opacity:0.004" fill="#000000" d="M 216.5,162.5 C 216.833,162.5 217.167,162.5 217.5,162.5C 217.672,163.492 217.338,164.158 216.5,164.5C 216.5,163.833 216.5,163.167 216.5,162.5 Z"/></g>
<g><path style="opacity:0.004" fill="#000000" d="M 215.5,164.5 C 215.833,164.5 216.167,164.5 216.5,164.5C 216.737,165.791 216.404,166.791 215.5,167.5C 215.5,166.5 215.5,165.5 215.5,164.5 Z"/></g>
<g><path style="opacity:0.004" fill="#000000" d="M 214.5,167.5 C 214.833,167.5 215.167,167.5 215.5,167.5C 215.672,168.492 215.338,169.158 214.5,169.5C 214.5,168.833 214.5,168.167 214.5,167.5 Z"/></g>
<g><path style="opacity:0.004" fill="#000000" d="M 213.5,169.5 C 213.833,169.5 214.167,169.5 214.5,169.5C 214.672,170.492 214.338,171.158 213.5,171.5C 213.5,170.833 213.5,170.167 213.5,169.5 Z"/></g>
<g><path style="opacity:1" fill="#727274" d="M 115.5,199.5 C 114.25,199.423 113.417,198.756 113,197.5C 112.037,192.475 110.537,187.642 108.5,183C 110.473,182.505 112.473,182.338 114.5,182.5C 133.79,182.11 152.123,177.776 169.5,169.5C 172.735,175.773 174.402,182.44 174.5,189.5C 172.213,189.724 170.047,190.391 168,191.5C 165.006,188.34 161.839,185.34 158.5,182.5C 145.539,189.298 131.873,191.298 117.5,188.5C 117.089,192.221 116.422,195.888 115.5,199.5 Z"/></g>
<g><path style="opacity:0.004" fill="#000000" d="M 212.5,171.5 C 212.833,171.5 213.167,171.5 213.5,171.5C 213.672,172.492 213.338,173.158 212.5,173.5C 212.5,172.833 212.5,172.167 212.5,171.5 Z"/></g>
<g><path style="opacity:0.004" fill="#000000" d="M 211.5,173.5 C 211.833,173.5 212.167,173.5 212.5,173.5C 212.672,174.492 212.338,175.158 211.5,175.5C 211.5,174.833 211.5,174.167 211.5,173.5 Z"/></g>
<g><path style="opacity:0.004" fill="#000000" d="M 210.5,175.5 C 210.833,175.5 211.167,175.5 211.5,175.5C 211.672,176.492 211.338,177.158 210.5,177.5C 210.5,176.833 210.5,176.167 210.5,175.5 Z"/></g>
<g><path style="opacity:0.004" fill="#000000" d="M 207.5,180.5 C 207.833,180.5 208.167,180.5 208.5,180.5C 208.672,181.492 208.338,182.158 207.5,182.5C 207.5,181.833 207.5,181.167 207.5,180.5 Z"/></g>
<g><path style="opacity:1" fill="#737375" d="M 151.5,198.5 C 141.355,201.292 131.021,202.125 120.5,201C 119.263,200.768 118.263,200.268 117.5,199.5C 118.092,196.873 118.425,194.206 118.5,191.5C 131.348,193.359 143.681,191.526 155.5,186C 159.672,185.132 162.838,186.632 165,190.5C 165.749,191.635 165.583,192.635 164.5,193.5C 160.221,195.37 155.888,197.036 151.5,198.5 Z"/></g>
<g><path style="opacity:0.959" fill="#422423" d="M 115.5,203.5 C 114.833,203.167 114.167,202.833 113.5,202.5C 113.917,201.876 114.584,201.543 115.5,201.5C 132.921,206.318 149.588,204.484 165.5,196C 161.58,197.024 157.58,198.191 153.5,199.5C 152.584,199.457 151.917,199.124 151.5,198.5C 155.888,197.036 160.221,195.37 164.5,193.5C 165.583,192.635 165.749,191.635 165,190.5C 162.838,186.632 159.672,185.132 155.5,186C 143.681,191.526 131.348,193.359 118.5,191.5C 118.425,194.206 118.092,196.873 117.5,199.5C 116.604,200.506 115.938,200.506 115.5,199.5C 116.422,195.888 117.089,192.221 117.5,188.5C 131.873,191.298 145.539,189.298 158.5,182.5C 161.839,185.34 165.006,188.34 168,191.5C 170.047,190.391 172.213,189.724 174.5,189.5C 174.402,182.44 172.735,175.773 169.5,169.5C 152.123,177.776 133.79,182.11 114.5,182.5C 111.645,181.197 108.645,181.197 105.5,182.5C 107.996,186.746 108.663,191.08 107.5,195.5C 106.965,191.691 105.965,188.024 104.5,184.5C 103.962,182.883 103.629,181.216 103.5,179.5C 111.821,180.352 120.154,180.519 128.5,180C 142.661,177.877 156.328,174.043 169.5,168.5C 171.425,168.59 172.592,169.59 173,171.5C 175.078,178.046 176.078,184.712 176,191.5C 157.739,204.614 137.572,208.614 115.5,203.5 Z"/></g>
<g><path style="opacity:1" fill="#4c3131" d="M 207.5,130.5 C 209.231,151.743 204.897,171.743 194.5,190.5C 194.624,191.107 194.957,191.44 195.5,191.5C 194.19,193.148 192.857,194.814 191.5,196.5C 190.817,196.137 190.15,195.804 189.5,195.5C 201.597,175.436 207.597,153.769 207.5,130.5 Z"/></g>
<g><path style="opacity:0.004" fill="#000000" d="M 202.5,188.5 C 202.833,188.5 203.167,188.5 203.5,188.5C 203.672,189.492 203.338,190.158 202.5,190.5C 202.5,189.833 202.5,189.167 202.5,188.5 Z"/></g>
<g><path style="opacity:0.004" fill="#000000" d="M 201.5,190.5 C 201.833,190.5 202.167,190.5 202.5,190.5C 202.315,191.17 201.981,191.17 201.5,190.5 Z"/></g>
<g><path style="opacity:0.004" fill="#000000" d="M 198.5,194.5 C 198.833,194.5 199.167,194.5 199.5,194.5C 199.315,195.17 198.981,195.17 198.5,194.5 Z"/></g>
<g><path style="opacity:0.004" fill="#000000" d="M 195.5,198.5 C 195.833,198.5 196.167,198.5 196.5,198.5C 196.315,199.17 195.981,199.17 195.5,198.5 Z"/></g>
<g><path style="opacity:0.008" fill="#000000" d="M 194.5,199.5 C 194.833,199.5 195.167,199.5 195.5,199.5C 195.315,200.17 194.981,200.17 194.5,199.5 Z"/></g>
<g><path style="opacity:0.004" fill="#000000" d="M 193.5,200.5 C 193.833,200.5 194.167,200.5 194.5,200.5C 194.672,201.492 194.338,202.158 193.5,202.5C 193.5,201.833 193.5,201.167 193.5,200.5 Z"/></g>
<g><path style="opacity:1" fill="#4c4041" d="M 114.5,182.5 C 112.473,182.338 110.473,182.505 108.5,183C 110.537,187.642 112.037,192.475 113,197.5C 113.417,198.756 114.25,199.423 115.5,199.5C 115.938,200.506 116.604,200.506 117.5,199.5C 118.263,200.268 119.263,200.768 120.5,201C 131.021,202.125 141.355,201.292 151.5,198.5C 151.917,199.124 152.584,199.457 153.5,199.5C 157.58,198.191 161.58,197.024 165.5,196C 149.588,204.484 132.921,206.318 115.5,201.5C 114.584,201.543 113.917,201.876 113.5,202.5C 109.811,201.635 107.811,199.302 107.5,195.5C 108.663,191.08 107.996,186.746 105.5,182.5C 108.645,181.197 111.645,181.197 114.5,182.5 Z"/></g>
<g><path style="opacity:0.004" fill="#000000" d="M 192.5,202.5 C 192.833,202.5 193.167,202.5 193.5,202.5C 193.315,203.17 192.981,203.17 192.5,202.5 Z"/></g>
<g><path style="opacity:0.004" fill="#000000" d="M 191.5,203.5 C 191.833,203.5 192.167,203.5 192.5,203.5C 192.315,204.17 191.981,204.17 191.5,203.5 Z"/></g>
<g><path style="opacity:0.008" fill="#000000" d="M 190.5,204.5 C 190.833,204.5 191.167,204.5 191.5,204.5C 191.315,205.17 190.981,205.17 190.5,204.5 Z"/></g>
<g><path style="opacity:0.008" fill="#000000" d="M 189.5,205.5 C 189.833,205.5 190.167,205.5 190.5,205.5C 190.315,206.17 189.981,206.17 189.5,205.5 Z"/></g>
<g><path style="opacity:0.008" fill="#000000" d="M 188.5,206.5 C 188.833,206.5 189.167,206.5 189.5,206.5C 189.315,207.17 188.981,207.17 188.5,206.5 Z"/></g>
<g><path style="opacity:0.008" fill="#000000" d="M 187.5,207.5 C 187.833,207.5 188.167,207.5 188.5,207.5C 188.315,208.17 187.981,208.17 187.5,207.5 Z"/></g>
<g><path style="opacity:0.008" fill="#000000" d="M 186.5,208.5 C 186.833,208.5 187.167,208.5 187.5,208.5C 187.315,209.17 186.981,209.17 186.5,208.5 Z"/></g>
<g><path style="opacity:0.008" fill="#000000" d="M 185.5,209.5 C 185.833,209.5 186.167,209.5 186.5,209.5C 186.315,210.17 185.981,210.17 185.5,209.5 Z"/></g>
<g><path style="opacity:0.008" fill="#000000" d="M 184.5,210.5 C 184.833,210.5 185.167,210.5 185.5,210.5C 185.315,211.17 184.981,211.17 184.5,210.5 Z"/></g>
<g><path style="opacity:0.008" fill="#000000" d="M 183.5,211.5 C 183.833,211.5 184.167,211.5 184.5,211.5C 184.315,212.17 183.981,212.17 183.5,211.5 Z"/></g>
<g><path style="opacity:0.008" fill="#000000" d="M 182.5,212.5 C 182.833,212.5 183.167,212.5 183.5,212.5C 183.315,213.17 182.981,213.17 182.5,212.5 Z"/></g>
<g><path style="opacity:0.008" fill="#000000" d="M 181.5,213.5 C 181.833,213.5 182.167,213.5 182.5,213.5C 182.315,214.17 181.981,214.17 181.5,213.5 Z"/></g>
<g><path style="opacity:0.004" fill="#000000" d="M 180.5,214.5 C 180.833,214.5 181.167,214.5 181.5,214.5C 181.315,215.17 180.981,215.17 180.5,214.5 Z"/></g>
<g><path style="opacity:0.004" fill="#000000" d="M 179.5,215.5 C 179.833,215.5 180.167,215.5 180.5,215.5C 180.315,216.17 179.981,216.17 179.5,215.5 Z"/></g>
<g><path style="opacity:0.004" fill="#000000" d="M 177.5,217.5 C 177.5,217.167 177.5,216.833 177.5,216.5C 178.167,216.5 178.833,216.5 179.5,216.5C 179.158,217.338 178.492,217.672 177.5,217.5 Z"/></g>
<g><path style="opacity:0.008" fill="#000000" d="M 176.5,217.5 C 176.833,217.5 177.167,217.5 177.5,217.5C 177.315,218.17 176.981,218.17 176.5,217.5 Z"/></g>
<g><path style="opacity:0.004" fill="#000000" d="M 175.5,218.5 C 175.833,218.5 176.167,218.5 176.5,218.5C 176.315,219.17 175.981,219.17 175.5,218.5 Z"/></g>
<g><path style="opacity:0.004" fill="#000000" d="M 173.5,219.5 C 174.167,219.5 174.833,219.5 175.5,219.5C 175.027,220.906 174.027,221.573 172.5,221.5C 172.5,221.167 172.5,220.833 172.5,220.5C 173.167,220.5 173.5,220.167 173.5,219.5 Z"/></g>
<g><path style="opacity:1" fill="#4e3130" d="M 139.5,219.5 C 140.5,219.5 141.5,219.5 142.5,219.5C 142.5,221.167 142.5,222.833 142.5,224.5C 141.5,224.5 140.5,224.5 139.5,224.5C 139.5,222.833 139.5,221.167 139.5,219.5 Z"/></g>
<g><path style="opacity:0.004" fill="#000000" d="M 171.5,221.5 C 171.833,221.5 172.167,221.5 172.5,221.5C 172.315,222.17 171.981,222.17 171.5,221.5 Z"/></g>
<g><path style="opacity:0.004" fill="#000000" d="M 129.5,227.5 C 129.5,227.833 129.5,228.167 129.5,228.5C 126.833,228.167 126.833,227.833 129.5,227.5 Z"/></g>
<g><path style="opacity:0.004" fill="#000000" d="M 129.5,228.5 C 130.239,228.369 130.906,228.536 131.5,229C 130.563,229.692 129.897,229.525 129.5,228.5 Z"/></g>
<g><path style="opacity:0.999" fill="#656466" d="M 148.5,246.5 C 146.958,245.699 145.292,245.366 143.5,245.5C 144.919,244.549 146.585,244.216 148.5,244.5C 148.5,239.5 148.5,234.5 148.5,229.5C 154.108,228.222 159.775,227.222 165.5,226.5C 166.881,234.117 167.381,241.783 167,249.5C 166.097,250.701 164.931,251.535 163.5,252C 159.833,252.667 156.167,252.667 152.5,252C 150.854,249.647 149.52,247.814 148.5,246.5 Z"/></g>
<g><path style="opacity:0.005" fill="#000000" d="M 185.5,239.5 C 186.601,238.402 187.934,238.235 189.5,239C 188.207,239.49 186.873,239.657 185.5,239.5 Z"/></g>
<g><path style="opacity:0.004" fill="#000000" d="M 190.5,240.5 C 190.897,239.475 191.563,239.308 192.5,240C 191.906,240.464 191.239,240.631 190.5,240.5 Z"/></g>
<g><path style="opacity:0.006" fill="#000000" d="M 135.5,241.5 C 135.897,240.475 136.563,240.308 137.5,241C 136.906,241.464 136.239,241.631 135.5,241.5 Z"/></g>
<g><path style="opacity:0.006" fill="#000000" d="M 134.5,242.5 C 133.761,242.631 133.094,242.464 132.5,242C 133.437,241.308 134.103,241.475 134.5,242.5 Z"/></g>
<g><path style="opacity:0.004" fill="#000000" d="M 200.5,244.5 C 201.833,245.167 201.833,245.167 200.5,244.5 Z"/></g>
<g><path style="opacity:1" fill="#a3a5a8" d="M 192.5,246.5 C 191.889,249.961 193.056,252.628 196,254.5C 197.073,258.1 196.24,261.1 193.5,263.5C 189.282,262.029 184.949,261.029 180.5,260.5C 161.422,257.346 142.422,258.346 123.5,263.5C 124.469,259.392 126.136,255.559 128.5,252C 128.272,251.601 127.938,251.435 127.5,251.5C 132.21,248.148 137.543,246.148 143.5,245.5C 145.292,245.366 146.958,245.699 148.5,246.5C 148.34,248.199 148.506,249.866 149,251.5C 152.792,255.128 157.292,256.294 162.5,255C 168.822,253.158 171.155,248.991 169.5,242.5C 177.386,242.723 185.053,244.057 192.5,246.5 Z"/></g>
<g><path style="opacity:0.004" fill="#000000" d="M 205.5,248.5 C 206.833,249.167 206.833,249.167 205.5,248.5 Z"/></g>
<g><path style="opacity:1" fill="#737375" d="M 192.5,246.5 C 206.933,251.703 210.433,261.036 203,274.5C 201.03,269.704 197.863,266.037 193.5,263.5C 196.24,261.1 197.073,258.1 196,254.5C 193.056,252.628 191.889,249.961 192.5,246.5 Z"/></g>
<g><path style="opacity:0.004" fill="#000000" d="M 208.5,252.5 C 209.833,253.167 209.833,253.167 208.5,252.5 Z"/></g>
<g><path style="opacity:0.004" fill="#000000" d="M 209.5,254.5 C 210.833,255.167 210.833,255.167 209.5,254.5 Z"/></g>
<g><path style="opacity:1" fill="#cdcdce" d="M 127.5,251.5 C 127.938,251.435 128.272,251.601 128.5,252C 126.136,255.559 124.469,259.392 123.5,263.5C 121.219,264.207 119.052,265.207 117,266.5C 116.536,265.906 116.369,265.239 116.5,264.5C 117.65,258.018 121.317,253.685 127.5,251.5 Z"/></g>
<g><path style="opacity:1" fill="#594040" d="M 180.5,260.5 C 179.209,260.263 178.209,260.596 177.5,261.5C 159.101,259.351 141.101,260.685 123.5,265.5C 120.794,265.688 118.461,266.688 116.5,268.5C 115.314,267.039 115.314,265.705 116.5,264.5C 116.369,265.239 116.536,265.906 117,266.5C 119.052,265.207 121.219,264.207 123.5,263.5C 142.422,258.346 161.422,257.346 180.5,260.5 Z"/></g>
<g><path style="opacity:0.004" fill="#000000" d="M 211.5,266.5 C 211.337,264.143 211.503,261.81 212,259.5C 212.796,262.039 212.629,264.372 211.5,266.5 Z"/></g>
<g><path style="opacity:1" fill="#a4a5a8" d="M 177.5,261.5 C 182.921,262.196 187.921,263.863 192.5,266.5C 192.561,270.049 191.727,273.382 190,276.5C 185.823,284.189 181.656,291.856 177.5,299.5C 165.5,299.5 153.5,299.5 141.5,299.5C 137.551,286.936 131.551,275.603 123.5,265.5C 141.101,260.685 159.101,259.351 177.5,261.5 Z"/></g>
<g><path style="opacity:0.004" fill="#000000" d="M 111.5,269.5 C 110.378,267.712 110.211,265.712 111,263.5C 111.495,265.473 111.662,267.473 111.5,269.5 Z"/></g>
<g><path style="opacity:0.004" fill="#000000" d="M 212.5,269.5 C 213.833,270.167 213.833,270.167 212.5,269.5 Z"/></g>
<g><path style="opacity:0.004" fill="#000000" d="M 214.5,270.5 C 215.833,271.167 215.833,271.167 214.5,270.5 Z"/></g>
<g><path style="opacity:1" fill="#d0d0d1" d="M 123.5,265.5 C 131.551,275.603 137.551,286.936 141.5,299.5C 138.833,299.5 136.167,299.5 133.5,299.5C 129.851,292.881 125.685,286.548 121,280.5C 118.646,276.797 117.146,272.797 116.5,268.5C 118.461,266.688 120.794,265.688 123.5,265.5 Z"/></g>
<g><path style="opacity:1" fill="#442524" d="M 120.5,272.5 C 122.337,272.639 122.67,273.306 121.5,274.5C 120.702,274.043 120.369,273.376 120.5,272.5 Z"/></g>
<g><path style="opacity:0.004" fill="#000000" d="M 218.5,275.5 C 218.56,274.957 218.893,274.624 219.5,274.5C 220.773,275.257 220.773,275.923 219.5,276.5C 218.833,276.5 218.5,276.167 218.5,275.5 Z"/></g>
<g><path style="opacity:1" fill="#727274" d="M 192.5,266.5 C 197.561,267.898 200.561,271.231 201.5,276.5C 196.843,284.16 192.177,291.827 187.5,299.5C 184.167,299.5 180.833,299.5 177.5,299.5C 181.656,291.856 185.823,284.189 190,276.5C 191.727,273.382 192.561,270.049 192.5,266.5 Z"/></g>
<g><path style="opacity:1" fill="#4f4e50" d="M 207.5,271.5 C 210.982,273.748 214.316,276.248 217.5,279C 213.333,281.833 209.833,285.333 207,289.5C 204.743,287.954 202.576,286.288 200.5,284.5C 203.1,280.299 205.434,275.966 207.5,271.5 Z"/></g>
<g><path style="opacity:1" fill="#5d5d5f" d="M 114.5,276.5 C 116.017,276.511 117.184,277.177 118,278.5C 119.918,282.004 122.084,285.337 124.5,288.5C 122.665,290.873 120.332,292.039 117.5,292C 114.65,289.318 111.984,286.484 109.5,283.5C 110.804,280.87 112.47,278.537 114.5,276.5 Z"/></g>
<g><path style="opacity:0.004" fill="#000000" d="M 226.5,283.5 C 227.833,284.167 227.833,284.167 226.5,283.5 Z"/></g>
<g><path style="opacity:1" fill="#4f4f51" d="M 217.5,280.5 C 221.379,282.206 223.879,285.206 225,289.5C 225.494,291.134 225.66,292.801 225.5,294.5C 220.796,293.962 216.462,294.962 212.5,297.5C 211.424,295.013 210.09,292.68 208.5,290.5C 210.839,286.498 213.839,283.165 217.5,280.5 Z"/></g>
<g><path style="opacity:0.004" fill="#000000" d="M 227.5,285.5 C 228.833,286.167 228.833,286.167 227.5,285.5 Z"/></g>
<g><path style="opacity:0.004" fill="#000000" d="M 228.5,287.5 C 229.833,288.167 229.833,288.167 228.5,287.5 Z"/></g>
<g><path style="opacity:0.006" fill="#000000" d="M 229.5,291.5 C 229.369,290.761 229.536,290.094 230,289.5C 230.692,290.437 230.525,291.103 229.5,291.5 Z"/></g>
<g><path style="opacity:0.004" fill="#000000" d="M 200.5,290.5 C 200.833,290.5 201.167,290.5 201.5,290.5C 201.315,291.17 200.981,291.17 200.5,290.5 Z"/></g>
<g><path style="opacity:1" fill="#5f5e5f" d="M 115.5,299.5 C 110.833,299.5 106.167,299.5 101.5,299.5C 101.577,298.25 102.244,297.417 103.5,297C 102.483,295.951 102.316,294.784 103,293.5C 104.178,290.467 105.844,287.801 108,285.5C 110.64,288.467 113.64,291.134 117,293.5C 117.322,295.689 116.822,297.689 115.5,299.5 Z"/></g>
<g><path style="opacity:0.004" fill="#000000" d="M 197.5,291.5 C 197.833,291.5 198.167,291.5 198.5,291.5C 198.672,292.492 198.338,293.158 197.5,293.5C 197.5,292.833 197.5,292.167 197.5,291.5 Z"/></g>
<g><path style="opacity:0.005" fill="#000000" d="M 230.5,292.5 C 231.573,293.251 231.74,294.251 231,295.5C 230.517,294.552 230.351,293.552 230.5,292.5 Z"/></g>
<g><path style="opacity:0.008" fill="#000000" d="M 123.5,293.5 C 124.833,294.167 124.833,294.167 123.5,293.5 Z"/></g>
<g><path style="opacity:0.004" fill="#000000" d="M 196.5,293.5 C 196.833,293.5 197.167,293.5 197.5,293.5C 197.315,294.17 196.981,294.17 196.5,293.5 Z"/></g>
<g><path style="opacity:0.006" fill="#000000" d="M 97.5,299.5 C 97.1667,299.5 96.8333,299.5 96.5,299.5C 96.8333,292.833 97.1667,292.833 97.5,299.5 Z"/></g>
<g><path style="opacity:0.008" fill="#000000" d="M 122.5,294.5 C 122.833,294.5 123.167,294.5 123.5,294.5C 123.315,295.17 122.981,295.17 122.5,294.5 Z"/></g>
<g><path style="opacity:0.008" fill="#000000" d="M 121.5,295.5 C 121.833,295.5 122.167,295.5 122.5,295.5C 122.315,296.17 121.981,296.17 121.5,295.5 Z"/></g>
<g><path style="opacity:0.004" fill="#000000" d="M 194.5,296.5 C 194.833,296.5 195.167,296.5 195.5,296.5C 195.672,297.492 195.338,298.158 194.5,298.5C 194.5,297.833 194.5,297.167 194.5,296.5 Z"/></g>
<g><path style="opacity:0.005" fill="#000000" d="M 207.5,296.5 C 207.5,297.5 207.5,298.5 207.5,299.5C 207.167,299.5 206.833,299.5 206.5,299.5C 206.263,298.209 206.596,297.209 207.5,296.5 Z"/></g>
<g><path style="opacity:1" fill="#4f4f51" d="M 226.5,299.5 C 222.167,299.5 217.833,299.5 213.5,299.5C 217.31,296.839 221.644,295.839 226.5,296.5C 226.5,297.5 226.5,298.5 226.5,299.5 Z"/></g>
<g><path style="opacity:0.004" fill="#000000" d="M 232.5,299.5 C 232.167,299.5 231.833,299.5 231.5,299.5C 231.833,296.833 232.167,296.833 232.5,299.5 Z"/></g>
<g><path style="opacity:0.004" fill="#000000" d="M 129.5,298.5 C 129.5,298.833 129.5,299.167 129.5,299.5C 128.83,299.019 128.83,298.685 129.5,298.5 Z"/></g>
<g><path style="opacity:0.004" fill="#000000" d="M 193.5,298.5 C 193.833,298.5 194.167,298.5 194.5,298.5C 194.5,298.833 194.5,299.167 194.5,299.5C 194.167,299.167 193.833,298.833 193.5,298.5 Z"/></g>
</svg>
