<?xml version="1.0" encoding="UTF-8"?>
<!DOCTYPE svg PUBLIC "-//W3C//DTD SVG 1.1//EN" "http://www.w3.org/Graphics/SVG/1.1/DTD/svg11.dtd">
<svg xmlns="http://www.w3.org/2000/svg" version="1.1" width="300px" height="300px" style="shape-rendering:geometricPrecision; text-rendering:geometricPrecision; image-rendering:optimizeQuality; fill-rule:evenodd; clip-rule:evenodd" xmlns:xlink="http://www.w3.org/1999/xlink">
<g><path style="opacity:0.004" fill="#000000" d="M 126.5,55.5 C 127.946,54.3871 129.613,54.2204 131.5,55C 129.866,55.4935 128.199,55.6602 126.5,55.5 Z"/></g>
<g><path style="opacity:0.004" fill="#000000" d="M 137.5,55.5 C 138.946,54.3871 140.613,54.2204 142.5,55C 140.866,55.4935 139.199,55.6602 137.5,55.5 Z"/></g>
<g><path style="opacity:0.004" fill="#000000" d="M 147.5,59.5 C 148.833,60.1667 148.833,60.1667 147.5,59.5 Z"/></g>
<g><path style="opacity:0.004" fill="#000000" d="M 149.5,63.5 C 149.167,63.5 148.833,63.5 148.5,63.5C 148.833,60.8333 149.167,60.8333 149.5,63.5 Z"/></g>
<g><path style="opacity:0.004" fill="#000000" d="M 149.5,63.5 C 150.629,65.6282 150.796,67.9615 150,70.5C 149.503,68.1902 149.337,65.8568 149.5,63.5 Z"/></g>
<g><path style="opacity:0.004" fill="#000000" d="M 159.5,75.5 C 158.833,74.1667 158.833,74.1667 159.5,75.5 Z"/></g>
<g><path style="opacity:0.004" fill="#000000" d="M 159.5,76.5 C 159.5,76.1667 159.5,75.8333 159.5,75.5C 162.167,75.8333 162.167,76.1667 159.5,76.5 Z"/></g>
<g><path style="opacity:0.004" fill="#000000" d="M 112.5,79.5 C 112.897,78.475 113.563,78.3083 114.5,79C 113.906,79.4643 113.239,79.631 112.5,79.5 Z"/></g>
<g><path style="opacity:0.004" fill="#000000" d="M 112.5,79.5 C 112.5,79.8333 112.5,80.1667 112.5,80.5C 111.83,80.0187 111.83,79.6853 112.5,79.5 Z"/></g>
<g><path style="opacity:1" fill="#38ad48" d="M 154.5,77.5 C 155.5,77.5 156.5,77.5 157.5,77.5C 157.21,82.4567 154.543,85.1234 149.5,85.5C 147.321,84.3228 144.987,83.3228 142.5,82.5C 144.27,81.236 145.937,79.736 147.5,78C 149.81,77.5034 152.143,77.3367 154.5,77.5 Z"/></g>
<g><path style="opacity:0.004" fill="#000000" d="M 169.5,81.5 C 170.601,80.4017 171.934,80.235 173.5,81C 172.207,81.49 170.873,81.6567 169.5,81.5 Z"/></g>
<g><path style="opacity:1" fill="#70c17b" d="M 123.5,80.5 C 124.514,81.6737 125.847,82.3404 127.5,82.5C 132.355,83.6907 137.355,83.6907 142.5,82.5C 144.987,83.3228 147.321,84.3228 149.5,85.5C 138.904,89.1614 127.904,90.3281 116.5,89C 114.677,88.0027 113.01,86.8361 111.5,85.5C 110.833,85.5 110.167,85.5 109.5,85.5C 113.502,82.3214 118.169,80.6547 123.5,80.5 Z"/></g>
<g><path style="opacity:1" fill="#2a7531" d="M 160.5,80.5 C 161.32,82.1401 162.153,83.8068 163,85.5C 164.943,84.193 166.777,84.193 168.5,85.5C 167.167,85.5 165.833,85.5 164.5,85.5C 164.806,88.3854 164.473,91.0521 163.5,93.5C 163.44,92.9569 163.107,92.6236 162.5,92.5C 158.473,94.5133 154.473,96.5133 150.5,98.5C 150.5,95.1667 150.5,91.8333 150.5,88.5C 149.5,88.5 148.5,88.5 147.5,88.5C 152.621,87.1064 156.955,84.4397 160.5,80.5 Z"/></g>
<g><path style="opacity:0.004" fill="#000000" d="M 174.5,82.5 C 175.251,81.4265 176.251,81.2599 177.5,82C 176.552,82.4828 175.552,82.6495 174.5,82.5 Z"/></g>
<g><path style="opacity:0.004" fill="#000000" d="M 105.5,85.5 C 106.833,86.1667 106.833,86.1667 105.5,85.5 Z"/></g>
<g><path style="opacity:1" fill="#37b149" d="M 168.5,85.5 C 171.692,85.4045 174.692,86.0712 177.5,87.5C 190.529,102.242 196.862,119.575 196.5,139.5C 197.149,153.377 193.649,166.044 186,177.5C 176.667,184.833 167.333,192.167 158,199.5C 152.734,206.966 150.067,215.299 150,224.5C 149.201,238.878 149.367,253.211 150.5,267.5C 140.075,270.23 129.742,270.064 119.5,267C 119,266.5 118.5,266 118,265.5C 117.441,258.751 116.608,252.084 115.5,245.5C 115.938,233.424 115.438,221.424 114,209.5C 112.961,207.254 111.794,205.087 110.5,203C 109.833,202.333 109.167,202.333 108.5,203C 110.625,204.737 111.458,206.904 111,209.5C 99.3733,203.599 92.04,194.266 89,181.5C 81.7167,150.114 89.5501,123.281 112.5,101C 114.197,100.616 115.863,100.782 117.5,101.5C 114.241,104.019 112.574,107.352 112.5,111.5C 120.574,113.124 126.574,110.458 130.5,103.5C 142.692,103.707 153.692,100.374 163.5,93.5C 164.473,91.0521 164.806,88.3854 164.5,85.5C 165.833,85.5 167.167,85.5 168.5,85.5 Z"/></g>
<g><path style="opacity:0.004" fill="#000000" d="M 187.5,86.5 C 188.833,87.1667 188.833,87.1667 187.5,86.5 Z"/></g>
<g><path style="opacity:0.004" fill="#000000" d="M 189.5,87.5 C 190.833,88.1667 190.833,88.1667 189.5,87.5 Z"/></g>
<g><path style="opacity:0.004" fill="#000000" d="M 106.5,88.5 C 107.613,89.9464 107.78,91.6131 107,93.5C 106.506,91.8659 106.34,90.1992 106.5,88.5 Z"/></g>
<g><path style="opacity:1" fill="#37b048" d="M 109.5,85.5 C 110.167,85.5 110.833,85.5 111.5,85.5C 112.595,88.7348 114.928,90.5682 118.5,91C 128.34,91.948 138.007,91.1146 147.5,88.5C 148.5,88.5 149.5,88.5 150.5,88.5C 150.5,91.8333 150.5,95.1667 150.5,98.5C 144.026,100.691 137.359,102.024 130.5,102.5C 123.929,102.128 117.595,100.795 111.5,98.5C 111.577,94.038 110.91,89.7047 109.5,85.5 Z"/></g>
<g><path style="opacity:1" fill="#3d4728" d="M 154.5,77.5 C 155.209,76.596 156.209,76.2627 157.5,76.5C 157.833,76.5 158.167,76.5 158.5,76.5C 158.527,78.1993 159.194,79.5326 160.5,80.5C 156.955,84.4397 152.621,87.1064 147.5,88.5C 138.007,91.1146 128.34,91.948 118.5,91C 114.928,90.5682 112.595,88.7348 111.5,85.5C 113.01,86.8361 114.677,88.0027 116.5,89C 127.904,90.3281 138.904,89.1614 149.5,85.5C 154.543,85.1234 157.21,82.4567 157.5,77.5C 156.5,77.5 155.5,77.5 154.5,77.5 Z"/></g>
<g><path style="opacity:1" fill="#277b33" d="M 177.5,87.5 C 194.636,93.6999 204.136,106.033 206,124.5C 208.358,141.286 207.692,157.952 204,174.5C 200.721,181.791 195.888,187.958 189.5,193C 184.833,196.333 180.167,199.667 175.5,203C 174.833,203.667 174.167,203.667 173.5,203C 175.663,201.002 177.33,198.668 178.5,196C 178.15,194.743 177.483,194.409 176.5,195C 165.133,204.734 159.133,217.068 158.5,232C 159.889,242.787 160.556,253.62 160.5,264.5C 156.988,264.924 153.655,265.924 150.5,267.5C 149.367,253.211 149.201,238.878 150,224.5C 150.067,215.299 152.734,206.966 158,199.5C 167.333,192.167 176.667,184.833 186,177.5C 193.649,166.044 197.149,153.377 196.5,139.5C 196.862,119.575 190.529,102.242 177.5,87.5 Z"/></g>
<g><path style="opacity:0.999" fill="#97d5a1" d="M 117.5,101.5 C 121.631,103.183 125.964,103.85 130.5,103.5C 126.574,110.458 120.574,113.124 112.5,111.5C 112.574,107.352 114.241,104.019 117.5,101.5 Z"/></g>
<g><path style="opacity:0.004" fill="#000000" d="M 205.5,111.5 C 205.369,110.761 205.536,110.094 206,109.5C 206.692,110.437 206.525,111.103 205.5,111.5 Z"/></g>
<g><path style="opacity:0.004" fill="#000000" d="M 207.5,114.5 C 206.475,114.103 206.308,113.437 207,112.5C 207.464,113.094 207.631,113.761 207.5,114.5 Z"/></g>
<g><path style="opacity:0.004" fill="#000000" d="M 207.5,114.5 C 208.598,115.601 208.765,116.934 208,118.5C 207.51,117.207 207.343,115.873 207.5,114.5 Z"/></g>
<g><path style="opacity:0.004" fill="#000000" d="M 208.5,119.5 C 209.573,120.251 209.74,121.251 209,122.5C 208.517,121.552 208.351,120.552 208.5,119.5 Z"/></g>
<g><path style="opacity:0.004" fill="#000000" d="M 209.5,123.5 C 210.613,124.946 210.78,126.613 210,128.5C 209.506,126.866 209.34,125.199 209.5,123.5 Z"/></g>
<g><path style="opacity:0.004" fill="#000000" d="M 88.5,124.5 C 89.525,124.897 89.6917,125.563 89,126.5C 88.5357,125.906 88.369,125.239 88.5,124.5 Z"/></g>
<g><path style="opacity:1" fill="#431a16" d="M 138.5,126.5 C 136.696,138.846 141.696,143.679 153.5,141C 156.023,139.64 158.023,137.807 159.5,135.5C 160.317,133.031 160.817,130.365 161,127.5C 161.671,126.748 162.504,126.414 163.5,126.5C 168.691,130.646 169.691,135.646 166.5,141.5C 165.849,140.909 165.182,140.243 164.5,139.5C 163.893,139.624 163.56,139.957 163.5,140.5C 151.395,143.611 139.061,145.611 126.5,146.5C 122.818,146.665 119.152,146.499 115.5,146C 118.036,145.661 120.536,145.161 123,144.5C 124.03,144.164 124.53,143.497 124.5,142.5C 127.925,139.271 129.258,135.271 128.5,130.5C 128.439,128.408 127.439,126.908 125.5,126C 125.833,125.667 126.167,125.333 126.5,125C 128.5,124.833 130.5,124.667 132.5,124.5C 134.952,124.539 136.952,125.206 138.5,126.5 Z"/></g>
<g><path style="opacity:1" fill="#f2e530" d="M 159.5,135.5 C 158.023,137.807 156.023,139.64 153.5,141C 141.696,143.679 136.696,138.846 138.5,126.5C 144.215,124.45 150.215,123.95 156.5,125C 159.231,127.897 160.231,131.397 159.5,135.5 Z"/></g>
<g><path style="opacity:0.004" fill="#000000" d="M 88.5,129.5 C 87.475,129.103 87.3083,128.437 88,127.5C 88.4643,128.094 88.631,128.761 88.5,129.5 Z"/></g>
<g><path style="opacity:1" fill="#f2e430" d="M 128.5,130.5 C 129.258,135.271 127.925,139.271 124.5,142.5C 112.913,146.79 107.746,142.79 109,130.5C 115.775,125.695 122.275,125.695 128.5,130.5 Z"/></g>
<g><path style="opacity:0.004" fill="#000000" d="M 210.5,129.5 C 211.634,131.966 211.801,134.633 211,137.5C 210.503,134.854 210.336,132.187 210.5,129.5 Z"/></g>
<g><path style="opacity:0.004" fill="#000000" d="M 86.5,130.5 C 87.525,130.897 87.6917,131.563 87,132.5C 86.5357,131.906 86.369,131.239 86.5,130.5 Z"/></g>
<g><path style="opacity:1" fill="#3b1a13" d="M 118.5,132.5 C 119.649,132.791 120.316,133.624 120.5,135C 119.706,138.122 118.706,138.122 117.5,135C 117.743,134.098 118.077,133.265 118.5,132.5 Z"/></g>
<g><path style="opacity:0.004" fill="#000000" d="M 83.5,141.5 C 84.6129,142.946 84.7796,144.613 84,146.5C 83.5065,144.866 83.3398,143.199 83.5,141.5 Z"/></g>
<g><path style="opacity:0.004" fill="#000000" d="M 211.5,141.5 C 212.641,144.64 212.808,147.973 212,151.5C 211.502,148.183 211.335,144.85 211.5,141.5 Z"/></g>
<g><path style="opacity:1" fill="#97d6a0" d="M 112.5,126.5 C 105.865,128.246 101.031,132.246 98,138.5C 97.0932,144.017 98.9265,148.35 103.5,151.5C 102.859,158.165 101.525,164.665 99.5,171C 97.6332,171.711 96.1332,171.211 95,169.5C 91.7914,163.886 90.7914,157.886 92,151.5C 94.2684,139.139 99.1017,127.972 106.5,118C 108.441,117.257 110.274,117.424 112,118.5C 112.497,121.146 112.664,123.813 112.5,126.5 Z"/></g>
<g><path style="opacity:1" fill="#3f2517" d="M 163.5,126.5 C 162.504,126.414 161.671,126.748 161,127.5C 160.817,130.365 160.317,133.031 159.5,135.5C 160.231,131.397 159.231,127.897 156.5,125C 150.215,123.95 144.215,124.45 138.5,126.5C 136.952,125.206 134.952,124.539 132.5,124.5C 130.5,124.667 128.5,124.833 126.5,125C 126.167,125.333 125.833,125.667 125.5,126C 127.439,126.908 128.439,128.408 128.5,130.5C 122.275,125.695 115.775,125.695 109,130.5C 107.746,142.79 112.913,146.79 124.5,142.5C 124.53,143.497 124.03,144.164 123,144.5C 120.536,145.161 118.036,145.661 115.5,146C 119.152,146.499 122.818,146.665 126.5,146.5C 119.314,149.765 112.481,149.098 106,144.5C 105.02,141.092 103.853,137.758 102.5,134.5C 97.1074,142.808 99.1074,148.642 108.5,152C 125.41,152.091 142.077,150.091 158.5,146C 160.641,144.692 162.641,143.192 164.5,141.5C 164.376,140.893 164.043,140.56 163.5,140.5C 163.56,139.957 163.893,139.624 164.5,139.5C 165.182,140.243 165.849,140.909 166.5,141.5C 160.803,147.245 153.803,150.412 145.5,151C 133.218,152.947 120.884,153.947 108.5,154C 106.807,153.153 105.14,152.32 103.5,151.5C 98.9265,148.35 97.0932,144.017 98,138.5C 101.031,132.246 105.865,128.246 112.5,126.5C 127.313,123.182 142.313,122.016 157.5,123C 159.91,123.6 161.91,124.766 163.5,126.5 Z"/></g>
<g><path style="opacity:0.999" fill="#18451d" d="M 126.5,146.5 C 139.061,145.611 151.395,143.611 163.5,140.5C 164.043,140.56 164.376,140.893 164.5,141.5C 162.641,143.192 160.641,144.692 158.5,146C 142.077,150.091 125.41,152.091 108.5,152C 99.1074,148.642 97.1074,142.808 102.5,134.5C 103.853,137.758 105.02,141.092 106,144.5C 112.481,149.098 119.314,149.765 126.5,146.5 Z"/></g>
<g><path style="opacity:1" fill="#4e2d16" d="M 147.5,129.5 C 148.5,129.5 149.5,129.5 150.5,129.5C 150.5,131.167 150.5,132.833 150.5,134.5C 149.5,134.5 148.5,134.5 147.5,134.5C 147.5,132.833 147.5,131.167 147.5,129.5 Z"/></g>
<g><path style="opacity:0.004" fill="#000000" d="M 82.5,147.5 C 83.6378,150.304 83.8045,153.304 83,156.5C 82.502,153.518 82.3354,150.518 82.5,147.5 Z"/></g>
<g><path style="opacity:0.004" fill="#000000" d="M 210.5,155.5 C 211.634,157.966 211.801,160.633 211,163.5C 210.503,160.854 210.336,158.187 210.5,155.5 Z"/></g>
<g><path style="opacity:0.004" fill="#000000" d="M 82.5,164.5 C 83.6378,167.304 83.8045,170.304 83,173.5C 82.502,170.518 82.3354,167.518 82.5,164.5 Z"/></g>
<g><path style="opacity:0.004" fill="#000000" d="M 209.5,164.5 C 210.613,165.946 210.78,167.613 210,169.5C 209.506,167.866 209.34,166.199 209.5,164.5 Z"/></g>
<g><path style="opacity:0.004" fill="#000000" d="M 208.5,174.5 C 208.343,173.127 208.51,171.793 209,170.5C 209.765,172.066 209.598,173.399 208.5,174.5 Z"/></g>
<g><path style="opacity:0.004" fill="#000000" d="M 83.5,174.5 C 84.5983,175.601 84.765,176.934 84,178.5C 83.51,177.207 83.3433,175.873 83.5,174.5 Z"/></g>
<g><path style="opacity:0.004" fill="#000000" d="M 207.5,174.5 C 207.833,174.5 208.167,174.5 208.5,174.5C 208.737,175.791 208.404,176.791 207.5,177.5C 207.5,176.5 207.5,175.5 207.5,174.5 Z"/></g>
<g><path style="opacity:0.997" fill="#461d18" d="M 136.5,175.5 C 137.447,184.78 137.78,194.114 137.5,203.5C 134.921,203.865 132.588,203.865 130.5,203.5C 130.369,202.624 130.702,201.957 131.5,201.5C 132.891,202.645 134.224,202.645 135.5,201.5C 134.675,200.614 133.675,200.281 132.5,200.5C 132.5,192.167 132.5,183.833 132.5,175.5C 133.833,175.5 135.167,175.5 136.5,175.5 Z"/></g>
<g><path style="opacity:0.004" fill="#000000" d="M 206.5,177.5 C 206.833,177.5 207.167,177.5 207.5,177.5C 207.167,180.167 206.833,180.167 206.5,177.5 Z"/></g>
<g><path style="opacity:0.004" fill="#000000" d="M 84.5,179.5 C 85.5735,180.251 85.7401,181.251 85,182.5C 84.5172,181.552 84.3505,180.552 84.5,179.5 Z"/></g>
<g><path style="opacity:0.004" fill="#000000" d="M 205.5,180.5 C 206.833,181.167 206.833,181.833 205.5,182.5C 205.5,181.833 205.5,181.167 205.5,180.5 Z"/></g>
<g><path style="opacity:0.992" fill="#34381d" d="M 136.5,175.5 C 135.167,175.5 133.833,175.5 132.5,175.5C 132.5,183.833 132.5,192.167 132.5,200.5C 133.675,200.281 134.675,200.614 135.5,201.5C 134.224,202.645 132.891,202.645 131.5,201.5C 130.702,201.957 130.369,202.624 130.5,203.5C 129.698,202.048 129.198,200.382 129,198.5C 128.5,190.507 128.334,182.507 128.5,174.5C 131.385,174.194 134.052,174.527 136.5,175.5 Z"/></g>
<g><path style="opacity:0.004" fill="#000000" d="M 204.5,182.5 C 204.833,182.5 205.167,182.5 205.5,182.5C 205.315,183.17 204.981,183.17 204.5,182.5 Z"/></g>
<g><path style="opacity:0.004" fill="#000000" d="M 85.5,183.5 C 86.525,183.897 86.6917,184.563 86,185.5C 85.5357,184.906 85.369,184.239 85.5,183.5 Z"/></g>
<g><path style="opacity:0.004" fill="#000000" d="M 201.5,186.5 C 201.833,186.5 202.167,186.5 202.5,186.5C 202.315,187.17 201.981,187.17 201.5,186.5 Z"/></g>
<g><path style="opacity:0.008" fill="#000000" d="M 200.5,187.5 C 200.833,187.5 201.167,187.5 201.5,187.5C 201.315,188.17 200.981,188.17 200.5,187.5 Z"/></g>
<g><path style="opacity:0.008" fill="#000000" d="M 199.5,188.5 C 199.833,188.5 200.167,188.5 200.5,188.5C 200.315,189.17 199.981,189.17 199.5,188.5 Z"/></g>
<g><path style="opacity:0.008" fill="#000000" d="M 198.5,189.5 C 198.833,189.5 199.167,189.5 199.5,189.5C 199.315,190.17 198.981,190.17 198.5,189.5 Z"/></g>
<g><path style="opacity:0.008" fill="#000000" d="M 197.5,190.5 C 197.833,190.5 198.167,190.5 198.5,190.5C 198.315,191.17 197.981,191.17 197.5,190.5 Z"/></g>
<g><path style="opacity:0.008" fill="#000000" d="M 196.5,191.5 C 196.833,191.5 197.167,191.5 197.5,191.5C 197.315,192.17 196.981,192.17 196.5,191.5 Z"/></g>
<g><path style="opacity:0.008" fill="#000000" d="M 195.5,192.5 C 195.833,192.5 196.167,192.5 196.5,192.5C 196.315,193.17 195.981,193.17 195.5,192.5 Z"/></g>
<g><path style="opacity:0.008" fill="#000000" d="M 194.5,193.5 C 194.833,193.5 195.167,193.5 195.5,193.5C 195.315,194.17 194.981,194.17 194.5,193.5 Z"/></g>
<g><path style="opacity:0.008" fill="#000000" d="M 193.5,194.5 C 193.833,194.5 194.167,194.5 194.5,194.5C 194.315,195.17 193.981,195.17 193.5,194.5 Z"/></g>
<g><path style="opacity:0.004" fill="#000000" d="M 192.5,195.5 C 192.833,195.5 193.167,195.5 193.5,195.5C 193.315,196.17 192.981,196.17 192.5,195.5 Z"/></g>
<g><path style="opacity:0.004" fill="#000000" d="M 191.5,196.5 C 191.833,196.5 192.167,196.5 192.5,196.5C 192.315,197.17 191.981,197.17 191.5,196.5 Z"/></g>
<g><path style="opacity:0.004" fill="#000000" d="M 189.5,198.5 C 189.5,198.167 189.5,197.833 189.5,197.5C 190.167,197.5 190.833,197.5 191.5,197.5C 191.158,198.338 190.492,198.672 189.5,198.5 Z"/></g>
<g><path style="opacity:0.008" fill="#000000" d="M 188.5,198.5 C 188.833,198.5 189.167,198.5 189.5,198.5C 189.315,199.17 188.981,199.17 188.5,198.5 Z"/></g>
<g><path style="opacity:0.004" fill="#000000" d="M 187.5,199.5 C 187.833,199.5 188.167,199.5 188.5,199.5C 188.315,200.17 187.981,200.17 187.5,199.5 Z"/></g>
<g><path style="opacity:0.004" fill="#000000" d="M 186.5,200.5 C 186.833,200.5 187.167,200.5 187.5,200.5C 187.315,201.17 186.981,201.17 186.5,200.5 Z"/></g>
<g><path style="opacity:0.004" fill="#000000" d="M 184.5,202.5 C 184.5,202.167 184.5,201.833 184.5,201.5C 185.167,201.5 185.833,201.5 186.5,201.5C 186.158,202.338 185.492,202.672 184.5,202.5 Z"/></g>
<g><path style="opacity:0.004" fill="#000000" d="M 183.5,202.5 C 183.833,202.5 184.167,202.5 184.5,202.5C 184.315,203.17 183.981,203.17 183.5,202.5 Z"/></g>
<g><path style="opacity:0.004" fill="#000000" d="M 181.5,204.5 C 181.5,204.167 181.5,203.833 181.5,203.5C 182.167,203.5 182.833,203.5 183.5,203.5C 183.158,204.338 182.492,204.672 181.5,204.5 Z"/></g>
<g><path style="opacity:0.004" fill="#000000" d="M 180.5,204.5 C 180.833,204.5 181.167,204.5 181.5,204.5C 181.315,205.17 180.981,205.17 180.5,204.5 Z"/></g>
<g><path style="opacity:0.004" fill="#000000" d="M 178.5,206.5 C 178.5,206.167 178.5,205.833 178.5,205.5C 179.167,205.5 179.833,205.5 180.5,205.5C 180.158,206.338 179.492,206.672 178.5,206.5 Z"/></g>
<g><path style="opacity:0.004" fill="#000000" d="M 176.5,207.5 C 176.5,207.167 176.5,206.833 176.5,206.5C 177.167,206.5 177.833,206.5 178.5,206.5C 178.158,207.338 177.492,207.672 176.5,207.5 Z"/></g>
<g><path style="opacity:0.004" fill="#000000" d="M 174.5,208.5 C 174.5,208.167 174.5,207.833 174.5,207.5C 175.167,207.5 175.833,207.5 176.5,207.5C 176.158,208.338 175.492,208.672 174.5,208.5 Z"/></g>
<g><path style="opacity:0.004" fill="#000000" d="M 172.5,209.5 C 172.5,209.167 172.5,208.833 172.5,208.5C 173.167,208.5 173.833,208.5 174.5,208.5C 174.158,209.338 173.492,209.672 172.5,209.5 Z"/></g>
<g><path style="opacity:0.006" fill="#000000" d="M 170.5,210.5 C 170.5,210.167 170.5,209.833 170.5,209.5C 171.167,209.5 171.833,209.5 172.5,209.5C 172.158,210.338 171.492,210.672 170.5,210.5 Z"/></g>
<g><path style="opacity:0.008" fill="#000000" d="M 169.5,210.5 C 169.833,210.5 170.167,210.5 170.5,210.5C 170.315,211.17 169.981,211.17 169.5,210.5 Z"/></g>
<g><path style="opacity:0.855" fill="#2a1711" d="M 147.5,60.5 C 147.263,61.791 147.596,62.791 148.5,63.5C 148.335,66.8499 148.502,70.1832 149,73.5C 149.333,73.1667 149.667,72.8333 150,72.5C 152.405,73.2744 154.905,73.7744 157.5,74C 154.447,74.1786 151.447,74.6786 148.5,75.5C 148.667,75.8333 148.833,76.1667 149,76.5C 151.937,75.1834 154.77,75.1834 157.5,76.5C 156.209,76.2627 155.209,76.596 154.5,77.5C 152.143,77.3367 149.81,77.5034 147.5,78C 145.937,79.736 144.27,81.236 142.5,82.5C 137.355,83.6907 132.355,83.6907 127.5,82.5C 131.6,82.7633 135.6,82.4299 139.5,81.5C 142.841,80.1586 145.175,77.8253 146.5,74.5C 146.253,73.2867 145.586,72.62 144.5,72.5C 146.421,70.1824 146.754,67.5158 145.5,64.5C 140.986,65.6098 136.653,66.9432 132.5,68.5C 128.116,68.1744 123.783,68.5078 119.5,69.5C 120.279,72.5445 121.613,75.2111 123.5,77.5C 122.375,78.3478 122.375,79.3478 123.5,80.5C 118.169,80.6547 113.502,82.3214 109.5,85.5C 110.91,89.7047 111.577,94.038 111.5,98.5C 117.595,100.795 123.929,102.128 130.5,102.5C 137.359,102.024 144.026,100.691 150.5,98.5C 154.473,96.5133 158.473,94.5133 162.5,92.5C 163.107,92.6236 163.44,92.9569 163.5,93.5C 153.692,100.374 142.692,103.707 130.5,103.5C 125.964,103.85 121.631,103.183 117.5,101.5C 115.863,100.782 114.197,100.616 112.5,101C 89.5501,123.281 81.7167,150.114 89,181.5C 92.04,194.266 99.3733,203.599 111,209.5C 111.458,206.904 110.625,204.737 108.5,203C 109.167,202.333 109.833,202.333 110.5,203C 111.794,205.087 112.961,207.254 114,209.5C 115.438,221.424 115.938,233.424 115.5,245.5C 114.671,237.343 114.171,229.01 114,220.5C 113.5,233.829 113.333,247.163 113.5,260.5C 112.669,246.006 112.169,231.339 112,216.5C 111.333,212.5 110.667,212.5 110,216.5C 109.727,214.899 109.227,213.399 108.5,212C 109.738,212.077 110.738,211.911 111.5,211.5C 105.985,209.151 101.151,205.817 97,201.5C 95.8687,202.604 95.0354,202.271 94.5,200.5C 94.7093,199.914 95.0426,199.414 95.5,199C 94.4479,197.881 93.2812,197.381 92,197.5C 89.1597,189.945 86.8263,181.945 85,173.5C 83.6359,158.602 84.8026,143.935 88.5,129.5C 91.9245,123.68 94.4245,117.68 96,111.5C 97.016,110.366 97.6827,110.699 98,112.5C 98.4652,111.069 99.2986,109.903 100.5,109C 99.5494,108.282 99.3828,107.449 100,106.5C 103.15,105.429 105.983,103.262 108.5,100C 107.424,98.2739 107.257,96.4406 108,94.5C 108.649,97.9374 109.149,98.104 109.5,95C 108.993,91.7869 108.326,88.6203 107.5,85.5C 108.882,83.4514 110.548,81.7847 112.5,80.5C 115.237,79.969 117.904,79.1356 120.5,78C 119.552,77.5172 118.552,77.3505 117.5,77.5C 118.167,76.1667 118.833,74.8333 119.5,73.5C 118.325,73.719 117.325,73.3857 116.5,72.5C 117.326,71.549 117.492,70.549 117,69.5C 115.482,69.9426 114.315,69.2759 113.5,67.5C 114.94,62.8923 117.94,59.7256 122.5,58C 129.099,56.5043 135.766,56.171 142.5,57C 144.323,57.9973 145.99,59.1639 147.5,60.5 Z"/></g>
<g><path style="opacity:1" fill="#db1e22" d="M 137.5,76.5 C 139.213,77.6354 139.88,79.302 139.5,81.5C 135.6,82.4299 131.6,82.7633 127.5,82.5C 125.847,82.3404 124.514,81.6737 123.5,80.5C 122.375,79.3478 122.375,78.3478 123.5,77.5C 128.203,77.5628 132.87,77.2295 137.5,76.5 Z"/></g>
<g><path style="opacity:0.998" fill="#ad1f29" d="M 144.5,72.5 C 145.586,72.62 146.253,73.2867 146.5,74.5C 145.175,77.8253 142.841,80.1586 139.5,81.5C 139.88,79.302 139.213,77.6354 137.5,76.5C 137.5,76.1667 137.5,75.8333 137.5,75.5C 139.954,74.7729 142.287,73.7729 144.5,72.5 Z"/></g>
<g><path style="opacity:1" fill="#37ac47" d="M 132.5,68.5 C 133.833,68.5 135.167,68.5 136.5,68.5C 136.993,70.8056 137.326,73.139 137.5,75.5C 137.5,75.8333 137.5,76.1667 137.5,76.5C 132.87,77.2295 128.203,77.5628 123.5,77.5C 121.613,75.2111 120.279,72.5445 119.5,69.5C 123.783,68.5078 128.116,68.1744 132.5,68.5 Z"/></g>
<g><path style="opacity:1" fill="#277932" d="M 144.5,72.5 C 142.287,73.7729 139.954,74.7729 137.5,75.5C 137.326,73.139 136.993,70.8056 136.5,68.5C 135.167,68.5 133.833,68.5 132.5,68.5C 136.653,66.9432 140.986,65.6098 145.5,64.5C 146.754,67.5158 146.421,70.1824 144.5,72.5 Z"/></g>
<g><path style="opacity:1" fill="#70c27c" d="M 135.5,58.5 C 135.5,60.8333 135.5,63.1667 135.5,65.5C 129.551,66.5793 123.551,66.746 117.5,66C 117.043,65.586 116.709,65.086 116.5,64.5C 121.914,59.696 128.247,57.696 135.5,58.5 Z"/></g>
<g><path style="opacity:1" fill="#37b049" d="M 135.5,58.5 C 147.46,59.6481 147.46,61.9814 135.5,65.5C 135.5,63.1667 135.5,60.8333 135.5,58.5 Z"/></g>
<g><path style="opacity:0.004" fill="#000000" d="M 110.5,219.5 C 111.661,232.994 111.827,246.66 111,260.5C 110.5,246.837 110.333,233.171 110.5,219.5 Z"/></g>
<g><path style="opacity:0.821" fill="#351915" d="M 158.5,76.5 C 158.833,76.5 159.167,76.5 159.5,76.5C 162.135,78.328 165.135,79.4947 168.5,80C 166.833,80.3333 165.167,80.6667 163.5,81C 171.783,82.2367 179.783,84.4034 187.5,87.5C 191.104,90.6015 194.604,93.9349 198,97.5C 198.667,96.1667 199.333,96.1667 200,97.5C 200.492,98.549 200.326,99.549 199.5,100.5C 201.797,104.1 203.797,107.767 205.5,111.5C 211.018,132.349 211.685,153.349 207.5,174.5C 206.596,175.209 206.263,176.209 206.5,177.5C 205.596,178.209 205.263,179.209 205.5,180.5C 204.662,180.842 204.328,181.508 204.5,182.5C 203.167,182.833 203.167,183.167 204.5,183.5C 204.573,185.027 203.906,186.027 202.5,186.5C 202.167,185.167 201.833,185.167 201.5,186.5C 200.833,186.5 200.5,186.833 200.5,187.5C 199.833,187.5 199.5,187.833 199.5,188.5C 198.833,188.5 198.5,188.833 198.5,189.5C 197.833,189.5 197.5,189.833 197.5,190.5C 196.833,190.5 196.5,190.833 196.5,191.5C 195.833,191.5 195.5,191.833 195.5,192.5C 194.833,192.5 194.5,192.833 194.5,193.5C 193.833,193.5 193.5,193.833 193.5,194.5C 192.833,194.5 192.5,194.833 192.5,195.5C 191.833,195.5 191.5,195.833 191.5,196.5C 190.508,196.328 189.842,196.662 189.5,197.5C 188.833,197.5 188.5,197.833 188.5,198.5C 187.833,198.5 187.5,198.833 187.5,199.5C 186.833,199.5 186.5,199.833 186.5,200.5C 185.508,200.328 184.842,200.662 184.5,201.5C 183.833,201.5 183.5,201.833 183.5,202.5C 182.508,202.328 181.842,202.662 181.5,203.5C 180.833,203.5 180.5,203.833 180.5,204.5C 179.508,204.328 178.842,204.662 178.5,205.5C 177.508,205.328 176.842,205.662 176.5,206.5C 175.508,206.328 174.842,206.662 174.5,207.5C 173.508,207.328 172.842,207.662 172.5,208.5C 171.508,208.328 170.842,208.662 170.5,209.5C 169.833,209.5 169.5,209.833 169.5,210.5C 168.883,210.611 168.383,210.944 168,211.5C 167.232,223.199 167.565,234.865 169,246.5C 169.83,234.518 170.33,234.518 170.5,246.5C 174.437,246.207 178.27,246.54 182,247.5C 190.579,241.541 198.246,242.541 205,250.5C 206.666,249.66 206.833,250.16 205.5,252C 206.099,253.622 206.766,255.122 207.5,256.5C 207.354,260.519 207.021,264.519 206.5,268.5C 203.966,270.916 203.966,273.25 206.5,275.5C 207.326,278.485 208.659,281.151 210.5,283.5C 210.263,284.791 210.596,285.791 211.5,286.5C 211.263,287.791 211.596,288.791 212.5,289.5C 212.205,291.735 212.539,293.735 213.5,295.5C 213.5,296.833 213.5,298.167 213.5,299.5C 207.833,299.5 202.167,299.5 196.5,299.5C 196.737,298.209 196.404,297.209 195.5,296.5C 195.706,293.505 195.04,290.838 193.5,288.5C 192.955,286.407 192.122,284.407 191,282.5C 190.667,283.167 190.333,283.833 190,284.5C 188.951,282.893 187.451,282.227 185.5,282.5C 185.649,283.552 185.483,284.552 185,285.5C 183.869,284.396 183.035,284.729 182.5,286.5C 183.028,288.336 183.694,290.003 184.5,291.5C 184.263,292.791 184.596,293.791 185.5,294.5C 185.5,296.167 185.5,297.833 185.5,299.5C 184.5,299.5 183.5,299.5 182.5,299.5C 180.284,294.025 179.451,288.359 180,282.5C 180.785,280.714 181.951,279.214 183.5,278C 180.567,275.736 178.4,272.902 177,269.5C 176.646,264.662 176.48,259.995 176.5,255.5C 172.176,258.804 169.343,263.137 168,268.5C 167.191,278.626 166.691,288.626 166.5,298.5C 165.473,288.856 165.307,279.189 166,269.5C 167.061,262.776 170.228,257.276 175.5,253C 172.854,252.503 170.187,252.336 167.5,252.5C 164.041,257.105 161.375,262.272 159.5,268C 153.11,269.84 146.776,271.34 140.5,272.5C 138.5,272.5 136.5,272.5 134.5,272.5C 134.167,272.5 133.833,272.5 133.5,272.5C 126.031,272.45 126.031,273.784 133.5,276.5C 133.5,277.5 133.5,278.5 133.5,279.5C 132.5,279.5 131.5,279.5 130.5,279.5C 128.847,285.437 127.181,291.437 125.5,297.5C 127.698,297.12 129.365,297.787 130.5,299.5C 127.167,299.5 123.833,299.5 120.5,299.5C 123.459,292.792 126.125,285.959 128.5,279C 127,277.5 125.5,276 124,274.5C 123.667,274.833 123.333,275.167 123,275.5C 122.508,274.451 122.674,273.451 123.5,272.5C 118.287,269.963 114.954,265.963 113.5,260.5C 113.333,247.163 113.5,233.829 114,220.5C 114.171,229.01 114.671,237.343 115.5,245.5C 116.608,252.084 117.441,258.751 118,265.5C 118.5,266 119,266.5 119.5,267C 129.742,270.064 140.075,270.23 150.5,267.5C 153.655,265.924 156.988,264.924 160.5,264.5C 160.556,253.62 159.889,242.787 158.5,232C 159.133,217.068 165.133,204.734 176.5,195C 177.483,194.409 178.15,194.743 178.5,196C 177.33,198.668 175.663,201.002 173.5,203C 174.167,203.667 174.833,203.667 175.5,203C 180.167,199.667 184.833,196.333 189.5,193C 195.888,187.958 200.721,181.791 204,174.5C 207.692,157.952 208.358,141.286 206,124.5C 204.136,106.033 194.636,93.6999 177.5,87.5C 174.692,86.0712 171.692,85.4045 168.5,85.5C 166.777,84.193 164.943,84.193 163,85.5C 162.153,83.8068 161.32,82.1401 160.5,80.5C 159.194,79.5326 158.527,78.1993 158.5,76.5 Z"/></g>
<g><path style="opacity:1" fill="#1f5e28" d="M 192.5,248.5 C 202.184,249.378 206.017,254.711 204,264.5C 201.002,274.072 194.835,277.738 185.5,275.5C 195.55,272.076 199.384,265.076 197,254.5C 195.668,252.34 194.168,250.34 192.5,248.5 Z"/></g>
<g><path style="opacity:0.997" fill="#545253" d="M 163.5,246.5 C 165.89,246.685 166.89,248.018 166.5,250.5C 166.418,253.093 165.252,255.093 163,256.5C 162.253,253.076 162.42,249.743 163.5,246.5 Z"/></g>
<g><path style="opacity:1" fill="#267a33" d="M 192.5,248.5 C 194.168,250.34 195.668,252.34 197,254.5C 199.384,265.076 195.55,272.076 185.5,275.5C 177.023,269.907 175.356,262.574 180.5,253.5C 183.203,248.974 187.203,247.308 192.5,248.5 Z"/></g>
<g><path style="opacity:0.005" fill="#000000" d="M 207.5,256.5 C 207.343,255.127 207.51,253.793 208,252.5C 208.765,254.066 208.598,255.399 207.5,256.5 Z"/></g>
<g><path style="opacity:0.004" fill="#000000" d="M 208.5,257.5 C 209.613,258.946 209.78,260.613 209,262.5C 208.506,260.866 208.34,259.199 208.5,257.5 Z"/></g>
<g><path style="opacity:1" fill="#267933" d="M 182.5,299.5 C 177.167,299.5 171.833,299.5 166.5,299.5C 166.5,299.167 166.5,298.833 166.5,298.5C 166.691,288.626 167.191,278.626 168,268.5C 169.343,263.137 172.176,258.804 176.5,255.5C 176.48,259.995 176.646,264.662 177,269.5C 178.4,272.902 180.567,275.736 183.5,278C 181.951,279.214 180.785,280.714 180,282.5C 179.451,288.359 180.284,294.025 182.5,299.5 Z"/></g>
<g><path style="opacity:0.004" fill="#000000" d="M 111.5,261.5 C 112.525,261.897 112.692,262.563 112,263.5C 111.536,262.906 111.369,262.239 111.5,261.5 Z"/></g>
<g><path style="opacity:0.004" fill="#000000" d="M 112.5,264.5 C 113.833,265.167 113.833,265.167 112.5,264.5 Z"/></g>
<g><path style="opacity:0.005" fill="#000000" d="M 207.5,264.5 C 208.573,265.251 208.74,266.251 208,267.5C 207.517,266.552 207.351,265.552 207.5,264.5 Z"/></g>
<g><path style="opacity:1" fill="#37af49" d="M 166.5,298.5 C 166.5,298.833 166.5,299.167 166.5,299.5C 158.5,299.5 150.5,299.5 142.5,299.5C 141.069,292.911 140.069,286.244 139.5,279.5C 139.56,277.079 139.893,274.746 140.5,272.5C 146.776,271.34 153.11,269.84 159.5,268C 161.375,262.272 164.041,257.105 167.5,252.5C 170.187,252.336 172.854,252.503 175.5,253C 170.228,257.276 167.061,262.776 166,269.5C 165.307,279.189 165.473,288.856 166.5,298.5 Z"/></g>
<g><path style="opacity:0.004" fill="#000000" d="M 206.5,268.5 C 207.525,268.897 207.692,269.563 207,270.5C 206.536,269.906 206.369,269.239 206.5,268.5 Z"/></g>
<g><path style="opacity:0.914" fill="#28702f" d="M 133.5,272.5 C 133.5,273.833 133.5,275.167 133.5,276.5C 126.031,273.784 126.031,272.45 133.5,272.5 Z"/></g>
<g><path style="opacity:1" fill="#97d4a0" d="M 134.5,272.5 C 136.5,272.5 138.5,272.5 140.5,272.5C 139.893,274.746 139.56,277.079 139.5,279.5C 140.069,286.244 141.069,292.911 142.5,299.5C 140.167,299.5 137.833,299.5 135.5,299.5C 134.893,290.513 134.56,281.513 134.5,272.5 Z"/></g>
<g><path style="opacity:0.004" fill="#000000" d="M 206.5,274.5 C 207.833,275.167 207.833,275.167 206.5,274.5 Z"/></g>
<g><path style="opacity:1" fill="#464445" d="M 200.5,274.5 C 202.701,274.858 204.035,276.192 204.5,278.5C 201.93,279.223 199.597,280.39 197.5,282C 200.409,281.716 203.242,281.883 206,282.5C 207.622,285.987 208.455,289.654 208.5,293.5C 205.61,293.278 202.943,293.945 200.5,295.5C 197.877,289.925 195.544,284.259 193.5,278.5C 196.614,278.445 198.948,277.112 200.5,274.5 Z"/></g>
<g><path style="opacity:0.004" fill="#000000" d="M 210.5,283.5 C 210.369,282.761 210.536,282.094 211,281.5C 211.692,282.437 211.525,283.103 210.5,283.5 Z"/></g>
<g><path style="opacity:0.004" fill="#000000" d="M 211.5,286.5 C 211.369,285.761 211.536,285.094 212,284.5C 212.692,285.437 212.525,286.103 211.5,286.5 Z"/></g>
<g><path style="opacity:0.005" fill="#000000" d="M 184.5,291.5 C 184.343,290.127 184.51,288.793 185,287.5C 185.765,289.066 185.598,290.399 184.5,291.5 Z"/></g>
<g><path style="opacity:0.006" fill="#000000" d="M 212.5,289.5 C 212.369,288.761 212.536,288.094 213,287.5C 213.692,288.437 213.525,289.103 212.5,289.5 Z"/></g>
<g><path style="opacity:0.004" fill="#000000" d="M 193.5,288.5 C 193.631,289.239 193.464,289.906 193,290.5C 192.308,289.563 192.475,288.897 193.5,288.5 Z"/></g>
<g><path style="opacity:1" fill="#635d5c" d="M 133.5,272.5 C 133.833,272.5 134.167,272.5 134.5,272.5C 134.56,281.513 134.893,290.513 135.5,299.5C 133.833,299.5 132.167,299.5 130.5,299.5C 129.365,297.787 127.698,297.12 125.5,297.5C 127.181,291.437 128.847,285.437 130.5,279.5C 131.5,279.5 132.5,279.5 133.5,279.5C 133.5,278.5 133.5,277.5 133.5,276.5C 133.5,275.167 133.5,273.833 133.5,272.5 Z"/></g>
<g><path style="opacity:0.005" fill="#000000" d="M 214.5,295.5 C 214.167,295.5 213.833,295.5 213.5,295.5C 213.833,288.833 214.167,288.833 214.5,295.5 Z"/></g>
<g><path style="opacity:0.004" fill="#000000" d="M 185.5,294.5 C 185.369,293.761 185.536,293.094 186,292.5C 186.692,293.437 186.525,294.103 185.5,294.5 Z"/></g>
<g><path style="opacity:0.004" fill="#000000" d="M 187.5,299.5 C 187.167,299.5 186.833,299.5 186.5,299.5C 186.833,294.167 187.167,294.167 187.5,299.5 Z"/></g>
<g><path style="opacity:0.004" fill="#000000" d="M 214.5,295.5 C 215.434,296.568 215.768,297.901 215.5,299.5C 215.167,299.5 214.833,299.5 214.5,299.5C 214.5,298.167 214.5,296.833 214.5,295.5 Z"/></g>
<g><path style="opacity:0.004" fill="#000000" d="M 195.5,296.5 C 195.5,297.5 195.5,298.5 195.5,299.5C 195.167,299.5 194.833,299.5 194.5,299.5C 194.263,298.209 194.596,297.209 195.5,296.5 Z"/></g>
<g><path style="opacity:0.006" fill="#000000" d="M 119.5,299.5 C 119.167,299.5 118.833,299.5 118.5,299.5C 118.833,296.833 119.167,296.833 119.5,299.5 Z"/></g>
</svg>
